<svg height="511pt" viewBox="-52 1 511 511.999" width="511pt" xmlns="http://www.w3.org/2000/svg"><path d="m95.765625 429.472656-7.167969 43.421875c-.363281 2.195313.257813 4.441407 1.699219 6.136719 1.4375 1.695312 3.550781 2.671875 5.773437 2.671875h215.832032.019531c4.183594 0 7.574219-3.390625 7.574219-7.574219 0-.617187-.074219-1.21875-.214844-1.792968l-7.074219-42.863282c-.601562-3.65625-3.765625-6.339844-7.472656-6.339844h-201.496094c-3.707031 0-6.871093 2.683594-7.472656 6.339844zm13.898437 8.808594h188.644532l4.667968 28.273438h-197.980468zm0 0"/><path d="m365.832031 49.914062c2.082031-3.894531 3.265625-8.339843 3.265625-13.054687v-9.089844c0-15.308593-12.457031-27.769531-27.769531-27.769531h-274.683594c-15.3125 0-27.769531 12.460938-27.769531 27.769531v9.089844c0 4.714844 1.183594 9.160156 3.265625 13.054687-23.46875 3.105469-41.640625 23.234376-41.640625 47.535157v66.652343c0 26.449219 21.519531 47.96875 47.96875 47.96875h23.402344c9.019531 35.574219 39.671875 62.609376 77.078125 66.234376v13.039062c0 12.6875 8.554687 23.40625 20.195312 26.714844v35.441406c-11.640625 3.304688-20.195312 14.027344-20.195312 26.714844v12.621094h-13.886719c-4.183594 0-7.574219 3.390624-7.574219 7.574218s3.390625 7.574219 7.574219 7.574219h177.492188c6.03125 0 11.246093 4.296875 12.394531 10.214844l14.6875 75.648437c.195312 1.015625-.25 1.742188-.53125 2.085938s-.910157.917968-1.949219.917968h-266.339844c-1.039062 0-1.667968-.574218-1.949218-.917968-.285157-.34375-.730469-1.070313-.53125-2.085938l14.6875-75.648437c1.148437-5.917969 6.359374-10.214844 12.390624-10.214844h3.988282c4.183594 0 7.574218-3.390625 7.574218-7.574219s-3.390624-7.574218-7.574218-7.574218h-3.988282c-13.265624 0-24.730468 9.453124-27.261718 22.476562l-14.6875 75.644531c-1.007813 5.199219.34375 10.527344 3.714844 14.613281 3.367187 4.085938 8.335937 6.429688 13.636718 6.429688h266.34375c5.292969 0 10.265625-2.34375 13.632813-6.429688 3.371093-4.089843 4.722656-9.414062 3.714843-14.613281l-14.6875-75.644531c-2.53125-13.023438-13.996093-22.476562-27.261718-22.476562h-53.535156v-12.621094c0-12.6875-8.554688-23.410156-20.195313-26.714844v-35.441406c11.640625-3.304688 20.195313-14.027344 20.195313-26.714844v-13.039062c37.402343-3.625 68.058593-30.660157 77.078124-66.234376h23.402344c26.453125 0 47.96875-21.519531 47.96875-47.96875v-66.648437c0-24.304687-18.171875-44.433594-41.640625-47.539063zm-296.664062 147.007813h-20.699219c-18.097656 0-32.820312-14.722656-32.820312-32.820313v-66.648437c0-18.097656 14.722656-32.820313 32.820312-32.820313h20.703125v15.144532h-20.703125c-9.746094 0-17.671875 7.929687-17.671875 17.675781v66.648437c0 9.746094 7.925781 17.675782 17.671875 17.675782h20.703125v15.144531zm0-30.292969h-20.699219c-1.394531 0-2.527344-1.132812-2.527344-2.527344v-66.648437c0-1.394531 1.132813-2.527344 2.527344-2.527344h20.699219zm154.511719 152.488282v33.324218h-39.386719v-33.324218zm20.195312 61.097656v12.621094h-79.777344v-12.621094c0-6.960938 5.660156-12.625 12.621094-12.625h54.535156c6.960938 0 12.621094 5.664062 12.621094 12.625zm-12.621094-76.246094h-54.535156c-6.960938 0-12.621094-5.664062-12.621094-12.625v-12.621094h79.777344v12.621094c0 6.960938-5.660156 12.625-12.621094 12.625zm19.1875-40.394531h-92.90625c-40.371094 0-73.214844-32.84375-73.214844-73.214844v-125.726563h15.210938c4.179688 0 7.570312-3.394531 7.570312-7.574218 0-4.183594-3.390624-7.574219-7.570312-7.574219h-32.886719c-6.960937 0-12.621093-5.664063-12.621093-12.625v-9.089844c0-6.960937 5.660156-12.621093 12.621093-12.621093h274.683594c6.960937 0 12.621094 5.664062 12.621094 12.621093v9.089844c0 6.960937-5.660157 12.625-12.621094 12.625h-206.433594c-4.183593 0-7.574219 3.390625-7.574219 7.574219 0 4.179687 3.390626 7.574218 7.574219 7.574218h188.761719v46.578126c0 4.183593 3.390625 7.574218 7.574219 7.574218 4.183593 0 7.574219-3.390625 7.574219-7.574218v-16.285157h20.699218c1.394532 0 2.527344 1.132813 2.527344 2.527344v66.648437c0 1.394532-1.132812 2.527344-2.527344 2.527344h-20.699218v-20.367187c0-4.183594-3.390626-7.574219-7.574219-7.574219-4.183594 0-7.574219 3.390625-7.574219 7.574219v44.097656c0 40.371094-32.847656 73.214844-73.214844 73.214844zm141.882813-99.472657c0 18.097657-14.722657 32.824219-32.820313 32.824219h-20.703125v-15.148437h20.703125c9.746094 0 17.671875-7.929688 17.671875-17.675782v-66.648437c0-9.746094-7.925781-17.675781-17.671875-17.675781h-20.703125v-15.144532h20.703125c18.097656 0 32.824219 14.722657 32.824219 32.820313v66.648437zm0 0"/></svg>