<?xml version="1.0" encoding="utf-8"?>
<!-- Generator: Adobe Illustrator 21.0.0, SVG Export Plug-In . SVG Version: 6.00 Build 0)  -->
<svg version="1.1" id="Layer_1" xmlns="http://www.w3.org/2000/svg" xmlns:xlink="http://www.w3.org/1999/xlink" x="0px" y="0px"
	 viewBox="0 0 32 32" style="enable-background:new 0 0 32 32;" xml:space="preserve">
<style type="text/css">
	.st0{fill:#FFFFFF;}
</style>
<path class="st0" d="M27.7,0H4.3C1.9,0,0,1.9,0,4.3v23.4C0,30.1,1.9,32,4.3,32h11.5l0-11.4h-3c-0.4,0-0.7-0.3-0.7-0.7l0-3.7
	c0-0.4,0.3-0.7,0.7-0.7h3v-3.6c0-4.1,2.5-6.4,6.2-6.4h3c0.4,0,0.7,0.3,0.7,0.7v3.1c0,0.4-0.3,0.7-0.7,0.7l-1.9,0c-2,0-2.4,1-2.4,2.4
	v3.1h4.4c0.4,0,0.7,0.4,0.7,0.8l-0.4,3.7c0,0.4-0.3,0.6-0.7,0.6h-3.9l0,11.4h6.9c2.4,0,4.3-1.9,4.3-4.3V4.3C32,1.9,30.1,0,27.7,0z"
	/>
</svg>
