<?xml version="1.0" encoding="UTF-8" standalone="no"?>
<!-- Creator: CorelDRAW X5 -->

<svg
   xmlns:dc="http://purl.org/dc/elements/1.1/"
   xmlns:cc="http://creativecommons.org/ns#"
   xmlns:rdf="http://www.w3.org/1999/02/22-rdf-syntax-ns#"
   xmlns:svg="http://www.w3.org/2000/svg"
   xmlns="http://www.w3.org/2000/svg"
   xmlns:sodipodi="http://sodipodi.sourceforge.net/DTD/sodipodi-0.dtd"
   xmlns:inkscape="http://www.inkscape.org/namespaces/inkscape"
   xml:space="preserve"
   width="90.464912mm"
   height="72.257294mm"
   style="clip-rule:evenodd;fill-rule:evenodd;image-rendering:optimizeQuality;shape-rendering:geometricPrecision;text-rendering:geometricPrecision"
   viewBox="0 0 9250.9832 7388.883"
   version="1.1"
   id="svg6539"
   sodipodi:docname="icone-ideia.svg"
   inkscape:version="0.92.4 (5da689c313, 2019-01-14)"><metadata
   id="metadata6543"><rdf:RDF><cc:Work
       rdf:about=""><dc:format>image/svg+xml</dc:format><dc:type
         rdf:resource="http://purl.org/dc/dcmitype/StillImage" /><dc:title></dc:title></cc:Work></rdf:RDF></metadata><sodipodi:namedview
   pagecolor="#ffffff"
   bordercolor="#666666"
   borderopacity="1"
   objecttolerance="10"
   gridtolerance="10"
   guidetolerance="10"
   inkscape:pageopacity="0"
   inkscape:pageshadow="2"
   inkscape:window-width="1366"
   inkscape:window-height="705"
   id="namedview6541"
   showgrid="false"
   fit-margin-top="0"
   fit-margin-left="0"
   fit-margin-right="0"
   fit-margin-bottom="0"
   inkscape:zoom="0.38469436"
   inkscape:cx="190.73081"
   inkscape:cy="-33.591428"
   inkscape:window-x="-8"
   inkscape:window-y="-8"
   inkscape:window-maximized="1"
   inkscape:current-layer="Camada_x0020_1" />
 <defs
   id="defs6382">
  <style
   type="text/css"
   id="style6380">
   <![CDATA[
    .str2 {stroke:#373435;stroke-width:89.8336;stroke-linecap:round;stroke-linejoin:round}
    .str5 {stroke:#373435;stroke-width:89.8439;stroke-linecap:round;stroke-linejoin:round}
    .str1 {stroke:#373435;stroke-width:89.8541;stroke-linecap:round;stroke-linejoin:round}
    .str4 {stroke:#373435;stroke-width:89.8541;stroke-linecap:round;stroke-linejoin:round}
    .str0 {stroke:black;stroke-width:89.8541;stroke-linecap:round;stroke-linejoin:round}
    .str3 {stroke:#373435;stroke-width:89.8643;stroke-linecap:round;stroke-linejoin:round}
    .fil5 {fill:none}
    .fil1 {fill:#0A4A90}
    .fil3 {fill:#0D86FF}
    .fil2 {fill:#0E6BCE}
    .fil0 {fill:#1ADCFF}
    .fil8 {fill:#50ACFF}
    .fil6 {fill:#FBCD00}
    .fil4 {fill:#373435;fill-rule:nonzero}
    .fil9 {fill:#373435;fill-rule:nonzero}
    .fil7 {fill:#FEFEFE;fill-rule:nonzero}
   ]]>
  </style>
 </defs>
 <g
   id="Camada_x0020_1"
   transform="translate(-4925.5085,-1.2755359)">
  <metadata
   id="CorelCorpID_0Corel-Layer" />
  
  <path
   class="fil0"
   d="m 5522,4684 c 128,90 196,228 189,384 -7,157 -87,288 -222,366 l -341,197 c -136,78 -215,210 -222,366 -7,157 61,294 189,384 l 1166,816 c 145,102 325,109 478,21 l 667,-385 c 153,-89 333,-81 478,21 l 648,454 c 145,102 325,109 478,21 l 1310,-756 158,111 c 145,102 325,109 478,21 l 2978,-1719 c 136,-78 215,-210 222,-366 7,-157 -61,-294 -189,-384 L 10801,2005 c -145,-102 -325,-109 -478,-21 L 7468,3632 7246,3476 c -145,-102 -325,-109 -478,-21 -362,209 -724,418 -1086,627 -205,68 -369,455 -158,602 z"
   id="path6387"
   inkscape:connector-curvature="0"
   style="fill:#1adcff" />
  
  
  
  
  <polygon
   class="fil2 str0"
   points="8495,3962 7841,4357 7827,4348 7595,4482 7599,5685 9075,4795 9075,3628 "
   id="polygon6397"
   style="fill:#0e6bce;stroke:#000000;stroke-width:89.85410309;stroke-linecap:round;stroke-linejoin:round" />
  <polygon
   class="fil1 str0"
   points="7034,4089 6488,3707 6488,4908 7599,5685 7595,4482 "
   id="polygon6399"
   style="fill:#0a4a90;stroke:#000000;stroke-width:89.85410309;stroke-linecap:round;stroke-linejoin:round" />
  <polygon
   class="fil3 str0"
   points="6938,3447 6488,3707 7034,4089 7266,3955 6938,3726 "
   id="polygon6401"
   style="fill:#0d86ff;stroke:#000000;stroke-width:89.85410309;stroke-linecap:round;stroke-linejoin:round" />
  <polygon
   class="fil3 str0"
   points="7034,4057 7595,4450 7827,4316 7266,3923 "
   id="polygon6403"
   style="fill:#0d86ff;stroke:#000000;stroke-width:89.85410309;stroke-linecap:round;stroke-linejoin:round" />
  <polygon
   class="fil1 str0"
   points="9709,4309 9709,5510 10820,6288 10816,5084 "
   id="polygon6405"
   style="fill:#0a4a90;stroke:#000000;stroke-width:89.85410309;stroke-linecap:round;stroke-linejoin:round" />
  <polygon
   class="fil2 str0"
   points="12295,4230 10816,5084 10820,6288 12295,5397 12295,4737 "
   id="polygon6407"
   style="fill:#0e6bce;stroke:#000000;stroke-width:89.85410309;stroke-linecap:round;stroke-linejoin:round" />
  <g
   id="g6411">
   <path
   class="fil4"
   d="m 7569,4519 -1107,-775 52,-74 1107,775 -3,76 -48,-2 z m 0,0 52,-74 2,1 2,1 2,2 2,2 1,2 1,2 1,2 1,2 1,2 1,2 1,2 1,2 1,2 1,2 1,2 v 2 2 2 2 2 2 2 2 2 l -1,2 -1,2 -1,2 -1,2 -1,2 -1,2 -1,2 -1,2 -1,2 -1,2 -2,2 -2,2 -2,1 -2,1 -2,1 -2,1 -2,1 -2,1 -2,1 -2,1 -2,1 -2,1 -2,1 h -2 -2 -2 -2 -2 -2 -2 -2 -2 l -2,-1 -2,-1 -2,-1 -2,-1 -2,-1 -2,-1 -2,-1 -2,-1 z m 1528,-852 -1480,854 -45,-78 1480,-854 48,2 z m 0,0 -45,-78 2,-1 2,-1 2,-1 2,-1 2,-1 2,-1 h 2 2 2 2 2 2 2 2 2 l 2,1 2,1 2,1 2,1 2,1 2,1 2,1 2,1 2,1 2,1 2,1 2,2 2,2 1,2 1,2 1,2 1,2 1,2 1,2 1,2 1,2 1,2 1,2 v 2 2 2 2 2 2 2 2 2 l -1,2 -1,2 -1,2 -1,2 -1,2 -1,2 -1,2 -1,2 -1,2 -1,2 -1,2 -2,2 -2,2 -2,1 -2,1 -2,1 -2,1 z m -1104,-851 1107,775 -52,74 -1107,-775 3,-76 48,2 z m 0,0 -52,74 -2,-1 -2,-1 -2,-2 -2,-2 -1,-2 -1,-2 -1,-2 -1,-2 -1,-2 -1,-2 -1,-2 -1,-2 -1,-2 -1,-2 -1,-2 v -2 -2 -2 -2 -2 -2 -2 -2 -2 l 1,-2 1,-2 1,-2 1,-2 1,-2 1,-2 1,-2 1,-2 1,-2 1,-2 2,-2 2,-2 2,-1 2,-1 2,-1 2,-1 2,-1 2,-1 2,-1 2,-1 2,-1 2,-1 2,-1 h 2 2 2 2 2 2 2 2 2 l 2,1 2,1 2,1 2,1 2,1 2,1 2,1 2,1 z m -1528,852 1480,-854 45,78 -1480,854 -48,-2 z m 0,0 45,78 -2,1 -2,1 -2,1 -2,1 -2,1 -2,1 h -2 -2 -2 -2 -2 -2 -2 -2 -2 l -2,-1 -2,-1 -2,-1 -2,-1 -2,-1 -2,-1 -2,-1 -2,-1 -2,-1 -2,-1 -2,-1 -2,-2 -2,-2 -1,-2 -1,-2 -1,-2 -1,-2 -1,-2 -1,-2 -1,-2 -1,-2 -1,-2 -1,-2 v -2 -2 -2 -2 -2 -2 -2 -2 -2 l 1,-2 1,-2 1,-2 1,-2 1,-2 1,-2 1,-2 1,-2 1,-2 1,-2 1,-2 2,-2 2,-2 2,-1 2,-1 2,-1 2,-1 z"
   id="path6409"
   inkscape:connector-curvature="0"
   style="fill:#373435;fill-rule:nonzero" />
  </g>
  
  
  
  
  
  
  
  
  
  
  
  
  
  
  
  
  
  
  
  
  
  
  
  
  <polygon
   class="fil1 str1"
   points="12295,4230 11188,3455 9709,4309 10816,5084 "
   id="polygon6461"
   style="fill:#0a4a90;stroke:#373435;stroke-width:89.85410309;stroke-linecap:round;stroke-linejoin:round" />
  <polyline
   class="fil5 str1"
   points="10820,6288 12295,5397 12295,4230 10816,5084 10820,6288 9709,5510 9709,4309 10816,5084 "
   id="polyline6463"
   style="fill:none;stroke:#373435;stroke-width:89.85410309;stroke-linecap:round;stroke-linejoin:round" />
  <g
   id="g6467">
   <path
   class="fil4"
   d="m 6533,3707 h -90 v -2 -2 -2 -2 l 1,-2 1,-2 1,-2 1,-2 1,-2 1,-2 1,-2 1,-2 1,-2 1,-2 1,-2 1,-2 2,-1 2,-1 2,-1 2,-1 2,-1 2,-1 2,-1 2,-1 2,-1 2,-1 2,-1 2,-1 h 2 2 2 2 2 2 2 2 l 2,1 2,1 2,1 2,1 2,1 2,1 2,1 2,1 2,1 2,1 2,1 2,1 1,2 1,2 1,2 1,2 1,2 1,2 1,2 1,2 1,2 1,2 1,2 1,2 v 2 2 2 2 z m -90,1201 V 3707 h 90 v 1201 l -71,37 z m 0,0 h 90 v 2 2 2 2 l -1,2 -1,2 -1,2 -1,2 -1,2 -1,2 -1,2 -1,2 -1,2 -1,2 -1,2 -1,2 -2,1 -2,1 -2,1 -2,1 -2,1 -2,1 -2,1 -2,1 -2,1 -2,1 -2,1 -2,1 h -2 -2 -2 -2 -2 -2 -2 -2 l -2,-1 -2,-1 -2,-1 -2,-1 -2,-1 -2,-1 -2,-1 -2,-1 -2,-1 -2,-1 -2,-1 -2,-1 -1,-2 -1,-2 -1,-2 -1,-2 -1,-2 -1,-2 -1,-2 -1,-2 -1,-2 -1,-2 -1,-2 -1,-2 v -2 -2 -2 -2 z m 1130,815 -1111,-778 52,-74 1111,778 19,37 z m 0,0 52,-74 2,1 2,1 2,2 2,2 1,2 1,2 1,2 1,2 1,2 1,2 1,2 1,2 1,2 1,2 1,2 v 2 2 2 2 2 2 2 2 2 l -1,2 -1,2 -1,2 -1,2 -1,2 -1,2 -1,2 -1,2 -1,2 -1,2 -2,2 -2,2 -2,1 -2,1 -2,1 -2,1 -2,1 -2,1 -2,1 -2,1 -2,1 -2,1 -2,1 h -2 -2 -2 -2 -2 -2 -2 -2 -2 l -2,-1 -2,-1 -2,-1 -2,-1 -2,-1 -2,-1 -2,-1 -2,-1 z m 67,-1241 4,1204 h -90 l -4,-1204 22,-39 67,39 z m 0,0 h -90 v -2 -2 -2 -2 -2 l 1,-2 1,-2 1,-2 1,-2 1,-2 1,-2 1,-2 1,-2 1,-2 1,-2 1,-2 2,-1 2,-1 2,-1 2,-1 2,-1 2,-1 2,-1 2,-1 2,-1 2,-1 2,-1 2,-1 h 2 2 2 2 2 2 2 2 2 l 2,1 2,1 2,1 2,1 2,1 2,1 2,1 2,1 2,1 2,1 2,1 1,2 1,2 1,2 1,2 1,2 1,2 1,2 1,2 1,2 1,2 1,2 1,2 v 2 2 2 2 z m 1457,-815 -1480,854 -45,-78 1480,-854 67,39 z m 0,0 -45,-78 2,-1 2,-1 2,-1 2,-1 2,-1 2,-1 h 2 2 2 2 2 2 2 2 2 l 2,1 2,1 2,1 2,1 2,1 2,1 2,1 2,1 2,1 2,1 2,1 2,2 2,2 1,2 1,2 1,2 1,2 1,2 1,2 1,2 1,2 1,2 1,2 v 2 2 2 2 2 2 2 2 2 l -1,2 -1,2 -1,2 -1,2 -1,2 -1,2 -1,2 -1,2 -1,2 -1,2 -1,2 -2,2 -2,2 -2,1 -2,1 -2,1 -2,1 z m -67,1128 V 3628 h 90 v 1167 l -22,38 z m 0,0 h 90 v 2 2 2 2 l -1,2 -1,2 -1,2 -1,2 -1,2 -1,2 -1,2 -1,2 -1,2 -1,2 -1,2 -1,2 -2,1 -2,1 -2,1 -2,1 -2,1 -2,1 -2,1 -2,1 -2,1 -2,1 -2,1 -2,1 h -2 -2 -2 -2 -2 -2 -2 -2 l -2,-1 -2,-1 -2,-1 -2,-1 -2,-1 -2,-1 -2,-1 -2,-1 -2,-1 -2,-1 -2,-1 -2,-1 -1,-2 -1,-2 -1,-2 -1,-2 -1,-2 -1,-2 -1,-2 -1,-2 -1,-2 -1,-2 -1,-2 -1,-2 v -2 -2 -2 -2 z m -1454,852 1476,-891 46,77 -1476,891 z m 0,0 46,77 -2,1 -2,1 -2,1 -2,1 -2,1 -2,1 h -2 -2 -2 -2 -2 -2 -2 -2 -2 -2 l -2,-1 -2,-1 -2,-1 -2,-1 -2,-1 -2,-1 -2,-1 -2,-1 -2,-1 -2,-1 -2,-2 -2,-2 -1,-2 -1,-2 -1,-2 -1,-2 -1,-2 -1,-2 -1,-2 -1,-2 -1,-2 -1,-2 v -2 -2 -2 -2 -2 -2 -2 -2 -2 -2 l 1,-2 1,-2 1,-2 1,-2 1,-2 1,-2 1,-2 1,-2 1,-2 1,-2 2,-2 2,-2 2,-1 2,-1 2,-1 2,-1 z"
   id="path6465"
   inkscape:connector-curvature="0"
   style="fill:#373435;fill-rule:nonzero" />
  </g>
  
  
  
  
  
  
  <polygon
   class="fil1 str4"
   points="12295,4737 12501,4881 12295,4230 "
   id="polygon6492"
   style="fill:#0a4a90;stroke:#373435;stroke-width:89.85410309;stroke-linecap:round;stroke-linejoin:round" />
  <polygon
   class="fil2 str1"
   points="9332,4981 9679,4289 10831,5084 10492,5783 "
   id="polygon6494"
   style="fill:#0e6bce;stroke:#373435;stroke-width:89.85410309;stroke-linecap:round;stroke-linejoin:round" />
  <polygon
   class="fil1 str0"
   points="7391,3036 6938,2719 6938,3694 7266,3923 7827,4316 7841,4326 7837,3348 "
   id="polygon6496"
   style="fill:#0a4a90;stroke:#000000;stroke-width:89.85410309;stroke-linecap:round;stroke-linejoin:round" />
  <polygon
   class="fil2 str0"
   points="7837,3348 7841,4326 9039,3602 9039,2654 "
   id="polygon6498"
   style="fill:#0e6bce;stroke:#000000;stroke-width:89.85410309;stroke-linecap:round;stroke-linejoin:round" />
  <g
   id="g6504">
   <polygon
   class="fil3"
   points="9039,2654 8140,2025 6938,2719 7837,3348 "
   id="polygon6500"
   style="fill:#0d86ff" />
   <path
   id="path6502"
   class="fil4"
   d="m 7812,3385 -899,-630 52,-74 899,630 -3,76 -48,-2 z m 0,0 52,-74 2,1 2,1 2,2 2,2 1,2 1,2 1,2 1,2 1,2 1,2 1,2 1,2 1,2 1,2 1,2 v 2 2 2 2 2 2 2 2 2 l -1,2 -1,2 -1,2 -1,2 -1,2 -1,2 -1,2 -1,2 -1,2 -1,2 -2,2 -2,2 -2,1 -2,1 -2,1 -2,1 -2,1 -2,1 -2,1 -2,1 -2,1 -2,1 -2,1 h -2 -2 -2 -2 -2 -2 -2 -2 -2 l -2,-1 -2,-1 -2,-1 -2,-1 -2,-1 -2,-1 -2,-1 -2,-1 z m 1250,-692 -1202,694 -45,-78 1202,-694 48,2 z m 0,0 -45,-78 2,-1 2,-1 2,-1 2,-1 2,-1 2,-1 h 2 2 2 2 2 2 2 2 2 l 2,1 2,1 2,1 2,1 2,1 2,1 2,1 2,1 2,1 2,1 2,1 2,2 2,2 1,2 1,2 1,2 1,2 1,2 1,2 1,2 1,2 1,2 1,2 v 2 2 2 2 2 2 2 2 2 l -1,2 -1,2 -1,2 -1,2 -1,2 -1,2 -1,2 -1,2 -1,2 -1,2 -1,2 -2,2 -2,2 -2,1 -2,1 -2,1 -2,1 z m -896,-705 899,630 -52,74 -899,-630 3,-76 48,2 z m 0,0 -52,74 -2,-1 -2,-1 -2,-2 -2,-2 -1,-2 -1,-2 -1,-2 -1,-2 -1,-2 -1,-2 -1,-2 -1,-2 -1,-2 -1,-2 -1,-2 v -2 -2 -2 -2 -2 -2 -2 -2 -2 l 1,-2 1,-2 1,-2 1,-2 1,-2 1,-2 1,-2 1,-2 1,-2 1,-2 2,-2 2,-2 2,-1 2,-1 2,-1 2,-1 2,-1 2,-1 2,-1 2,-1 2,-1 2,-1 2,-1 h 2 2 2 2 2 2 2 2 2 l 2,1 2,1 2,1 2,1 2,1 2,1 2,1 2,1 z m -1250,692 1202,-694 45,78 -1202,694 -48,-2 z m 0,0 45,78 -2,1 -2,1 -2,1 -2,1 -2,1 -2,1 h -2 -2 -2 -2 -2 -2 -2 -2 -2 l -2,-1 -2,-1 -2,-1 -2,-1 -2,-1 -2,-1 -2,-1 -2,-1 -2,-1 -2,-1 -2,-1 -2,-2 -2,-2 -1,-2 -1,-2 -1,-2 -1,-2 -1,-2 -1,-2 -1,-2 -1,-2 -1,-2 -1,-2 v -2 -2 -2 -2 -2 -2 -2 -2 -2 l 1,-2 1,-2 1,-2 1,-2 1,-2 1,-2 1,-2 1,-2 1,-2 1,-2 1,-2 2,-2 2,-2 2,-1 2,-1 2,-1 2,-1 z"
   inkscape:connector-curvature="0"
   style="fill:#373435;fill-rule:nonzero" />
  </g>
  <g
   id="g6508">
   <path
   class="fil4"
   d="m 6983,2719 h -90 v -2 -2 -2 -2 l 1,-2 1,-2 1,-2 1,-2 1,-2 1,-2 1,-2 1,-2 1,-2 1,-2 1,-2 1,-2 2,-1 2,-1 2,-1 2,-1 2,-1 2,-1 2,-1 2,-1 2,-1 2,-1 2,-1 2,-1 h 2 2 2 2 2 2 2 2 l 2,1 2,1 2,1 2,1 2,1 2,1 2,1 2,1 2,1 2,1 2,1 2,1 1,2 1,2 1,2 1,2 1,2 1,2 1,2 1,2 1,2 1,2 1,2 1,2 v 2 2 2 2 z m -90,975 v -975 h 90 v 975 l -71,37 z m 0,0 h 90 v 2 2 2 2 l -1,2 -1,2 -1,2 -1,2 -1,2 -1,2 -1,2 -1,2 -1,2 -1,2 -1,2 -1,2 -2,1 -2,1 -2,1 -2,1 -2,1 -2,1 -2,1 -2,1 -2,1 -2,1 -2,1 -2,1 h -2 -2 -2 -2 -2 -2 -2 -2 l -2,-1 -2,-1 -2,-1 -2,-1 -2,-1 -2,-1 -2,-1 -2,-1 -2,-1 -2,-1 -2,-1 -2,-1 -1,-2 -1,-2 -1,-2 -1,-2 -1,-2 -1,-2 -1,-2 -1,-2 -1,-2 -1,-2 -1,-2 -1,-2 v -2 -2 -2 -2 z m 921,669 -902,-632 52,-74 902,632 19,37 z m 0,0 52,-74 2,1 2,1 2,2 2,2 1,2 1,2 1,2 1,2 1,2 1,2 1,2 1,2 1,2 1,2 1,2 v 2 2 2 2 2 2 2 2 2 l -1,2 -1,2 -1,2 -1,2 -1,2 -1,2 -1,2 -1,2 -1,2 -1,2 -2,2 -2,2 -2,1 -2,1 -2,1 -2,1 -2,1 -2,1 -2,1 -2,1 -2,1 -2,1 -2,1 h -2 -2 -2 -2 -2 -2 -2 -2 -2 l -2,-1 -2,-1 -2,-1 -2,-1 -2,-1 -2,-1 -2,-1 -2,-1 z m 68,-1015 3,978 h -90 l -3,-978 22,-39 67,39 z m 0,0 h -90 v -2 -2 -2 -2 -2 l 1,-2 1,-2 1,-2 1,-2 1,-2 1,-2 1,-2 1,-2 1,-2 1,-2 1,-2 2,-1 2,-1 2,-1 2,-1 2,-1 2,-1 2,-1 2,-1 2,-1 2,-1 2,-1 2,-1 h 2 2 2 2 2 2 2 2 2 l 2,1 2,1 2,1 2,1 2,1 2,1 2,1 2,1 2,1 2,1 2,1 1,2 1,2 1,2 1,2 1,2 1,2 1,2 1,2 1,2 1,2 1,2 1,2 v 2 2 2 2 z m 1179,-655 -1202,694 -45,-78 1202,-694 67,39 z m 0,0 -45,-78 2,-1 2,-1 2,-1 2,-1 2,-1 2,-1 h 2 2 2 2 2 2 2 2 2 l 2,1 2,1 2,1 2,1 2,1 2,1 2,1 2,1 2,1 2,1 2,1 2,2 2,2 1,2 1,2 1,2 1,2 1,2 1,2 1,2 1,2 1,2 1,2 v 2 2 2 2 2 2 2 2 2 l -1,2 -1,2 -1,2 -1,2 -1,2 -1,2 -1,2 -1,2 -1,2 -1,2 -1,2 -2,2 -2,2 -2,1 -2,1 -2,1 -2,1 z m -67,909 v -948 h 90 v 948 l -22,38 z m 0,0 h 90 v 2 2 2 2 l -1,2 -1,2 -1,2 -1,2 -1,2 -1,2 -1,2 -1,2 -1,2 -1,2 -1,2 -1,2 -2,1 -2,1 -2,1 -2,1 -2,1 -2,1 -2,1 -2,1 -2,1 -2,1 -2,1 -2,1 h -2 -2 -2 -2 -2 -2 -2 -2 l -2,-1 -2,-1 -2,-1 -2,-1 -2,-1 -2,-1 -2,-1 -2,-1 -2,-1 -2,-1 -2,-1 -2,-1 -1,-2 -1,-2 -1,-2 -1,-2 -1,-2 -1,-2 -1,-2 -1,-2 -1,-2 -1,-2 -1,-2 -1,-2 v -2 -2 -2 -2 z m -1177,685 1198,-723 46,77 -1198,723 z m 0,0 46,77 -2,1 -2,1 -2,1 -2,1 -2,1 -2,1 h -2 -2 -2 -2 -2 -2 -2 -2 -2 -2 l -2,-1 -2,-1 -2,-1 -2,-1 -2,-1 -2,-1 -2,-1 -2,-1 -2,-1 -2,-1 -2,-2 -2,-2 -1,-2 -1,-2 -1,-2 -1,-2 -1,-2 -1,-2 -1,-2 -1,-2 -1,-2 -1,-2 v -2 -2 -2 -2 -2 -2 -2 -2 -2 -2 l 1,-2 1,-2 1,-2 1,-2 1,-2 1,-2 1,-2 1,-2 1,-2 1,-2 2,-2 2,-2 2,-1 2,-1 2,-1 2,-1 z"
   id="path6506"
   inkscape:connector-curvature="0"
   style="fill:#373435;fill-rule:nonzero" />
  </g>
  <line
   class="fil5 str1"
   x1="7382"
   y1="3041"
   x2="8596"
   y2="2340"
   id="line6510"
   style="fill:none;stroke:#373435;stroke-width:89.85410309;stroke-linecap:round;stroke-linejoin:round" />
  <line
   class="fil5 str1"
   x1="7020"
   y1="4065"
   x2="7266"
   y2="3923"
   id="line6512"
   style="fill:none;stroke:#373435;stroke-width:89.85410309;stroke-linecap:round;stroke-linejoin:round" />
  <polyline
   class="fil5 str1"
   points="11188,3455 11188,4653 11347,4760 "
   id="polyline6514"
   style="fill:none;stroke:#373435;stroke-width:89.85410309;stroke-linecap:round;stroke-linejoin:round" />
  <line
   class="fil5 str1"
   x1="11188"
   y1="4653"
   x2="10656"
   y2="4960"
   id="line6516"
   style="fill:none;stroke:#373435;stroke-width:89.85410309;stroke-linecap:round;stroke-linejoin:round" />
  <path
   class="fil2 str1"
   d="m 10339,3748 c 38,85 363,449 577,404 214,-45 538,-197 556,-335 18,-138 2,-902 2,-902 0,0 -432,359 -622,359 -190,0 -497,-322 -497,-322 5,177 -42,737 -15,796 z"
   id="path6518"
   inkscape:connector-curvature="0"
   style="fill:#0e6bce;stroke:#373435;stroke-width:89.85410309;stroke-linecap:round;stroke-linejoin:round" />
  <path
   class="fil6 str1"
   d="m 10345,3342 c 27,61 357,283 571,238 214,-45 543,-234 561,-373 9,-72 4,-153 2,-369 -7,-786 699,-639 699,-1586 0,-666 -554,-1206 -1236,-1206 -683,0 -1236,540 -1236,1206 0,815 676,789 638,1585 -10,209 -26,445 1,506 z"
   id="path6520"
   inkscape:connector-curvature="0"
   style="fill:#fbcd00;stroke:#373435;stroke-width:89.85410309;stroke-linecap:round;stroke-linejoin:round" />
  <path
   class="fil5 str1"
   d="m 11479,3573 c 0,0 -425,318 -615,317 -190,0 -556,-292 -556,-292"
   id="path6522"
   inkscape:connector-curvature="0"
   style="fill:none;stroke:#373435;stroke-width:89.85410309;stroke-linecap:round;stroke-linejoin:round" />
  <g
   id="g6526">
   <path
   class="fil4"
   d="m 10666,4019 -81,40 -1,-2 -1,-2 -1,-2 -1,-2 -1,-2 v -2 -2 -2 -2 -2 -2 -2 -2 -2 l 1,-2 1,-2 1,-2 1,-2 1,-2 1,-2 1,-2 1,-2 1,-2 1,-2 1,-2 2,-2 2,-1 2,-1 2,-1 2,-1 2,-1 2,-1 2,-1 2,-1 2,-1 2,-1 2,-1 h 2 2 2 2 2 2 2 2 2 l 2,1 2,1 2,1 2,1 2,1 2,1 2,1 2,1 2,1 2,1 2,1 2,2 1,2 1,2 1,2 1,2 1,2 1,2 z m 238,207 -4,90 v 0 l -19,-2 -19,-3 -18,-4 -17,-6 -17,-7 -16,-8 -15,-8 -15,-9 -14,-10 -14,-10 -13,-11 -12,-11 -12,-11 -11,-12 -11,-12 -10,-12 -10,-12 -9,-11 -8,-11 -8,-11 -7,-10 -7,-10 -6,-9 -5,-9 -5,-8 -4,-7 -4,-7 -3,-6 -2,-4 -2,-3 -1,-2 -1,-1 81,-40 v 0 l 1,2 1,3 2,4 3,5 3,6 4,6 4,7 5,8 5,8 6,9 6,9 7,9 7,10 8,10 8,10 9,10 9,10 9,9 10,9 10,9 10,8 10,8 11,7 11,7 11,6 11,5 11,4 11,4 11,3 12,2 12,1 v 0 z m 268,-216 69,58 -10,12 -10,12 -10,12 -10,12 -10,11 -10,11 -10,11 -10,11 -10,11 -10,11 -10,10 -10,10 -10,10 -10,9 -10,9 -10,9 -10,8 -10,8 -11,8 -11,7 -11,7 -11,6 -11,6 -11,6 -11,5 -11,4 -11,4 -11,3 -12,2 -12,2 -12,1 h -12 l 4,-90 h 5 5 l 6,-1 6,-1 6,-2 7,-2 7,-3 7,-3 8,-4 8,-4 8,-5 8,-5 9,-6 9,-6 9,-7 9,-7 9,-8 9,-8 9,-8 9,-9 9,-9 9,-9 10,-10 10,-10 10,-10 10,-10 10,-11 10,-11 10,-11 10,-11 10,-11 10,-11 z m 69,58 -69,-58 2,-2 2,-2 2,-2 2,-1 2,-1 2,-1 2,-1 2,-1 2,-1 2,-1 2,-1 2,-1 2,-1 h 2 2 2 2 2 2 2 2 2 2 l 2,1 2,1 2,1 2,1 2,1 2,1 2,1 2,1 2,1 2,2 2,2 2,2 1,2 1,2 1,2 1,2 1,2 1,2 1,2 1,2 1,2 1,2 v 2 2 2 2 2 2 2 2 2 2 l -1,2 -1,2 -1,2 -1,2 -1,2 -1,2 -1,2 -1,2 -1,2 z"
   id="path6524"
   inkscape:connector-curvature="0"
   style="fill:#373435;fill-rule:nonzero" />
  </g>
  <polygon
   class="fil5 str5"
   points="10907,3250 10770,1789 11129,1582 10974,3220 "
   id="polygon6528"
   style="fill:none;stroke:#373435;stroke-width:89.84390259;stroke-linecap:round;stroke-linejoin:round" />
  
  
  
  
 </g>
</svg>