<?xml version="1.0" encoding="UTF-8" standalone="no"?>
<!-- Creator: CorelDRAW X5 -->

<svg
   xmlns:dc="http://purl.org/dc/elements/1.1/"
   xmlns:cc="http://creativecommons.org/ns#"
   xmlns:rdf="http://www.w3.org/1999/02/22-rdf-syntax-ns#"
   xmlns:svg="http://www.w3.org/2000/svg"
   xmlns="http://www.w3.org/2000/svg"
   xmlns:sodipodi="http://sodipodi.sourceforge.net/DTD/sodipodi-0.dtd"
   xmlns:inkscape="http://www.inkscape.org/namespaces/inkscape"
   xml:space="preserve"
   width="90.464912mm"
   height="58.060478mm"
   style="clip-rule:evenodd;fill-rule:evenodd;image-rendering:optimizeQuality;shape-rendering:geometricPrecision;text-rendering:geometricPrecision"
   viewBox="0 0 9250.9832 5937.1457"
   version="1.1"
   id="svg6539"
   sodipodi:docname="icone-conhecimento.svg"
   inkscape:version="0.92.4 (5da689c313, 2019-01-14)"><metadata
   id="metadata6543"><rdf:RDF><cc:Work
       rdf:about=""><dc:format>image/svg+xml</dc:format><dc:type
         rdf:resource="http://purl.org/dc/dcmitype/StillImage" /><dc:title></dc:title></cc:Work></rdf:RDF></metadata><sodipodi:namedview
   pagecolor="#ffffff"
   bordercolor="#666666"
   borderopacity="1"
   objecttolerance="10"
   gridtolerance="10"
   guidetolerance="10"
   inkscape:pageopacity="0"
   inkscape:pageshadow="2"
   inkscape:window-width="1366"
   inkscape:window-height="705"
   id="namedview6541"
   showgrid="false"
   inkscape:zoom="0.38469436"
   inkscape:cx="-212.87171"
   inkscape:cy="-80.561735"
   inkscape:window-x="-8"
   inkscape:window-y="-8"
   inkscape:window-maximized="1"
   inkscape:current-layer="Camada_x0020_1"
   fit-margin-top="0"
   fit-margin-left="0"
   fit-margin-right="0"
   fit-margin-bottom="0" />
 <defs
   id="defs6382">
  <style
   type="text/css"
   id="style6380">
   <![CDATA[
    .str2 {stroke:#373435;stroke-width:89.8336;stroke-linecap:round;stroke-linejoin:round}
    .str5 {stroke:#373435;stroke-width:89.8439;stroke-linecap:round;stroke-linejoin:round}
    .str1 {stroke:#373435;stroke-width:89.8541;stroke-linecap:round;stroke-linejoin:round}
    .str4 {stroke:#373435;stroke-width:89.8541;stroke-linecap:round;stroke-linejoin:round}
    .str0 {stroke:black;stroke-width:89.8541;stroke-linecap:round;stroke-linejoin:round}
    .str3 {stroke:#373435;stroke-width:89.8643;stroke-linecap:round;stroke-linejoin:round}
    .fil5 {fill:none}
    .fil1 {fill:#0A4A90}
    .fil3 {fill:#0D86FF}
    .fil2 {fill:#0E6BCE}
    .fil0 {fill:#1ADCFF}
    .fil8 {fill:#50ACFF}
    .fil6 {fill:#FBCD00}
    .fil4 {fill:#373435;fill-rule:nonzero}
    .fil9 {fill:#373435;fill-rule:nonzero}
    .fil7 {fill:#FEFEFE;fill-rule:nonzero}
   ]]>
  </style>
 </defs>
 <g
   id="Camada_x0020_1"
   transform="translate(-10921.508,-9390.0485)">
  <metadata
   id="CorelCorpID_0Corel-Layer" />
  
  
  <path
   class="fil0"
   d="m 11518,12621 c 128,90 196,228 189,384 -7,157 -87,288 -222,366 l -341,197 c -136,78 -215,210 -222,366 -7,157 61,294 189,384 l 1166,816 c 145,102 325,109 478,21 l 667,-385 c 153,-89 333,-81 478,21 l 648,454 c 145,102 325,109 478,21 l 1310,-756 158,111 c 145,102 325,109 478,21 l 2978,-1719 c 136,-78 215,-210 222,-366 7,-157 -61,-294 -189,-384 L 16797,9942 c -145,-102 -325,-109 -478,-21 l -2855,1648 -222,-156 c -145,-102 -325,-109 -478,-21 -362,209 -724,418 -1086,627 -205,68 -369,455 -158,602 z"
   id="path6389"
   inkscape:connector-curvature="0"
   style="fill:#1adcff" />
  
  
  
  
  
  
  
  
  
  
  
  
  
  
  
  
  
  
  
  
  
  
  
  
  
  
  
  
  
  
  
  <path
   class="fil6 str0"
   d="m 13425,12119 c 7,-252 195,-563 418,-692 l 884,-511 867,-502 c 97,-56 182,-65 246,-36 -65,-36 -269,-143 -395,-162 -152,-22 -1924,1033 -1924,1033 0,0 -383,193 -405,713 -15,350 -30,778 -42,1116 -12,347 71,359 339,539 -19,-41 -28,-92 -26,-153 l 19,-667 20,-678 z"
   id="path6455"
   inkscape:connector-curvature="0"
   style="fill:#fbcd00;stroke:#000000;stroke-width:89.85410309;stroke-linecap:round;stroke-linejoin:round" />
  <path
   class="fil7 str1"
   d="m 15876,11974 c 13,-219 25,-439 38,-660 13,-222 26,-446 39,-671 14,-249 -147,-353 -360,-230 -287,166 -576,334 -867,502 -293,169 -587,340 -884,511 -223,129 -410,440 -418,692 -7,227 -13,454 -20,678 -7,223 -13,446 -19,667 -7,243 164,332 381,201 176,-106 352,-212 527,-317 174,-105 348,-210 520,-314 208,-26 515,-79 798,-108 0,0 -128,-106 -246,-224 36,-22 72,-43 108,-65 208,-126 388,-422 402,-662 z"
   id="path6457"
   inkscape:connector-curvature="0"
   style="fill:#fefefe;fill-rule:nonzero;stroke:#373435;stroke-width:89.85410309;stroke-linecap:round;stroke-linejoin:round" />
  <path
   class="fil5 str1"
   d="m 15860,10390 c 0,0 -264,-151 -416,-174 -152,-22 -1924,1033 -1924,1033 0,0 -383,193 -405,713 -15,350 -30,778 -42,1116 -14,406 101,353 491,647"
   id="path6459"
   inkscape:connector-curvature="0"
   style="fill:none;stroke:#373435;stroke-width:89.85410309;stroke-linecap:round;stroke-linejoin:round" />
  
  
  
  <path
   class="fil2 str3"
   d="m 18089,10649 21,1465 279,169 296,-163 v -819 l 287,-166 c 0,0 46,-478 -201,-669 -247,-191 -236,-32 -682,183 z"
   id="path6469"
   inkscape:connector-curvature="0"
   style="fill:#0e6bce;stroke:#373435;stroke-width:89.86430359;stroke-linecap:round;stroke-linejoin:round" />
  <path
   class="fil8 str3"
   d="m 16646,10670 c 0,0 151,-112 650,15 499,127 791,-11 791,-11 0,0 334,207 350,542 16,334 -117,403 -117,403 0,0 -670,901 -744,1138 -74,237 -931,-2088 -931,-2088 z"
   id="path6471"
   inkscape:connector-curvature="0"
   style="fill:#50acff;stroke:#373435;stroke-width:89.86430359;stroke-linecap:round;stroke-linejoin:round" />
  <g
   id="g6476">
   <path
   class="fil8"
   d="m 17084,10789 c 196,137 373,364 501,619 129,258 210,549 210,812 0,267 -83,454 -218,538 -136,85 -325,66 -532,-79 -207,-145 -392,-387 -521,-658 -128,-268 -200,-565 -190,-824 11,-255 101,-426 237,-499 135,-72 316,-47 512,90 z"
   id="path6473"
   inkscape:connector-curvature="0"
   style="fill:#50acff" />
   <path
   id="1"
   class="fil9"
   d="m 17625,11388 -80,40 v 0 l -12,-23 -12,-23 -12,-23 -13,-23 -13,-23 -13,-22 -13,-22 -14,-22 -14,-22 -14,-21 -14,-21 -15,-21 -15,-20 -15,-20 -15,-20 -15,-19 -16,-19 -16,-19 -16,-18 -16,-18 -16,-18 -16,-17 -17,-17 -17,-16 -17,-16 -17,-15 -17,-15 -17,-15 -17,-14 -17,-14 -17,-13 -18,-13 52,-74 19,14 19,14 19,15 19,15 18,16 18,16 18,17 18,17 18,17 18,18 17,18 17,19 17,19 17,19 17,20 16,20 16,20 16,21 16,21 16,21 15,22 15,22 15,22 15,23 14,23 14,23 14,23 14,24 13,24 13,24 13,24 12,24 v 0 z m 215,832 h -90 v 0 -24 l -1,-24 -1,-24 -2,-24 -2,-24 -2,-25 -3,-25 -3,-25 -4,-25 -4,-25 -5,-25 -5,-25 -5,-25 -6,-25 -6,-25 -6,-25 -7,-25 -7,-25 -8,-25 -8,-25 -8,-25 -9,-25 -9,-25 -9,-25 -10,-25 -10,-25 -10,-25 -11,-24 -11,-24 -11,-24 -11,-24 -12,-24 80,-40 12,25 12,25 12,25 11,25 11,25 11,26 10,26 10,26 10,26 9,26 9,26 9,26 8,26 8,26 8,26 7,26 7,26 6,26 6,26 6,26 5,26 5,26 4,26 4,26 3,26 3,26 3,26 2,26 2,26 1,26 1,26 v 26 0 z m -239,576 -48,-76 v 0 l 11,-7 11,-8 10,-8 10,-9 10,-9 10,-10 9,-10 9,-11 9,-12 9,-12 8,-13 8,-13 8,-14 7,-14 7,-15 7,-15 6,-16 6,-17 6,-17 5,-18 5,-18 5,-19 4,-19 4,-20 3,-20 3,-21 2,-21 2,-22 2,-22 1,-23 1,-23 v -24 h 90 v 26 l -1,25 -1,25 -2,24 -2,24 -3,23 -3,23 -4,22 -4,22 -5,21 -5,21 -6,21 -6,20 -6,20 -7,19 -7,19 -8,18 -8,18 -9,17 -9,16 -10,16 -10,15 -10,15 -11,14 -11,14 -12,13 -12,12 -13,12 -13,11 -13,11 -14,10 -14,9 v 0 z m -582,-80 52,-74 v 0 l 18,13 18,12 18,11 18,10 18,10 18,9 17,8 17,8 17,7 17,6 17,6 16,5 16,4 16,4 16,3 15,2 15,2 15,1 15,1 h 14 l 14,-1 14,-1 13,-2 13,-2 13,-3 13,-3 12,-4 12,-4 12,-5 12,-6 11,-6 11,-7 48,76 -15,9 -15,8 -15,7 -16,7 -16,6 -16,5 -17,4 -17,4 -17,3 -17,2 -18,2 -18,1 h -18 l -18,-1 -18,-1 -18,-2 -19,-3 -19,-4 -19,-4 -19,-5 -19,-6 -19,-7 -19,-7 -20,-8 -20,-9 -20,-9 -20,-10 -20,-11 -20,-12 -20,-12 -20,-13 -20,-14 v 0 z m -535,-675 81,-39 v 0 l 12,25 12,25 13,24 13,24 13,24 13,24 14,24 14,23 14,23 15,23 15,22 15,22 15,22 16,21 16,21 16,21 16,20 16,20 17,20 17,19 17,19 17,18 17,18 17,17 18,17 18,16 18,16 18,15 18,15 18,14 18,14 19,13 -52,74 -20,-14 -20,-15 -20,-16 -20,-16 -19,-17 -19,-17 -19,-18 -19,-18 -19,-19 -18,-19 -18,-19 -18,-20 -18,-20 -18,-21 -17,-21 -17,-21 -17,-22 -17,-22 -16,-22 -16,-23 -16,-23 -16,-23 -15,-24 -15,-24 -15,-24 -14,-25 -14,-25 -14,-25 -13,-25 -13,-25 -13,-26 -12,-26 v 0 z m -194,-845 90,4 v 0 l -1,23 v 24 24 l 1,24 1,24 2,25 2,25 2,25 3,25 3,25 4,25 4,25 5,25 5,25 5,26 6,26 6,26 7,26 7,26 7,26 8,26 8,26 8,26 9,26 9,25 10,25 10,25 10,25 11,25 11,25 11,25 12,25 -81,39 -12,-26 -12,-26 -11,-26 -11,-26 -11,-26 -10,-26 -10,-27 -10,-27 -9,-27 -9,-27 -8,-27 -8,-27 -8,-27 -7,-27 -7,-27 -7,-27 -6,-27 -6,-27 -5,-27 -5,-27 -4,-27 -4,-27 -3,-27 -3,-26 -3,-26 -2,-26 -2,-26 -1,-26 -1,-26 v -26 -25 l 1,-25 v 0 z m 261,-536 42,79 v 0 l -11,6 -11,7 -10,7 -10,8 -10,8 -10,9 -10,9 -9,10 -9,10 -9,11 -9,11 -8,12 -8,12 -8,13 -7,14 -7,14 -7,15 -7,15 -6,16 -6,16 -6,17 -5,17 -5,18 -4,18 -4,19 -4,20 -3,20 -3,21 -2,21 -2,22 -2,22 -1,23 -90,-4 1,-25 2,-24 2,-24 3,-23 3,-23 4,-22 4,-22 5,-21 5,-21 5,-20 6,-20 6,-19 7,-19 7,-18 8,-18 8,-17 9,-17 9,-16 9,-16 10,-15 10,-15 11,-14 11,-13 11,-13 12,-12 12,-12 13,-11 13,-11 13,-10 14,-9 14,-9 14,-8 v 0 z m 559,93 -52,74 v 0 l -18,-12 -17,-11 -17,-11 -17,-10 -17,-9 -17,-9 -17,-8 -16,-8 -16,-7 -16,-6 -16,-6 -16,-5 -15,-4 -15,-4 -15,-3 -15,-3 -15,-2 -14,-2 -14,-1 -14,-1 h -14 l -13,1 -13,1 -13,2 -13,2 -12,3 -12,3 -12,4 -12,4 -11,5 -11,5 -11,6 -42,-79 15,-7 15,-7 15,-6 15,-5 16,-5 16,-4 16,-3 16,-3 17,-2 17,-1 17,-1 h 17 l 17,1 17,1 18,2 18,3 18,3 18,4 18,5 18,5 18,6 18,7 19,7 19,8 19,9 19,9 19,10 19,10 19,11 19,12 19,12 19,13 v 0 z"
   inkscape:connector-curvature="0"
   style="fill:#373435;fill-rule:nonzero" />
  </g>
  <g
   id="g6482">
   <path
   class="fil6"
   d="m 17079,11016 c 149,105 284,277 381,471 98,196 160,418 160,617 0,203 -63,345 -166,409 -104,65 -247,50 -405,-60 -158,-110 -298,-294 -396,-500 -97,-204 -152,-429 -144,-626 8,-194 77,-324 180,-379 102,-54 240,-36 390,69 z"
   id="path6478"
   inkscape:connector-curvature="0"
   style="fill:#fbcd00" />
   <path
   id="path6480"
   class="fil9"
   d="m 17500,11467 -80,40 v 0 l -9,-18 -9,-18 -9,-17 -10,-17 -10,-17 -10,-17 -10,-17 -10,-16 -11,-16 -11,-16 -11,-16 -11,-16 -11,-15 -11,-15 -11,-15 -12,-15 -12,-14 -12,-14 -12,-14 -12,-14 -12,-13 -12,-13 -12,-13 -13,-12 -13,-12 -13,-12 -13,-11 -13,-11 -13,-11 -13,-10 -13,-10 -13,-9 52,-74 15,11 15,11 14,11 14,12 14,12 14,12 14,13 14,13 14,13 13,14 13,14 13,14 13,15 13,15 13,15 13,15 12,16 12,16 12,16 12,16 12,17 12,17 11,17 11,17 11,17 11,18 11,18 10,18 10,18 10,18 10,18 9,19 v 0 z m 164,637 h -90 v 0 -18 l -1,-18 -1,-18 -1,-18 -2,-18 -2,-19 -2,-19 -2,-19 -3,-19 -3,-19 -3,-19 -4,-19 -4,-19 -4,-19 -5,-19 -5,-19 -5,-19 -5,-19 -6,-19 -6,-19 -6,-19 -7,-19 -7,-19 -7,-19 -7,-19 -8,-19 -8,-19 -8,-18 -8,-18 -8,-18 -9,-18 -9,-18 80,-40 9,19 9,19 9,19 9,19 8,19 8,20 8,20 8,20 7,20 7,20 7,20 7,20 6,20 6,20 6,20 5,20 5,20 5,20 5,20 4,20 4,20 4,20 3,20 3,20 3,20 2,20 2,20 2,20 1,20 1,20 1,20 v 20 0 z m -187,447 -48,-76 v 0 l 8,-5 8,-6 8,-6 7,-6 7,-7 7,-7 7,-8 7,-8 6,-8 6,-9 6,-9 6,-10 6,-10 5,-11 5,-11 5,-11 5,-12 4,-12 4,-13 4,-13 4,-14 3,-14 3,-14 3,-15 2,-15 2,-16 2,-16 2,-16 1,-17 1,-17 1,-18 v -18 h 90 v 20 l -1,19 -1,19 -1,19 -2,18 -2,18 -2,18 -3,17 -3,17 -4,17 -4,16 -4,16 -5,16 -5,15 -5,15 -6,14 -6,14 -6,14 -7,13 -7,13 -8,12 -8,12 -8,12 -9,11 -9,11 -9,10 -10,10 -10,9 -10,9 -11,8 -11,8 -11,7 v 0 z m -454,-61 51,-74 v 0 l 14,9 14,9 14,8 13,8 13,7 13,7 13,6 13,6 13,5 12,5 12,4 12,4 12,3 12,3 11,2 11,2 11,1 11,1 h 11 10 10 l 10,-1 10,-1 10,-2 9,-2 9,-2 9,-3 9,-3 9,-4 8,-4 8,-4 8,-5 48,76 -12,7 -12,6 -12,6 -12,5 -13,5 -13,4 -13,4 -13,3 -14,2 -14,2 -14,1 -14,1 h -14 l -14,-1 -14,-1 -14,-2 -15,-2 -15,-3 -15,-3 -15,-4 -15,-5 -15,-5 -15,-6 -15,-6 -15,-7 -15,-7 -15,-8 -15,-8 -15,-9 -15,-10 -16,-10 -16,-11 v 0 z m -411,-518 81,-39 v 0 l 9,19 9,19 10,18 10,18 10,18 10,18 10,18 11,18 11,17 11,17 11,17 11,17 12,16 12,16 12,16 12,16 12,15 12,15 13,15 13,14 13,14 13,14 13,13 13,13 13,13 13,12 13,12 14,12 14,11 14,11 14,10 14,10 -51,74 -16,-11 -15,-12 -15,-12 -15,-12 -15,-13 -15,-13 -15,-14 -14,-14 -14,-14 -14,-15 -14,-15 -14,-15 -14,-16 -13,-16 -13,-16 -13,-16 -13,-17 -13,-17 -12,-17 -12,-17 -12,-18 -12,-18 -12,-18 -11,-18 -11,-19 -11,-19 -11,-19 -11,-19 -10,-19 -10,-19 -10,-20 -10,-20 v 0 z m -148,-647 90,4 v 0 l -1,18 v 18 18 18 l 1,18 1,18 2,19 2,19 2,19 2,19 3,19 3,19 3,19 4,19 4,19 4,19 5,19 5,19 5,19 6,19 6,19 6,19 6,19 7,19 7,19 7,19 7,19 8,19 8,19 8,19 8,19 9,19 -81,39 -9,-20 -9,-20 -9,-20 -8,-20 -8,-20 -8,-20 -8,-20 -7,-20 -7,-20 -7,-20 -6,-21 -6,-21 -6,-21 -6,-21 -5,-21 -5,-21 -5,-21 -4,-21 -4,-21 -4,-21 -3,-20 -3,-20 -3,-20 -2,-20 -2,-20 -2,-20 -1,-20 -1,-20 -1,-20 v -20 -20 l 1,-19 v 0 z m 204,-417 42,79 v 0 l -8,4 -8,5 -8,5 -7,6 -7,6 -7,6 -7,7 -7,7 -7,8 -6,8 -6,8 -6,9 -6,9 -6,10 -6,10 -5,10 -5,11 -5,11 -5,12 -4,12 -4,13 -4,13 -4,13 -3,14 -3,14 -3,15 -2,15 -2,15 -2,16 -2,16 -1,17 -1,17 -90,-4 1,-19 1,-19 2,-18 2,-18 2,-17 3,-17 3,-17 4,-16 4,-16 4,-16 5,-15 5,-15 5,-15 6,-14 6,-14 6,-13 7,-13 7,-13 7,-12 8,-12 8,-11 8,-11 9,-11 9,-10 9,-10 10,-9 10,-9 10,-8 10,-8 11,-7 11,-7 11,-6 v 0 z m 436,71 -52,74 v 0 l -13,-9 -13,-8 -13,-8 -13,-8 -13,-7 -13,-7 -12,-6 -12,-6 -12,-5 -12,-5 -12,-4 -12,-4 -11,-3 -11,-3 -11,-2 -11,-2 -11,-2 -11,-1 -10,-1 h -10 -10 -10 l -10,1 -9,1 -9,2 -9,2 -9,2 -9,3 -8,3 -8,3 -8,4 -8,4 -42,-79 11,-6 12,-5 12,-5 12,-4 12,-4 13,-3 13,-3 13,-2 13,-2 13,-1 13,-1 h 13 14 l 14,1 14,2 14,2 14,3 14,3 14,4 14,4 14,5 14,5 14,6 14,6 14,7 15,7 15,8 15,8 15,9 15,9 15,10 15,10 v 0 z"
   inkscape:connector-curvature="0"
   style="fill:#373435;fill-rule:nonzero" />
  </g>
  <path
   class="fil1 str1"
   d="m 17149,11964 430,-103 c 7,-2 -11,-183 -76,-333 -56,-131 -157,-230 -193,-283 l -352,267 191,451 z"
   id="path6484"
   inkscape:connector-curvature="0"
   style="fill:#0a4a90;stroke:#373435;stroke-width:89.85410309;stroke-linecap:round;stroke-linejoin:round" />
  <g
   id="g6490">
   <path
   class="fil1"
   d="m 17068,11532 c 42,29 80,78 107,133 28,55 45,118 45,174 0,57 -18,97 -47,115 -29,18 -70,14 -114,-17 -44,-31 -84,-83 -112,-141 -27,-58 -43,-121 -41,-177 2,-55 22,-91 51,-107 29,-15 68,-10 110,19 z"
   id="path6486"
   inkscape:connector-curvature="0"
   style="fill:#0a4a90" />
   <path
   id="path6488"
   class="fil9"
   d="m 17216,11644 -80,40 v 0 l -2,-5 -2,-5 -2,-5 -3,-5 -3,-4 -3,-4 -3,-4 -3,-4 -3,-4 -3,-4 -3,-4 -3,-4 -3,-4 -3,-4 -3,-4 -3,-4 -3,-4 -3,-4 -3,-4 -3,-3 -3,-3 -3,-3 -3,-3 -3,-3 -3,-3 -3,-3 -3,-3 -3,-3 -3,-3 -3,-2 -3,-2 -3,-2 52,-74 5,3 5,3 5,4 5,4 4,4 4,4 4,4 4,4 4,4 4,4 4,4 4,4 4,5 4,5 4,5 4,5 4,5 4,5 4,5 4,5 4,5 4,5 3,5 3,5 3,5 3,5 3,5 3,5 3,5 3,6 3,6 3,6 v 0 z m 50,194 h -90 v 0 -4 -5 -5 -5 -5 -5 l -1,-5 -1,-5 -1,-5 -1,-5 -1,-5 -1,-5 -1,-5 -1,-5 -1,-5 -1,-5 -1,-5 -1,-5 -1,-5 -2,-5 -2,-5 -2,-5 -2,-5 -2,-5 -2,-5 -2,-5 -2,-5 -2,-5 -2,-5 -2,-5 -2,-5 -2,-5 80,-40 3,6 3,6 3,6 3,6 3,6 2,6 2,6 2,6 2,6 2,6 2,6 2,6 2,6 2,6 2,6 2,6 2,6 1,6 1,6 1,6 1,6 1,6 1,6 1,6 1,6 1,6 1,6 1,6 v 6 6 6 6 0 z m -68,153 -48,-76 v 0 l 1,-1 1,-1 1,-1 1,-1 1,-1 1,-1 1,-1 1,-1 1,-1 1,-2 1,-2 1,-2 1,-2 1,-2 1,-2 1,-2 1,-2 1,-3 1,-3 1,-3 1,-3 1,-3 1,-3 1,-3 1,-4 1,-4 v -4 -4 -4 -4 -4 -4 h 90 v 6 6 6 6 l -1,6 -1,6 -1,6 -1,6 -1,6 -1,5 -1,5 -1,5 -2,5 -2,5 -2,5 -2,5 -2,5 -2,5 -2,5 -3,5 -3,4 -3,4 -3,4 -3,4 -3,4 -4,4 -4,4 -4,4 -4,3 -4,3 -4,3 -4,3 v 0 z m -164,-18 52,-74 v 0 l 3,2 3,2 3,2 3,2 3,2 3,2 3,1 3,1 3,1 3,1 2,1 2,1 2,1 2,1 h 2 2 2 2 2 2 1 1 1 1 1 1 1 1 1 1 l 1,-1 1,-1 48,76 -5,3 -5,2 -5,2 -5,2 -5,2 -5,2 -5,1 -5,1 -5,1 -5,1 h -5 -5 -5 -5 -5 l -5,-1 -5,-1 -5,-1 -5,-1 -5,-1 -5,-2 -5,-2 -5,-2 -5,-2 -5,-2 -5,-2 -5,-3 -5,-3 -5,-3 -5,-3 -5,-3 -5,-3 v 0 z m -126,-159 81,-39 v 0 l 2,5 2,5 3,5 3,5 3,5 3,5 3,5 3,5 3,5 3,4 3,4 3,4 3,4 3,4 3,4 3,4 3,4 3,4 3,4 3,4 3,4 3,3 3,3 3,3 3,3 3,3 3,3 3,3 3,3 3,3 3,2 3,2 -52,74 -5,-4 -5,-4 -5,-4 -5,-4 -5,-4 -5,-4 -5,-4 -5,-4 -4,-4 -4,-5 -4,-5 -4,-5 -4,-5 -4,-5 -4,-5 -4,-5 -4,-5 -4,-5 -4,-5 -4,-5 -4,-5 -4,-5 -4,-6 -3,-6 -3,-6 -3,-6 -3,-6 -3,-6 -3,-6 -3,-6 -3,-6 -3,-6 v 0 z m -45,-198 90,4 v 0 4 4 4 5 5 5 5 5 l 1,5 1,5 1,5 1,5 1,5 1,5 1,5 1,5 1,5 1,5 1,5 1,5 2,5 2,5 2,5 2,5 2,5 2,5 2,5 2,5 2,5 2,5 2,5 2,5 -81,39 -3,-6 -3,-6 -3,-6 -3,-6 -2,-6 -2,-6 -2,-6 -2,-6 -2,-6 -2,-6 -2,-6 -2,-6 -2,-6 -2,-6 -2,-6 -1,-6 -1,-6 -1,-6 -1,-6 -1,-6 -1,-6 -1,-6 -1,-6 -1,-6 -1,-6 -1,-6 v -6 -6 -6 -6 -6 -6 0 z m 75,-145 42,79 v 0 l -1,1 -1,1 -1,1 -1,1 -1,1 -1,1 -1,1 -1,1 -1,1 -1,1 -1,1 -1,1 -1,2 -1,2 -1,2 -1,2 -1,2 -1,2 -1,2 -1,3 -1,3 -1,3 -1,3 -1,3 -1,3 -1,3 -1,4 -1,4 v 4 4 4 4 l -90,-4 v -6 -6 l 1,-6 1,-6 1,-6 1,-6 1,-6 1,-5 1,-5 1,-5 2,-5 2,-5 2,-5 2,-5 2,-5 2,-5 2,-5 2,-4 3,-4 3,-4 3,-4 3,-4 3,-4 3,-4 3,-4 4,-4 4,-3 4,-3 4,-3 4,-3 4,-3 4,-2 v 0 z m 157,22 -52,74 v 0 l -3,-2 -3,-2 -3,-2 -3,-2 -3,-2 -3,-1 -3,-1 -3,-1 -3,-1 -2,-1 -2,-1 -2,-1 -2,-1 -2,-1 h -2 -2 -2 -2 -2 -2 -2 -1 -1 -1 -1 -1 -1 -1 -1 -1 -1 -1 l -42,-79 5,-2 5,-2 5,-2 5,-2 5,-1 5,-1 5,-1 5,-1 5,-1 h 5 5 5 5 5 l 5,1 5,1 5,1 5,1 5,1 5,1 5,2 5,2 5,2 5,2 5,2 5,2 5,3 5,3 5,3 5,3 5,3 5,3 v 0 z"
   inkscape:connector-curvature="0"
   style="fill:#373435;fill-rule:nonzero" />
  </g>
  
  
  
  
  
  
  
  
  
  
  
  
  
  
  
  <path
   class="fil6 str0"
   d="m 12482,13571 c 11,-46 34,-144 69,-288 l -120,77 c -67,43 -129,64 -184,65 l 234,145 z"
   id="path6530"
   inkscape:connector-curvature="0"
   style="fill:#fbcd00;stroke:#000000;stroke-width:89.85410309;stroke-linecap:round;stroke-linejoin:round" />
  <path
   class="fil6 str0"
   d="m 12105,11459 c 14,-308 221,-673 460,-812 l 931,-537 889,-513 c 70,-40 133,-53 186,-42 -268,-135 -382,-149 -541,-79 l -255,154 c -37,22 -73,38 -106,48 -377,219 -939,545 -1291,743 -304,171 -447,387 -514,632 -58,213 -61,471 -61,471 0,0 -52,1387 0,1558 29,97 168,194 283,260 -38,-56 -58,-138 -53,-244 l 36,-812 37,-827 z"
   id="path6532"
   inkscape:connector-curvature="0"
   style="fill:#fbcd00;stroke:#000000;stroke-width:89.85410309;stroke-linecap:round;stroke-linejoin:round" />
  <path
   class="fil7 str1"
   d="m 12032,13098 c 12,-269 24,-540 36,-812 12,-274 25,-550 37,-827 14,-308 221,-673 460,-812 315,-182 626,-361 931,-537 301,-174 597,-345 889,-513 215,-124 371,15 350,308 -19,264 -38,526 -57,787 -19,259 -37,517 -56,773 -20,282 -206,617 -416,753 -173,111 -348,223 -523,337 -178,114 -357,229 -538,346 -250,255 -365,391 -669,698 0,0 26,-113 75,-316 -40,26 -80,51 -120,77 -233,150 -413,34 -399,-262 z"
   id="path6534"
   inkscape:connector-curvature="0"
   style="fill:#fefefe;fill-rule:nonzero;stroke:#373435;stroke-width:89.85410309;stroke-linecap:round;stroke-linejoin:round" />
  <path
   class="fil5 str1"
   d="m 12507,13586 -259,-161 c 0,0 -394,-172 -446,-343 -52,-171 0,-1558 0,-1558 0,0 3,-258 61,-471 67,-246 210,-461 514,-632 406,-228 1091,-627 1450,-835 298,-174 377,-214 744,-30"
   id="path6536"
   inkscape:connector-curvature="0"
   style="fill:none;stroke:#373435;stroke-width:89.85410309;stroke-linecap:round;stroke-linejoin:round" />
 </g>
</svg>