<?xml version="1.0" encoding="UTF-8"?>
<!DOCTYPE svg PUBLIC "-//W3C//DTD SVG 1.1//EN" "http://www.w3.org/Graphics/SVG/1.1/DTD/svg11.dtd">
<!-- Creator: CorelDRAW 2018 (64 Bit) -->
<svg xmlns="http://www.w3.org/2000/svg" xml:space="preserve" width="90.465mm" height="58.0618mm" version="1.1" style="shape-rendering:geometricPrecision; text-rendering:geometricPrecision; image-rendering:optimizeQuality; fill-rule:evenodd; clip-rule:evenodd"
viewBox="0 0 42915.13 27543.58"
 xmlns:xlink="http://www.w3.org/1999/xlink">
 <defs>
  <style type="text/css">
   <![CDATA[
    .str0 {stroke:black;stroke-width:416.84;stroke-linecap:round;stroke-linejoin:round;stroke-miterlimit:22.9256}
    .str1 {stroke:#373435;stroke-width:416.84;stroke-linecap:round;stroke-linejoin:round;stroke-miterlimit:22.9256}
    .str2 {stroke:#373435;stroke-width:416.89;stroke-linecap:round;stroke-linejoin:round;stroke-miterlimit:22.9256}
    .fil3 {fill:none;fill-rule:nonzero}
    .fil0 {fill:#BDBFC1}
    .fil7 {fill:#0A4A90}
    .fil4 {fill:#0E6BCE}
    .fil5 {fill:#50ACFF}
    .fil1 {fill:#FBCD00}
    .fil6 {fill:#373435;fill-rule:nonzero}
    .fil2 {fill:#FEFEFE;fill-rule:nonzero}
   ]]>
  </style>
 </defs>
 <g id="Camada_x0020_1">
  <metadata id="CorelCorpID_0Corel-Layer"/>
  <path class="fil0" d="M2767.13 14989.82c593.79,417.51 909.25,1057.69 876.76,1781.36 -32.5,728.32 -403.61,1336.01 -1029.84,1697.87l-1581.88 913.9c-630.88,361.86 -997.39,974.19 -1029.84,1697.87 -32.5,728.32 282.97,1363.85 876.76,1781.36l5409.07 3785.39c672.63,473.2 1507.69,505.65 2217.41,97.44l3094.22 -1786.01c709.77,-412.86 1544.78,-375.76 2217.41,97.44l3006.08 2106.07c672.63,473.2 1507.69,505.65 2217.41,97.44l6077.05 -3507.07 732.97 514.94c672.63,473.2 1507.69,505.65 2217.41,97.44l13814.86 -7974.39c630.88,-361.86 997.39,-974.19 1029.84,-1697.87 32.5,-728.32 -282.97,-1363.85 -876.76,-1781.36l-14779.76 -10349.54c-672.63,-473.2 -1507.69,-505.65 -2217.41,-97.44l-13244.28 7645.03 -1029.84 -723.67c-672.63,-473.2 -1507.69,-505.65 -2217.41,-97.44 -1679.32,969.55 -3358.64,1939.09 -5037.91,2908.64 -951,315.47 -1711.77,2110.72 -732.97,2792.65l-9.35 -0.05z"/>
  <path class="fil1 str0" d="M11613.63 12661.07c32.5,-1169.02 904.6,-2611.72 1939.09,-3210.16l4100.86 -2370.5 4022.02 -2328.75c450,-259.77 844.31,-301.52 1141.18,-166.98 -301.52,-166.98 -1247.87,-663.38 -1832.4,-751.52 -705.12,-102.04 -8925.39,4792.08 -8925.39,4792.08 0,0 -1776.71,895.3 -1878.8,3307.59 -69.59,1623.63 -139.18,3609.11 -194.83,5177.09 -55.65,1609.73 329.36,1665.37 1572.63,2500.43 -88.14,-190.18 -129.89,-426.8 -120.64,-709.77l88.14 -3094.22 92.79 -3145.21 -4.65 -0.09z"/>
  <path class="fil2 str1" d="M22983.76 11988.39c60.29,-1015.94 115.99,-2036.53 176.28,-3061.72 60.29,-1029.84 120.64,-2068.98 180.93,-3112.76 64.94,-1155.12 -681.93,-1637.57 -1670.02,-1066.98 -1331.41,770.07 -2672.06,1549.43 -4022.02,2328.75 -1359.2,783.97 -2723.06,1577.23 -4100.86,2370.5 -1034.49,598.44 -1901.99,2041.13 -1939.09,3210.16 -32.5,1053.04 -60.29,2106.07 -92.79,3145.21 -32.5,1034.49 -60.29,2068.98 -88.14,3094.22 -32.5,1127.28 760.77,1540.13 1767.46,932.45 816.46,-491.75 1632.92,-983.45 2444.74,-1470.54 807.16,-487.1 1614.38,-974.19 2412.29,-1456.64 964.9,-120.64 2389.09,-366.46 3701.9,-501 0,0 -593.79,-491.75 -1141.18,-1039.14 166.98,-102.04 334.01,-199.48 501,-301.52 964.9,-584.49 1799.91,-1957.64 1864.85,-3071.02l4.65 0.05z"/>
  <path class="fil3 str1" d="M22909.56 4640.28c0,0 -1224.67,-700.48 -1929.79,-807.16 -705.12,-102.04 -8925.39,4792.08 -8925.39,4792.08 0,0 -1776.71,895.3 -1878.8,3307.59 -69.59,1623.63 -139.18,3609.11 -194.83,5177.09 -64.94,1883.45 468.55,1637.57 2277.75,3001.43"/>
  <path class="fil4 str2" d="M33249.8 5841.75l97.44 6796.12 1294.26 783.97 1373.15 -756.17 0 -3799.34 1331.41 -770.07c0,0 213.38,-2217.41 -932.45,-3103.47 -1145.83,-886.05 -1094.78,-148.43 -3163.76,848.91l-0.05 0.05z"/>
  <path class="fil5 str2" d="M26555.77 5939.19c0,0 700.48,-519.55 3015.33,69.59 2314.85,589.14 3669.45,-51.04 3669.45,-51.04 0,0 1549.43,960.25 1623.63,2514.33 74.24,1549.43 -542.74,1869.5 -542.74,1869.5 0,0 -3108.12,4179.7 -3451.38,5279.13 -343.26,1099.43 -4318.89,-9686.16 -4318.89,-9686.16l4.6 4.65z"/>
  <g id="_1717778501184">
   <path class="fil5" d="M28587.65 6491.23c909.25,635.53 1730.32,1688.57 2324.15,2871.54 598.44,1196.87 974.19,2546.78 974.19,3766.84 0,1238.62 -385.06,2106.07 -1011.29,2495.78 -630.88,394.31 -1507.69,306.17 -2467.93,-366.46 -960.25,-672.63 -1818.46,-1795.31 -2416.89,-3052.42 -593.79,-1243.27 -927.8,-2621.02 -881.41,-3822.54 51.04,-1182.92 468.55,-1976.19 1099.43,-2314.85 626.28,-334.01 1465.89,-218.03 2375.15,417.51l4.6 4.6z"/>
   <path id="_1" class="fil6" d="M31097.33 9269.98l-371.11 185.58 0 0 -55.65 -106.69 -55.65 -106.69 -55.65 -106.69 -60.29 -106.69 -60.29 -106.69 -60.29 -102.04 -60.29 -102.04 -64.94 -102.04 -64.94 -102.04 -64.94 -97.44 -64.94 -97.44 -69.59 -97.44 -69.59 -92.79 -69.59 -92.79 -69.59 -92.79 -69.59 -88.14 -74.24 -88.14 -74.24 -88.14 -74.24 -83.49 -74.24 -83.49 -74.24 -83.49 -74.24 -78.84 -78.84 -78.84 -78.84 -74.24 -78.84 -74.24 -78.84 -69.59 -78.84 -69.59 -78.84 -69.59 -78.84 -64.94 -78.84 -64.94 -78.84 -60.29 -83.49 -60.29 241.22 -343.26 88.14 64.94 88.14 64.94 88.14 69.59 88.14 69.59 83.49 74.24 83.49 74.24 83.49 78.84 83.49 78.84 83.49 78.84 83.49 83.49 78.84 83.49 78.84 88.14 78.84 88.14 78.84 88.14 78.84 92.79 74.24 92.79 74.24 92.79 74.24 97.44 74.24 97.44 74.24 97.44 69.59 102.04 69.59 102.04 69.59 102.04 69.59 106.69 64.94 106.69 64.94 106.69 64.94 106.69 64.94 111.34 60.29 111.34 60.29 111.34 60.29 111.34 55.65 111.34 0 0 -9.35 4.55zm997.39 3859.63l-417.51 0 0 0 0 -111.34 -4.65 -111.34 -4.65 -111.34 -9.3 -111.34 -9.3 -111.34 -9.3 -115.99 -13.9 -115.99 -13.9 -115.99 -18.55 -115.99 -18.55 -115.99 -23.2 -115.99 -23.2 -115.99 -23.2 -115.99 -27.85 -115.99 -27.85 -115.99 -27.85 -115.99 -32.5 -115.99 -32.5 -115.99 -37.1 -115.99 -37.1 -115.99 -37.1 -115.99 -41.75 -115.99 -41.75 -115.99 -41.75 -115.99 -46.39 -115.99 -46.39 -115.99 -46.39 -115.99 -51.04 -111.34 -51.04 -111.34 -51.04 -111.34 -51.04 -111.34 -55.65 -111.34 371.11 -185.58 55.65 115.99 55.65 115.99 55.65 115.99 51.04 115.99 51.04 115.99 51.04 120.64 46.39 120.64 46.39 120.64 46.39 120.64 41.75 120.64 41.75 120.64 41.75 120.64 37.1 120.64 37.1 120.64 37.1 120.64 32.5 120.64 32.5 120.64 27.85 120.64 27.85 120.64 27.85 120.64 23.2 120.64 23.2 120.64 18.55 120.64 18.55 120.64 13.9 120.64 13.9 120.64 13.9 120.64 9.3 120.64 9.3 120.64 4.65 120.64 4.65 120.64 0 120.64 0 0 4.74 13.57zm-1108.73 2672.01l-222.68 -352.56 0 0 51.04 -32.5 51.04 -37.1 46.39 -37.1 46.39 -41.75 46.39 -41.75 46.39 -46.39 41.75 -46.39 41.75 -51.04 41.75 -55.65 41.75 -55.65 37.1 -60.29 37.1 -60.29 37.1 -64.94 32.5 -64.94 32.5 -69.59 32.5 -69.59 27.85 -74.24 27.85 -78.84 27.85 -78.84 23.2 -83.49 23.2 -83.49 23.2 -88.14 18.55 -88.14 18.55 -92.79 13.9 -92.79 13.9 -97.44 9.3 -97.44 9.3 -102.04 9.3 -102.04 4.65 -106.69 4.65 -106.69 0 -111.34 417.51 0 0 120.64 -4.65 115.99 -4.65 115.99 -9.3 111.34 -9.3 111.34 -13.9 106.69 -13.9 106.69 -18.55 102.04 -18.55 102.04 -23.2 97.44 -23.2 97.44 -27.85 97.44 -27.85 92.79 -27.85 92.79 -32.5 88.14 -32.5 88.14 -37.1 83.49 -37.1 83.49 -41.75 78.84 -41.75 74.24 -46.39 74.24 -46.39 69.59 -46.39 69.59 -51.04 64.94 -51.04 64.94 -55.65 60.29 -55.65 55.65 -60.29 55.65 -60.29 51.04 -60.29 51.04 -64.94 46.39 -64.94 41.75 0 0 -4.74 -0.14zm-2699.86 -371.11l241.22 -343.26 0 0 83.49 60.29 83.49 55.65 83.49 51.04 83.49 46.39 83.49 46.39 83.49 41.75 78.84 37.1 78.84 37.1 78.84 32.5 78.84 27.85 78.84 27.85 74.24 23.2 74.24 18.55 74.24 18.55 74.24 13.9 69.59 9.3 69.59 9.3 69.59 4.65 69.59 4.65 64.94 0 64.94 -4.65 64.94 -4.65 60.29 -9.3 60.29 -9.3 60.29 -13.9 60.29 -13.9 55.65 -18.55 55.65 -18.55 55.65 -23.2 55.65 -27.85 51.04 -27.85 51.04 -32.5 222.68 352.56 -69.59 41.75 -69.59 37.1 -69.59 32.5 -74.24 32.5 -74.24 27.85 -74.24 23.2 -78.84 18.55 -78.84 18.55 -78.84 13.9 -78.84 9.3 -83.49 9.3 -83.49 4.65 -83.49 0 -83.49 -4.65 -83.49 -4.65 -83.49 -9.3 -88.14 -13.9 -88.14 -18.55 -88.14 -18.55 -88.14 -23.2 -88.14 -27.85 -88.14 -32.5 -88.14 -32.5 -92.79 -37.1 -92.79 -41.75 -92.79 -41.75 -92.79 -46.39 -92.79 -51.04 -92.79 -55.65 -92.79 -55.65 -92.79 -60.29 -92.79 -64.94 0 0 4.84 -0.05zm-2481.88 -3131.31l375.76 -180.93 0 0 55.65 115.99 55.65 115.99 60.29 111.34 60.29 111.34 60.29 111.34 60.29 111.34 64.94 111.34 64.94 106.69 64.94 106.69 69.59 106.69 69.59 102.04 69.59 102.04 69.59 102.04 74.24 97.44 74.24 97.44 74.24 97.44 74.24 92.79 74.24 92.79 78.84 92.79 78.84 88.14 78.84 88.14 78.84 83.49 78.84 83.49 78.84 78.84 83.49 78.84 83.49 74.24 83.49 74.24 83.49 69.59 83.49 69.59 83.49 64.94 83.49 64.94 88.14 60.29 -241.22 343.26 -92.79 -64.94 -92.79 -69.59 -92.79 -74.24 -92.79 -74.24 -88.14 -78.84 -88.14 -78.84 -88.14 -83.49 -88.14 -83.49 -88.14 -88.14 -83.49 -88.14 -83.49 -88.14 -83.49 -92.79 -83.49 -92.79 -83.49 -97.44 -78.84 -97.44 -78.84 -97.44 -78.84 -102.04 -78.84 -102.04 -74.24 -102.04 -74.24 -106.69 -74.24 -106.69 -74.24 -106.69 -69.59 -111.34 -69.59 -111.34 -69.59 -111.34 -64.94 -115.99 -64.94 -115.99 -64.94 -115.99 -60.29 -115.99 -60.29 -115.99 -60.29 -120.64 -55.65 -120.64 0 0 4.74 4.74zm-899.95 -3919.93l417.51 18.55 0 0 -4.65 106.69 0 111.34 0 111.34 4.65 111.34 4.65 111.34 9.3 115.99 9.3 115.99 9.3 115.99 13.9 115.99 13.9 115.99 18.55 115.99 18.55 115.99 23.2 115.99 23.2 115.99 23.2 120.64 27.85 120.64 27.85 120.64 32.5 120.64 32.5 120.64 32.5 120.64 37.1 120.64 37.1 120.64 37.1 120.64 41.75 120.64 41.75 115.99 46.39 115.99 46.39 115.99 46.39 115.99 51.04 115.99 51.04 115.99 51.04 115.99 55.65 115.99 -375.76 180.93 -55.65 -120.64 -55.65 -120.64 -51.04 -120.64 -51.04 -120.64 -51.04 -120.64 -46.39 -120.64 -46.39 -125.24 -46.39 -125.24 -41.75 -125.24 -41.75 -125.24 -37.1 -125.24 -37.1 -125.24 -37.1 -125.24 -32.5 -125.24 -32.5 -125.24 -32.5 -125.24 -27.85 -125.24 -27.85 -125.24 -23.2 -125.24 -23.2 -125.24 -18.55 -125.24 -18.55 -125.24 -13.9 -125.24 -13.9 -120.64 -13.9 -120.64 -9.3 -120.64 -9.3 -120.64 -4.65 -120.64 -4.65 -120.64 0 -120.64 0 -115.99 4.65 -115.99 0 0 -4.7 -0.38zm1210.77 -2486.48l194.83 366.46 0 0 -51.04 27.85 -51.04 32.5 -46.39 32.5 -46.39 37.1 -46.39 37.1 -46.39 41.75 -46.39 41.75 -41.75 46.39 -41.75 46.39 -41.75 51.04 -41.75 51.04 -37.1 55.65 -37.1 55.65 -37.1 60.29 -32.5 64.94 -32.5 64.94 -32.5 69.59 -32.5 69.59 -27.85 74.24 -27.85 74.24 -27.85 78.84 -23.2 78.84 -23.2 83.49 -18.55 83.49 -18.55 88.14 -18.55 92.79 -13.9 92.79 -13.9 97.44 -9.3 97.44 -9.3 102.04 -9.3 102.04 -4.65 106.69 -417.51 -18.55 4.65 -115.99 9.3 -111.34 9.3 -111.34 13.9 -106.69 13.9 -106.69 18.55 -102.04 18.55 -102.04 23.2 -97.44 23.2 -97.44 23.2 -92.79 27.85 -92.79 27.85 -88.14 32.5 -88.14 32.5 -83.49 37.1 -83.49 37.1 -78.84 41.75 -78.84 41.75 -74.24 41.75 -74.24 46.39 -69.59 46.39 -69.59 51.04 -64.94 51.04 -60.29 51.04 -60.29 55.65 -55.65 55.65 -55.65 60.29 -51.04 60.29 -51.04 60.29 -46.39 64.94 -41.75 64.94 -41.75 64.94 -37.1 0 0 0.14 4.6zm2593.22 431.4l-241.22 343.26 0 0 -83.49 -55.65 -78.84 -51.04 -78.84 -51.04 -78.84 -46.39 -78.84 -41.75 -78.84 -41.75 -78.84 -37.1 -74.24 -37.1 -74.24 -32.5 -74.24 -27.85 -74.24 -27.85 -74.24 -23.2 -69.59 -18.55 -69.59 -18.55 -69.59 -13.9 -69.59 -13.9 -69.59 -9.3 -64.94 -9.3 -64.94 -4.65 -64.94 -4.65 -64.94 0 -60.29 4.65 -60.29 4.65 -60.29 9.3 -60.29 9.3 -55.65 13.9 -55.65 13.9 -55.65 18.55 -55.65 18.55 -51.04 23.2 -51.04 23.2 -51.04 27.85 -194.83 -366.46 69.59 -32.5 69.59 -32.5 69.59 -27.85 69.59 -23.2 74.24 -23.2 74.24 -18.55 74.24 -13.9 74.24 -13.9 78.84 -9.3 78.84 -4.65 78.84 -4.65 78.84 0 78.84 4.65 78.84 4.65 83.49 9.3 83.49 13.9 83.49 13.9 83.49 18.55 83.49 23.2 83.49 23.2 83.49 27.85 83.49 32.5 88.14 32.5 88.14 37.1 88.14 41.75 88.14 41.75 88.14 46.39 88.14 46.39 88.14 51.04 88.14 55.65 88.14 55.65 88.14 60.29 0 0 -9.3 -13.85z"/>
  </g>
  <g id="_1717778501792">
   <path class="fil1" d="M28564.45 7544.27c691.22,487.1 1317.46,1285.01 1767.46,2184.96 454.6,909.25 742.22,1939.09 742.22,2862.24 0,941.7 -292.27,1600.43 -770.07,1897.35 -482.45,301.52 -1145.83,231.93 -1878.8,-278.32 -732.97,-510.29 -1382.4,-1363.85 -1837.05,-2319.5 -450,-946.35 -705.12,-1990.14 -668.03,-2903.99 37.1,-899.95 357.21,-1503.04 835.01,-1758.16 473.2,-250.52 1113.33,-166.98 1809.21,320.07l0.05 -4.65z"/>
   <path id="_1_0" class="fil6" d="M30517.45 9636.44l-371.11 185.58 0 0 -41.75 -83.49 -41.75 -83.49 -41.75 -78.84 -46.39 -78.84 -46.39 -78.84 -46.39 -78.84 -46.39 -78.84 -46.39 -74.24 -51.04 -74.24 -51.04 -74.24 -51.04 -74.24 -51.04 -74.24 -51.04 -69.59 -51.04 -69.59 -51.04 -69.59 -55.65 -69.59 -55.65 -64.94 -55.65 -64.94 -55.65 -64.94 -55.65 -64.94 -55.65 -60.29 -55.65 -60.29 -55.65 -60.29 -60.29 -55.65 -60.29 -55.65 -60.29 -55.65 -60.29 -51.04 -60.29 -51.04 -60.29 -51.04 -60.29 -46.39 -60.29 -46.39 -60.29 -41.75 241.22 -343.26 69.59 51.04 69.59 51.04 64.94 51.04 64.94 55.65 64.94 55.65 64.94 55.65 64.94 60.29 64.94 60.29 64.94 60.29 60.29 64.94 60.29 64.94 60.29 64.94 60.29 69.59 60.29 69.59 60.29 69.59 60.29 69.59 55.65 74.24 55.65 74.24 55.65 74.24 55.65 74.24 55.65 78.84 55.65 78.84 51.04 78.84 51.04 78.84 51.04 78.84 51.04 83.49 51.04 83.49 46.39 83.49 46.39 83.49 46.39 83.49 46.39 83.49 41.75 88.14 0 0 -0.05 9.3zm760.82 2955.03l-417.51 0 0 0 0 -83.49 -4.65 -83.49 -4.65 -83.49 -4.65 -83.49 -9.3 -83.49 -9.3 -88.14 -9.3 -88.14 -9.3 -88.14 -13.9 -88.14 -13.9 -88.14 -13.9 -88.14 -18.55 -88.14 -18.55 -88.14 -18.55 -88.14 -23.2 -88.14 -23.2 -88.14 -23.2 -88.14 -23.2 -88.14 -27.85 -88.14 -27.85 -88.14 -27.85 -88.14 -32.5 -88.14 -32.5 -88.14 -32.5 -88.14 -32.5 -88.14 -37.1 -88.14 -37.1 -88.14 -37.1 -83.49 -37.1 -83.49 -37.1 -83.49 -41.75 -83.49 -41.75 -83.49 371.11 -185.58 41.75 88.14 41.75 88.14 41.75 88.14 41.75 88.14 37.1 88.14 37.1 92.79 37.1 92.79 37.1 92.79 32.5 92.79 32.5 92.79 32.5 92.79 32.5 92.79 27.85 92.79 27.85 92.79 27.85 92.79 23.2 92.79 23.2 92.79 23.2 92.79 23.2 92.79 18.55 92.79 18.55 92.79 18.55 92.79 13.9 92.79 13.9 92.79 13.9 92.79 9.3 92.79 9.3 92.79 9.3 92.79 4.65 92.79 4.65 92.79 4.65 92.79 0 92.79 0 0 9.3 13.57zm-867.51 2073.63l-222.68 -352.56 0 0 37.1 -23.2 37.1 -27.85 37.1 -27.85 32.5 -27.85 32.5 -32.5 32.5 -32.5 32.5 -37.1 32.5 -37.1 27.85 -37.1 27.85 -41.75 27.85 -41.75 27.85 -46.39 27.85 -46.39 23.2 -51.04 23.2 -51.04 23.2 -51.04 23.2 -55.65 18.55 -55.65 18.55 -60.29 18.55 -60.29 18.55 -64.94 13.9 -64.94 13.9 -64.94 13.9 -69.59 9.3 -69.59 9.3 -74.24 9.3 -74.24 9.3 -74.24 4.65 -78.84 4.65 -78.84 4.65 -83.49 0 -83.49 417.51 0 0 92.79 -4.65 88.14 -4.65 88.14 -4.65 88.14 -9.3 83.49 -9.3 83.49 -9.3 83.49 -13.9 78.84 -13.9 78.84 -18.55 78.84 -18.55 74.24 -18.55 74.24 -23.2 74.24 -23.2 69.59 -23.2 69.59 -27.85 64.94 -27.85 64.94 -27.85 64.94 -32.5 60.29 -32.5 60.29 -37.1 55.65 -37.1 55.65 -37.1 55.65 -41.75 51.04 -41.75 51.04 -41.75 46.39 -46.39 46.39 -46.39 41.75 -46.39 41.75 -51.04 37.1 -51.04 37.1 -51.04 32.5 0 0 4.6 4.74zm-2106.07 -282.97l236.58 -343.26 0 0 64.94 41.75 64.94 41.75 64.94 37.1 60.29 37.1 60.29 32.5 60.29 32.5 60.29 27.85 60.29 27.85 60.29 23.2 55.65 23.2 55.65 18.55 55.65 18.55 55.65 13.9 55.65 13.9 51.04 9.3 51.04 9.3 51.04 4.65 51.04 4.65 51.04 0 46.39 0 46.39 0 46.39 -4.65 46.39 -4.65 46.39 -9.3 41.75 -9.3 41.75 -9.3 41.75 -13.9 41.75 -13.9 41.75 -18.55 37.1 -18.55 37.1 -18.55 37.1 -23.2 222.68 352.56 -55.65 32.5 -55.65 27.85 -55.65 27.85 -55.65 23.2 -60.29 23.2 -60.29 18.55 -60.29 18.55 -60.29 13.9 -64.94 9.3 -64.94 9.3 -64.94 4.65 -64.94 4.65 -64.94 0 -64.94 -4.65 -64.94 -4.65 -64.94 -9.3 -69.59 -9.3 -69.59 -13.9 -69.59 -13.9 -69.59 -18.55 -69.59 -23.2 -69.59 -23.2 -69.59 -27.85 -69.59 -27.85 -69.59 -32.5 -69.59 -32.5 -69.59 -37.1 -69.59 -37.1 -69.59 -41.75 -69.59 -46.39 -74.24 -46.39 -74.24 -51.04 0 0 4.79 4.6zm-1906.64 -2402.99l375.76 -180.93 0 0 41.75 88.14 41.75 88.14 46.39 83.49 46.39 83.49 46.39 83.49 46.39 83.49 46.39 83.49 51.04 83.49 51.04 78.84 51.04 78.84 51.04 78.84 51.04 78.84 55.65 74.24 55.65 74.24 55.65 74.24 55.65 74.24 55.65 69.59 55.65 69.59 60.29 69.59 60.29 64.94 60.29 64.94 60.29 64.94 60.29 60.29 60.29 60.29 60.29 60.29 60.29 55.65 60.29 55.65 64.94 55.65 64.94 51.04 64.94 51.04 64.94 46.39 64.94 46.39 -236.58 343.26 -74.24 -51.04 -69.59 -55.65 -69.59 -55.65 -69.59 -55.65 -69.59 -60.29 -69.59 -60.29 -69.59 -64.94 -64.94 -64.94 -64.94 -64.94 -64.94 -69.59 -64.94 -69.59 -64.94 -69.59 -64.94 -74.24 -60.29 -74.24 -60.29 -74.24 -60.29 -74.24 -60.29 -78.84 -60.29 -78.84 -55.65 -78.84 -55.65 -78.84 -55.65 -83.49 -55.65 -83.49 -55.65 -83.49 -51.04 -83.49 -51.04 -88.14 -51.04 -88.14 -51.04 -88.14 -51.04 -88.14 -46.39 -88.14 -46.39 -88.14 -46.39 -92.79 -46.39 -92.79 0 0 -9.16 4.7zm-686.53 -3001.43l417.51 18.55 0 0 -4.65 83.49 0 83.49 0 83.49 0 83.49 4.65 83.49 4.65 83.49 9.3 88.14 9.3 88.14 9.3 88.14 9.3 88.14 13.9 88.14 13.9 88.14 13.9 88.14 18.55 88.14 18.55 88.14 18.55 88.14 23.2 88.14 23.2 88.14 23.2 88.14 27.85 88.14 27.85 88.14 27.85 88.14 27.85 88.14 32.5 88.14 32.5 88.14 32.5 88.14 32.5 88.14 37.1 88.14 37.1 88.14 37.1 88.14 37.1 88.14 41.75 88.14 -375.76 180.93 -41.75 -92.79 -41.75 -92.79 -41.75 -92.79 -37.1 -92.79 -37.1 -92.79 -37.1 -92.79 -37.1 -92.79 -32.5 -92.79 -32.5 -92.79 -32.5 -92.79 -27.85 -97.44 -27.85 -97.44 -27.85 -97.44 -27.85 -97.44 -23.2 -97.44 -23.2 -97.44 -23.2 -97.44 -18.55 -97.44 -18.55 -97.44 -18.55 -97.44 -13.9 -92.79 -13.9 -92.79 -13.9 -92.79 -9.3 -92.79 -9.3 -92.79 -9.3 -92.79 -4.65 -92.79 -4.65 -92.79 -4.65 -92.79 0 -92.79 0 -92.79 4.65 -88.14 0 0 4.6 19.02zm946.35 -1934.44l194.83 366.46 0 0 -37.1 18.55 -37.1 23.2 -37.1 23.2 -32.5 27.85 -32.5 27.85 -32.5 27.85 -32.5 32.5 -32.5 32.5 -32.5 37.1 -27.85 37.1 -27.85 37.1 -27.85 41.75 -27.85 41.75 -27.85 46.39 -27.85 46.39 -23.2 46.39 -23.2 51.04 -23.2 51.04 -23.2 55.65 -18.55 55.65 -18.55 60.29 -18.55 60.29 -18.55 60.29 -13.9 64.94 -13.9 64.94 -13.9 69.59 -9.3 69.59 -9.3 69.59 -9.3 74.24 -9.3 74.24 -4.65 78.84 -4.65 78.84 -417.51 -18.55 4.65 -88.14 4.65 -88.14 9.3 -83.49 9.3 -83.49 9.3 -78.84 13.9 -78.84 13.9 -78.84 18.55 -74.24 18.55 -74.24 18.55 -74.24 23.2 -69.59 23.2 -69.59 23.2 -69.59 27.85 -64.94 27.85 -64.94 27.85 -60.29 32.5 -60.29 32.5 -60.29 32.5 -55.65 37.1 -55.65 37.1 -51.04 37.1 -51.04 41.75 -51.04 41.75 -46.39 41.75 -46.39 46.39 -41.75 46.39 -41.75 46.39 -37.1 46.39 -37.1 51.04 -32.5 51.04 -32.5 51.04 -27.85 0 0 4.7 -4.65zm2022.58 329.36l-241.22 343.26 0 0 -60.29 -41.75 -60.29 -37.1 -60.29 -37.1 -60.29 -37.1 -60.29 -32.5 -60.29 -32.5 -55.65 -27.85 -55.65 -27.85 -55.65 -23.2 -55.65 -23.2 -55.65 -18.55 -55.65 -18.55 -51.04 -13.9 -51.04 -13.9 -51.04 -9.3 -51.04 -9.3 -51.04 -9.3 -51.04 -4.65 -46.39 -4.65 -46.39 0 -46.39 0 -46.39 0 -46.39 4.65 -41.75 4.65 -41.75 9.3 -41.75 9.3 -41.75 9.3 -41.75 13.9 -37.1 13.9 -37.1 13.9 -37.1 18.55 -37.1 18.55 -194.83 -366.46 51.04 -27.85 55.65 -23.2 55.65 -23.2 55.65 -18.55 55.65 -18.55 60.29 -13.9 60.29 -13.9 60.29 -9.3 60.29 -9.3 60.29 -4.65 60.29 -4.65 60.29 0 64.94 0 64.94 4.65 64.94 9.3 64.94 9.3 64.94 13.9 64.94 13.9 64.94 18.55 64.94 18.55 64.94 23.2 64.94 23.2 64.94 27.85 64.94 27.85 64.94 32.5 69.59 32.5 69.59 37.1 69.59 37.1 69.59 41.75 69.59 41.75 69.59 46.39 69.59 46.39 0 0 -0.05 -9.25z"/>
  </g>
  <path class="fil7 str1" d="M28889.17 11942.04l1994.74 -477.8c32.5,-9.3 -51.04,-848.91 -352.56,-1544.78 -259.77,-607.69 -728.32,-1066.98 -895.3,-1312.81l-1632.92 1238.62 886.05 2092.18 0 4.6z"/>
  <g id="_1717778504000">
   <path class="fil7" d="M28513.41 9937.96c194.83,134.54 371.11,361.86 496.35,616.98 129.89,255.12 208.78,547.39 208.78,807.16 0,264.42 -83.49,450 -218.03,533.49 -134.54,83.49 -324.72,64.94 -528.84,-78.84 -204.13,-143.79 -389.66,-385.06 -519.55,-654.08 -125.24,-269.07 -199.48,-561.34 -190.18,-821.11 9.3,-255.12 102.04,-422.15 236.58,-496.35 134.54,-69.59 315.47,-46.39 510.29,88.14l4.6 4.6z"/>
   <path id="_1_1" class="fil6" d="M29199.99 10457.55l-371.11 185.58 0 0 -9.3 -23.2 -9.3 -23.2 -9.3 -23.2 -13.9 -23.2 -13.9 -18.55 -13.9 -18.55 -13.9 -18.55 -13.9 -18.55 -13.9 -18.55 -13.9 -18.55 -13.9 -18.55 -13.9 -18.55 -13.9 -18.55 -13.9 -18.55 -13.9 -18.55 -13.9 -18.55 -13.9 -18.55 -13.9 -18.55 -13.9 -18.55 -13.9 -13.9 -13.9 -13.9 -13.9 -13.9 -13.9 -13.9 -13.9 -13.9 -13.9 -13.9 -13.9 -13.9 -13.9 -13.9 -13.9 -13.9 -13.9 -13.9 -13.9 -9.3 -13.9 -9.3 -13.9 -9.3 241.22 -343.26 23.2 13.9 23.2 13.9 23.2 18.55 23.2 18.55 18.55 18.55 18.55 18.55 18.55 18.55 18.55 18.55 18.55 18.55 18.55 18.55 18.55 18.55 18.55 18.55 18.55 23.2 18.55 23.2 18.55 23.2 18.55 23.2 18.55 23.2 18.55 23.2 18.55 23.2 18.55 23.2 18.55 23.2 18.55 23.2 13.9 23.2 13.9 23.2 13.9 23.2 13.9 23.2 13.9 23.2 13.9 23.2 13.9 23.2 13.9 27.85 13.9 27.85 13.9 27.85 0 0 -4.79 4.41zm231.97 899.95l-417.51 0 0 0 0 -18.55 0 -23.2 0 -23.2 0 -23.2 0 -23.2 0 -23.2 -4.65 -23.2 -4.65 -23.2 -4.65 -23.2 -4.65 -23.2 -4.65 -23.2 -4.65 -23.2 -4.65 -23.2 -4.65 -23.2 -4.65 -23.2 -4.65 -23.2 -4.65 -23.2 -4.65 -23.2 -4.65 -23.2 -9.3 -23.2 -9.3 -23.2 -9.3 -23.2 -9.3 -23.2 -9.3 -23.2 -9.3 -23.2 -9.3 -23.2 -9.3 -23.2 -9.3 -23.2 -9.3 -23.2 -9.3 -23.2 -9.3 -23.2 -9.3 -23.2 371.11 -185.58 13.9 27.85 13.9 27.85 13.9 27.85 13.9 27.85 13.9 27.85 9.3 27.85 9.3 27.85 9.3 27.85 9.3 27.85 9.3 27.85 9.3 27.85 9.3 27.85 9.3 27.85 9.3 27.85 9.3 27.85 9.3 27.85 9.3 27.85 4.65 27.85 4.65 27.85 4.65 27.85 4.65 27.85 4.65 27.85 4.65 27.85 4.65 27.85 4.65 27.85 4.65 27.85 4.65 27.85 4.65 27.85 0 27.85 0 27.85 0 27.85 0 27.85 0 0 -4.51 32.16zm-315.47 709.77l-222.68 -352.56 0 0 4.65 -4.65 4.65 -4.65 4.65 -4.65 4.65 -4.65 4.65 -4.65 4.65 -4.65 4.65 -4.65 4.65 -4.65 4.65 -4.65 4.65 -9.3 4.65 -9.3 4.65 -9.3 4.65 -9.3 4.65 -9.3 4.65 -9.3 4.65 -9.3 4.65 -9.3 4.65 -13.9 4.65 -13.9 4.65 -13.9 4.65 -13.9 4.65 -13.9 4.65 -13.9 4.65 -13.9 4.65 -18.55 4.65 -18.55 0 -18.55 0 -18.55 0 -18.55 0 -18.55 0 -18.55 0 -18.55 417.51 0 0 27.85 0 27.85 0 27.85 0 27.85 -4.65 27.85 -4.65 27.85 -4.65 27.85 -4.65 27.85 -4.65 27.85 -4.65 23.2 -4.65 23.2 -4.65 23.2 -9.3 23.2 -9.3 23.2 -9.3 23.2 -9.3 23.2 -9.3 23.2 -9.3 23.2 -9.3 23.2 -13.9 23.2 -13.9 18.55 -13.9 18.55 -13.9 18.55 -13.9 18.55 -13.9 18.55 -18.55 18.55 -18.55 18.55 -18.55 18.55 -18.55 13.9 -18.55 13.9 -18.55 13.9 -18.55 13.9 0 0 -0.19 4.7zm-760.77 -83.49l241.22 -343.26 0 0 13.9 9.3 13.9 9.3 13.9 9.3 13.9 9.3 13.9 9.3 13.9 9.3 13.9 4.65 13.9 4.65 13.9 4.65 13.9 4.65 9.3 4.65 9.3 4.65 9.3 4.65 9.3 4.65 9.3 0 9.3 0 9.3 0 9.3 0 9.3 0 9.3 0 4.65 0 4.65 0 4.65 0 4.65 0 4.65 0 4.65 0 4.65 0 4.65 0 4.65 0 4.65 0 4.65 -4.65 4.65 -4.65 222.68 352.56 -23.2 13.9 -23.2 9.3 -23.2 9.3 -23.2 9.3 -23.2 9.3 -23.2 9.3 -23.2 4.65 -23.2 4.65 -23.2 4.65 -23.2 4.65 -23.2 0 -23.2 0 -23.2 0 -23.2 0 -23.2 0 -23.2 -4.65 -23.2 -4.65 -23.2 -4.65 -23.2 -4.65 -23.2 -4.65 -23.2 -9.3 -23.2 -9.3 -23.2 -9.3 -23.2 -9.3 -23.2 -9.3 -23.2 -9.3 -23.2 -13.9 -23.2 -13.9 -23.2 -13.9 -23.2 -13.9 -23.2 -13.9 -23.2 -13.9 0 0 -9.35 -9.54zm-584.54 -737.62l375.76 -180.93 0 0 9.3 23.2 9.3 23.2 13.9 23.2 13.9 23.2 13.9 23.2 13.9 23.2 13.9 23.2 13.9 23.2 13.9 23.2 13.9 18.55 13.9 18.55 13.9 18.55 13.9 18.55 13.9 18.55 13.9 18.55 13.9 18.55 13.9 18.55 13.9 18.55 13.9 18.55 13.9 18.55 13.9 18.55 13.9 13.9 13.9 13.9 13.9 13.9 13.9 13.9 13.9 13.9 13.9 13.9 13.9 13.9 13.9 13.9 13.9 13.9 13.9 9.3 13.9 9.3 -241.22 343.26 -23.2 -18.55 -23.2 -18.55 -23.2 -18.55 -23.2 -18.55 -23.2 -18.55 -23.2 -18.55 -23.2 -18.55 -23.2 -18.55 -18.55 -18.55 -18.55 -23.2 -18.55 -23.2 -18.55 -23.2 -18.55 -23.2 -18.55 -23.2 -18.55 -23.2 -18.55 -23.2 -18.55 -23.2 -18.55 -23.2 -18.55 -23.2 -18.55 -23.2 -18.55 -23.2 -18.55 -23.2 -18.55 -27.85 -13.9 -27.85 -13.9 -27.85 -13.9 -27.85 -13.9 -27.85 -13.9 -27.85 -13.9 -27.85 -13.9 -27.85 -13.9 -27.85 -13.9 -27.85 0 0 18.79 9.58zm-208.73 -918.5l417.51 18.55 0 0 0 18.55 0 18.55 0 18.55 0 23.2 0 23.2 0 23.2 0 23.2 0 23.2 4.65 23.2 4.65 23.2 4.65 23.2 4.65 23.2 4.65 23.2 4.65 23.2 4.65 23.2 4.65 23.2 4.65 23.2 4.65 23.2 4.65 23.2 4.65 23.2 9.3 23.2 9.3 23.2 9.3 23.2 9.3 23.2 9.3 23.2 9.3 23.2 9.3 23.2 9.3 23.2 9.3 23.2 9.3 23.2 9.3 23.2 9.3 23.2 -375.76 180.93 -13.9 -27.85 -13.9 -27.85 -13.9 -27.85 -13.9 -27.85 -9.3 -27.85 -9.3 -27.85 -9.3 -27.85 -9.3 -27.85 -9.3 -27.85 -9.3 -27.85 -9.3 -27.85 -9.3 -27.85 -9.3 -27.85 -9.3 -27.85 -9.3 -27.85 -4.65 -27.85 -4.65 -27.85 -4.65 -27.85 -4.65 -27.85 -4.65 -27.85 -4.65 -27.85 -4.65 -27.85 -4.65 -27.85 -4.65 -27.85 -4.65 -27.85 -4.65 -27.85 0 -27.85 0 -27.85 0 -27.85 0 -27.85 0 -27.85 0 -27.85 0 0 -0.09 -36.76zm347.91 -672.68l194.83 366.46 0 0 -4.65 4.65 -4.65 4.65 -4.65 4.65 -4.65 4.65 -4.65 4.65 -4.65 4.65 -4.65 4.65 -4.65 4.65 -4.65 4.65 -4.65 4.65 -4.65 4.65 -4.65 4.65 -4.65 9.3 -4.65 9.3 -4.65 9.3 -4.65 9.3 -4.65 9.3 -4.65 9.3 -4.65 9.3 -4.65 13.9 -4.65 13.9 -4.65 13.9 -4.65 13.9 -4.65 13.9 -4.65 13.9 -4.65 13.9 -4.65 18.55 -4.65 18.55 0 18.55 0 18.55 0 18.55 0 18.55 -417.51 -18.55 0 -27.85 0 -27.85 4.65 -27.85 4.65 -27.85 4.65 -27.85 4.65 -27.85 4.65 -27.85 4.65 -23.2 4.65 -23.2 4.65 -23.2 9.3 -23.2 9.3 -23.2 9.3 -23.2 9.3 -23.2 9.3 -23.2 9.3 -23.2 9.3 -23.2 9.3 -18.55 13.9 -18.55 13.9 -18.55 13.9 -18.55 13.9 -18.55 13.9 -18.55 13.9 -18.55 13.9 -18.55 18.55 -18.55 18.55 -13.9 18.55 -13.9 18.55 -13.9 18.55 -13.9 18.55 -13.9 18.55 -9.3 0 0 14.14 -4.74zm728.32 102.09l-241.22 343.26 0 0 -13.9 -9.3 -13.9 -9.3 -13.9 -9.3 -13.9 -9.3 -13.9 -9.3 -13.9 -4.65 -13.9 -4.65 -13.9 -4.65 -13.9 -4.65 -9.3 -4.65 -9.3 -4.65 -9.3 -4.65 -9.3 -4.65 -9.3 -4.65 -9.3 0 -9.3 0 -9.3 0 -9.3 0 -9.3 0 -9.3 0 -9.3 0 -4.65 0 -4.65 0 -4.65 0 -4.65 0 -4.65 0 -4.65 0 -4.65 0 -4.65 0 -4.65 0 -4.65 0 -4.65 0 -194.83 -366.46 23.2 -9.3 23.2 -9.3 23.2 -9.3 23.2 -9.3 23.2 -4.65 23.2 -4.65 23.2 -4.65 23.2 -4.65 23.2 -4.65 23.2 0 23.2 0 23.2 0 23.2 0 23.2 0 23.2 4.65 23.2 4.65 23.2 4.65 23.2 4.65 23.2 4.65 23.2 4.65 23.2 9.3 23.2 9.3 23.2 9.3 23.2 9.3 23.2 9.3 23.2 9.3 23.2 13.9 23.2 13.9 23.2 13.9 23.2 13.9 23.2 13.9 23.2 13.9 0 0 -18.45 4.89z"/>
  </g>
  <path class="fil1 str0" d="M7239.1 19396.84c51.04,-213.38 157.73,-668.03 320.07,-1336.01l-556.69 357.21c-310.82,199.48 -598.44,296.92 -853.56,301.52l1085.53 672.63 4.65 4.65z"/>
  <path class="fil1 str0" d="M5490.19 9599.35c64.94,-1428.8 1025.19,-3122.01 2133.92,-3766.84l4318.89 -2491.13 4124.06 -2379.79c324.72,-185.58 616.98,-245.87 862.86,-194.83 -1243.27,-626.28 -1772.11,-691.22 -2509.68,-366.46l-1182.92 714.42c-171.63,102.04 -338.66,176.28 -491.75,222.68 -1748.91,1015.94 -4355.98,2528.23 -5988.91,3446.78 -1410.25,793.26 -2073.63,1795.31 -2384.44,2931.83 -269.07,988.09 -282.97,2184.96 -282.97,2184.96 0,0 -241.22,6434.26 0,7227.52 134.54,450 779.37,899.95 1312.81,1206.12 -176.28,-259.77 -269.07,-640.18 -245.87,-1131.93l166.98 -3766.84 171.63 -3836.44 -4.6 -0.05z"/>
  <path class="fil2 str1" d="M5151.52 17202.63c55.65,-1247.87 111.34,-2505.03 166.98,-3766.84 55.65,-1271.06 115.99,-2551.43 171.63,-3836.44 64.94,-1428.8 1025.19,-3122.01 2133.92,-3766.84 1461.29,-844.31 2903.99,-1674.67 4318.89,-2491.13 1396.35,-807.16 2769.45,-1600.43 4124.06,-2379.79 997.39,-575.24 1721.06,69.59 1623.63,1428.8 -88.14,1224.67 -176.28,2440.09 -264.42,3650.86 -88.14,1201.47 -171.63,2398.34 -259.77,3585.91 -92.79,1308.21 -955.65,2862.24 -1929.79,3493.17 -802.56,514.94 -1614.38,1034.49 -2426.19,1563.33 -825.76,528.84 -1656.12,1062.34 -2495.78,1605.08 -1159.73,1182.92 -1693.22,1813.85 -3103.47,3238 0,0 120.64,-524.19 347.91,-1465.89 -185.58,120.64 -371.11,236.58 -556.69,357.21 -1080.88,695.83 -1915.89,157.73 -1850.95,-1215.42l0.05 0z"/>
  <path class="fil3 str1" d="M7355.04 19466.44l-1201.47 -746.87c0,0 -1827.75,-797.91 -2068.98,-1591.18 -241.22,-793.26 0,-7227.52 0,-7227.52 0,0 13.9,-1196.87 282.97,-2184.96 310.82,-1141.18 974.19,-2138.57 2384.44,-2931.83 1883.45,-1057.69 5061.11,-2908.64 6726.53,-3873.53 1382.4,-807.16 1748.91,-992.74 3451.38,-139.18"/>
 </g>
</svg>
