<?xml version="1.0" encoding="UTF-8"?>
<!DOCTYPE svg PUBLIC "-//W3C//DTD SVG 1.1//EN" "http://www.w3.org/Graphics/SVG/1.1/DTD/svg11.dtd">
<!-- Creator: CorelDRAW 2018 (64 Bit) -->
<svg xmlns="http://www.w3.org/2000/svg" xml:space="preserve" width="90.465mm" height="72.2574mm" version="1.1" style="shape-rendering:geometricPrecision; text-rendering:geometricPrecision; image-rendering:optimizeQuality; fill-rule:evenodd; clip-rule:evenodd"
viewBox="0 0 9044.32 7224"
 xmlns:xlink="http://www.w3.org/1999/xlink">
 <defs>
  <style type="text/css">
   <![CDATA[
    .str2 {stroke:#373435;stroke-width:87.84;stroke-linecap:round;stroke-linejoin:round;stroke-miterlimit:22.9256}
    .str0 {stroke:black;stroke-width:87.85;stroke-linecap:round;stroke-linejoin:round;stroke-miterlimit:22.9256}
    .str1 {stroke:#373435;stroke-width:87.85;stroke-linecap:round;stroke-linejoin:round;stroke-miterlimit:22.9256}
    .fil5 {fill:none}
    .fil6 {fill:none;fill-rule:nonzero}
    .fil0 {fill:#BDBFC1}
    .fil2 {fill:#0A4A90}
    .fil3 {fill:#0D86FF}
    .fil1 {fill:#0E6BCE}
    .fil7 {fill:#FBCD00}
    .fil4 {fill:#373435;fill-rule:nonzero}
   ]]>
  </style>
 </defs>
 <g id="Camada_x0020_1">
  <metadata id="CorelCorpID_0Corel-Layer"/>
  <path class="fil0" d="M583.17 4578.31c125.14,87.99 191.62,222.91 184.78,375.42 -6.85,153.49 -85.06,281.56 -217.04,357.82l-333.38 192.6c-132.96,76.26 -210.2,205.31 -217.04,357.82 -6.85,153.49 59.64,287.43 184.78,375.42l1139.96 797.77c141.76,99.73 317.74,106.56 467.32,20.54l652.1 -376.4c149.58,-87.01 325.56,-79.19 467.32,20.54l633.53 443.85c141.76,99.73 317.74,106.56 467.32,20.54l1280.73 -739.11 154.47 108.52c141.76,99.73 317.74,106.56 467.32,20.54l2911.47 -1680.6c132.96,-76.26 210.2,-205.31 217.04,-357.82 6.85,-153.49 -59.64,-287.43 -184.78,-375.42l-3114.82 -2181.15c-141.76,-99.73 -317.74,-106.56 -467.32,-20.54l-2791.22 1611.18 -217.04 -152.51c-141.76,-99.73 -317.74,-106.56 -467.32,-20.54 -353.91,204.33 -707.83,408.66 -1061.73,612.99 -200.42,66.48 -360.75,444.83 -154.47,588.55l-1.97 -0.01z"/>
  <polygon class="fil1 str0" points="4056.79,4686.83 4056.79,3545.9 3489.75,3872.44 2850.36,4258.61 2836.67,4249.82 2609.85,4380.81 2613.76,5556.94 "/>
  <polygon class="fil2 str0" points="2613.76,5556.94 2609.85,4380.81 2061.38,3996.6 1527.58,3623.14 1527.58,4797.3 "/>
  <polygon class="fil3 str0" points="2288.21,3865.59 1967.54,3641.71 1967.54,3368.94 1527.58,3623.14 2061.38,3996.6 "/>
  <polygon class="fil3 str0" points="2836.67,4218.52 2288.21,3834.31 2061.38,3965.31 2609.85,4349.53 "/>
  <polygon class="fil2 str0" points="5762.81,6146.47 5758.89,4969.37 4676.62,4211.69 4676.62,5385.85 "/>
  <polygon class="fil1 str0" points="7204.85,5275.38 7204.85,4630.12 7204.85,4134.44 5758.89,4969.37 5762.81,6146.47 "/>
  <g id="_1716859011936">
   <path class="fil4" d="M2584.44 4417l-1082.27 -757.69 50.84 -72.34 1082.27 757.69 -2.93 74.3 -46.93 -1.96 -0.98 0zm0 0l50.84 -72.34 1.96 0.98 1.96 0.98 1.96 1.96 1.96 1.96 0.98 1.96 0.98 1.96 0.98 1.96 0.98 1.96 0.98 1.96 0.98 1.96 0.98 1.96 0.98 1.96 0.98 1.96 0.98 1.96 0.98 1.96 0 1.96 0 1.96 0 1.96 0 1.96 0 1.96 0 1.96 0 1.96 0 1.96 0 1.96 -0.98 1.96 -0.98 1.96 -0.98 1.96 -0.98 1.96 -0.98 1.96 -0.98 1.96 -0.98 1.96 -0.98 1.96 -0.98 1.96 -0.98 1.96 -1.96 1.96 -1.96 1.96 -1.96 0.98 -1.96 0.98 -1.96 0.98 -1.96 0.98 -1.96 0.98 -1.96 0.98 -1.96 0.98 -1.96 0.98 -1.96 0.98 -1.96 0.98 -1.96 0.98 -1.96 0 -1.96 0 -1.96 0 -1.96 0 -1.96 0 -1.96 0 -1.96 0 -1.96 0 -1.96 0 -1.96 -0.98 -1.96 -0.98 -1.96 -0.98 -1.96 -0.98 -1.96 -0.98 -1.96 -0.98 -1.96 -0.98 -1.96 -0.98 -0.87 0.82zm1493.86 -832.97l-1446.93 834.92 -44 -76.26 1446.93 -834.92 46.93 1.96 -2.93 74.3zm0 0l-44 -76.26 1.96 -0.98 1.96 -0.98 1.96 -0.98 1.96 -0.98 1.96 -0.98 1.96 -0.98 1.96 0 1.96 0 1.96 0 1.96 0 1.96 0 1.96 0 1.96 0 1.96 0 1.96 0 1.96 0.98 1.96 0.98 1.96 0.98 1.96 0.98 1.96 0.98 1.96 0.98 1.96 0.98 1.96 0.98 1.96 0.98 1.96 0.98 1.96 0.98 1.96 1.96 1.96 1.96 0.98 1.96 0.98 1.96 0.98 1.96 0.98 1.96 0.98 1.96 0.98 1.96 0.98 1.96 0.98 1.96 0.98 1.96 0.98 1.96 0 1.96 0 1.96 0 1.96 0 1.96 0 1.96 0 1.96 0 1.96 0 1.96 0 1.96 -0.98 1.96 -0.98 1.96 -0.98 1.96 -0.98 1.96 -0.98 1.96 -0.98 1.96 -0.98 1.96 -0.98 1.96 -0.98 1.96 -0.98 1.96 -0.98 1.96 -1.96 1.96 -1.96 1.96 -1.96 0.98 -1.96 0.98 -1.96 0.98 -1.96 0.98 1.87 0.82zm-1079.33 -831.99l1082.27 757.69 -50.84 72.34 -1082.27 -757.69 2.93 -74.3 46.93 1.96 0.98 0zm0 0l-50.84 72.34 -1.96 -0.98 -1.96 -0.98 -1.96 -1.96 -1.96 -1.96 -0.98 -1.96 -0.98 -1.96 -0.98 -1.96 -0.98 -1.96 -0.98 -1.96 -0.98 -1.96 -0.98 -1.96 -0.98 -1.96 -0.98 -1.96 -0.98 -1.96 -0.98 -1.96 0 -1.96 0 -1.96 0 -1.96 0 -1.96 0 -1.96 0 -1.96 0 -1.96 0 -1.96 0 -1.96 0.98 -1.96 0.98 -1.96 0.98 -1.96 0.98 -1.96 0.98 -1.96 0.98 -1.96 0.98 -1.96 0.98 -1.96 0.98 -1.96 0.98 -1.96 1.96 -1.96 1.96 -1.96 1.96 -0.98 1.96 -0.98 1.96 -0.98 1.96 -0.98 1.96 -0.98 1.96 -0.98 1.96 -0.98 1.96 -0.98 1.96 -0.98 1.96 -0.98 1.96 -0.98 1.96 0 1.96 0 1.96 0 1.96 0 1.96 0 1.96 0 1.96 0 1.96 0 1.96 0 1.96 0.98 1.96 0.98 1.96 0.98 1.96 0.98 1.96 0.98 1.96 0.98 1.96 0.98 1.96 0.98 0.87 -0.82zm-1493.87 832.97l1446.93 -834.92 44 76.26 -1446.93 834.92 -46.93 -1.96 2.93 -74.3zm0 0l44 76.26 -1.96 0.98 -1.96 0.98 -1.96 0.98 -1.96 0.98 -1.96 0.98 -1.96 0.98 -1.96 0 -1.96 0 -1.96 0 -1.96 0 -1.96 0 -1.96 0 -1.96 0 -1.96 0 -1.96 0 -1.96 -0.98 -1.96 -0.98 -1.96 -0.98 -1.96 -0.98 -1.96 -0.98 -1.96 -0.98 -1.96 -0.98 -1.96 -0.98 -1.96 -0.98 -1.96 -0.98 -1.96 -0.98 -1.96 -1.96 -1.96 -1.96 -0.98 -1.96 -0.98 -1.96 -0.98 -1.96 -0.98 -1.96 -0.98 -1.96 -0.98 -1.96 -0.98 -1.96 -0.98 -1.96 -0.98 -1.96 -0.98 -1.96 0 -1.96 0 -1.96 0 -1.96 0 -1.96 0 -1.96 0 -1.96 0 -1.96 0 -1.96 0 -1.96 0.98 -1.96 0.98 -1.96 0.98 -1.96 0.98 -1.96 0.98 -1.96 0.98 -1.96 0.98 -1.96 0.98 -1.96 0.98 -1.96 0.98 -1.96 0.98 -1.96 1.96 -1.96 1.96 -1.96 1.96 -0.98 1.96 -0.98 1.96 -0.98 1.96 -0.98 -1.87 -0.82z"/>
  </g>
  <polygon class="fil2 str1" points="4676.62,4211.69 5758.89,4969.37 7204.85,4134.44 6122.58,3376.77 "/>
  <polyline class="fil5 str1" points="5762.81,6146.47 7204.85,5275.38 7204.85,4134.44 5758.89,4969.37 5762.81,6146.47 4676.62,5385.85 4676.62,4211.69 5758.89,4969.37 "/>
  <g id="_1716859016448">
   <path class="fil4" d="M1571.58 3623.14l-87.99 0 0 -1.96 0 -1.96 0 -1.96 0 -1.96 0.98 -1.96 0.98 -1.96 0.98 -1.96 0.98 -1.96 0.98 -1.96 0.98 -1.96 0.98 -1.96 0.98 -1.96 0.98 -1.96 0.98 -1.96 0.98 -1.96 0.98 -1.96 1.96 -0.98 1.96 -0.98 1.96 -0.98 1.96 -0.98 1.96 -0.98 1.96 -0.98 1.96 -0.98 1.96 -0.98 1.96 -0.98 1.96 -0.98 1.96 -0.98 1.96 -0.98 1.96 0 1.96 0 1.96 0 1.96 0 1.96 0 1.96 0 1.96 0 1.96 0 1.96 0.98 1.96 0.98 1.96 0.98 1.96 0.98 1.96 0.98 1.96 0.98 1.96 0.98 1.96 0.98 1.96 0.98 1.96 0.98 1.96 0.98 1.96 0.98 0.98 1.96 0.98 1.96 0.98 1.96 0.98 1.96 0.98 1.96 0.98 1.96 0.98 1.96 0.98 1.96 0.98 1.96 0.98 1.96 0.98 1.96 0.98 1.96 0 1.96 0 1.96 0 1.96 0 1.96 1.77 0zm-87.99 1174.17l0 -1174.17 87.99 0 0 1174.17 -69.41 36.17 -18.58 -36.17zm0 0l87.99 0 0 1.96 0 1.96 0 1.96 0 1.96 -0.98 1.96 -0.98 1.96 -0.98 1.96 -0.98 1.96 -0.98 1.96 -0.98 1.96 -0.98 1.96 -0.98 1.96 -0.98 1.96 -0.98 1.96 -0.98 1.96 -0.98 1.96 -1.96 0.98 -1.96 0.98 -1.96 0.98 -1.96 0.98 -1.96 0.98 -1.96 0.98 -1.96 0.98 -1.96 0.98 -1.96 0.98 -1.96 0.98 -1.96 0.98 -1.96 0.98 -1.96 0 -1.96 0 -1.96 0 -1.96 0 -1.96 0 -1.96 0 -1.96 0 -1.96 0 -1.96 -0.98 -1.96 -0.98 -1.96 -0.98 -1.96 -0.98 -1.96 -0.98 -1.96 -0.98 -1.96 -0.98 -1.96 -0.98 -1.96 -0.98 -1.96 -0.98 -1.96 -0.98 -1.96 -0.98 -0.98 -1.96 -0.98 -1.96 -0.98 -1.96 -0.98 -1.96 -0.98 -1.96 -0.98 -1.96 -0.98 -1.96 -0.98 -1.96 -0.98 -1.96 -0.98 -1.96 -0.98 -1.96 -0.98 -1.96 0 -1.96 0 -1.96 0 -1.96 0 -1.96 -1.77 0zm1104.75 796.79l-1086.18 -760.62 50.84 -72.34 1086.18 760.62 18.58 36.17 -69.41 36.17zm0 0l50.84 -72.34 1.96 0.98 1.96 0.98 1.96 1.96 1.96 1.96 0.98 1.96 0.98 1.96 0.98 1.96 0.98 1.96 0.98 1.96 0.98 1.96 0.98 1.96 0.98 1.96 0.98 1.96 0.98 1.96 0.98 1.96 0 1.96 0 1.96 0 1.96 0 1.96 0 1.96 0 1.96 0 1.96 0 1.96 0 1.96 -0.98 1.96 -0.98 1.96 -0.98 1.96 -0.98 1.96 -0.98 1.96 -0.98 1.96 -0.98 1.96 -0.98 1.96 -0.98 1.96 -0.98 1.96 -1.96 1.96 -1.96 1.96 -1.96 0.98 -1.96 0.98 -1.96 0.98 -1.96 0.98 -1.96 0.98 -1.96 0.98 -1.96 0.98 -1.96 0.98 -1.96 0.98 -1.96 0.98 -1.96 0.98 -1.96 0 -1.96 0 -1.96 0 -1.96 0 -1.96 0 -1.96 0 -1.96 0 -1.96 0 -1.96 0 -1.96 -0.98 -1.96 -0.98 -1.96 -0.98 -1.96 -0.98 -1.96 -0.98 -1.96 -0.98 -1.96 -0.98 -1.96 -0.98 -0.87 0.82zm65.5 -1213.28l3.91 1177.11 -87.99 0 -3.91 -1177.11 21.5 -38.13 65.5 38.13 0.98 0zm0 0l-87.99 0 0 -1.96 0 -1.96 0 -1.96 0 -1.96 0 -1.96 0.98 -1.96 0.98 -1.96 0.98 -1.96 0.98 -1.96 0.98 -1.96 0.98 -1.96 0.98 -1.96 0.98 -1.96 0.98 -1.96 0.98 -1.96 0.98 -1.96 1.96 -0.98 1.96 -0.98 1.96 -0.98 1.96 -0.98 1.96 -0.98 1.96 -0.98 1.96 -0.98 1.96 -0.98 1.96 -0.98 1.96 -0.98 1.96 -0.98 1.96 -0.98 1.96 0 1.96 0 1.96 0 1.96 0 1.96 0 1.96 0 1.96 0 1.96 0 1.96 0 1.96 0.98 1.96 0.98 1.96 0.98 1.96 0.98 1.96 0.98 1.96 0.98 1.96 0.98 1.96 0.98 1.96 0.98 1.96 0.98 1.96 0.98 0.98 1.96 0.98 1.96 0.98 1.96 0.98 1.96 0.98 1.96 0.98 1.96 0.98 1.96 0.98 1.96 0.98 1.96 0.98 1.96 0.98 1.96 0.98 1.96 0 1.96 0 1.96 0 1.96 0 1.96 2.75 0.98zm1424.45 -796.79l-1446.93 834.92 -44 -76.26 1446.93 -834.92 65.5 38.13 -21.5 38.13zm0 0l-44 -76.26 1.96 -0.98 1.96 -0.98 1.96 -0.98 1.96 -0.98 1.96 -0.98 1.96 -0.98 1.96 0 1.96 0 1.96 0 1.96 0 1.96 0 1.96 0 1.96 0 1.96 0 1.96 0 1.96 0.98 1.96 0.98 1.96 0.98 1.96 0.98 1.96 0.98 1.96 0.98 1.96 0.98 1.96 0.98 1.96 0.98 1.96 0.98 1.96 0.98 1.96 1.96 1.96 1.96 0.98 1.96 0.98 1.96 0.98 1.96 0.98 1.96 0.98 1.96 0.98 1.96 0.98 1.96 0.98 1.96 0.98 1.96 0.98 1.96 0 1.96 0 1.96 0 1.96 0 1.96 0 1.96 0 1.96 0 1.96 0 1.96 0 1.96 -0.98 1.96 -0.98 1.96 -0.98 1.96 -0.98 1.96 -0.98 1.96 -0.98 1.96 -0.98 1.96 -0.98 1.96 -0.98 1.96 -0.98 1.96 -0.98 1.96 -1.96 1.96 -1.96 1.96 -1.96 0.98 -1.96 0.98 -1.96 0.98 -1.96 0.98 1.87 0.82zm-65.5 1102.8l0 -1140.93 87.99 0 0 1140.93 -21.5 37.15 -66.48 -37.15zm0 0l87.99 0 0 1.96 0 1.96 0 1.96 0 1.96 -0.98 1.96 -0.98 1.96 -0.98 1.96 -0.98 1.96 -0.98 1.96 -0.98 1.96 -0.98 1.96 -0.98 1.96 -0.98 1.96 -0.98 1.96 -0.98 1.96 -0.98 1.96 -1.96 0.98 -1.96 0.98 -1.96 0.98 -1.96 0.98 -1.96 0.98 -1.96 0.98 -1.96 0.98 -1.96 0.98 -1.96 0.98 -1.96 0.98 -1.96 0.98 -1.96 0.98 -1.96 0 -1.96 0 -1.96 0 -1.96 0 -1.96 0 -1.96 0 -1.96 0 -1.96 0 -1.96 -0.98 -1.96 -0.98 -1.96 -0.98 -1.96 -0.98 -1.96 -0.98 -1.96 -0.98 -1.96 -0.98 -1.96 -0.98 -1.96 -0.98 -1.96 -0.98 -1.96 -0.98 -1.96 -0.98 -0.98 -1.96 -0.98 -1.96 -0.98 -1.96 -0.98 -1.96 -0.98 -1.96 -0.98 -1.96 -0.98 -1.96 -0.98 -1.96 -0.98 -1.96 -0.98 -1.96 -0.98 -1.96 -0.98 -1.96 0 -1.96 0 -1.96 0 -1.96 0 -1.96 -1.77 0zm-1421.52 832.96l1443.02 -871.09 44.97 75.28 -1443.02 871.09 -44.97 -75.28zm0 0l44.97 75.28 -1.96 0.98 -1.96 0.98 -1.96 0.98 -1.96 0.98 -1.96 0.98 -1.96 0.98 -1.96 0 -1.96 0 -1.96 0 -1.96 0 -1.96 0 -1.96 0 -1.96 0 -1.96 0 -1.96 0 -1.96 0 -1.96 -0.98 -1.96 -0.98 -1.96 -0.98 -1.96 -0.98 -1.96 -0.98 -1.96 -0.98 -1.96 -0.98 -1.96 -0.98 -1.96 -0.98 -1.96 -0.98 -1.96 -1.96 -1.96 -1.96 -0.98 -1.96 -0.98 -1.96 -0.98 -1.96 -0.98 -1.96 -0.98 -1.96 -0.98 -1.96 -0.98 -1.96 -0.98 -1.96 -0.98 -1.96 -0.98 -1.96 0 -1.96 0 -1.96 0 -1.96 0 -1.96 0 -1.96 0 -1.96 0 -1.96 0 -1.96 0 -1.96 0 -1.96 0.98 -1.96 0.98 -1.96 0.98 -1.96 0.98 -1.96 0.98 -1.96 0.98 -1.96 0.98 -1.96 0.98 -1.96 0.98 -1.96 0.98 -1.96 1.96 -1.96 1.96 -1.96 1.96 -0.98 1.96 -0.98 1.96 -0.98 1.96 -0.98 -1.86 -0.82z"/>
  </g>
  <polygon class="fil2 str1" points="7406.26,4770.9 7204.85,4134.44 7204.85,4630.12 "/>
  <polygon class="fil1 str1" points="5773.56,4969.37 5442.14,5652.76 4308.05,4868.67 4647.3,4192.13 "/>
  <polygon class="fil2 str0" points="2850.36,4228.3 2846.44,3272.15 2410.41,2967.12 1967.54,2657.21 1967.54,3610.42 2288.21,3834.31 2836.67,4218.52 "/>
  <polygon class="fil1 str0" points="4021.59,3520.48 4021.59,2593.65 2846.44,3272.15 2850.36,4228.3 "/>
  <g id="_1716859020032">
   <polygon class="fil3" points="1967.54,2657.21 2846.44,3272.15 4021.59,2593.65 3142.68,1978.71 "/>
   <path id="_1" class="fil4" d="M2822.01 3308.32l-878.92 -615.92 50.84 -72.34 878.92 615.92 -2.93 74.3 -46.93 -1.96 -0.98 0zm0 0l50.84 -72.34 1.96 0.98 1.96 0.98 1.96 1.96 1.96 1.96 0.98 1.96 0.98 1.96 0.98 1.96 0.98 1.96 0.98 1.96 0.98 1.96 0.98 1.96 0.98 1.96 0.98 1.96 0.98 1.96 0.98 1.96 0 1.96 0 1.96 0 1.96 0 1.96 0 1.96 0 1.96 0 1.96 0 1.96 0 1.96 -0.98 1.96 -0.98 1.96 -0.98 1.96 -0.98 1.96 -0.98 1.96 -0.98 1.96 -0.98 1.96 -0.98 1.96 -0.98 1.96 -0.98 1.96 -1.96 1.96 -1.96 1.96 -1.96 0.98 -1.96 0.98 -1.96 0.98 -1.96 0.98 -1.96 0.98 -1.96 0.98 -1.96 0.98 -1.96 0.98 -1.96 0.98 -1.96 0.98 -1.96 0.98 -1.96 0 -1.96 0 -1.96 0 -1.96 0 -1.96 0 -1.96 0 -1.96 0 -1.96 0 -1.96 0 -1.96 -0.98 -1.96 -0.98 -1.96 -0.98 -1.96 -0.98 -1.96 -0.98 -1.96 -0.98 -1.96 -0.98 -1.96 -0.98 -0.87 0.82zm1222.08 -676.54l-1175.15 678.5 -44 -76.26 1175.15 -678.5 46.93 1.96 -2.93 74.3zm0 0l-44 -76.26 1.96 -0.98 1.96 -0.98 1.96 -0.98 1.96 -0.98 1.96 -0.98 1.96 -0.98 1.96 0 1.96 0 1.96 0 1.96 0 1.96 0 1.96 0 1.96 0 1.96 0 1.96 0 1.96 0.98 1.96 0.98 1.96 0.98 1.96 0.98 1.96 0.98 1.96 0.98 1.96 0.98 1.96 0.98 1.96 0.98 1.96 0.98 1.96 0.98 1.96 1.96 1.96 1.96 0.98 1.96 0.98 1.96 0.98 1.96 0.98 1.96 0.98 1.96 0.98 1.96 0.98 1.96 0.98 1.96 0.98 1.96 0.98 1.96 0 1.96 0 1.96 0 1.96 0 1.96 0 1.96 0 1.96 0 1.96 0 1.96 0 1.96 -0.98 1.96 -0.98 1.96 -0.98 1.96 -0.98 1.96 -0.98 1.96 -0.98 1.96 -0.98 1.96 -0.98 1.96 -0.98 1.96 -0.98 1.96 -0.98 1.96 -1.96 1.96 -1.96 1.96 -1.96 0.98 -1.96 0.98 -1.96 0.98 -1.96 0.98 1.87 0.82zm-875.99 -689.25l878.92 615.92 -50.84 72.34 -878.92 -615.92 2.93 -74.3 46.93 1.96 0.98 0zm0 0l-50.84 72.34 -1.96 -0.98 -1.96 -0.98 -1.96 -1.96 -1.96 -1.96 -0.98 -1.96 -0.98 -1.96 -0.98 -1.96 -0.98 -1.96 -0.98 -1.96 -0.98 -1.96 -0.98 -1.96 -0.98 -1.96 -0.98 -1.96 -0.98 -1.96 -0.98 -1.96 0 -1.96 0 -1.96 0 -1.96 0 -1.96 0 -1.96 0 -1.96 0 -1.96 0 -1.96 0 -1.96 0.98 -1.96 0.98 -1.96 0.98 -1.96 0.98 -1.96 0.98 -1.96 0.98 -1.96 0.98 -1.96 0.98 -1.96 0.98 -1.96 0.98 -1.96 1.96 -1.96 1.96 -1.96 1.96 -0.98 1.96 -0.98 1.96 -0.98 1.96 -0.98 1.96 -0.98 1.96 -0.98 1.96 -0.98 1.96 -0.98 1.96 -0.98 1.96 -0.98 1.96 -0.98 1.96 0 1.96 0 1.96 0 1.96 0 1.96 0 1.96 0 1.96 0 1.96 0 1.96 0 1.96 0.98 1.96 0.98 1.96 0.98 1.96 0.98 1.96 0.98 1.96 0.98 1.96 0.98 1.96 0.98 0.87 -0.82zm-1222.08 676.55l1175.15 -678.5 44 76.26 -1175.15 678.5 -46.93 -1.96 2.93 -74.3zm0 0l44 76.26 -1.96 0.98 -1.96 0.98 -1.96 0.98 -1.96 0.98 -1.96 0.98 -1.96 0.98 -1.96 0 -1.96 0 -1.96 0 -1.96 0 -1.96 0 -1.96 0 -1.96 0 -1.96 0 -1.96 0 -1.96 -0.98 -1.96 -0.98 -1.96 -0.98 -1.96 -0.98 -1.96 -0.98 -1.96 -0.98 -1.96 -0.98 -1.96 -0.98 -1.96 -0.98 -1.96 -0.98 -1.96 -0.98 -1.96 -1.96 -1.96 -1.96 -0.98 -1.96 -0.98 -1.96 -0.98 -1.96 -0.98 -1.96 -0.98 -1.96 -0.98 -1.96 -0.98 -1.96 -0.98 -1.96 -0.98 -1.96 -0.98 -1.96 0 -1.96 0 -1.96 0 -1.96 0 -1.96 0 -1.96 0 -1.96 0 -1.96 0 -1.96 0 -1.96 0.98 -1.96 0.98 -1.96 0.98 -1.96 0.98 -1.96 0.98 -1.96 0.98 -1.96 0.98 -1.96 0.98 -1.96 0.98 -1.96 0.98 -1.96 0.98 -1.96 1.96 -1.96 1.96 -1.96 1.96 -0.98 1.96 -0.98 1.96 -0.98 1.96 -0.98 -1.87 -0.82z"/>
  </g>
  <g id="_1716859021216">
   <path class="fil4" d="M2011.53 2657.21l-87.99 0 0 -1.96 0 -1.96 0 -1.96 0 -1.96 0.98 -1.96 0.98 -1.96 0.98 -1.96 0.98 -1.96 0.98 -1.96 0.98 -1.96 0.98 -1.96 0.98 -1.96 0.98 -1.96 0.98 -1.96 0.98 -1.96 0.98 -1.96 1.96 -0.98 1.96 -0.98 1.96 -0.98 1.96 -0.98 1.96 -0.98 1.96 -0.98 1.96 -0.98 1.96 -0.98 1.96 -0.98 1.96 -0.98 1.96 -0.98 1.96 -0.98 1.96 0 1.96 0 1.96 0 1.96 0 1.96 0 1.96 0 1.96 0 1.96 0 1.96 0.98 1.96 0.98 1.96 0.98 1.96 0.98 1.96 0.98 1.96 0.98 1.96 0.98 1.96 0.98 1.96 0.98 1.96 0.98 1.96 0.98 1.96 0.98 0.98 1.96 0.98 1.96 0.98 1.96 0.98 1.96 0.98 1.96 0.98 1.96 0.98 1.96 0.98 1.96 0.98 1.96 0.98 1.96 0.98 1.96 0.98 1.96 0 1.96 0 1.96 0 1.96 0 1.96 1.77 0zm-87.99 953.21l0 -953.22 87.99 0 0 953.22 -69.41 36.17 -18.58 -36.17zm0 0l87.99 0 0 1.96 0 1.96 0 1.96 0 1.96 -0.98 1.96 -0.98 1.96 -0.98 1.96 -0.98 1.96 -0.98 1.96 -0.98 1.96 -0.98 1.96 -0.98 1.96 -0.98 1.96 -0.98 1.96 -0.98 1.96 -0.98 1.96 -1.96 0.98 -1.96 0.98 -1.96 0.98 -1.96 0.98 -1.96 0.98 -1.96 0.98 -1.96 0.98 -1.96 0.98 -1.96 0.98 -1.96 0.98 -1.96 0.98 -1.96 0.98 -1.96 0 -1.96 0 -1.96 0 -1.96 0 -1.96 0 -1.96 0 -1.96 0 -1.96 0 -1.96 -0.98 -1.96 -0.98 -1.96 -0.98 -1.96 -0.98 -1.96 -0.98 -1.96 -0.98 -1.96 -0.98 -1.96 -0.98 -1.96 -0.98 -1.96 -0.98 -1.96 -0.98 -1.96 -0.98 -0.98 -1.96 -0.98 -1.96 -0.98 -1.96 -0.98 -1.96 -0.98 -1.96 -0.98 -1.96 -0.98 -1.96 -0.98 -1.96 -0.98 -1.96 -0.98 -1.96 -0.98 -1.96 -0.98 -1.96 0 -1.96 0 -1.96 0 -1.96 0 -1.96 -1.77 0zm900.42 654.05l-881.85 -617.88 50.84 -72.34 881.85 617.88 18.58 36.17 -69.41 36.17zm0 0l50.84 -72.34 1.96 0.98 1.96 0.98 1.96 1.96 1.96 1.96 0.98 1.96 0.98 1.96 0.98 1.96 0.98 1.96 0.98 1.96 0.98 1.96 0.98 1.96 0.98 1.96 0.98 1.96 0.98 1.96 0.98 1.96 0 1.96 0 1.96 0 1.96 0 1.96 0 1.96 0 1.96 0 1.96 0 1.96 0 1.96 -0.98 1.96 -0.98 1.96 -0.98 1.96 -0.98 1.96 -0.98 1.96 -0.98 1.96 -0.98 1.96 -0.98 1.96 -0.98 1.96 -0.98 1.96 -1.96 1.96 -1.96 1.96 -1.96 0.98 -1.96 0.98 -1.96 0.98 -1.96 0.98 -1.96 0.98 -1.96 0.98 -1.96 0.98 -1.96 0.98 -1.96 0.98 -1.96 0.98 -1.96 0.98 -1.96 0 -1.96 0 -1.96 0 -1.96 0 -1.96 0 -1.96 0 -1.96 0 -1.96 0 -1.96 0 -1.96 -0.98 -1.96 -0.98 -1.96 -0.98 -1.96 -0.98 -1.96 -0.98 -1.96 -0.98 -1.96 -0.98 -1.96 -0.98 -0.87 0.82zm66.48 -992.32l2.93 956.15 -87.99 0 -2.93 -956.15 21.5 -38.13 65.5 38.13 0.98 0zm0 0l-87.99 0 0 -1.96 0 -1.96 0 -1.96 0 -1.96 0 -1.96 0.98 -1.96 0.98 -1.96 0.98 -1.96 0.98 -1.96 0.98 -1.96 0.98 -1.96 0.98 -1.96 0.98 -1.96 0.98 -1.96 0.98 -1.96 0.98 -1.96 1.96 -0.98 1.96 -0.98 1.96 -0.98 1.96 -0.98 1.96 -0.98 1.96 -0.98 1.96 -0.98 1.96 -0.98 1.96 -0.98 1.96 -0.98 1.96 -0.98 1.96 -0.98 1.96 0 1.96 0 1.96 0 1.96 0 1.96 0 1.96 0 1.96 0 1.96 0 1.96 0 1.96 0.98 1.96 0.98 1.96 0.98 1.96 0.98 1.96 0.98 1.96 0.98 1.96 0.98 1.96 0.98 1.96 0.98 1.96 0.98 1.96 0.98 0.98 1.96 0.98 1.96 0.98 1.96 0.98 1.96 0.98 1.96 0.98 1.96 0.98 1.96 0.98 1.96 0.98 1.96 0.98 1.96 0.98 1.96 0.98 1.96 0 1.96 0 1.96 0 1.96 0 1.96 2.75 0.98zm1152.66 -640.37l-1175.15 678.5 -44 -76.26 1175.15 -678.5 65.5 38.13 -21.5 38.13zm0 0l-44 -76.26 1.96 -0.98 1.96 -0.98 1.96 -0.98 1.96 -0.98 1.96 -0.98 1.96 -0.98 1.96 0 1.96 0 1.96 0 1.96 0 1.96 0 1.96 0 1.96 0 1.96 0 1.96 0 1.96 0.98 1.96 0.98 1.96 0.98 1.96 0.98 1.96 0.98 1.96 0.98 1.96 0.98 1.96 0.98 1.96 0.98 1.96 0.98 1.96 0.98 1.96 1.96 1.96 1.96 0.98 1.96 0.98 1.96 0.98 1.96 0.98 1.96 0.98 1.96 0.98 1.96 0.98 1.96 0.98 1.96 0.98 1.96 0.98 1.96 0 1.96 0 1.96 0 1.96 0 1.96 0 1.96 0 1.96 0 1.96 0 1.96 0 1.96 -0.98 1.96 -0.98 1.96 -0.98 1.96 -0.98 1.96 -0.98 1.96 -0.98 1.96 -0.98 1.96 -0.98 1.96 -0.98 1.96 -0.98 1.96 -0.98 1.96 -1.96 1.96 -1.96 1.96 -1.96 0.98 -1.96 0.98 -1.96 0.98 -1.96 0.98 1.87 0.82zm-65.5 888.7l0 -926.82 87.99 0 0 926.82 -21.5 37.15 -66.48 -37.15zm0 0l87.99 0 0 1.96 0 1.96 0 1.96 0 1.96 -0.98 1.96 -0.98 1.96 -0.98 1.96 -0.98 1.96 -0.98 1.96 -0.98 1.96 -0.98 1.96 -0.98 1.96 -0.98 1.96 -0.98 1.96 -0.98 1.96 -0.98 1.96 -1.96 0.98 -1.96 0.98 -1.96 0.98 -1.96 0.98 -1.96 0.98 -1.96 0.98 -1.96 0.98 -1.96 0.98 -1.96 0.98 -1.96 0.98 -1.96 0.98 -1.96 0.98 -1.96 0 -1.96 0 -1.96 0 -1.96 0 -1.96 0 -1.96 0 -1.96 0 -1.96 0 -1.96 -0.98 -1.96 -0.98 -1.96 -0.98 -1.96 -0.98 -1.96 -0.98 -1.96 -0.98 -1.96 -0.98 -1.96 -0.98 -1.96 -0.98 -1.96 -0.98 -1.96 -0.98 -1.96 -0.98 -0.98 -1.96 -0.98 -1.96 -0.98 -1.96 -0.98 -1.96 -0.98 -1.96 -0.98 -1.96 -0.98 -1.96 -0.98 -1.96 -0.98 -1.96 -0.98 -1.96 -0.98 -1.96 -0.98 -1.96 0 -1.96 0 -1.96 0 -1.96 0 -1.96 -1.77 0zm-1150.7 669.69l1171.24 -706.85 44.97 75.28 -1171.24 706.85 -44.97 -75.28zm0 0l44.97 75.28 -1.96 0.98 -1.96 0.98 -1.96 0.98 -1.96 0.98 -1.96 0.98 -1.96 0.98 -1.96 0 -1.96 0 -1.96 0 -1.96 0 -1.96 0 -1.96 0 -1.96 0 -1.96 0 -1.96 0 -1.96 0 -1.96 -0.98 -1.96 -0.98 -1.96 -0.98 -1.96 -0.98 -1.96 -0.98 -1.96 -0.98 -1.96 -0.98 -1.96 -0.98 -1.96 -0.98 -1.96 -0.98 -1.96 -1.96 -1.96 -1.96 -0.98 -1.96 -0.98 -1.96 -0.98 -1.96 -0.98 -1.96 -0.98 -1.96 -0.98 -1.96 -0.98 -1.96 -0.98 -1.96 -0.98 -1.96 -0.98 -1.96 0 -1.96 0 -1.96 0 -1.96 0 -1.96 0 -1.96 0 -1.96 0 -1.96 0 -1.96 0 -1.96 0 -1.96 0.98 -1.96 0.98 -1.96 0.98 -1.96 0.98 -1.96 0.98 -1.96 0.98 -1.96 0.98 -1.96 0.98 -1.96 0.98 -1.96 0.98 -1.96 1.96 -1.96 1.96 -1.96 1.96 -0.98 1.96 -0.98 1.96 -0.98 1.96 -0.98 -1.86 -0.82z"/>
  </g>
  <line class="fil6 str1" x1="2401.61" y1="2972.01" x2="3588.5" y2= "2286.67" />
  <line class="fil6 str1" x1="2047.7" y1="3973.13" x2="2288.21" y2= "3834.31" />
  <polyline class="fil6 str1" points="6122.58,3376.77 6122.58,4547.99 6278.04,4652.61 "/>
  <line class="fil6 str1" x1="6122.58" y1="4547.99" x2="5602.47" y2= "4848.14" />
  <path class="fil1 str1" d="M5292.55 3663.22c37.15,83.1 354.89,438.96 564.11,394.97 209.22,-44 525.98,-192.6 543.58,-327.51 17.6,-134.92 1.96,-881.85 1.96,-881.85 0,0 -422.35,350.98 -608.1,350.98 -185.76,0 -485.89,-314.8 -485.89,-314.8 4.89,173.05 -41.06,720.54 -14.67,778.21l-0.99 0z"/>
  <path class="fil7 str1" d="M5298.41 3266.28c26.39,59.64 349.03,276.67 558.25,232.68 209.22,-44 530.87,-228.77 548.47,-364.66 8.8,-70.39 3.91,-149.58 1.96,-360.75 -6.85,-768.44 683.39,-624.72 683.39,-1550.57 0,-651.12 -541.62,-1179.06 -1208.39,-1179.06 -667.74,0 -1208.39,527.93 -1208.39,1179.06 0,796.79 660.9,771.37 623.75,1549.59 -9.78,204.33 -25.42,435.06 0.98,494.69l-0.01 -0.98z"/>
  <path class="fil5 str1" d="M6407.09 3492.13c0,0 -415.51,310.9 -601.27,309.92 -185.76,0 -543.58,-285.48 -543.58,-285.48"/>
  <g id="_1716859035776">
   <path class="fil4" d="M5612.25 3928.16l-79.19 39.11 -0.98 -1.96 -0.98 -1.96 -0.98 -1.96 -0.98 -1.96 -0.98 -1.96 0 -1.96 0 -1.96 0 -1.96 0 -1.96 0 -1.96 0 -1.96 0 -1.96 0 -1.96 0 -1.96 0.98 -1.96 0.98 -1.96 0.98 -1.96 0.98 -1.96 0.98 -1.96 0.98 -1.96 0.98 -1.96 0.98 -1.96 0.98 -1.96 0.98 -1.96 0.98 -1.96 1.96 -1.96 1.96 -0.98 1.96 -0.98 1.96 -0.98 1.96 -0.98 1.96 -0.98 1.96 -0.98 1.96 -0.98 1.96 -0.98 1.96 -0.98 1.96 -0.98 1.96 -0.98 1.96 0 1.96 0 1.96 0 1.96 0 1.96 0 1.96 0 1.96 0 1.96 0 1.96 0 1.96 0.98 1.96 0.98 1.96 0.98 1.96 0.98 1.96 0.98 1.96 0.98 1.96 0.98 1.96 0.98 1.96 0.98 1.96 0.98 1.96 0.98 1.96 1.96 0.98 1.96 0.98 1.96 0.98 1.96 0.98 1.96 0.98 1.96 0.98 1.96 2.77 -1.88zm232.68 202.37l-3.91 87.99 0 0 -18.58 -1.96 -18.58 -2.93 -17.6 -3.91 -16.62 -5.87 -16.62 -6.85 -15.65 -7.82 -14.67 -7.82 -14.67 -8.8 -13.69 -9.78 -13.69 -9.78 -12.71 -10.76 -11.73 -10.76 -11.73 -10.76 -10.76 -11.73 -10.76 -11.73 -9.78 -11.73 -9.78 -11.73 -8.8 -10.76 -7.82 -10.76 -7.82 -10.76 -6.85 -9.78 -6.85 -9.78 -5.87 -8.8 -4.89 -8.8 -4.89 -7.82 -3.91 -6.85 -3.91 -6.85 -2.93 -5.87 -1.96 -3.91 -1.96 -2.93 -0.98 -1.96 -0.98 -0.98 79.19 -39.11 0 0 0.98 1.96 0.98 2.93 1.96 3.91 2.93 4.89 2.93 5.87 3.91 5.87 3.91 6.85 4.89 7.82 4.89 7.82 5.87 8.8 5.87 8.8 6.85 8.8 6.85 9.78 7.82 9.78 7.82 9.78 8.8 9.78 8.8 9.78 8.8 8.8 9.78 8.8 9.78 8.8 9.78 7.82 9.78 7.82 10.76 6.85 10.76 6.85 10.76 5.87 10.76 4.89 10.76 3.91 10.76 3.91 10.76 2.93 11.73 1.96 11.73 0.98 0 0 -0.02 -0.97zm262.01 -211.17l67.45 56.71 -9.78 11.73 -9.78 11.73 -9.78 11.73 -9.78 11.73 -9.78 10.76 -9.78 10.76 -9.78 10.76 -9.78 10.76 -9.78 10.76 -9.78 10.76 -9.78 9.78 -9.78 9.78 -9.78 9.78 -9.78 8.8 -9.78 8.8 -9.78 8.8 -9.78 7.82 -9.78 7.82 -10.76 7.82 -10.76 6.85 -10.76 6.85 -10.76 5.87 -10.76 5.87 -10.76 5.87 -10.76 4.89 -10.76 3.91 -10.76 3.91 -10.76 2.93 -11.73 1.96 -11.73 1.96 -11.73 0.98 -11.73 0 3.91 -87.99 4.89 0 4.89 0 5.87 -0.98 5.87 -0.98 5.87 -1.96 6.85 -1.96 6.85 -2.93 6.85 -2.93 7.82 -3.91 7.82 -3.91 7.82 -4.89 7.82 -4.89 8.8 -5.87 8.8 -5.87 8.8 -6.85 8.8 -6.85 8.8 -7.82 8.8 -7.82 8.8 -7.82 8.8 -8.8 8.8 -8.8 8.8 -8.8 9.78 -9.78 9.78 -9.78 9.78 -9.78 9.78 -9.78 9.78 -10.76 9.78 -10.76 9.78 -10.76 9.78 -10.76 9.78 -10.76 9.78 -10.76 -5.84 -2.92zm67.46 56.71l-67.45 -56.71 1.96 -1.96 1.96 -1.96 1.96 -1.96 1.96 -0.98 1.96 -0.98 1.96 -0.98 1.96 -0.98 1.96 -0.98 1.96 -0.98 1.96 -0.98 1.96 -0.98 1.96 -0.98 1.96 -0.98 1.96 0 1.96 0 1.96 0 1.96 0 1.96 0 1.96 0 1.96 0 1.96 0 1.96 0 1.96 0 1.96 0.98 1.96 0.98 1.96 0.98 1.96 0.98 1.96 0.98 1.96 0.98 1.96 0.98 1.96 0.98 1.96 0.98 1.96 1.96 1.96 1.96 1.96 1.96 0.98 1.96 0.98 1.96 0.98 1.96 0.98 1.96 0.98 1.96 0.98 1.96 0.98 1.96 0.98 1.96 0.98 1.96 0.98 1.96 0 1.96 0 1.96 0 1.96 0 1.96 0 1.96 0 1.96 0 1.96 0 1.96 0 1.96 0 1.96 -0.98 1.96 -0.98 1.96 -0.98 1.96 -0.98 1.96 -0.98 1.96 -0.98 1.96 -0.98 1.96 -0.98 1.96 -0.98 1.96 -2.11 0.86z"/>
  </g>
  <polygon class="fil6 str2" points="6064.9,1545.61 5913.37,3147.01 5847.86,3176.34 5713.92,1747.98 "/>
 </g>
</svg>
