<?xml version="1.0" encoding="UTF-8" standalone="no"?>
<!-- Creator: CorelDRAW X5 -->

<svg
   xmlns:dc="http://purl.org/dc/elements/1.1/"
   xmlns:cc="http://creativecommons.org/ns#"
   xmlns:rdf="http://www.w3.org/1999/02/22-rdf-syntax-ns#"
   xmlns:svg="http://www.w3.org/2000/svg"
   xmlns="http://www.w3.org/2000/svg"
   xmlns:sodipodi="http://sodipodi.sourceforge.net/DTD/sodipodi-0.dtd"
   xmlns:inkscape="http://www.inkscape.org/namespaces/inkscape"
   xml:space="preserve"
   width="95.070427mm"
   height="75.672928mm"
   style="clip-rule:evenodd;fill-rule:evenodd;image-rendering:optimizeQuality;shape-rendering:geometricPrecision;text-rendering:geometricPrecision"
   viewBox="0 0 9721.9452 7738.1588"
   version="1.1"
   id="svg6539"
   sodipodi:docname="icone-industria.svg"
   inkscape:version="0.92.4 (5da689c313, 2019-01-14)"><metadata
   id="metadata6543"><rdf:RDF><cc:Work
       rdf:about=""><dc:format>image/svg+xml</dc:format><dc:type
         rdf:resource="http://purl.org/dc/dcmitype/StillImage" /><dc:title></dc:title></cc:Work></rdf:RDF></metadata><sodipodi:namedview
   pagecolor="#ffffff"
   bordercolor="#666666"
   borderopacity="1"
   objecttolerance="10"
   gridtolerance="10"
   guidetolerance="10"
   inkscape:pageopacity="0"
   inkscape:pageshadow="2"
   inkscape:window-width="1366"
   inkscape:window-height="705"
   id="namedview6541"
   showgrid="false"
   inkscape:zoom="0.38469436"
   inkscape:cx="190.78523"
   inkscape:cy="-33.583353"
   inkscape:window-x="-8"
   inkscape:window-y="-8"
   inkscape:window-maximized="1"
   inkscape:current-layer="Camada_x0020_1"
   fit-margin-top="0"
   fit-margin-left="0"
   fit-margin-right="0"
   fit-margin-bottom="0" />
 <defs
   id="defs6382">
  <style
   type="text/css"
   id="style6380">
   <![CDATA[
    .str2 {stroke:#373435;stroke-width:89.8336;stroke-linecap:round;stroke-linejoin:round}
    .str5 {stroke:#373435;stroke-width:89.8439;stroke-linecap:round;stroke-linejoin:round}
    .str1 {stroke:#373435;stroke-width:89.8541;stroke-linecap:round;stroke-linejoin:round}
    .str4 {stroke:#373435;stroke-width:89.8541;stroke-linecap:round;stroke-linejoin:round}
    .str0 {stroke:black;stroke-width:89.8541;stroke-linecap:round;stroke-linejoin:round}
    .str3 {stroke:#373435;stroke-width:89.8643;stroke-linecap:round;stroke-linejoin:round}
    .fil5 {fill:none}
    .fil1 {fill:#0A4A90}
    .fil3 {fill:#0D86FF}
    .fil2 {fill:#0E6BCE}
    .fil0 {fill:#1ADCFF}
    .fil8 {fill:#50ACFF}
    .fil6 {fill:#FBCD00}
    .fil4 {fill:#373435;fill-rule:nonzero}
    .fil9 {fill:#373435;fill-rule:nonzero}
    .fil7 {fill:#FEFEFE;fill-rule:nonzero}
   ]]>
  </style>
 </defs>
 <g
   id="Camada_x0020_1"
   transform="translate(1.4724264,-8860.2764)">
  <metadata
   id="CorelCorpID_0Corel-Layer" />
  <path
   class="fil0"
   d="m 627,13753 c 135,94 206,239 199,404 -7,165 -91,303 -234,385 l -359,207 c -143,82 -226,220 -234,385 -7,165 64,309 199,404 l 1225,858 c 153,107 341,115 502,22 l 701,-405 c 161,-93 350,-85 502,22 l 681,477 c 153,107 341,115 502,22 l 1377,-795 166,116 c 153,107 341,115 502,22 l 3130,-1807 c 143,-82 226,-220 234,-385 7,-165 -64,-309 -199,-404 L 6171,10935 c -153,-107 -341,-115 -502,-22 l -3001,1733 -234,-164 c -153,-107 -341,-115 -502,-22 -381,220 -761,440 -1142,659 -215,72 -388,478 -166,633 z"
   id="path6385"
   inkscape:connector-curvature="0"
   style="fill:#1adcff" />
  
  
  <polygon
   class="fil1 str0"
   points="6617,9515 5138,10369 6245,11144 7724,10290 "
   id="polygon6391"
   style="fill:#0a4a90;stroke:#000000;stroke-width:89.85410309;stroke-linecap:round;stroke-linejoin:round" />
  <polygon
   class="fil2 str0"
   points="5138,10369 5138,12737 6249,13515 6245,11144 "
   id="polygon6393"
   style="fill:#0e6bce;stroke:#000000;stroke-width:89.85410309;stroke-linecap:round;stroke-linejoin:round" />
  <path
   class="fil3 str0"
   d="m 7724,12624 v -2334 l -1480,854 4,2371 z m -953,-74 347,-206 v 630 l -347,205 v -628 z"
   id="path6395"
   inkscape:connector-curvature="0"
   style="fill:#0d86ff;stroke:#000000;stroke-width:89.85410309;stroke-linecap:round;stroke-linejoin:round" />
  
  
  
  
  
  
  
  <polygon
   class="fil5 str1"
   points="7724,10290 6617,9515 5138,10369 6245,11144 "
   id="polygon6413"
   style="fill:none;stroke:#373435;stroke-width:89.85410309;stroke-linecap:round;stroke-linejoin:round" />
  <polyline
   class="fil5 str1"
   points="5138,10369 5138,12737 6249,13515 6245,11144 7724,10290 7724,12624 6249,13515 "
   id="polyline6415"
   style="fill:none;stroke:#373435;stroke-width:89.85410309;stroke-linecap:round;stroke-linejoin:round" />
  <polygon
   class="fil2 str0"
   points="2610,10166 2610,13663 4251,14812 4245,11311 "
   id="polygon6417"
   style="fill:#0e6bce;stroke:#000000;stroke-width:89.85410309;stroke-linecap:round;stroke-linejoin:round" />
  <polygon
   class="fil1 str0"
   points="4795,8905 2610,10166 4245,11311 6430,10050 "
   id="polygon6419"
   style="fill:#0a4a90;stroke:#000000;stroke-width:89.85410309;stroke-linecap:round;stroke-linejoin:round" />
  <path
   class="fil3 str0"
   d="m 5168,11335 406,-242 v 477 l -406,240 z m 548,145 v -475 l 406,-242 v 477 z m 0,203 406,-242 v 477 l -406,240 z m 713,1813 v -3447 l -2185,1261 6,3501 879,-530 v -799 l 441,-262 v 795 z m -1814,-1828 406,-242 v 477 l -406,240 z m 0,678 406,-242 v 477 l -406,240 z m 553,830 v -475 l 406,-242 v 477 z m 0,-1164 406,-242 v 477 l -406,240 z m 548,840 v -475 l 406,-242 v 477 z m -1101,188 406,-242 v 477 l -406,240 z"
   id="path6421"
   inkscape:connector-curvature="0"
   style="fill:#0d86ff;stroke:#000000;stroke-width:89.85410309;stroke-linecap:round;stroke-linejoin:round" />
  <polygon
   class="fil5 str2"
   points="6430,10050 4795,8905 2610,10166 4245,11311 "
   id="polygon6423"
   style="fill:none;stroke:#373435;stroke-width:89.83360291;stroke-linecap:round;stroke-linejoin:round" />
  <polyline
   class="fil5 str1"
   points="4251,14812 6430,13497 6430,10050 4245,11311 4251,14812 2610,13663 2610,10166 4245,11311 "
   id="polyline6425"
   style="fill:none;stroke:#373435;stroke-width:89.85410309;stroke-linecap:round;stroke-linejoin:round" />
  <polygon
   class="fil0 str3"
   points="5021,11904 5021,11427 4616,11668 4616,12143 "
   id="polygon6427"
   style="fill:#1adcff;stroke:#373435;stroke-width:89.86430359;stroke-linecap:round;stroke-linejoin:round" />
  <polygon
   class="fil0 str3"
   points="5574,11570 5574,11093 5168,11335 5168,11810 "
   id="polygon6429"
   style="fill:#1adcff;stroke:#373435;stroke-width:89.86430359;stroke-linecap:round;stroke-linejoin:round" />
  <polygon
   class="fil0 str3"
   points="6122,11240 6122,10763 5717,11005 5717,11480 "
   id="polygon6431"
   style="fill:#1adcff;stroke:#373435;stroke-width:89.86430359;stroke-linecap:round;stroke-linejoin:round" />
  <polygon
   class="fil0 str3"
   points="5021,12582 5021,12105 4616,12347 4616,12822 "
   id="polygon6433"
   style="fill:#1adcff;stroke:#373435;stroke-width:89.86430359;stroke-linecap:round;stroke-linejoin:round" />
  <polygon
   class="fil0 str3"
   points="5574,12248 5574,11772 5168,12013 5168,12488 "
   id="polygon6435"
   style="fill:#1adcff;stroke:#373435;stroke-width:89.86430359;stroke-linecap:round;stroke-linejoin:round" />
  <polygon
   class="fil0 str3"
   points="6122,11919 6122,11442 5717,11683 5717,12159 "
   id="polygon6437"
   style="fill:#1adcff;stroke:#373435;stroke-width:89.86430359;stroke-linecap:round;stroke-linejoin:round" />
  <polygon
   class="fil0 str3"
   points="5021,13277 5021,12800 4616,13042 4616,13517 "
   id="polygon6439"
   style="fill:#1adcff;stroke:#373435;stroke-width:89.86430359;stroke-linecap:round;stroke-linejoin:round" />
  <polygon
   class="fil6 str1"
   points="5571,14021 5571,13220 5130,13483 5130,14282 "
   id="polygon6441"
   style="fill:#fbcd00;stroke:#373435;stroke-width:89.85410309;stroke-linecap:round;stroke-linejoin:round" />
  <polygon
   class="fil0 str3"
   points="6122,12613 6122,12137 5717,12378 5717,12853 "
   id="polygon6443"
   style="fill:#1adcff;stroke:#373435;stroke-width:89.86430359;stroke-linecap:round;stroke-linejoin:round" />
  <polygon
   class="fil0 str3"
   points="5574,12937 5574,12460 5168,12702 5168,13177 "
   id="polygon6445"
   style="fill:#1adcff;stroke:#373435;stroke-width:89.86430359;stroke-linecap:round;stroke-linejoin:round" />
  <polygon
   class="fil6 str1"
   points="7118,12974 7118,12344 6772,12551 6772,13179 "
   id="polygon6447"
   style="fill:#fbcd00;stroke:#373435;stroke-width:89.85410309;stroke-linecap:round;stroke-linejoin:round" />
  <polygon
   class="fil1 str3"
   points="2449,13089 2449,12449 1732,13503 1732,12831 939,13961 939,15411 3103,14162 3105,12710 3105,12070 "
   id="polygon6449"
   style="fill:#0a4a90;stroke:#373435;stroke-width:89.86430359;stroke-linecap:round;stroke-linejoin:round" />
  <polygon
   class="fil2 str3"
   points="3358,13726 3358,13087 2642,14140 2642,13468 1849,14598 1849,16048 4013,14799 4015,13347 4015,12708 "
   id="polygon6451"
   style="fill:#0e6bce;stroke:#373435;stroke-width:89.86430359;stroke-linecap:round;stroke-linejoin:round" />
  <polygon
   class="fil2 str3"
   points="1849,14598 939,13961 939,15411 1849,16048 "
   id="polygon6453"
   style="fill:#0e6bce;stroke:#373435;stroke-width:89.86430359;stroke-linecap:round;stroke-linejoin:round" />
  
  
  
  
  
  
  
  
  
  
  
  
  
  
  
  
  
  
  
  
  
  
  
  
  
  
  
  
  
  
  
 </g>
</svg>