<svg id="Ñëîé_1" data-name="Ñëîé 1" xmlns="http://www.w3.org/2000/svg" viewBox="0 0 356.61 378.41"><defs><style>.cls-1{fill:#d4ecff;}.cls-2{fill:#721bd5;}.cls-3{fill:#b45ef4;}.cls-4{fill:#e8a200;}.cls-5{fill:#f9bf30;}.cls-6{fill:#d3008d;}.cls-7{fill:#ff2c9c;}.cls-8{fill:#fdd762;}.cls-9{fill:#8a2ae3;}.cls-10{fill:#95d359;}.cls-11{fill:#c13d1a;}.cls-12{fill:#db5126;}.cls-13{fill:#ef602e;}.cls-14{opacity:0.4;}.cls-15,.cls-16,.cls-20{fill:#fff;}.cls-15{opacity:0.2;}.cls-16{opacity:0.7;}.cls-17{fill:#983be9;}.cls-18{fill:#d8892b;}.cls-19{fill:#ffc2b0;}.cls-21{fill:#ea9c92;}</style></defs><title>ilustracao-xs</title><polygon class="cls-1" points="252.16 378.41 0 232.83 9.37 226.49 261.52 372.07 252.16 378.41"/><path class="cls-1" d="M146.42,218.87c-16.1,9.3-42.21,9.3-58.31,0s-16.1-24.37,0-33.66,42.21-9.3,58.31,0S162.52,209.57,146.42,218.87Z"/><path class="cls-1" d="M219.71,261c-16.1,9.3-42.21,9.3-58.31,0s-16.1-24.37,0-33.66,42.21-9.3,58.31,0S235.81,251.68,219.71,261Z"/><path class="cls-1" d="M296.56,305.37c-16.1,9.3-42.21,9.3-58.31,0s-16.1-24.37,0-33.66,42.21-9.3,58.31,0S312.67,296.08,296.56,305.37Z"/><polygon class="cls-1" points="27.58 301.67 14.34 294.03 1.1 301.67 14.34 309.31 27.58 301.67"/><polygon class="cls-2" points="14.34 300.74 14.34 282.44 28.3 274.38 28.3 292.68 14.34 300.74"/><polygon class="cls-3" points="14.34 282.44 0.39 274.38 0.39 292.68 14.34 300.74 14.34 282.44"/><polygon class="cls-4" points="14.34 282.44 14.34 269.51 28.3 261.45 28.3 274.38 14.34 282.44"/><polygon class="cls-5" points="14.34 269.51 0.39 261.45 0.39 274.38 14.34 282.44 14.34 269.51"/><polygon class="cls-6" points="14.34 269.51 14.34 260.24 28.3 252.18 28.3 261.45 14.34 269.51"/><polygon class="cls-6" points="14.34 260.24 0.39 252.18 0.39 261.45 14.34 269.51 14.34 260.24"/><polygon class="cls-7" points="28.3 252.18 14.34 244.12 0.39 252.18 14.34 260.24 28.3 252.18"/><rect class="cls-8" x="343.08" y="152.59" width="2.84" height="8.25" transform="translate(414.08 528.73) rotate(-125.06)"/><rect class="cls-8" x="345.49" y="147.43" width="2.84" height="8.25" transform="translate(422.1 522.58) rotate(-125.06)"/><rect class="cls-8" x="347.9" y="142.27" width="2.84" height="8.25" transform="translate(430.1 516.43) rotate(-125.05)"/><rect class="cls-8" x="350.3" y="137.12" width="2.84" height="8.25" transform="translate(438.13 510.28) rotate(-125.06)"/><polygon class="cls-1" points="313.81 190.38 298.35 181.45 282.89 190.38 298.35 199.3 313.81 190.38"/><polygon class="cls-2" points="305.59 175.95 305.59 120.36 318.72 112.77 318.72 168.37 305.59 175.95"/><polygon class="cls-3" points="305.59 120.36 292.46 112.77 292.46 168.37 305.59 175.95 305.59 120.36"/><polygon class="cls-9" points="318.72 112.77 305.59 105.19 292.46 112.77 305.59 120.36 318.72 112.77"/><polygon class="cls-10" points="318.72 178.48 305.59 170.9 305.59 175.95 318.72 183.53 318.72 178.48"/><polygon class="cls-11" points="292.46 183.53 292.46 143.1 305.59 135.52 305.59 175.95 292.46 183.53"/><polygon class="cls-12" points="292.46 143.1 279.33 135.52 279.33 175.95 292.46 183.53 292.46 143.1"/><polygon class="cls-13" points="305.59 135.52 292.46 127.94 279.33 135.52 292.46 143.1 305.59 135.52"/><polygon class="cls-6" points="292.46 183.53 292.46 143.1 305.59 135.52 305.59 175.95 292.46 183.53"/><polygon class="cls-6" points="292.46 143.1 279.33 135.52 279.33 175.95 292.46 183.53 292.46 143.1"/><polygon class="cls-7" points="305.59 135.52 292.46 127.94 279.33 135.52 292.46 143.1 305.59 135.52"/><polygon class="cls-4" points="305.59 191.11 305.59 168.37 318.72 160.79 318.72 183.53 305.59 191.11"/><polygon class="cls-5" points="305.59 168.37 292.46 160.79 292.46 183.53 305.59 191.11 305.59 168.37"/><polygon class="cls-8" points="318.72 160.79 305.59 153.21 292.46 160.79 305.59 168.37 318.72 160.79"/><polygon class="cls-1" points="69.61 74.03 56.4 66.4 43.19 74.03 56.4 81.66 69.61 74.03"/><polygon class="cls-4" points="56.4 74.58 56.4 65.99 72.18 56.88 72.18 65.47 56.4 74.58"/><polygon class="cls-5" points="56.4 65.99 40.62 56.88 40.62 65.47 56.4 74.58 56.4 65.99"/><polygon class="cls-8" points="72.18 56.88 56.4 47.77 40.62 56.88 56.4 65.99 72.18 56.88"/><polygon class="cls-4" points="66.86 56.88 56.4 50.84 45.94 56.88 56.4 62.92 66.86 56.88"/><polygon class="cls-6" points="56.4 58.02 56.4 49.43 72.18 40.32 72.18 48.91 56.4 58.02"/><polygon class="cls-6" points="56.4 49.43 40.62 40.32 40.62 48.91 56.4 58.02 56.4 49.43"/><polygon class="cls-7" points="72.18 40.32 56.4 31.21 40.62 40.32 56.4 49.43 72.18 40.32"/><rect class="cls-3" x="260.26" y="333.78" width="11.96" height="2.52" transform="translate(-158.93 286.4) rotate(-45)"/><rect class="cls-3" x="264.99" y="329.06" width="2.52" height="11.96" transform="translate(-158.93 286.36) rotate(-45)"/><path class="cls-7" d="M260.08,104.95A11.54,11.54,0,1,1,271.62,93.4,11.56,11.56,0,0,1,260.08,104.95Zm0-20.57a9,9,0,1,0,9,9A9,9,0,0,0,260.08,84.38Z"/><circle class="cls-8" cx="249.79" cy="101.01" r="8.34"/><rect class="cls-3" x="38.87" y="112.71" width="11.96" height="2.52" transform="translate(-67.46 65.09) rotate(-45)"/><rect class="cls-3" x="43.59" y="107.99" width="2.52" height="11.96" transform="translate(-67.46 65.09) rotate(-45)"/><circle class="cls-8" cx="57.62" cy="187.79" r="6.12"/><circle class="cls-3" cx="98.01" cy="317.1" r="2.79" transform="translate(-230.17 366.7) rotate(-81.42)"/><rect class="cls-7" x="107.57" y="324.7" width="11.62" height="11.62" transform="matrix(-0.99, -0.15, 0.15, -0.99, 176.19, 674.24)"/><path class="cls-5" d="M167.95,167.6h-2c-2.2-4.32-6.26-8.4-12.17-11.81-18.84-10.88-49.38-10.88-68.21,0-5.91,3.41-10,7.49-12.16,11.81h-2v7.88h0c0,7.13,4.71,14.25,14.13,19.69,18.84,10.88,49.38,10.88,68.21,0,9.42-5.44,14.13-12.56,14.13-19.69h0Z"/><path class="cls-8" d="M109.25,148.29a63.92,63.92,0,0,0-23.65,7.49c-5.91,3.41-10,7.49-12.16,11.81h-2v7.88c0,7.13,4.71,14.25,14.13,19.69a63.92,63.92,0,0,0,23.64,7.49Z"/><path class="cls-4" d="M154,195.09c9.33-5.43,14-12.52,14-19.61V167.6h-2a28.12,28.12,0,0,0-9.68-10.26H154Z"/><g class="cls-14"><path class="cls-4" d="M165.46,166.68a23,23,0,0,0-2.09-3v23.67a23,23,0,0,0,2.09-3Z"/><path class="cls-4" d="M85.61,155.78a38,38,0,0,0-6.74,4.89v29.61c.66.6,1.35,1.2,2.09,1.77V160h3.94v34.77l.7.43c.45.26.92.51,1.39.76V160h3.94v37.86q1,.44,2.09.85V160H97V200q1,.32,2.09.61V160H103V201.6q1,.22,2.09.41V160H109v42.66l2.09.25V160h3.94v43.23l2.09.09V160h3.94V203.3l2.09-.06V160h3.94v43l2.09-.21V160h3.94v42.25q1.05-.18,2.09-.38V160h3.94v41q1.06-.27,2.09-.57V160h3.94v39.13q1.06-.38,2.09-.8V160h3.94v36.55q1.07-.53,2.09-1.11V160h3.94V192.9c.74-.53,1.43-1.07,2.09-1.63V160h.35a39.18,39.18,0,0,0-6-4.18A58,58,0,0,0,139,150H100.41A58,58,0,0,0,85.61,155.78Z"/><path class="cls-4" d="M74.93,165.16a21.57,21.57,0,0,0-1.48,2.44h-.61V182a20.67,20.67,0,0,0,2.09,3.79Z"/></g><path class="cls-8" d="M153.82,187.29c-18.84,10.88-49.38,10.87-68.21,0s-18.84-28.51,0-39.38,49.38-10.87,68.21,0S172.66,176.41,153.82,187.29Z"/><path class="cls-15" d="M130.52,172.36c13.87-8,17.51-19.67,11-29.61-18.1-5.29-40.75-3.57-55.87,5.16-13.87,8-17.51,19.67-11,29.61C92.74,182.8,115.4,181.09,130.52,172.36Z"/><path class="cls-16" d="M153.82,187.29c-18.84,10.88-49.38,10.87-68.21,0-9.1-5.26-13.79-12.09-14.1-19-.33,7.36,4.36,14.79,14.1,20.41,18.84,10.88,49.38,10.88,68.21,0,9.73-5.62,14.42-13,14.1-20.41C167.61,175.2,162.92,182,153.82,187.29Z"/><path class="cls-4" d="M143.92,181.57c-13.37,7.72-35,7.72-48.42,0s-13.37-20.24,0-28,35-7.72,48.42,0S157.29,173.86,143.92,181.57Z"/><path class="cls-5" d="M95.5,155.42c13.37-7.72,35-7.72,48.42,0,6.29,3.63,9.62,8.32,10,13.08.42-5.36-2.91-10.79-10-14.88-13.37-7.72-35-7.72-48.42,0-7.08,4.09-10.41,9.52-10,14.88C85.89,163.75,89.22,159.05,95.5,155.42Z"/><path class="cls-5" d="M136.55,158.26l-2.65.76.75.3-2.59,1.5a14.63,14.63,0,0,0-6.57-1.54,12.57,12.57,0,0,0-6.33,1.71,9.81,9.81,0,0,0-1.91,1.39,4.07,4.07,0,0,0-1,1.46,4.93,4.93,0,0,0-.34,1.4,7.92,7.92,0,0,0,.06,1.52l.31,2.42a7.22,7.22,0,0,1,.06,1.69,3,3,0,0,1-.57,1.37,4.63,4.63,0,0,1-1.52,1.3,3.1,3.1,0,0,1-3.25.24q-1.08-.63-.55-1.56a8.43,8.43,0,0,1,2.89-2.33v-1.81l-2.27.85-3.26-1.38a10.57,10.57,0,0,0-3.87,3.47l-.37-.42v1.78h0c0,1.22.94,2.42,2.81,3.61l-1.29.74-1.75-.8v1.81l1.57.91,3.07-1.77a13.41,13.41,0,0,0,6.21,1.24,12.34,12.34,0,0,0,5.86-1.57,9.91,9.91,0,0,0,2.08-1.54,5,5,0,0,0,1.15-1.68,6.35,6.35,0,0,0,.43-1.66,8.9,8.9,0,0,0,0-1.76l-.26-2.34c0-.47-.06-.81-.06-1a4.68,4.68,0,0,1,.11-.89,2.06,2.06,0,0,1,.53-1,4.9,4.9,0,0,1,1.13-.86,4.59,4.59,0,0,1,1.74-.56,2.8,2.8,0,0,1,1.74.29,1.61,1.61,0,0,1,.54.42.5.5,0,0,1,.1.3l-2.7.56v1.81l5.47,2.43q.67-.42,1.2-.79a11.4,11.4,0,0,0,1.1-.88,6.52,6.52,0,0,0,.92-1,3.49,3.49,0,0,0,.52-1.07,2.36,2.36,0,0,0,.09-.54h0v0s0,0,0,0v-1.86l-.7.14,0,0a6.46,6.46,0,0,0-1.46-1.25l2.87-1.66Z"/><path class="cls-8" d="M103.32,175.93l3-1.76q-3.12-2-2.79-4t4.21-4.42l5.53,2.35a8.43,8.43,0,0,0-2.89,2.33q-.54.93.55,1.56a3.1,3.1,0,0,0,3.25-.24,4.63,4.63,0,0,0,1.52-1.3,3,3,0,0,0,.57-1.37,7.22,7.22,0,0,0-.06-1.69L116,165a7.92,7.92,0,0,1-.06-1.52,4.93,4.93,0,0,1,.34-1.4,4.07,4.07,0,0,1,1-1.46,9.82,9.82,0,0,1,1.91-1.39,12.57,12.57,0,0,1,6.33-1.71,14.63,14.63,0,0,1,6.57,1.54l2.89-1.67,1.6.93-2.87,1.66a6.46,6.46,0,0,1,1.46,1.25,3.14,3.14,0,0,1,.66,1.2,2.18,2.18,0,0,1,0,1.15,3.49,3.49,0,0,1-.52,1.07,6.52,6.52,0,0,1-.92,1,11.4,11.4,0,0,1-1.1.88q-.53.37-1.2.79l-5.47-2.43,1-.64q.4-.26.81-.56a3.35,3.35,0,0,0,.6-.54,1.47,1.47,0,0,0,.26-.48.5.5,0,0,0-.08-.46,1.61,1.61,0,0,0-.54-.42,2.8,2.8,0,0,0-1.74-.29,4.59,4.59,0,0,0-1.74.56,4.9,4.9,0,0,0-1.13.86,2.06,2.06,0,0,0-.53,1,4.68,4.68,0,0,0-.11.89c0,.21,0,.55.06,1l.26,2.34a8.9,8.9,0,0,1,0,1.76,6.35,6.35,0,0,1-.43,1.66,5,5,0,0,1-1.15,1.68,9.91,9.91,0,0,1-2.08,1.54,12.34,12.34,0,0,1-5.86,1.57,13.41,13.41,0,0,1-6.21-1.24l-3.07,1.77Z"/><path class="cls-5" d="M167.95,159.71h-2c-2.2-4.32-6.26-8.4-12.17-11.81C135,137,104.44,137,85.61,147.9c-5.91,3.41-10,7.49-12.16,11.81h-2v7.88h0c0,7.13,4.71,14.25,14.13,19.69,18.84,10.88,49.38,10.88,68.21,0,9.42-5.44,14.13-12.56,14.13-19.69h0Z"/><path class="cls-8" d="M109.25,140.41a63.92,63.92,0,0,0-23.65,7.49c-5.91,3.41-10,7.49-12.16,11.81h-2v7.88c0,7.13,4.71,14.25,14.13,19.69a63.92,63.92,0,0,0,23.64,7.49Z"/><path class="cls-4" d="M154,187.2c9.33-5.43,14-12.52,14-19.61v-7.88h-2a28.12,28.12,0,0,0-9.68-10.26H154Z"/><g class="cls-14"><path class="cls-4" d="M165.46,158.8a23,23,0,0,0-2.09-3v23.67a23,23,0,0,0,2.09-3Z"/><path class="cls-4" d="M85.61,147.9a38,38,0,0,0-6.74,4.89V182.4c.66.6,1.35,1.2,2.09,1.77V152.08h3.94v34.77l.7.43c.45.26.92.51,1.39.76v-36h3.94v37.86q1,.44,2.09.85V152.08H97v40.07q1,.32,2.09.61V152.08H103v41.63q1,.22,2.09.41v-42H109v42.66l2.09.25V152.08h3.94v43.23l2.09.09V152.08h3.94v43.34l2.09-.06V152.08h3.94v43l2.09-.21V152.08h3.94v42.25q1.05-.18,2.09-.38V152.08h3.94v41q1.06-.27,2.09-.57V152.08h3.94v39.13q1.06-.38,2.09-.8V152.08h3.94v36.55q1.07-.54,2.09-1.11V152.08h3.94V185c.74-.53,1.43-1.07,2.09-1.63V152.08h.35a39.18,39.18,0,0,0-6-4.18,58,58,0,0,0-14.8-5.83H100.41A58,58,0,0,0,85.61,147.9Z"/><path class="cls-4" d="M74.93,157.27a21.6,21.6,0,0,0-1.48,2.44h-.61v14.44a20.68,20.68,0,0,0,2.09,3.79Z"/></g><path class="cls-8" d="M153.82,179.41c-18.84,10.88-49.38,10.87-68.21,0s-18.84-28.51,0-39.38,49.38-10.87,68.21,0S172.66,168.53,153.82,179.41Z"/><path class="cls-15" d="M130.52,164.47c13.87-8,17.51-19.67,11-29.61-18.1-5.29-40.75-3.57-55.87,5.16-13.87,8-17.51,19.67-11,29.61C92.74,174.92,115.4,173.2,130.52,164.47Z"/><path class="cls-16" d="M153.82,179.41c-18.84,10.88-49.38,10.87-68.21,0-9.1-5.26-13.79-12.09-14.1-19-.33,7.36,4.36,14.79,14.1,20.41,18.84,10.88,49.38,10.88,68.21,0,9.73-5.62,14.42-13,14.1-20.41C167.61,167.32,162.92,174.15,153.82,179.41Z"/><path class="cls-4" d="M143.92,173.69c-13.37,7.72-35,7.72-48.42,0s-13.37-20.24,0-28,35-7.72,48.42,0S157.29,166,143.92,173.69Z"/><path class="cls-5" d="M95.5,147.54c13.37-7.72,35-7.72,48.42,0,6.29,3.63,9.62,8.32,10,13.08.42-5.36-2.91-10.79-10-14.88-13.37-7.72-35-7.72-48.42,0-7.08,4.09-10.41,9.52-10,14.88C85.89,155.86,89.22,151.17,95.5,147.54Z"/><path class="cls-5" d="M136.55,150.38l-2.65.76.75.3-2.59,1.5a14.62,14.62,0,0,0-6.57-1.54,12.57,12.57,0,0,0-6.33,1.71,9.82,9.82,0,0,0-1.91,1.39,4.07,4.07,0,0,0-1,1.46,4.93,4.93,0,0,0-.34,1.4,7.92,7.92,0,0,0,.06,1.52l.31,2.42a7.22,7.22,0,0,1,.06,1.69,3,3,0,0,1-.57,1.37,4.63,4.63,0,0,1-1.52,1.3,3.1,3.1,0,0,1-3.25.24q-1.08-.63-.55-1.56a8.43,8.43,0,0,1,2.89-2.33V160.2L111,161l-3.26-1.38a10.57,10.57,0,0,0-3.87,3.47l-.37-.42v1.78h0c0,1.22.94,2.42,2.81,3.61l-1.29.74-1.75-.8v1.81l1.57.91L108,169a13.41,13.41,0,0,0,6.21,1.24,12.34,12.34,0,0,0,5.86-1.57,9.91,9.91,0,0,0,2.08-1.54,5,5,0,0,0,1.15-1.68,6.35,6.35,0,0,0,.43-1.66,8.9,8.9,0,0,0,0-1.76l-.26-2.34c0-.47-.06-.81-.06-1a4.68,4.68,0,0,1,.11-.89,2.06,2.06,0,0,1,.53-1,4.91,4.91,0,0,1,1.13-.86,4.59,4.59,0,0,1,1.74-.56,2.8,2.8,0,0,1,1.74.29,1.61,1.61,0,0,1,.54.42.5.5,0,0,1,.1.3l-2.7.56v1.81l5.47,2.43q.67-.42,1.2-.79a11.4,11.4,0,0,0,1.1-.88,6.52,6.52,0,0,0,.92-1,3.49,3.49,0,0,0,.52-1.07,2.36,2.36,0,0,0,.09-.54h0v0s0,0,0,0V155l-.7.14,0,0a6.46,6.46,0,0,0-1.46-1.25l2.87-1.66Z"/><path class="cls-8" d="M103.32,168l3-1.76q-3.12-2-2.79-4t4.21-4.42l5.53,2.35a8.43,8.43,0,0,0-2.89,2.33q-.54.93.55,1.56a3.1,3.1,0,0,0,3.25-.24,4.63,4.63,0,0,0,1.52-1.3,3,3,0,0,0,.57-1.37,7.22,7.22,0,0,0-.06-1.69l-.31-2.42a7.92,7.92,0,0,1-.06-1.52,4.93,4.93,0,0,1,.34-1.4,4.07,4.07,0,0,1,1-1.46,9.81,9.81,0,0,1,1.91-1.39,12.57,12.57,0,0,1,6.33-1.71,14.63,14.63,0,0,1,6.57,1.54l2.89-1.67,1.6.93L133.68,152a6.46,6.46,0,0,1,1.46,1.25,3.14,3.14,0,0,1,.66,1.2,2.18,2.18,0,0,1,0,1.15,3.49,3.49,0,0,1-.52,1.07,6.52,6.52,0,0,1-.92,1,11.4,11.4,0,0,1-1.1.88q-.53.37-1.2.79l-5.47-2.43,1-.64q.4-.26.81-.56a3.35,3.35,0,0,0,.6-.54,1.47,1.47,0,0,0,.26-.48.5.5,0,0,0-.08-.46,1.61,1.61,0,0,0-.54-.42,2.8,2.8,0,0,0-1.74-.29,4.59,4.59,0,0,0-1.74.56,4.9,4.9,0,0,0-1.13.86,2.06,2.06,0,0,0-.53,1,4.68,4.68,0,0,0-.11.89c0,.21,0,.55.06,1l.26,2.34a8.9,8.9,0,0,1,0,1.76,6.35,6.35,0,0,1-.43,1.66,5,5,0,0,1-1.15,1.68,9.91,9.91,0,0,1-2.08,1.54,12.34,12.34,0,0,1-5.86,1.57,13.41,13.41,0,0,1-6.21-1.24L104.89,169Z"/><path class="cls-5" d="M167.95,151.83h-2c-2.2-4.32-6.26-8.4-12.17-11.81-18.84-10.88-49.38-10.88-68.21,0-5.91,3.41-10,7.49-12.16,11.81h-2v7.88h0c0,7.13,4.71,14.25,14.13,19.69,18.84,10.88,49.38,10.88,68.21,0,9.42-5.44,14.13-12.56,14.13-19.69h0Z"/><path class="cls-8" d="M109.25,132.53A63.92,63.92,0,0,0,85.61,140c-5.91,3.41-10,7.49-12.16,11.81h-2v7.88c0,7.13,4.71,14.25,14.13,19.69a63.92,63.92,0,0,0,23.64,7.49Z"/><path class="cls-4" d="M154,179.32c9.33-5.43,14-12.52,14-19.61v-7.88h-2a28.12,28.12,0,0,0-9.68-10.26H154Z"/><g class="cls-14"><path class="cls-4" d="M165.46,150.91a23,23,0,0,0-2.09-3v23.67a23,23,0,0,0,2.09-3Z"/><path class="cls-4" d="M85.61,140a38,38,0,0,0-6.74,4.89v29.61c.66.6,1.35,1.2,2.09,1.77V144.2h3.94V179l.7.43c.45.26.92.51,1.39.76v-36h3.94v37.86q1,.44,2.09.85V144.2H97v40.07q1,.32,2.09.61V144.2H103v41.63q1,.22,2.09.41v-42H109v42.66l2.09.25V144.2h3.94v43.23l2.09.09V144.2h3.94v43.34l2.09-.06V144.2h3.94v43l2.09-.21V144.2h3.94v42.25q1.05-.18,2.09-.38V144.2h3.94v41q1.06-.27,2.09-.57V144.2h3.94v39.13q1.06-.38,2.09-.8V144.2h3.94v36.55q1.07-.54,2.09-1.11V144.2h3.94v32.93c.74-.53,1.43-1.07,2.09-1.63V144.2h.35a39.18,39.18,0,0,0-6-4.18,58,58,0,0,0-14.8-5.83H100.41A58,58,0,0,0,85.61,140Z"/><path class="cls-4" d="M74.93,149.39a21.57,21.57,0,0,0-1.48,2.44h-.61v14.44a20.67,20.67,0,0,0,2.09,3.79Z"/></g><path class="cls-8" d="M153.82,171.52c-18.84,10.88-49.38,10.87-68.21,0s-18.84-28.51,0-39.38,49.38-10.87,68.21,0S172.66,160.65,153.82,171.52Z"/><path class="cls-15" d="M130.52,156.59c13.87-8,17.51-19.67,11-29.61-18.1-5.29-40.75-3.57-55.87,5.16-13.87,8-17.51,19.67-11,29.61C92.74,167,115.4,165.32,130.52,156.59Z"/><path class="cls-16" d="M153.82,171.52c-18.84,10.88-49.38,10.87-68.21,0-9.1-5.25-13.79-12.09-14.1-19-.33,7.36,4.36,14.79,14.1,20.41,18.84,10.88,49.38,10.88,68.21,0,9.73-5.62,14.42-13,14.1-20.41C167.61,159.44,162.92,166.27,153.82,171.52Z"/><path class="cls-4" d="M143.92,165.81c-13.37,7.72-35,7.72-48.42,0s-13.37-20.24,0-28,35-7.72,48.42,0S157.29,158.09,143.92,165.81Z"/><path class="cls-5" d="M95.5,139.66c13.37-7.72,35-7.72,48.42,0,6.29,3.63,9.62,8.32,10,13.08.42-5.36-2.91-10.79-10-14.88-13.37-7.72-35-7.72-48.42,0-7.08,4.09-10.41,9.52-10,14.88C85.89,148,89.22,143.29,95.5,139.66Z"/><path class="cls-5" d="M136.55,142.5l-2.65.76.75.3-2.59,1.5a14.63,14.63,0,0,0-6.57-1.54,12.57,12.57,0,0,0-6.33,1.71,9.82,9.82,0,0,0-1.91,1.39,4.07,4.07,0,0,0-1,1.46,4.93,4.93,0,0,0-.34,1.4A7.92,7.92,0,0,0,116,151l.31,2.42a7.22,7.22,0,0,1,.06,1.69,3,3,0,0,1-.57,1.37,4.63,4.63,0,0,1-1.52,1.3A3.1,3.1,0,0,1,111,158q-1.08-.63-.55-1.56a8.43,8.43,0,0,1,2.89-2.33v-1.81l-2.27.85-3.26-1.38a10.57,10.57,0,0,0-3.87,3.47l-.37-.42v1.78h0c0,1.22.94,2.42,2.81,3.61l-1.29.74-1.75-.8V162l1.57.91,3.07-1.77a13.41,13.41,0,0,0,6.21,1.24,12.34,12.34,0,0,0,5.86-1.57,9.91,9.91,0,0,0,2.08-1.54,5,5,0,0,0,1.15-1.68,6.35,6.35,0,0,0,.43-1.66,8.9,8.9,0,0,0,0-1.76l-.26-2.34c0-.47-.06-.81-.06-1a4.68,4.68,0,0,1,.11-.89,2.06,2.06,0,0,1,.53-1,4.9,4.9,0,0,1,1.13-.86,4.59,4.59,0,0,1,1.74-.56,2.8,2.8,0,0,1,1.74.29,1.61,1.61,0,0,1,.54.42.5.5,0,0,1,.1.3l-2.7.56v1.81l5.47,2.43q.67-.42,1.2-.79a11.4,11.4,0,0,0,1.1-.88,6.52,6.52,0,0,0,.92-1,3.49,3.49,0,0,0,.52-1.07,2.36,2.36,0,0,0,.09-.54h0v0s0,0,0,0v-1.86l-.7.14,0,0a6.46,6.46,0,0,0-1.46-1.25l2.87-1.66Z"/><path class="cls-8" d="M103.32,160.17l3-1.76q-3.12-2-2.79-4t4.21-4.42l5.53,2.35a8.43,8.43,0,0,0-2.89,2.33q-.54.93.55,1.56a3.1,3.1,0,0,0,3.25-.24,4.63,4.63,0,0,0,1.52-1.3,3,3,0,0,0,.57-1.37,7.22,7.22,0,0,0-.06-1.69l-.31-2.42a7.92,7.92,0,0,1-.06-1.52,4.93,4.93,0,0,1,.34-1.4,4.07,4.07,0,0,1,1-1.46,9.82,9.82,0,0,1,1.91-1.39,12.57,12.57,0,0,1,6.33-1.71,14.62,14.62,0,0,1,6.57,1.54l2.89-1.67,1.6.93-2.87,1.66a6.46,6.46,0,0,1,1.46,1.25,3.14,3.14,0,0,1,.66,1.2,2.18,2.18,0,0,1,0,1.15,3.49,3.49,0,0,1-.52,1.07,6.52,6.52,0,0,1-.92,1,11.4,11.4,0,0,1-1.1.88q-.53.37-1.2.79L126.56,149l1-.64q.4-.26.81-.56a3.35,3.35,0,0,0,.6-.54,1.47,1.47,0,0,0,.26-.48.5.5,0,0,0-.08-.46,1.61,1.61,0,0,0-.54-.42,2.8,2.8,0,0,0-1.74-.29,4.59,4.59,0,0,0-1.74.56,4.9,4.9,0,0,0-1.13.86,2.06,2.06,0,0,0-.53,1,4.68,4.68,0,0,0-.11.89c0,.21,0,.55.06,1l.26,2.34a8.9,8.9,0,0,1,0,1.76,6.35,6.35,0,0,1-.43,1.66,5,5,0,0,1-1.15,1.68A9.91,9.91,0,0,1,120,159a12.34,12.34,0,0,1-5.86,1.57A13.41,13.41,0,0,1,108,159.3l-3.07,1.77Z"/><path class="cls-5" d="M167.95,143.95h-2c-2.2-4.32-6.26-8.4-12.17-11.81-18.84-10.88-49.38-10.88-68.21,0-5.91,3.41-10,7.49-12.16,11.81h-2v7.88h0c0,7.13,4.71,14.25,14.13,19.69,18.84,10.88,49.38,10.88,68.21,0,9.42-5.44,14.13-12.56,14.13-19.69h0Z"/><path class="cls-8" d="M109.25,124.64a63.92,63.92,0,0,0-23.65,7.49c-5.91,3.41-10,7.49-12.16,11.81h-2v7.88c0,7.13,4.71,14.25,14.13,19.69A63.92,63.92,0,0,0,109.25,179Z"/><path class="cls-4" d="M154,171.44c9.33-5.43,14-12.52,14-19.61v-7.88h-2a28.12,28.12,0,0,0-9.68-10.26H154Z"/><g class="cls-14"><path class="cls-4" d="M165.46,143a23,23,0,0,0-2.09-3v23.67a23,23,0,0,0,2.09-3Z"/><path class="cls-4" d="M85.61,132.13A38,38,0,0,0,78.87,137v29.61c.66.6,1.35,1.2,2.09,1.77V136.32h3.94v34.77l.7.43c.45.26.92.51,1.39.76v-36h3.94v37.86q1,.44,2.09.85V136.32H97v40.07q1,.32,2.09.61V136.32H103v41.63q1,.22,2.09.41v-42H109V179l2.09.25V136.32h3.94v43.23l2.09.09V136.32h3.94v43.34l2.09-.06V136.32h3.94v43l2.09-.21V136.32h3.94v42.25q1.05-.18,2.09-.38V136.32h3.94v41q1.06-.27,2.09-.57V136.32h3.94v39.13q1.06-.38,2.09-.8V136.32h3.94v36.55q1.07-.54,2.09-1.11V136.32h3.94v32.93c.74-.53,1.43-1.07,2.09-1.63V136.32h.35a39.18,39.18,0,0,0-6-4.18,58,58,0,0,0-14.8-5.83H100.41A58,58,0,0,0,85.61,132.13Z"/><path class="cls-4" d="M74.93,141.51a21.59,21.59,0,0,0-1.48,2.44h-.61v14.44a20.68,20.68,0,0,0,2.09,3.79Z"/></g><path class="cls-8" d="M153.82,163.64c-18.84,10.88-49.38,10.87-68.21,0s-18.84-28.51,0-39.38,49.38-10.87,68.21,0S172.66,152.76,153.82,163.64Z"/><path class="cls-15" d="M130.52,148.71c13.87-8,17.51-19.67,11-29.61-18.1-5.29-40.75-3.57-55.87,5.16-13.87,8-17.51,19.67-11,29.61C92.74,159.15,115.4,157.44,130.52,148.71Z"/><path class="cls-16" d="M153.82,163.64c-18.84,10.88-49.38,10.87-68.21,0-9.1-5.26-13.79-12.09-14.1-19-.33,7.36,4.36,14.79,14.1,20.41,18.84,10.88,49.38,10.88,68.21,0,9.73-5.62,14.42-13,14.1-20.41C167.61,151.55,162.92,158.38,153.82,163.64Z"/><path class="cls-4" d="M143.92,157.93c-13.37,7.72-35,7.72-48.42,0s-13.37-20.24,0-28,35-7.72,48.42,0S157.29,150.21,143.92,157.93Z"/><path class="cls-5" d="M95.5,131.78c13.37-7.72,35-7.72,48.42,0,6.29,3.63,9.62,8.32,10,13.08.42-5.36-2.91-10.79-10-14.88-13.37-7.72-35-7.72-48.42,0-7.08,4.09-10.41,9.52-10,14.88C85.89,140.1,89.22,135.41,95.5,131.78Z"/><path class="cls-5" d="M136.55,134.61l-2.65.76.75.3-2.59,1.5a14.62,14.62,0,0,0-6.57-1.54,12.57,12.57,0,0,0-6.33,1.71,9.81,9.81,0,0,0-1.91,1.39,4.07,4.07,0,0,0-1,1.46,4.93,4.93,0,0,0-.34,1.4,7.92,7.92,0,0,0,.06,1.52l.31,2.42a7.22,7.22,0,0,1,.06,1.69,3,3,0,0,1-.57,1.37,4.63,4.63,0,0,1-1.52,1.3,3.1,3.1,0,0,1-3.25.24q-1.08-.63-.55-1.56a8.43,8.43,0,0,1,2.89-2.33v-1.81l-2.27.85-3.26-1.38a10.57,10.57,0,0,0-3.87,3.47l-.37-.42v1.78h0c0,1.22.94,2.42,2.81,3.61l-1.29.74-1.75-.8v1.81l1.57.91,3.07-1.77a13.41,13.41,0,0,0,6.21,1.24A12.34,12.34,0,0,0,120,152.9a9.91,9.91,0,0,0,2.08-1.54,5,5,0,0,0,1.15-1.68,6.35,6.35,0,0,0,.43-1.66,8.9,8.9,0,0,0,0-1.76l-.26-2.34c0-.47-.06-.81-.06-1a4.68,4.68,0,0,1,.11-.89,2.06,2.06,0,0,1,.53-1,4.9,4.9,0,0,1,1.13-.86,4.59,4.59,0,0,1,1.74-.56,2.8,2.8,0,0,1,1.74.29,1.61,1.61,0,0,1,.54.42.5.5,0,0,1,.1.3l-2.7.56V143l5.47,2.43q.67-.42,1.2-.79a11.4,11.4,0,0,0,1.1-.88,6.52,6.52,0,0,0,.92-1,3.49,3.49,0,0,0,.52-1.07,2.36,2.36,0,0,0,.09-.54h0v0s0,0,0,0v-1.86l-.7.14,0,0a6.46,6.46,0,0,0-1.46-1.25l2.87-1.66Z"/><path class="cls-8" d="M103.32,152.28l3-1.76q-3.12-2-2.79-4t4.21-4.42l5.53,2.35a8.43,8.43,0,0,0-2.89,2.33q-.54.93.55,1.56a3.1,3.1,0,0,0,3.25-.24,4.63,4.63,0,0,0,1.52-1.3,3,3,0,0,0,.57-1.37,7.22,7.22,0,0,0-.06-1.69L116,141.3a7.92,7.92,0,0,1-.06-1.52,4.93,4.93,0,0,1,.34-1.4,4.07,4.07,0,0,1,1-1.46,9.82,9.82,0,0,1,1.91-1.39,12.57,12.57,0,0,1,6.33-1.71,14.63,14.63,0,0,1,6.57,1.54l2.89-1.67,1.6.93-2.87,1.66a6.46,6.46,0,0,1,1.46,1.25,3.14,3.14,0,0,1,.66,1.2,2.18,2.18,0,0,1,0,1.15,3.49,3.49,0,0,1-.52,1.07,6.52,6.52,0,0,1-.92,1,11.4,11.4,0,0,1-1.1.88q-.53.37-1.2.79l-5.47-2.43,1-.64q.4-.26.81-.56a3.35,3.35,0,0,0,.6-.54,1.47,1.47,0,0,0,.26-.48.5.5,0,0,0-.08-.46,1.61,1.61,0,0,0-.54-.42,2.8,2.8,0,0,0-1.74-.29,4.59,4.59,0,0,0-1.74.56,4.9,4.9,0,0,0-1.13.86,2.06,2.06,0,0,0-.53,1,4.69,4.69,0,0,0-.11.89c0,.21,0,.55.06,1l.26,2.34a8.9,8.9,0,0,1,0,1.76,6.35,6.35,0,0,1-.43,1.66,5,5,0,0,1-1.15,1.68,9.91,9.91,0,0,1-2.08,1.54,12.34,12.34,0,0,1-5.86,1.57,13.41,13.41,0,0,1-6.21-1.24l-3.07,1.77Z"/><path class="cls-5" d="M167.95,136.07h-2c-2.2-4.32-6.26-8.4-12.17-11.81-18.84-10.88-49.38-10.88-68.21,0-5.91,3.41-10,7.49-12.16,11.81h-2v7.88h0c0,7.13,4.71,14.25,14.13,19.69,18.84,10.88,49.38,10.88,68.21,0,9.42-5.44,14.13-12.56,14.13-19.69h0Z"/><path class="cls-8" d="M109.25,116.76a63.92,63.92,0,0,0-23.65,7.49c-5.91,3.41-10,7.49-12.16,11.81h-2v7.88c0,7.13,4.71,14.25,14.13,19.69a63.92,63.92,0,0,0,23.64,7.49Z"/><path class="cls-4" d="M154,163.55c9.33-5.43,14-12.52,14-19.61v-7.88h-2a28.12,28.12,0,0,0-9.68-10.26H154Z"/><g class="cls-14"><path class="cls-4" d="M165.46,135.15a23,23,0,0,0-2.09-3v23.67a23,23,0,0,0,2.09-3Z"/><path class="cls-4" d="M85.61,124.25a38,38,0,0,0-6.74,4.89v29.61c.66.6,1.35,1.2,2.09,1.77V128.43h3.94v34.77l.7.43c.45.26.92.51,1.39.76v-36h3.94v37.86q1,.44,2.09.85V128.43H97V168.5q1,.32,2.09.61V128.43H103v41.63q1,.22,2.09.41v-42H109V171.1l2.09.25V128.43h3.94v43.23l2.09.09V128.43h3.94v43.34l2.09-.06V128.43h3.94v43l2.09-.21V128.43h3.94v42.25q1.05-.18,2.09-.38V128.43h3.94v41q1.06-.27,2.09-.57V128.43h3.94v39.13q1.06-.38,2.09-.8V128.43h3.94V165q1.07-.54,2.09-1.11V128.43h3.94v32.93c.74-.53,1.43-1.07,2.09-1.63V128.43h.35a39.17,39.17,0,0,0-6-4.18,58,58,0,0,0-14.8-5.83H100.41A58,58,0,0,0,85.61,124.25Z"/><path class="cls-4" d="M74.93,133.62a21.59,21.59,0,0,0-1.48,2.44h-.61V150.5a20.67,20.67,0,0,0,2.09,3.79Z"/></g><path class="cls-8" d="M153.82,155.76c-18.84,10.88-49.38,10.87-68.21,0s-18.84-28.51,0-39.38,49.38-10.87,68.21,0S172.66,144.88,153.82,155.76Z"/><path class="cls-15" d="M130.52,140.82c13.87-8,17.51-19.67,11-29.61-18.1-5.29-40.75-3.57-55.87,5.16-13.87,8-17.51,19.67-11,29.61C92.74,151.27,115.4,149.55,130.52,140.82Z"/><path class="cls-16" d="M153.82,155.76c-18.84,10.88-49.38,10.87-68.21,0-9.1-5.26-13.79-12.09-14.1-19-.33,7.36,4.36,14.79,14.1,20.41,18.84,10.88,49.38,10.88,68.21,0,9.73-5.62,14.42-13,14.1-20.41C167.61,143.67,162.92,150.5,153.82,155.76Z"/><path class="cls-4" d="M143.92,150c-13.37,7.72-35,7.72-48.42,0s-13.37-20.24,0-28,35-7.72,48.42,0S157.29,142.32,143.92,150Z"/><path class="cls-5" d="M95.5,123.89c13.37-7.72,35-7.72,48.42,0,6.29,3.63,9.62,8.32,10,13.08.42-5.36-2.91-10.79-10-14.88-13.37-7.72-35-7.72-48.42,0-7.08,4.09-10.41,9.52-10,14.88C85.89,132.21,89.22,127.52,95.5,123.89Z"/><path class="cls-5" d="M136.55,126.73l-2.65.76.75.3-2.59,1.5a14.63,14.63,0,0,0-6.57-1.54,12.57,12.57,0,0,0-6.33,1.71,9.82,9.82,0,0,0-1.91,1.39,4.07,4.07,0,0,0-1,1.46,4.93,4.93,0,0,0-.34,1.4,7.92,7.92,0,0,0,.06,1.52l.31,2.42a7.22,7.22,0,0,1,.06,1.69,3,3,0,0,1-.57,1.37,4.63,4.63,0,0,1-1.52,1.3,3.1,3.1,0,0,1-3.25.24q-1.08-.63-.55-1.56a8.43,8.43,0,0,1,2.89-2.33v-1.81l-2.27.85L107.78,136a10.57,10.57,0,0,0-3.87,3.47l-.37-.42v1.78h0c0,1.22.94,2.42,2.81,3.61l-1.29.74-1.75-.8v1.81l1.57.91,3.07-1.77a13.41,13.41,0,0,0,6.21,1.24A12.34,12.34,0,0,0,120,145a9.91,9.91,0,0,0,2.08-1.54,5,5,0,0,0,1.15-1.68,6.35,6.35,0,0,0,.43-1.66,8.9,8.9,0,0,0,0-1.76l-.26-2.34c0-.47-.06-.81-.06-1a4.68,4.68,0,0,1,.11-.89,2.06,2.06,0,0,1,.53-1,4.9,4.9,0,0,1,1.13-.86,4.59,4.59,0,0,1,1.74-.56,2.8,2.8,0,0,1,1.74.29,1.61,1.61,0,0,1,.54.42.5.5,0,0,1,.1.3l-2.7.56v1.81l5.47,2.43q.67-.42,1.2-.79a11.42,11.42,0,0,0,1.1-.88,6.52,6.52,0,0,0,.92-1,3.49,3.49,0,0,0,.52-1.07,2.36,2.36,0,0,0,.09-.54h0v0s0,0,0,0v-1.86l-.7.14,0,0a6.46,6.46,0,0,0-1.46-1.25l2.87-1.66Z"/><path class="cls-8" d="M103.32,144.4l3-1.76q-3.12-2-2.79-4t4.21-4.42l5.53,2.35a8.43,8.43,0,0,0-2.89,2.33q-.54.93.55,1.56a3.1,3.1,0,0,0,3.25-.24,4.63,4.63,0,0,0,1.52-1.3,3,3,0,0,0,.57-1.37,7.22,7.22,0,0,0-.06-1.69l-.31-2.42a7.92,7.92,0,0,1-.06-1.52,4.93,4.93,0,0,1,.34-1.4,4.07,4.07,0,0,1,1-1.46,9.81,9.81,0,0,1,1.91-1.39,12.57,12.57,0,0,1,6.33-1.71,14.62,14.62,0,0,1,6.57,1.54l2.89-1.67,1.6.93-2.87,1.66a6.46,6.46,0,0,1,1.46,1.25,3.14,3.14,0,0,1,.66,1.2,2.18,2.18,0,0,1,0,1.15,3.49,3.49,0,0,1-.52,1.07,6.52,6.52,0,0,1-.92,1,11.4,11.4,0,0,1-1.1.88q-.53.37-1.2.79l-5.47-2.43,1-.64q.4-.26.81-.56a3.35,3.35,0,0,0,.6-.54,1.47,1.47,0,0,0,.26-.48.5.5,0,0,0-.08-.46,1.61,1.61,0,0,0-.54-.42,2.8,2.8,0,0,0-1.74-.29,4.59,4.59,0,0,0-1.74.56,4.9,4.9,0,0,0-1.13.86,2.06,2.06,0,0,0-.53,1,4.68,4.68,0,0,0-.11.89c0,.21,0,.55.06,1l.26,2.34a8.9,8.9,0,0,1,0,1.76,6.35,6.35,0,0,1-.43,1.66,5,5,0,0,1-1.15,1.68A9.91,9.91,0,0,1,120,143.2a12.34,12.34,0,0,1-5.86,1.57,13.41,13.41,0,0,1-6.21-1.24l-3.07,1.77Z"/><path class="cls-5" d="M167.95,128.18h-2c-2.2-4.32-6.26-8.4-12.17-11.81-18.84-10.88-49.38-10.88-68.21,0-5.91,3.41-10,7.49-12.16,11.81h-2v7.88h0c0,7.13,4.71,14.25,14.13,19.69,18.84,10.88,49.38,10.88,68.21,0,9.42-5.44,14.13-12.56,14.13-19.69h0Z"/><path class="cls-8" d="M109.25,108.88a63.92,63.92,0,0,0-23.65,7.49c-5.91,3.41-10,7.49-12.16,11.81h-2v7.88c0,7.13,4.71,14.25,14.13,19.69a63.92,63.92,0,0,0,23.64,7.49Z"/><path class="cls-4" d="M154,155.67c9.33-5.43,14-12.52,14-19.61v-7.88h-2a28.12,28.12,0,0,0-9.68-10.26H154Z"/><g class="cls-14"><path class="cls-4" d="M165.46,127.27a23,23,0,0,0-2.09-3v23.67a23,23,0,0,0,2.09-3Z"/><path class="cls-4" d="M85.61,116.37a38,38,0,0,0-6.74,4.89v29.61c.66.6,1.35,1.2,2.09,1.77V120.55h3.94v34.77l.7.43c.45.26.92.51,1.39.76v-36h3.94v37.86q1,.44,2.09.85V120.55H97v40.07q1,.32,2.09.61V120.55H103v41.63q1,.22,2.09.41v-42H109v42.66l2.09.25V120.55h3.94v43.23l2.09.09V120.55h3.94v43.34l2.09-.06V120.55h3.94v43l2.09-.21V120.55h3.94V162.8q1.05-.18,2.09-.38V120.55h3.94v41q1.06-.27,2.09-.57V120.55h3.94v39.13q1.06-.38,2.09-.8V120.55h3.94V157.1q1.07-.54,2.09-1.11V120.55h3.94v32.93c.74-.53,1.43-1.07,2.09-1.63V120.55h.35a39.18,39.18,0,0,0-6-4.18,58,58,0,0,0-14.8-5.83H100.41A58,58,0,0,0,85.61,116.37Z"/><path class="cls-4" d="M74.93,125.74a21.57,21.57,0,0,0-1.48,2.44h-.61v14.44a20.67,20.67,0,0,0,2.09,3.79Z"/></g><path class="cls-8" d="M153.82,147.87c-18.84,10.88-49.38,10.87-68.21,0s-18.84-28.51,0-39.38,49.38-10.87,68.21,0S172.66,137,153.82,147.87Z"/><path class="cls-15" d="M130.52,132.94c13.87-8,17.51-19.67,11-29.61-18.1-5.29-40.75-3.57-55.87,5.16-13.87,8-17.51,19.67-11,29.61C92.74,143.39,115.4,141.67,130.52,132.94Z"/><path class="cls-16" d="M153.82,147.87c-18.84,10.88-49.38,10.87-68.21,0-9.1-5.25-13.79-12.09-14.1-19-.33,7.36,4.36,14.79,14.1,20.41,18.84,10.88,49.38,10.88,68.21,0,9.73-5.62,14.42-13,14.1-20.41C167.61,135.79,162.92,142.62,153.82,147.87Z"/><path class="cls-4" d="M143.92,142.16c-13.37,7.72-35,7.72-48.42,0s-13.37-20.24,0-28,35-7.72,48.42,0S157.29,134.44,143.92,142.16Z"/><path class="cls-5" d="M95.5,116c13.37-7.72,35-7.72,48.42,0,6.29,3.63,9.62,8.32,10,13.08.42-5.36-2.91-10.79-10-14.88-13.37-7.72-35-7.72-48.42,0-7.08,4.09-10.41,9.52-10,14.88C85.89,124.33,89.22,119.64,95.5,116Z"/><path class="cls-5" d="M136.55,118.85l-2.65.76.75.3-2.59,1.5a14.63,14.63,0,0,0-6.57-1.54,12.57,12.57,0,0,0-6.33,1.71,9.82,9.82,0,0,0-1.91,1.39,4.07,4.07,0,0,0-1,1.46,4.93,4.93,0,0,0-.34,1.4,7.92,7.92,0,0,0,.06,1.52l.31,2.42a7.22,7.22,0,0,1,.06,1.69,3,3,0,0,1-.57,1.37,4.63,4.63,0,0,1-1.52,1.3,3.1,3.1,0,0,1-3.25.24q-1.08-.63-.55-1.56a8.43,8.43,0,0,1,2.89-2.33v-1.81l-2.27.85-3.26-1.38a10.57,10.57,0,0,0-3.87,3.47l-.37-.42V133h0c0,1.22.94,2.42,2.81,3.61l-1.29.74-1.75-.8v1.81l1.57.91,3.07-1.77a13.41,13.41,0,0,0,6.21,1.24,12.34,12.34,0,0,0,5.86-1.57,9.91,9.91,0,0,0,2.08-1.54,5,5,0,0,0,1.15-1.68,6.35,6.35,0,0,0,.43-1.66,8.9,8.9,0,0,0,0-1.76l-.26-2.34c0-.47-.06-.81-.06-1a4.69,4.69,0,0,1,.11-.89,2.06,2.06,0,0,1,.53-1,4.9,4.9,0,0,1,1.13-.86,4.59,4.59,0,0,1,1.74-.56,2.8,2.8,0,0,1,1.74.29,1.61,1.61,0,0,1,.54.42.5.5,0,0,1,.1.3l-2.7.56v1.81l5.47,2.43q.67-.42,1.2-.79a11.39,11.39,0,0,0,1.1-.88,6.52,6.52,0,0,0,.92-1,3.49,3.49,0,0,0,.52-1.07,2.36,2.36,0,0,0,.09-.54h0v0s0,0,0,0v-1.86l-.7.14,0,0a6.46,6.46,0,0,0-1.46-1.25l2.87-1.66Z"/><path class="cls-8" d="M103.32,136.52l3-1.76q-3.12-2-2.79-4t4.21-4.42l5.53,2.35a8.43,8.43,0,0,0-2.89,2.33q-.54.93.55,1.56a3.1,3.1,0,0,0,3.25-.24,4.64,4.64,0,0,0,1.52-1.3,3,3,0,0,0,.57-1.37,7.22,7.22,0,0,0-.06-1.69l-.31-2.42a7.92,7.92,0,0,1-.06-1.52,4.93,4.93,0,0,1,.34-1.4,4.07,4.07,0,0,1,1-1.46,9.82,9.82,0,0,1,1.91-1.39,12.57,12.57,0,0,1,6.33-1.71,14.63,14.63,0,0,1,6.57,1.54l2.89-1.67,1.6.93-2.87,1.66a6.46,6.46,0,0,1,1.46,1.25,3.14,3.14,0,0,1,.66,1.2,2.18,2.18,0,0,1,0,1.15,3.49,3.49,0,0,1-.52,1.07,6.52,6.52,0,0,1-.92,1,11.4,11.4,0,0,1-1.1.88q-.53.37-1.2.79l-5.47-2.43,1-.64q.4-.26.81-.56a3.35,3.35,0,0,0,.6-.54,1.47,1.47,0,0,0,.26-.48.5.5,0,0,0-.08-.46,1.61,1.61,0,0,0-.54-.42,2.8,2.8,0,0,0-1.74-.29,4.59,4.59,0,0,0-1.74.56,4.9,4.9,0,0,0-1.13.86,2.06,2.06,0,0,0-.53,1,4.68,4.68,0,0,0-.11.89c0,.21,0,.55.06,1l.26,2.34a8.9,8.9,0,0,1,0,1.76,6.35,6.35,0,0,1-.43,1.66,5,5,0,0,1-1.15,1.68,9.91,9.91,0,0,1-2.08,1.54,12.34,12.34,0,0,1-5.86,1.57,13.41,13.41,0,0,1-6.21-1.24l-3.07,1.77Z"/><path class="cls-5" d="M171.39,120.3h-2c-2.2-4.32-6.26-8.4-12.17-11.81-18.84-10.88-49.38-10.88-68.21,0-5.91,3.41-10,7.49-12.16,11.81h-2v7.88h0c0,7.13,4.71,14.25,14.13,19.69,18.84,10.88,49.38,10.88,68.21,0,9.42-5.44,14.13-12.56,14.13-19.69h0Z"/><path class="cls-8" d="M112.7,101a63.92,63.92,0,0,0-23.65,7.49c-5.91,3.41-10,7.49-12.16,11.81h-2v7.88c0,7.13,4.71,14.25,14.13,19.69a63.92,63.92,0,0,0,23.64,7.49Z"/><path class="cls-4" d="M157.4,147.79c9.33-5.43,14-12.52,14-19.61V120.3h-2A28.12,28.12,0,0,0,159.75,110H157.4Z"/><g class="cls-14"><path class="cls-4" d="M168.91,119.38a23,23,0,0,0-2.09-3V140a23,23,0,0,0,2.09-3Z"/><path class="cls-4" d="M89.05,108.48a38,38,0,0,0-6.74,4.89V143c.66.6,1.35,1.2,2.09,1.77V112.67h3.94v34.77l.7.43c.45.26.92.51,1.39.76v-36h3.94v37.86q1,.44,2.09.85V112.67h3.94v40.07q1,.32,2.09.61V112.67h3.94V154.3q1,.22,2.09.41v-42h3.94v42.66l2.09.25V112.67h3.94V155.9l2.09.09V112.67h3.94V156l2.09-.06V112.67h3.94v43l2.09-.21V112.67h3.94v42.25q1.05-.18,2.09-.38V112.67h3.94v41q1.06-.27,2.09-.57V112.67h3.94v39.13q1.06-.38,2.09-.8V112.67h3.94v36.55q1.07-.54,2.09-1.11V112.67h3.94V145.6c.74-.53,1.43-1.07,2.09-1.63V112.67h.35a39.18,39.18,0,0,0-6-4.18,58,58,0,0,0-14.8-5.83H103.85A58,58,0,0,0,89.05,108.48Z"/><path class="cls-4" d="M78.37,117.86a21.61,21.61,0,0,0-1.48,2.44h-.61v14.44a20.69,20.69,0,0,0,2.09,3.79Z"/></g><path class="cls-8" d="M157.27,140c-18.84,10.88-49.38,10.87-68.21,0s-18.84-28.51,0-39.38,49.38-10.87,68.21,0S176.1,129.12,157.27,140Z"/><path class="cls-15" d="M134,125.06c13.87-8,17.51-19.67,11-29.61-18.1-5.29-40.75-3.57-55.87,5.16-13.87,8-17.51,19.67-11,29.61C96.19,135.5,118.84,133.79,134,125.06Z"/><path class="cls-16" d="M157.27,140c-18.84,10.88-49.38,10.87-68.21,0C80,134.74,75.26,127.9,75,121c-.33,7.36,4.36,14.79,14.1,20.41,18.84,10.88,49.38,10.88,68.21,0,9.73-5.62,14.42-13,14.1-20.41C171.06,127.9,166.37,134.74,157.27,140Z"/><path class="cls-4" d="M147.37,134.28c-13.37,7.72-35,7.72-48.42,0s-13.37-20.24,0-28,35-7.72,48.42,0S160.74,126.56,147.37,134.28Z"/><path class="cls-5" d="M98.95,108.13c13.37-7.72,35-7.72,48.42,0,6.29,3.63,9.62,8.32,10,13.08.42-5.36-2.91-10.79-10-14.88-13.37-7.72-35-7.72-48.42,0-7.08,4.09-10.41,9.52-10,14.88C89.33,116.45,92.66,111.76,98.95,108.13Z"/><path class="cls-5" d="M140,111l-2.65.76.75.3-2.59,1.5a14.62,14.62,0,0,0-6.57-1.54,12.56,12.56,0,0,0-6.33,1.71,9.81,9.81,0,0,0-1.91,1.39,4.07,4.07,0,0,0-1,1.46,4.93,4.93,0,0,0-.34,1.4,7.92,7.92,0,0,0,.06,1.52l.31,2.42a7.23,7.23,0,0,1,.06,1.69,3,3,0,0,1-.57,1.37,4.63,4.63,0,0,1-1.52,1.3,3.1,3.1,0,0,1-3.25.24q-1.08-.63-.55-1.56a8.43,8.43,0,0,1,2.89-2.33v-1.81l-2.27.85-3.26-1.38a10.57,10.57,0,0,0-3.87,3.47l-.37-.42v1.78h0c0,1.22.94,2.42,2.81,3.61l-1.29.74-1.75-.8v1.81l1.57.91,3.07-1.77a13.41,13.41,0,0,0,6.21,1.24,12.34,12.34,0,0,0,5.86-1.57,9.91,9.91,0,0,0,2.08-1.54,5,5,0,0,0,1.15-1.68,6.36,6.36,0,0,0,.43-1.66,8.9,8.9,0,0,0,0-1.76l-.26-2.34c0-.47-.06-.81-.06-1a4.68,4.68,0,0,1,.11-.89,2.06,2.06,0,0,1,.53-1,4.9,4.9,0,0,1,1.13-.86,4.59,4.59,0,0,1,1.74-.56,2.8,2.8,0,0,1,1.74.29,1.61,1.61,0,0,1,.54.42.5.5,0,0,1,.1.3l-2.7.56v1.81l5.47,2.43q.67-.42,1.2-.79a11.4,11.4,0,0,0,1.1-.88,6.52,6.52,0,0,0,.92-1,3.49,3.49,0,0,0,.52-1.07,2.36,2.36,0,0,0,.09-.54h0v0s0,0,0,0v-1.86l-.7.15,0,0a6.46,6.46,0,0,0-1.46-1.25l2.87-1.66Z"/><path class="cls-8" d="M106.77,128.63l3-1.76q-3.12-2-2.79-4t4.21-4.42l5.53,2.35a8.43,8.43,0,0,0-2.89,2.33q-.54.93.55,1.56a3.1,3.1,0,0,0,3.25-.24,4.63,4.63,0,0,0,1.52-1.3,3,3,0,0,0,.57-1.37,7.22,7.22,0,0,0-.06-1.69l-.31-2.42a7.91,7.91,0,0,1-.06-1.52,4.93,4.93,0,0,1,.34-1.4,4.07,4.07,0,0,1,1-1.46,9.82,9.82,0,0,1,1.91-1.39,12.57,12.57,0,0,1,6.33-1.71,14.63,14.63,0,0,1,6.57,1.54l2.89-1.67,1.6.93-2.87,1.66a6.46,6.46,0,0,1,1.46,1.25,3.14,3.14,0,0,1,.66,1.2,2.18,2.18,0,0,1,0,1.15,3.49,3.49,0,0,1-.52,1.07,6.52,6.52,0,0,1-.92,1,11.39,11.39,0,0,1-1.1.88q-.53.37-1.2.79L130,117.51l1-.64q.4-.26.81-.56a3.35,3.35,0,0,0,.6-.54,1.47,1.47,0,0,0,.26-.48.5.5,0,0,0-.08-.46,1.61,1.61,0,0,0-.54-.42,2.8,2.8,0,0,0-1.74-.29,4.59,4.59,0,0,0-1.74.56,4.9,4.9,0,0,0-1.13.86,2.06,2.06,0,0,0-.53,1,4.69,4.69,0,0,0-.11.89c0,.21,0,.55.06,1l.26,2.34a8.9,8.9,0,0,1,0,1.76,6.35,6.35,0,0,1-.43,1.66,5,5,0,0,1-1.15,1.68,9.92,9.92,0,0,1-2.08,1.54,12.34,12.34,0,0,1-5.86,1.57,13.41,13.41,0,0,1-6.21-1.24l-3.07,1.77Z"/><path class="cls-5" d="M161.71,110.68h-2c-2.2-4.32-6.26-8.4-12.17-11.81C128.74,88,98.2,88,79.37,98.86c-5.91,3.41-10,7.49-12.16,11.81h-2v7.88h0c0,7.13,4.71,14.25,14.13,19.69,18.84,10.88,49.38,10.88,68.21,0,9.42-5.44,14.13-12.56,14.13-19.69h0Z"/><path class="cls-8" d="M103,91.38a63.92,63.92,0,0,0-23.65,7.49c-5.91,3.41-10,7.49-12.16,11.81h-2v7.88c0,7.13,4.71,14.25,14.13,19.69A63.92,63.92,0,0,0,103,145.74Z"/><path class="cls-4" d="M147.71,138.17c9.33-5.43,14-12.52,14-19.61v-7.88h-2a28.12,28.12,0,0,0-9.68-10.26h-2.35Z"/><g class="cls-14"><path class="cls-4" d="M159.22,109.76a23,23,0,0,0-2.09-3V130.4a23,23,0,0,0,2.09-3Z"/><path class="cls-4" d="M79.37,98.86a38,38,0,0,0-6.74,4.89v29.61c.66.6,1.35,1.2,2.09,1.77V103h3.94v34.77l.7.43c.45.26.92.51,1.39.76V103H84.7v37.86q1,.44,2.09.85V103h3.94v40.07q1,.32,2.09.61V103h3.94v41.63q1,.22,2.09.41V103h3.94v42.66l2.09.25V103h3.94v43.23l2.09.09V103h3.94v43.34l2.09-.06V103h3.94v43l2.09-.21V103H127V145.3q1.05-.18,2.09-.38V103H133v41q1.06-.27,2.09-.57V103H139v39.13q1.06-.38,2.09-.8V103h3.94v36.55q1.07-.54,2.09-1.11V103h3.94V136c.74-.53,1.43-1.07,2.09-1.63V103h.35a39.17,39.17,0,0,0-6-4.18A58.05,58.05,0,0,0,132.78,93H94.16A58,58,0,0,0,79.37,98.86Z"/><path class="cls-4" d="M68.68,108.24a21.57,21.57,0,0,0-1.48,2.44h-.61v14.44a20.68,20.68,0,0,0,2.09,3.79Z"/></g><path class="cls-8" d="M147.58,130.37c-18.84,10.88-49.38,10.87-68.21,0s-18.84-28.51,0-39.38,49.38-10.87,68.21,0S166.41,119.5,147.58,130.37Z"/><path class="cls-15" d="M124.28,115.44c13.87-8,17.51-19.67,11-29.61-18.1-5.29-40.75-3.57-55.87,5.16-13.87,8-17.51,19.67-11,29.61C86.5,125.88,109.16,124.17,124.28,115.44Z"/><path class="cls-16" d="M147.58,130.37c-18.84,10.88-49.38,10.87-68.21,0-9.1-5.25-13.79-12.09-14.1-19-.33,7.36,4.36,14.79,14.1,20.41,18.84,10.88,49.38,10.88,68.21,0,9.73-5.62,14.42-13,14.1-20.41C161.37,118.28,156.68,125.12,147.58,130.37Z"/><path class="cls-4" d="M137.68,124.66c-13.37,7.72-35,7.72-48.42,0s-13.37-20.24,0-28,35-7.72,48.42,0S151.05,116.94,137.68,124.66Z"/><path class="cls-5" d="M89.26,98.51c13.37-7.72,35-7.72,48.42,0,6.29,3.63,9.62,8.32,10,13.08.42-5.36-2.91-10.79-10-14.88-13.37-7.72-35-7.72-48.42,0-7.08,4.09-10.41,9.52-10,14.88C79.65,106.83,83,102.14,89.26,98.51Z"/><path class="cls-5" d="M130.31,101.35l-2.65.76.75.3-2.59,1.5a14.62,14.62,0,0,0-6.57-1.54,12.57,12.57,0,0,0-6.33,1.71,9.81,9.81,0,0,0-1.91,1.39,4.07,4.07,0,0,0-1,1.46,4.93,4.93,0,0,0-.34,1.4,7.92,7.92,0,0,0,.06,1.52l.31,2.42a7.23,7.23,0,0,1,.06,1.69,3,3,0,0,1-.57,1.37,4.63,4.63,0,0,1-1.52,1.3,3.1,3.1,0,0,1-3.25.24q-1.08-.63-.55-1.56a8.43,8.43,0,0,1,2.89-2.33v-1.81l-2.27.85-3.26-1.38a10.56,10.56,0,0,0-3.87,3.47l-.37-.42v1.78h0c0,1.22.94,2.42,2.81,3.61l-1.29.74-1.75-.8v1.81l1.57.91,3.07-1.77a13.41,13.41,0,0,0,6.21,1.24,12.33,12.33,0,0,0,5.86-1.57,9.91,9.91,0,0,0,2.08-1.54A5,5,0,0,0,117,116.4a6.35,6.35,0,0,0,.43-1.66,8.9,8.9,0,0,0,0-1.76l-.26-2.34c0-.47-.06-.81-.06-1a4.67,4.67,0,0,1,.11-.89,2.06,2.06,0,0,1,.53-1,4.9,4.9,0,0,1,1.13-.86,4.59,4.59,0,0,1,1.74-.56,2.8,2.8,0,0,1,1.74.29,1.61,1.61,0,0,1,.54.42.5.5,0,0,1,.1.3l-2.7.56v1.81l5.47,2.43q.67-.42,1.2-.79a11.38,11.38,0,0,0,1.1-.88,6.52,6.52,0,0,0,.92-1,3.49,3.49,0,0,0,.52-1.07,2.37,2.37,0,0,0,.09-.54h0v0s0,0,0,0V106l-.7.14,0,0a6.46,6.46,0,0,0-1.46-1.25l2.87-1.66Z"/><path class="cls-8" d="M97.08,119l3-1.76q-3.12-2-2.79-4t4.21-4.42l5.53,2.35a8.43,8.43,0,0,0-2.89,2.33q-.53.93.55,1.56a3.1,3.1,0,0,0,3.25-.24,4.63,4.63,0,0,0,1.52-1.3,3,3,0,0,0,.57-1.37,7.23,7.23,0,0,0-.06-1.69l-.31-2.42a7.93,7.93,0,0,1-.06-1.52,4.93,4.93,0,0,1,.34-1.4,4.07,4.07,0,0,1,1-1.46,9.82,9.82,0,0,1,1.91-1.39,12.57,12.57,0,0,1,6.33-1.71,14.63,14.63,0,0,1,6.57,1.54l2.89-1.67,1.6.93L127.44,103a6.46,6.46,0,0,1,1.46,1.25,3.14,3.14,0,0,1,.66,1.2,2.18,2.18,0,0,1,0,1.15,3.49,3.49,0,0,1-.52,1.07,6.52,6.52,0,0,1-.92,1,11.4,11.4,0,0,1-1.1.88q-.53.37-1.2.79l-5.47-2.43,1-.64q.4-.26.81-.56a3.35,3.35,0,0,0,.6-.54,1.47,1.47,0,0,0,.26-.48.5.5,0,0,0-.08-.46,1.61,1.61,0,0,0-.54-.42,2.8,2.8,0,0,0-1.74-.29,4.59,4.59,0,0,0-1.74.56,4.9,4.9,0,0,0-1.13.86,2.06,2.06,0,0,0-.53,1,4.67,4.67,0,0,0-.11.89c0,.21,0,.55.06,1l.26,2.34a8.91,8.91,0,0,1,0,1.76,6.35,6.35,0,0,1-.43,1.66,5,5,0,0,1-1.15,1.68,9.91,9.91,0,0,1-2.08,1.54,12.34,12.34,0,0,1-5.86,1.57,13.41,13.41,0,0,1-6.21-1.24l-3.07,1.77Z"/><path class="cls-5" d="M241.1,210.54h-2c-2.2-4.32-6.26-8.4-12.16-11.81-18.84-10.88-49.38-10.88-68.21,0-5.91,3.41-10,7.49-12.16,11.81h-2v7.88h0c0,7.13,4.71,14.25,14.13,19.69C177.6,249,208.14,249,227,238.11c9.42-5.44,14.13-12.56,14.13-19.69h0Z"/><path class="cls-8" d="M182.41,191.24a63.92,63.92,0,0,0-23.65,7.49c-5.91,3.41-10,7.49-12.16,11.81h-2v7.88c0,7.13,4.71,14.25,14.13,19.69a63.92,63.92,0,0,0,23.64,7.49Z"/><path class="cls-4" d="M227.11,238c9.33-5.43,14-12.52,14-19.61v-7.88h-2a28.12,28.12,0,0,0-9.68-10.26h-2.35Z"/><g class="cls-14"><path class="cls-4" d="M238.62,209.62a23,23,0,0,0-2.09-3v23.67a23,23,0,0,0,2.09-3Z"/><path class="cls-4" d="M158.76,198.72a38,38,0,0,0-6.74,4.89v29.61c.66.6,1.35,1.2,2.09,1.77V202.91h3.94v34.77l.7.43c.45.26.92.51,1.39.76v-36h3.94v37.86q1,.44,2.09.85V202.91h3.94V243q1,.32,2.09.61V202.91h3.94v41.63q1,.22,2.09.41v-42h3.94v42.66l2.09.25V202.91h3.94v43.23l2.09.09V202.91h3.94v43.34l2.09-.06V202.91h3.94v43l2.09-.21V202.91h3.94v42.25q1.05-.18,2.09-.38V202.91h3.94v41q1.06-.27,2.09-.57V202.91h3.94V242q1.06-.38,2.09-.8V202.91h3.94v36.55q1.07-.54,2.09-1.11V202.91h3.94v32.93c.74-.53,1.43-1.07,2.09-1.63V202.91h.35a39.17,39.17,0,0,0-6-4.18,58,58,0,0,0-14.8-5.83H173.56A58,58,0,0,0,158.76,198.72Z"/><path class="cls-4" d="M148.08,208.1a21.61,21.61,0,0,0-1.48,2.44H146V225a20.69,20.69,0,0,0,2.09,3.79Z"/></g><path class="cls-8" d="M227,230.23c-18.84,10.88-49.38,10.87-68.21,0s-18.84-28.51,0-39.38,49.38-10.87,68.21,0S245.81,219.36,227,230.23Z"/><path class="cls-15" d="M203.67,215.3c13.87-8,17.51-19.67,11-29.61-18.1-5.29-40.75-3.57-55.87,5.16-13.87,8-17.51,19.67-11,29.61C165.9,225.74,188.55,224,203.67,215.3Z"/><path class="cls-16" d="M227,230.23c-18.84,10.88-49.38,10.87-68.21,0-9.1-5.26-13.79-12.09-14.1-19-.33,7.36,4.36,14.79,14.1,20.41,18.84,10.88,49.38,10.88,68.21,0,9.73-5.62,14.42-13,14.1-20.41C240.77,218.14,236.08,225,227,230.23Z"/><path class="cls-4" d="M217.08,224.52c-13.37,7.72-35,7.72-48.42,0s-13.37-20.24,0-28,35-7.72,48.42,0S230.45,216.8,217.08,224.52Z"/><path class="cls-5" d="M168.66,198.37c13.37-7.72,35-7.72,48.42,0,6.29,3.63,9.62,8.32,10,13.08.42-5.36-2.91-10.79-10-14.88-13.37-7.72-35-7.72-48.42,0-7.08,4.09-10.41,9.52-10,14.88C159,206.69,162.37,202,168.66,198.37Z"/><path class="cls-5" d="M209.71,201.21l-2.65.76.75.3-2.59,1.5a14.62,14.62,0,0,0-6.57-1.54,12.56,12.56,0,0,0-6.33,1.71,9.81,9.81,0,0,0-1.91,1.39,4.07,4.07,0,0,0-1,1.46,4.93,4.93,0,0,0-.34,1.4,7.92,7.92,0,0,0,.06,1.52l.31,2.42a7.23,7.23,0,0,1,.06,1.69,3,3,0,0,1-.57,1.37,4.63,4.63,0,0,1-1.52,1.3,3.1,3.1,0,0,1-3.25.24q-1.08-.63-.55-1.56a8.43,8.43,0,0,1,2.89-2.33V211l-2.27.85-3.26-1.38a10.57,10.57,0,0,0-3.87,3.47l-.37-.42v1.78h0c0,1.22.94,2.42,2.81,3.61l-1.29.74-1.75-.8v1.81l1.57.91,3.07-1.77a13.41,13.41,0,0,0,6.21,1.24,12.33,12.33,0,0,0,5.86-1.57,9.92,9.92,0,0,0,2.08-1.54,5,5,0,0,0,1.15-1.68,6.36,6.36,0,0,0,.43-1.66,8.89,8.89,0,0,0,0-1.76l-.26-2.34c0-.47-.06-.81-.06-1a4.67,4.67,0,0,1,.11-.89,2.06,2.06,0,0,1,.53-1,4.9,4.9,0,0,1,1.13-.86,4.59,4.59,0,0,1,1.74-.56,2.8,2.8,0,0,1,1.74.29,1.61,1.61,0,0,1,.54.42.5.5,0,0,1,.1.3l-2.7.56v1.81l5.47,2.43q.67-.42,1.2-.79a11.4,11.4,0,0,0,1.1-.88,6.52,6.52,0,0,0,.92-1,3.49,3.49,0,0,0,.52-1.07,2.36,2.36,0,0,0,.09-.54h0v0s0,0,0,0v-1.86l-.7.15,0,0a6.46,6.46,0,0,0-1.46-1.25l2.87-1.66Z"/><path class="cls-8" d="M176.47,218.87l3-1.76q-3.12-2-2.79-4t4.21-4.42l5.53,2.35a8.43,8.43,0,0,0-2.89,2.33q-.54.93.55,1.56a3.1,3.1,0,0,0,3.25-.24,4.63,4.63,0,0,0,1.52-1.3,3,3,0,0,0,.57-1.37,7.23,7.23,0,0,0-.06-1.69l-.31-2.42a7.92,7.92,0,0,1-.06-1.52,4.93,4.93,0,0,1,.34-1.4,4.07,4.07,0,0,1,1-1.46,9.82,9.82,0,0,1,1.91-1.39,12.57,12.57,0,0,1,6.33-1.71,14.63,14.63,0,0,1,6.57,1.54l2.89-1.67,1.6.93-2.87,1.66a6.46,6.46,0,0,1,1.46,1.25,3.14,3.14,0,0,1,.66,1.2,2.18,2.18,0,0,1,0,1.15,3.49,3.49,0,0,1-.52,1.07,6.52,6.52,0,0,1-.92,1,11.39,11.39,0,0,1-1.1.88q-.53.37-1.2.79l-5.47-2.43,1-.64q.4-.26.81-.56a3.35,3.35,0,0,0,.6-.54,1.47,1.47,0,0,0,.26-.48.5.5,0,0,0-.08-.46,1.61,1.61,0,0,0-.54-.42,2.8,2.8,0,0,0-1.74-.29,4.59,4.59,0,0,0-1.74.56,4.9,4.9,0,0,0-1.13.86,2.06,2.06,0,0,0-.53,1,4.69,4.69,0,0,0-.11.89c0,.21,0,.55.06,1l.26,2.34a8.9,8.9,0,0,1,0,1.76,6.36,6.36,0,0,1-.43,1.66,5,5,0,0,1-1.15,1.68,9.92,9.92,0,0,1-2.08,1.54,12.34,12.34,0,0,1-5.86,1.57,13.41,13.41,0,0,1-6.21-1.24L178,219.78Z"/><path class="cls-5" d="M241.1,202.66h-2c-2.2-4.32-6.26-8.4-12.16-11.81-18.84-10.88-49.38-10.88-68.21,0-5.91,3.41-10,7.49-12.16,11.81h-2v7.88h0c0,7.13,4.71,14.25,14.13,19.69,18.84,10.88,49.38,10.88,68.21,0,9.42-5.44,14.13-12.56,14.13-19.69h0Z"/><path class="cls-8" d="M182.41,183.35a63.92,63.92,0,0,0-23.65,7.49c-5.91,3.41-10,7.49-12.16,11.81h-2v7.88c0,7.13,4.71,14.25,14.13,19.69a63.92,63.92,0,0,0,23.64,7.49Z"/><path class="cls-4" d="M227.11,230.15c9.33-5.43,14-12.52,14-19.61v-7.88h-2a28.12,28.12,0,0,0-9.68-10.26h-2.35Z"/><g class="cls-14"><path class="cls-4" d="M238.62,201.74a23,23,0,0,0-2.09-3v23.67a23,23,0,0,0,2.09-3Z"/><path class="cls-4" d="M158.76,190.84a38,38,0,0,0-6.74,4.89v29.61c.66.6,1.35,1.2,2.09,1.77V195h3.94V229.8l.7.43c.45.26.92.51,1.39.76V195h3.94v37.86q1,.44,2.09.85V195h3.94V235.1q1,.32,2.09.61V195h3.94v41.63q1,.22,2.09.41V195h3.94v42.66l2.09.25V195h3.94v43.23l2.09.09V195h3.94v43.34l2.09-.06V195h3.94v43l2.09-.21V195h3.94v42.25q1.05-.18,2.09-.38V195h3.94v41q1.06-.27,2.09-.57V195h3.94v39.13q1.06-.38,2.09-.8V195h3.94v36.55q1.07-.54,2.09-1.11V195h3.94V228c.74-.53,1.43-1.07,2.09-1.63V195h.35a39.16,39.16,0,0,0-6-4.18,58,58,0,0,0-14.8-5.83H173.56A58,58,0,0,0,158.76,190.84Z"/><path class="cls-4" d="M148.08,200.21a21.6,21.6,0,0,0-1.48,2.44H146v14.44a20.68,20.68,0,0,0,2.09,3.79Z"/></g><path class="cls-8" d="M227,222.35c-18.84,10.88-49.38,10.87-68.21,0s-18.84-28.51,0-39.38,49.38-10.87,68.21,0S245.81,211.47,227,222.35Z"/><path class="cls-15" d="M203.67,207.42c13.87-8,17.51-19.67,11-29.61-18.1-5.29-40.75-3.57-55.87,5.16-13.87,8-17.51,19.67-11,29.61C165.9,217.86,188.55,216.15,203.67,207.42Z"/><path class="cls-16" d="M227,222.35c-18.84,10.88-49.38,10.87-68.21,0-9.1-5.26-13.79-12.09-14.1-19-.33,7.36,4.36,14.79,14.1,20.41,18.84,10.88,49.38,10.88,68.21,0,9.73-5.62,14.42-13,14.1-20.41C240.77,210.26,236.08,217.09,227,222.35Z"/><path class="cls-4" d="M217.08,216.63c-13.37,7.72-35,7.72-48.42,0s-13.37-20.24,0-28,35-7.72,48.42,0S230.45,208.92,217.08,216.63Z"/><path class="cls-5" d="M168.66,190.48c13.37-7.72,35-7.72,48.42,0,6.29,3.63,9.62,8.32,10,13.08.42-5.36-2.91-10.79-10-14.88-13.37-7.72-35-7.72-48.42,0-7.08,4.09-10.41,9.52-10,14.88C159,198.8,162.37,194.11,168.66,190.48Z"/><path class="cls-5" d="M209.71,193.32l-2.65.76.75.3-2.59,1.5a14.63,14.63,0,0,0-6.57-1.54,12.57,12.57,0,0,0-6.33,1.71,9.82,9.82,0,0,0-1.91,1.39,4.07,4.07,0,0,0-1,1.46,4.93,4.93,0,0,0-.34,1.4,7.92,7.92,0,0,0,.06,1.52l.31,2.42a7.23,7.23,0,0,1,.06,1.69,3,3,0,0,1-.57,1.37,4.63,4.63,0,0,1-1.52,1.3,3.1,3.1,0,0,1-3.25.24q-1.08-.63-.55-1.56a8.43,8.43,0,0,1,2.89-2.33v-1.81l-2.27.85-3.26-1.38a10.56,10.56,0,0,0-3.87,3.47l-.37-.42v1.78h0c0,1.22.94,2.42,2.81,3.61l-1.29.74-1.75-.8v1.81l1.57.91,3.07-1.77a13.41,13.41,0,0,0,6.21,1.24,12.34,12.34,0,0,0,5.86-1.57,9.92,9.92,0,0,0,2.08-1.54,5,5,0,0,0,1.15-1.68,6.35,6.35,0,0,0,.43-1.66,8.89,8.89,0,0,0,0-1.76l-.26-2.34c0-.47-.06-.81-.06-1a4.67,4.67,0,0,1,.11-.89,2.06,2.06,0,0,1,.53-1,4.9,4.9,0,0,1,1.13-.86,4.59,4.59,0,0,1,1.74-.56,2.8,2.8,0,0,1,1.74.29,1.61,1.61,0,0,1,.54.42.5.5,0,0,1,.1.3l-2.7.56v1.81l5.47,2.43q.67-.42,1.2-.79a11.4,11.4,0,0,0,1.1-.88,6.52,6.52,0,0,0,.92-1,3.49,3.49,0,0,0,.52-1.07,2.36,2.36,0,0,0,.09-.54h0v0s0,0,0,0v-1.86l-.7.14,0,0a6.46,6.46,0,0,0-1.46-1.25l2.87-1.66Z"/><path class="cls-8" d="M176.47,211l3-1.76q-3.12-2-2.79-4t4.21-4.42l5.53,2.35a8.43,8.43,0,0,0-2.89,2.33q-.54.93.55,1.56a3.1,3.1,0,0,0,3.25-.24,4.63,4.63,0,0,0,1.52-1.3,3,3,0,0,0,.57-1.37,7.23,7.23,0,0,0-.06-1.69l-.31-2.42a7.92,7.92,0,0,1-.06-1.52,4.93,4.93,0,0,1,.34-1.4,4.07,4.07,0,0,1,1-1.46,9.81,9.81,0,0,1,1.91-1.39,12.56,12.56,0,0,1,6.33-1.71,14.62,14.62,0,0,1,6.57,1.54l2.89-1.67,1.6.93L206.83,195a6.46,6.46,0,0,1,1.46,1.25,3.14,3.14,0,0,1,.66,1.2,2.18,2.18,0,0,1,0,1.15,3.49,3.49,0,0,1-.52,1.07,6.52,6.52,0,0,1-.92,1,11.4,11.4,0,0,1-1.1.88q-.53.37-1.2.79l-5.47-2.43,1-.64q.4-.26.81-.56a3.35,3.35,0,0,0,.6-.54,1.47,1.47,0,0,0,.26-.48.49.49,0,0,0-.08-.46,1.61,1.61,0,0,0-.54-.42,2.8,2.8,0,0,0-1.74-.29,4.59,4.59,0,0,0-1.74.56,4.9,4.9,0,0,0-1.13.86,2.06,2.06,0,0,0-.53,1,4.68,4.68,0,0,0-.11.89c0,.21,0,.55.06,1l.26,2.34a8.9,8.9,0,0,1,0,1.76,6.36,6.36,0,0,1-.43,1.66,5,5,0,0,1-1.15,1.68,9.92,9.92,0,0,1-2.08,1.54,12.34,12.34,0,0,1-5.86,1.57,13.41,13.41,0,0,1-6.21-1.24L178,211.9Z"/><path class="cls-5" d="M234.35,199h-2c-2.2-4.32-6.26-8.4-12.17-11.81-18.84-10.88-49.38-10.88-68.21,0-5.91,3.41-10,7.49-12.16,11.81h-2v7.88h0c0,7.13,4.71,14.25,14.13,19.69,18.84,10.88,49.38,10.88,68.21,0,9.42-5.44,14.13-12.56,14.13-19.69h0Z"/><path class="cls-8" d="M175.65,179.65A63.92,63.92,0,0,0,152,187.14c-5.91,3.41-10,7.49-12.16,11.81h-2v7.88c0,7.13,4.71,14.25,14.13,19.69A63.92,63.92,0,0,0,175.65,234Z"/><path class="cls-4" d="M220.35,226.44c9.33-5.43,14-12.52,14-19.61V199h-2a28.12,28.12,0,0,0-9.68-10.26h-2.35Z"/><g class="cls-14"><path class="cls-4" d="M231.87,198a23,23,0,0,0-2.09-3v23.67a23,23,0,0,0,2.09-3Z"/><path class="cls-4" d="M152,187.14a38,38,0,0,0-6.74,4.89v29.61c.66.6,1.35,1.2,2.09,1.77V191.32h3.94v34.77l.7.43c.45.26.92.51,1.39.76v-36h3.94v37.86q1,.44,2.09.85V191.32h3.94v40.07q1,.32,2.09.61V191.32h3.94V233q1,.22,2.09.41v-42h3.94V234l2.09.25V191.32h3.94v43.23l2.09.09V191.32h3.94v43.34l2.09-.06V191.32h3.94v43l2.09-.21V191.32h3.94v42.25q1.05-.18,2.09-.38V191.32h3.94v41q1.06-.27,2.09-.57V191.32h3.94v39.13q1.06-.38,2.09-.8V191.32h3.94v36.55q1.07-.54,2.09-1.11V191.32h3.94v32.93c.74-.53,1.43-1.07,2.09-1.63V191.32h.35a39.18,39.18,0,0,0-6-4.18,58,58,0,0,0-14.8-5.83H166.81A58,58,0,0,0,152,187.14Z"/><path class="cls-4" d="M141.33,196.51a21.59,21.59,0,0,0-1.48,2.44h-.61v14.44a20.68,20.68,0,0,0,2.09,3.79Z"/></g><path class="cls-8" d="M220.22,218.64c-18.84,10.88-49.38,10.87-68.21,0s-18.84-28.51,0-39.38,49.38-10.87,68.21,0S239.06,207.77,220.22,218.64Z"/><path class="cls-15" d="M196.92,203.71c13.87-8,17.51-19.67,11-29.61-18.1-5.29-40.75-3.57-55.87,5.16-13.87,8-17.51,19.67-11,29.61C159.14,214.15,181.8,212.44,196.92,203.71Z"/><path class="cls-16" d="M220.22,218.64c-18.84,10.88-49.38,10.87-68.21,0-9.1-5.26-13.79-12.09-14.1-19-.33,7.36,4.36,14.79,14.1,20.41,18.84,10.88,49.38,10.88,68.21,0,9.73-5.62,14.42-13,14.1-20.41C234,206.56,229.32,213.39,220.22,218.64Z"/><path class="cls-4" d="M210.33,212.93c-13.37,7.72-35,7.72-48.42,0s-13.37-20.24,0-28,35-7.72,48.42,0S223.7,205.21,210.33,212.93Z"/><path class="cls-5" d="M161.91,186.78c13.37-7.72,35-7.72,48.42,0,6.29,3.63,9.62,8.32,10,13.08.42-5.36-2.91-10.79-10-14.88-13.37-7.72-35-7.72-48.42,0-7.08,4.09-10.41,9.52-10,14.88C152.29,195.1,155.62,190.41,161.91,186.78Z"/><path class="cls-5" d="M203,189.62l-2.65.76.75.3-2.59,1.5a14.62,14.62,0,0,0-6.57-1.54,12.57,12.57,0,0,0-6.33,1.71,9.81,9.81,0,0,0-1.91,1.39,4.07,4.07,0,0,0-1,1.46,4.93,4.93,0,0,0-.34,1.4,7.91,7.91,0,0,0,.06,1.52l.31,2.42a7.23,7.23,0,0,1,.06,1.69,3,3,0,0,1-.57,1.37,4.63,4.63,0,0,1-1.52,1.3,3.1,3.1,0,0,1-3.25.24q-1.08-.63-.55-1.56a8.43,8.43,0,0,1,2.89-2.33v-1.81l-2.27.85-3.26-1.38a10.57,10.57,0,0,0-3.87,3.47l-.37-.42v1.78h0c0,1.22.94,2.42,2.81,3.61l-1.29.74-1.75-.8v1.81l1.57.91,3.07-1.77a13.41,13.41,0,0,0,6.21,1.24,12.34,12.34,0,0,0,5.86-1.57,9.92,9.92,0,0,0,2.08-1.54,5,5,0,0,0,1.15-1.68,6.35,6.35,0,0,0,.43-1.66,8.9,8.9,0,0,0,0-1.76l-.26-2.34c0-.47-.06-.81-.06-1a4.68,4.68,0,0,1,.11-.89,2.06,2.06,0,0,1,.53-1,4.9,4.9,0,0,1,1.13-.86,4.59,4.59,0,0,1,1.74-.56,2.8,2.8,0,0,1,1.74.29,1.61,1.61,0,0,1,.54.42.5.5,0,0,1,.1.3l-2.7.56V198l5.47,2.43q.67-.42,1.2-.79a11.4,11.4,0,0,0,1.1-.88,6.52,6.52,0,0,0,.92-1,3.49,3.49,0,0,0,.52-1.07,2.36,2.36,0,0,0,.09-.54h0v0s0,0,0,0v-1.86l-.7.14,0,0a6.46,6.46,0,0,0-1.46-1.25l2.87-1.66Z"/><path class="cls-8" d="M169.72,207.29l3-1.76q-3.12-2-2.79-4t4.21-4.42l5.53,2.35a8.43,8.43,0,0,0-2.89,2.33q-.54.93.55,1.56a3.1,3.1,0,0,0,3.25-.24,4.63,4.63,0,0,0,1.52-1.3,3,3,0,0,0,.57-1.37,7.22,7.22,0,0,0-.06-1.69l-.31-2.42a7.92,7.92,0,0,1-.06-1.52,4.93,4.93,0,0,1,.34-1.4,4.07,4.07,0,0,1,1-1.46,9.82,9.82,0,0,1,1.91-1.39,12.57,12.57,0,0,1,6.33-1.71,14.63,14.63,0,0,1,6.57,1.54l2.89-1.67,1.6.93-2.87,1.66a6.46,6.46,0,0,1,1.46,1.25,3.14,3.14,0,0,1,.66,1.2,2.18,2.18,0,0,1,0,1.15,3.49,3.49,0,0,1-.52,1.07,6.52,6.52,0,0,1-.92,1,11.39,11.39,0,0,1-1.1.88q-.53.37-1.2.79L193,196.16l1-.64q.4-.26.81-.56a3.35,3.35,0,0,0,.6-.54,1.47,1.47,0,0,0,.26-.48.5.5,0,0,0-.08-.46,1.61,1.61,0,0,0-.54-.42,2.8,2.8,0,0,0-1.74-.29,4.59,4.59,0,0,0-1.74.56,4.9,4.9,0,0,0-1.13.86,2.06,2.06,0,0,0-.53,1,4.69,4.69,0,0,0-.11.89c0,.21,0,.55.06,1l.26,2.34a8.9,8.9,0,0,1,0,1.76,6.35,6.35,0,0,1-.43,1.66,5,5,0,0,1-1.15,1.68,9.91,9.91,0,0,1-2.08,1.54,12.34,12.34,0,0,1-5.86,1.57,13.41,13.41,0,0,1-6.21-1.24l-3.07,1.77Z"/><path class="cls-5" d="M241.1,186.89h-2c-2.2-4.32-6.26-8.4-12.16-11.81-18.84-10.88-49.38-10.88-68.21,0-5.91,3.41-10,7.49-12.16,11.81h-2v7.88h0c0,7.13,4.71,14.25,14.13,19.69,18.84,10.88,49.38,10.88,68.21,0,9.42-5.44,14.13-12.56,14.13-19.69h0Z"/><path class="cls-8" d="M182.41,167.59a63.92,63.92,0,0,0-23.65,7.49c-5.91,3.41-10,7.49-12.16,11.81h-2v7.88c0,7.13,4.71,14.25,14.13,19.69a63.92,63.92,0,0,0,23.64,7.49Z"/><path class="cls-4" d="M227.11,214.38c9.33-5.43,14-12.52,14-19.61v-7.88h-2a28.12,28.12,0,0,0-9.68-10.26h-2.35Z"/><g class="cls-14"><path class="cls-4" d="M238.62,186a23,23,0,0,0-2.09-3v23.67a23,23,0,0,0,2.09-3Z"/><path class="cls-4" d="M158.76,175.08A38,38,0,0,0,152,180v29.61c.66.6,1.35,1.2,2.09,1.77V179.26h3.94V214l.7.43c.45.26.92.51,1.39.76v-36h3.94v37.86q1,.44,2.09.85V179.26h3.94v40.07q1,.32,2.09.61V179.26h3.94v41.63q1,.22,2.09.41v-42h3.94v42.66l2.09.25V179.26h3.94v43.23l2.09.09V179.26h3.94V222.6l2.09-.06V179.26h3.94v43l2.09-.21V179.26h3.94v42.25q1.05-.18,2.09-.38V179.26h3.94v41q1.06-.27,2.09-.57V179.26h3.94v39.13q1.06-.38,2.09-.8V179.26h3.94V215.8q1.07-.54,2.09-1.11V179.26h3.94v32.93c.74-.53,1.43-1.07,2.09-1.63V179.26h.35a39.17,39.17,0,0,0-6-4.18,58,58,0,0,0-14.8-5.83H173.56A58,58,0,0,0,158.76,175.08Z"/><path class="cls-4" d="M148.08,184.45a21.62,21.62,0,0,0-1.48,2.44H146v14.44a20.69,20.69,0,0,0,2.09,3.79Z"/></g><path class="cls-8" d="M227,206.58c-18.84,10.88-49.38,10.87-68.21,0s-18.84-28.51,0-39.38,49.38-10.87,68.21,0S245.81,195.71,227,206.58Z"/><path class="cls-15" d="M203.67,191.65c13.87-8,17.51-19.67,11-29.61-18.1-5.29-40.75-3.57-55.87,5.16-13.87,8-17.51,19.67-11,29.61C165.9,202.09,188.55,200.38,203.67,191.65Z"/><path class="cls-16" d="M227,206.58c-18.84,10.88-49.38,10.87-68.21,0-9.1-5.26-13.79-12.09-14.1-19C144.34,195,149,202.4,158.76,208c18.84,10.88,49.38,10.88,68.21,0,9.73-5.62,14.42-13,14.1-20.41C240.77,194.5,236.08,201.33,227,206.58Z"/><path class="cls-4" d="M217.08,200.87c-13.37,7.72-35,7.72-48.42,0s-13.37-20.24,0-28,35-7.72,48.42,0S230.45,193.15,217.08,200.87Z"/><path class="cls-5" d="M168.66,174.72c13.37-7.72,35-7.72,48.42,0,6.29,3.63,9.62,8.32,10,13.08.42-5.36-2.91-10.79-10-14.88-13.37-7.72-35-7.72-48.42,0-7.08,4.09-10.41,9.52-10,14.88C159,183,162.37,178.35,168.66,174.72Z"/><path class="cls-5" d="M209.71,177.56l-2.65.76.75.3-2.59,1.5a14.62,14.62,0,0,0-6.57-1.54,12.57,12.57,0,0,0-6.33,1.71,9.82,9.82,0,0,0-1.91,1.39,4.07,4.07,0,0,0-1,1.46,4.93,4.93,0,0,0-.34,1.4,7.92,7.92,0,0,0,.06,1.52l.31,2.42a7.23,7.23,0,0,1,.06,1.69,3,3,0,0,1-.57,1.37,4.63,4.63,0,0,1-1.52,1.3,3.1,3.1,0,0,1-3.25.24q-1.08-.63-.55-1.56a8.43,8.43,0,0,1,2.89-2.33v-1.81l-2.27.85-3.26-1.38a10.57,10.57,0,0,0-3.87,3.47l-.37-.42v1.78h0c0,1.22.94,2.42,2.81,3.61l-1.29.74-1.75-.8V197l1.57.91,3.07-1.77a13.41,13.41,0,0,0,6.21,1.24,12.34,12.34,0,0,0,5.86-1.57,9.92,9.92,0,0,0,2.08-1.54,5,5,0,0,0,1.15-1.68,6.36,6.36,0,0,0,.43-1.66,8.89,8.89,0,0,0,0-1.76l-.26-2.34c0-.47-.06-.81-.06-1a4.67,4.67,0,0,1,.11-.89,2.06,2.06,0,0,1,.53-1,4.9,4.9,0,0,1,1.13-.86,4.59,4.59,0,0,1,1.74-.56,2.8,2.8,0,0,1,1.74.29,1.61,1.61,0,0,1,.54.42.5.5,0,0,1,.1.3l-2.7.56v1.81l5.47,2.43q.67-.42,1.2-.79a11.4,11.4,0,0,0,1.1-.88,6.52,6.52,0,0,0,.92-1,3.49,3.49,0,0,0,.52-1.07,2.36,2.36,0,0,0,.09-.54h0v0s0,0,0,0v-1.86l-.7.14,0,0a6.46,6.46,0,0,0-1.46-1.25l2.87-1.66Z"/><path class="cls-8" d="M176.47,195.23l3-1.76q-3.12-2-2.79-4t4.21-4.42l5.53,2.35a8.43,8.43,0,0,0-2.89,2.33q-.54.93.55,1.56a3.1,3.1,0,0,0,3.25-.24,4.63,4.63,0,0,0,1.52-1.3,3,3,0,0,0,.57-1.37,7.23,7.23,0,0,0-.06-1.69l-.31-2.42a7.92,7.92,0,0,1-.06-1.52,4.93,4.93,0,0,1,.34-1.4,4.07,4.07,0,0,1,1-1.46,9.82,9.82,0,0,1,1.91-1.39,12.57,12.57,0,0,1,6.33-1.71,14.63,14.63,0,0,1,6.57,1.54l2.89-1.67,1.6.93-2.87,1.66a6.46,6.46,0,0,1,1.46,1.25,3.14,3.14,0,0,1,.66,1.2,2.18,2.18,0,0,1,0,1.15,3.49,3.49,0,0,1-.52,1.07,6.52,6.52,0,0,1-.92,1,11.39,11.39,0,0,1-1.1.88q-.53.37-1.2.79l-5.47-2.43,1-.64q.4-.26.81-.56a3.35,3.35,0,0,0,.6-.54,1.47,1.47,0,0,0,.26-.48.5.5,0,0,0-.08-.46,1.61,1.61,0,0,0-.54-.42,2.8,2.8,0,0,0-1.74-.29,4.59,4.59,0,0,0-1.74.56,4.9,4.9,0,0,0-1.13.86,2.06,2.06,0,0,0-.53,1,4.68,4.68,0,0,0-.11.89c0,.21,0,.55.06,1l.26,2.34a8.9,8.9,0,0,1,0,1.76,6.36,6.36,0,0,1-.43,1.66,5,5,0,0,1-1.15,1.68,9.92,9.92,0,0,1-2.08,1.54,12.34,12.34,0,0,1-5.86,1.57,13.41,13.41,0,0,1-6.21-1.24L178,196.13Z"/><path class="cls-5" d="M314.26,253.48h-2c-2.2-4.32-6.26-8.4-12.17-11.81-18.84-10.88-49.38-10.88-68.21,0-5.91,3.41-10,7.49-12.16,11.81h-2v7.88h0c0,7.13,4.71,14.25,14.13,19.69,18.84,10.88,49.38,10.88,68.21,0,9.42-5.44,14.13-12.56,14.13-19.69h0Z"/><path class="cls-8" d="M255.56,234.18a63.92,63.92,0,0,0-23.65,7.49c-5.91,3.41-10,7.49-12.16,11.81h-2v7.88c0,7.13,4.71,14.25,14.13,19.69a63.92,63.92,0,0,0,23.64,7.49Z"/><path class="cls-4" d="M300.26,281c9.33-5.43,14-12.52,14-19.61v-7.88h-2a28.12,28.12,0,0,0-9.68-10.26h-2.35Z"/><g class="cls-14"><path class="cls-4" d="M311.77,252.57a23,23,0,0,0-2.09-3v23.67a23,23,0,0,0,2.09-3Z"/><path class="cls-4" d="M231.92,241.67a38,38,0,0,0-6.74,4.89v29.61c.66.6,1.35,1.2,2.09,1.77V245.85h3.94v34.77l.7.43c.45.26.92.51,1.39.76v-36h3.94v37.86q1,.44,2.09.85V245.85h3.94v40.07q1,.32,2.09.61V245.85h3.94v41.63q1,.22,2.09.41v-42h3.94v42.66l2.09.25V245.85h3.94v43.23l2.09.09V245.85h3.94v43.34l2.09-.06V245.85h3.94v43l2.09-.21V245.85h3.94V288.1q1.05-.18,2.09-.38V245.85h3.94v41q1.06-.27,2.09-.57V245.85h3.94V285q1.06-.38,2.09-.8V245.85h3.94V282.4q1.07-.54,2.09-1.11V245.85h3.94v32.93c.74-.53,1.43-1.07,2.09-1.63V245.85h.35a39.17,39.17,0,0,0-6-4.18,58,58,0,0,0-14.8-5.83H246.72A58,58,0,0,0,231.92,241.67Z"/><path class="cls-4" d="M221.24,251a21.62,21.62,0,0,0-1.48,2.44h-.61v14.44a20.69,20.69,0,0,0,2.09,3.79Z"/></g><path class="cls-8" d="M300.13,273.17c-18.84,10.88-49.38,10.87-68.21,0s-18.84-28.51,0-39.38,49.38-10.87,68.21,0S319,262.3,300.13,273.17Z"/><path class="cls-15" d="M276.83,258.24c13.87-8,17.51-19.67,11-29.61-18.1-5.29-40.75-3.57-55.87,5.16-13.87,8-17.51,19.67-11,29.61C239.05,268.69,261.71,267,276.83,258.24Z"/><path class="cls-16" d="M300.13,273.17c-18.84,10.88-49.38,10.87-68.21,0-9.1-5.26-13.79-12.09-14.1-19-.33,7.36,4.36,14.79,14.1,20.41,18.84,10.88,49.38,10.88,68.21,0,9.73-5.62,14.42-13,14.1-20.41C313.92,261.09,309.23,267.92,300.13,273.17Z"/><path class="cls-4" d="M290.23,267.46c-13.37,7.72-35,7.72-48.42,0s-13.37-20.24,0-28,35-7.72,48.42,0S303.6,259.74,290.23,267.46Z"/><path class="cls-5" d="M241.81,241.31c13.37-7.72,35-7.72,48.42,0,6.29,3.63,9.62,8.32,10,13.08.42-5.36-2.91-10.79-10-14.88-13.37-7.72-35-7.72-48.42,0-7.08,4.09-10.41,9.52-10,14.88C232.2,249.63,235.53,244.94,241.81,241.31Z"/><path class="cls-5" d="M282.86,244.15l-2.65.76.75.3-2.59,1.5a14.62,14.62,0,0,0-6.57-1.54,12.56,12.56,0,0,0-6.33,1.71,9.82,9.82,0,0,0-1.91,1.39,4.07,4.07,0,0,0-1,1.46,4.92,4.92,0,0,0-.34,1.4,7.92,7.92,0,0,0,.06,1.52l.31,2.42a7.24,7.24,0,0,1,.06,1.69,3,3,0,0,1-.57,1.37,4.63,4.63,0,0,1-1.52,1.3,3.1,3.1,0,0,1-3.25.24q-1.08-.63-.55-1.56a8.43,8.43,0,0,1,2.89-2.33V254l-2.27.85-3.26-1.38a10.57,10.57,0,0,0-3.87,3.47l-.37-.42v1.78h0c0,1.22.94,2.42,2.81,3.61l-1.29.74-1.75-.8v1.81l1.57.91,3.07-1.77a13.41,13.41,0,0,0,6.21,1.24,12.34,12.34,0,0,0,5.86-1.57,9.91,9.91,0,0,0,2.08-1.54,5,5,0,0,0,1.15-1.68,6.35,6.35,0,0,0,.43-1.66,8.9,8.9,0,0,0,0-1.76l-.26-2.34c0-.47-.06-.81-.06-1a4.68,4.68,0,0,1,.11-.89,2.06,2.06,0,0,1,.53-1,4.9,4.9,0,0,1,1.13-.86,4.59,4.59,0,0,1,1.74-.56,2.8,2.8,0,0,1,1.74.29,1.61,1.61,0,0,1,.54.42.5.5,0,0,1,.1.3l-2.7.56v1.81l5.47,2.43q.67-.42,1.2-.79a11.4,11.4,0,0,0,1.1-.88,6.52,6.52,0,0,0,.92-1,3.49,3.49,0,0,0,.52-1.07,2.37,2.37,0,0,0,.09-.54h0v0s0,0,0,0v-1.86l-.7.14,0,0a6.46,6.46,0,0,0-1.46-1.25l2.87-1.66Z"/><path class="cls-8" d="M249.63,261.82l3-1.76q-3.12-2-2.79-4t4.21-4.42l5.53,2.35a8.43,8.43,0,0,0-2.89,2.33q-.54.93.55,1.56a3.1,3.1,0,0,0,3.25-.24,4.63,4.63,0,0,0,1.52-1.3,3,3,0,0,0,.57-1.37,7.24,7.24,0,0,0-.06-1.69l-.31-2.42a7.92,7.92,0,0,1-.06-1.52,4.92,4.92,0,0,1,.34-1.4,4.07,4.07,0,0,1,1-1.46,9.81,9.81,0,0,1,1.91-1.39,12.57,12.57,0,0,1,6.33-1.71,14.63,14.63,0,0,1,6.57,1.54l2.89-1.67,1.6.93L280,245.81a6.46,6.46,0,0,1,1.46,1.25,3.14,3.14,0,0,1,.66,1.2,2.18,2.18,0,0,1,0,1.15,3.49,3.49,0,0,1-.52,1.07,6.52,6.52,0,0,1-.92,1,11.39,11.39,0,0,1-1.1.88q-.53.37-1.2.79l-5.47-2.43,1-.64q.4-.26.81-.56a3.34,3.34,0,0,0,.6-.54,1.47,1.47,0,0,0,.26-.48.5.5,0,0,0-.08-.46,1.61,1.61,0,0,0-.54-.42,2.8,2.8,0,0,0-1.74-.29,4.59,4.59,0,0,0-1.74.56,4.9,4.9,0,0,0-1.13.86,2.05,2.05,0,0,0-.53,1,4.67,4.67,0,0,0-.11.89c0,.21,0,.55.06,1L270,254a8.9,8.9,0,0,1,0,1.76,6.36,6.36,0,0,1-.43,1.66,5,5,0,0,1-1.15,1.68,9.92,9.92,0,0,1-2.08,1.54,12.34,12.34,0,0,1-5.86,1.57,13.41,13.41,0,0,1-6.21-1.24l-3.07,1.77Z"/><path class="cls-5" d="M320,241.66h-2c-2.2-4.32-6.26-8.4-12.17-11.81-18.84-10.88-49.38-10.88-68.21,0-5.91,3.41-10,7.49-12.16,11.81h-2v7.88h0c0,7.13,4.71,14.25,14.13,19.69,18.84,10.88,49.38,10.88,68.21,0,9.42-5.44,14.13-12.56,14.13-19.69h0Z"/><path class="cls-8" d="M261.35,222.36a63.92,63.92,0,0,0-23.65,7.49c-5.91,3.41-10,7.49-12.16,11.81h-2v7.88c0,7.13,4.71,14.25,14.13,19.69a63.92,63.92,0,0,0,23.64,7.49Z"/><path class="cls-4" d="M306.05,269.15c9.33-5.43,14-12.52,14-19.61v-7.88h-2a28.12,28.12,0,0,0-9.68-10.26h-2.35Z"/><g class="cls-14"><path class="cls-4" d="M317.56,240.74a23,23,0,0,0-2.09-3v23.67a23,23,0,0,0,2.09-3Z"/><path class="cls-4" d="M237.71,229.85a38,38,0,0,0-6.74,4.89v29.61c.66.6,1.35,1.2,2.09,1.77V234H237V268.8l.7.43c.45.26.92.51,1.39.76V234H243v37.86q1,.44,2.09.85V234h3.94V274.1q1,.32,2.09.61V234h3.94v41.63q1,.22,2.09.41V234h3.94v42.66l2.09.25V234h3.94v43.23l2.09.09V234h3.94v43.34l2.09-.06V234h3.94v43l2.09-.21V234h3.94v42.25q1.05-.18,2.09-.38V234h3.94v41q1.06-.27,2.09-.57V234h3.94v39.13q1.06-.38,2.09-.8V234h3.94v36.55q1.07-.54,2.09-1.11V234h3.94V267c.74-.53,1.43-1.07,2.09-1.63V234h.35a39.17,39.17,0,0,0-6-4.18,58,58,0,0,0-14.8-5.83H252.5A58,58,0,0,0,237.71,229.85Z"/><path class="cls-4" d="M227,239.22a21.6,21.6,0,0,0-1.48,2.44h-.61V256.1a20.67,20.67,0,0,0,2.09,3.79Z"/></g><path class="cls-8" d="M305.92,261.35c-18.84,10.88-49.38,10.87-68.21,0s-18.84-28.51,0-39.38,49.38-10.87,68.21,0S324.76,250.48,305.92,261.35Z"/><path class="cls-15" d="M282.62,246.42c13.87-8,17.51-19.67,11-29.61-18.1-5.29-40.75-3.57-55.87,5.16-13.87,8-17.51,19.67-11,29.61C244.84,256.86,267.5,255.15,282.62,246.42Z"/><path class="cls-16" d="M305.92,261.35c-18.84,10.88-49.38,10.87-68.21,0-9.1-5.26-13.79-12.09-14.1-19-.33,7.36,4.36,14.79,14.1,20.41,18.84,10.88,49.38,10.88,68.21,0,9.73-5.62,14.42-13,14.1-20.41C319.71,249.27,315,256.1,305.92,261.35Z"/><path class="cls-4" d="M296,255.64c-13.37,7.72-35,7.72-48.42,0s-13.37-20.24,0-28,35-7.72,48.42,0S309.39,247.92,296,255.64Z"/><path class="cls-5" d="M247.6,229.49c13.37-7.72,35-7.72,48.42,0,6.29,3.63,9.62,8.32,10,13.08.42-5.36-2.91-10.79-10-14.88-13.37-7.72-35-7.72-48.42,0-7.08,4.09-10.41,9.52-10,14.88C238,237.81,241.32,233.12,247.6,229.49Z"/><path class="cls-5" d="M288.65,232.33l-2.65.76.75.3-2.59,1.5a14.62,14.62,0,0,0-6.57-1.54,12.57,12.57,0,0,0-6.33,1.71,9.82,9.82,0,0,0-1.91,1.39,4.07,4.07,0,0,0-1,1.46,4.93,4.93,0,0,0-.34,1.4,7.92,7.92,0,0,0,.06,1.52l.31,2.42a7.22,7.22,0,0,1,.06,1.69,3,3,0,0,1-.57,1.37,4.63,4.63,0,0,1-1.52,1.3,3.1,3.1,0,0,1-3.25.24q-1.08-.63-.55-1.56a8.43,8.43,0,0,1,2.89-2.33v-1.81l-2.27.85-3.26-1.38a10.57,10.57,0,0,0-3.87,3.47l-.37-.42v1.78h0c0,1.22.94,2.42,2.81,3.61l-1.29.74-1.75-.8v1.81l1.57.91,3.07-1.77a13.41,13.41,0,0,0,6.21,1.24,12.34,12.34,0,0,0,5.86-1.57,9.91,9.91,0,0,0,2.08-1.54,5,5,0,0,0,1.15-1.68,6.35,6.35,0,0,0,.43-1.66,8.9,8.9,0,0,0,0-1.76l-.26-2.34c0-.47-.06-.81-.06-1a4.68,4.68,0,0,1,.11-.89,2.06,2.06,0,0,1,.53-1,4.91,4.91,0,0,1,1.13-.86,4.59,4.59,0,0,1,1.74-.56,2.8,2.8,0,0,1,1.74.29,1.61,1.61,0,0,1,.54.42.5.5,0,0,1,.1.3l-2.7.56v1.81l5.47,2.43q.67-.42,1.2-.79a11.42,11.42,0,0,0,1.1-.88,6.52,6.52,0,0,0,.92-1,3.49,3.49,0,0,0,.52-1.07,2.36,2.36,0,0,0,.09-.54h0v0s0,0,0,0v-1.86l-.7.14,0,0a6.46,6.46,0,0,0-1.46-1.25l2.87-1.66Z"/><path class="cls-8" d="M255.42,250l3-1.76q-3.12-2-2.79-4t4.21-4.42l5.53,2.35a8.43,8.43,0,0,0-2.89,2.33q-.54.93.55,1.56a3.1,3.1,0,0,0,3.25-.24,4.63,4.63,0,0,0,1.52-1.3,3,3,0,0,0,.57-1.37,7.22,7.22,0,0,0-.06-1.69l-.31-2.42a7.92,7.92,0,0,1-.06-1.52,4.93,4.93,0,0,1,.34-1.4,4.07,4.07,0,0,1,1-1.46,9.81,9.81,0,0,1,1.91-1.39,12.57,12.57,0,0,1,6.33-1.71,14.63,14.63,0,0,1,6.57,1.54L287,231.4l1.6.93L285.78,234a6.46,6.46,0,0,1,1.46,1.25,3.14,3.14,0,0,1,.66,1.2,2.18,2.18,0,0,1,0,1.15,3.49,3.49,0,0,1-.52,1.07,6.52,6.52,0,0,1-.92,1,11.4,11.4,0,0,1-1.1.88q-.53.37-1.2.79l-5.47-2.43,1-.64q.4-.26.81-.56a3.35,3.35,0,0,0,.6-.54,1.47,1.47,0,0,0,.26-.48.5.5,0,0,0-.08-.46,1.61,1.61,0,0,0-.54-.42,2.8,2.8,0,0,0-1.74-.29,4.59,4.59,0,0,0-1.74.56,4.9,4.9,0,0,0-1.13.86,2.06,2.06,0,0,0-.53,1,4.68,4.68,0,0,0-.11.89c0,.21,0,.55.06,1l.26,2.34a8.9,8.9,0,0,1,0,1.76,6.35,6.35,0,0,1-.43,1.66,5,5,0,0,1-1.15,1.68,9.91,9.91,0,0,1-2.08,1.54,12.34,12.34,0,0,1-5.86,1.57,13.41,13.41,0,0,1-6.21-1.24L257,250.9Z"/><path class="cls-17" d="M193.32,178.5c-.31.78-5.68,7.31-11,8.95a12.34,12.34,0,0,1-4.93.68A1.63,1.63,0,0,1,176,186a20.39,20.39,0,0,1,10.3-11.35C195.42,170.1,193.32,178.5,193.32,178.5Z"/><path class="cls-17" d="M195.11,181a44.43,44.43,0,0,0-2.65,8.71c-.38,2.42.95,5.56,2,7.65a2.23,2.23,0,0,0,3.48.6,12.91,12.91,0,0,0,4.36-8.33c.62-6.69,0-7.86,0-7.86Z"/><path class="cls-8" d="M208,100.15a127.24,127.24,0,0,1,0,17.77c-.7,9.34-3.21,53-3.67,63.5,0,0,.23,3.18-5.92,2.48s-5.66-4.23-5.66-4.23-8.65-.12-8.92-5.21S175,113.61,175,93.56Z"/><path class="cls-18" d="M192.79,179.67a17.69,17.69,0,0,1-2.47-.26h0l-1.69-67.87Z"/><path class="cls-17" d="M198.91,38.85c14.12,5.85,13.84,14.2,13.84,14.2s-2.77,30.6-1.82,51c.39,8.54-45.39,9.19-38.56-13.6,8.05-26.87,5-48.63,8.8-51.91S195.26,37.34,198.91,38.85Z"/><ellipse class="cls-19" cx="196.4" cy="44.44" rx="5.36" ry="7.28" transform="translate(104.37 223.54) rotate(-75.56)"/><path class="cls-20" d="M197.44,50.61a10.25,10.25,0,0,1-2.55-.33c-4.25-1.1-7-4.61-6.2-7.83s5-5,9.21-3.86,7,4.61,6.2,7.83h0C203.44,49,200.69,50.61,197.44,50.61Zm-2.12-11c-2.62,0-4.82,1.22-5.32,3.18-.64,2.5,1.7,5.28,5.23,6.19s6.92-.39,7.57-2.89h0c.64-2.5-1.7-5.28-5.23-6.19A9,9,0,0,0,195.32,39.61Z"/><path class="cls-19" d="M193.25,38.22a34.83,34.83,0,0,1-.12,5C193,44.67,198,46,199.25,44.71s.76-2.6,1.07-7.38S193.25,38.22,193.25,38.22Z"/><path class="cls-21" d="M200.32,37.32s-1.21,4.44-7.19,6.14l.09-4Z"/><circle class="cls-19" cx="193.58" cy="28.76" r="10.87" transform="matrix(0.97, -0.25, 0.25, 0.97, -1.04, 49.37)"/><path class="cls-21" d="M196.08,29.16s-6,2.56-10.13,2.59-3.23-3.44-3.23-3.44L195,26.54Z"/><path class="cls-7" d="M184.71,29.84s5.21-2.21,9.79-1.29a4.79,4.79,0,0,1,2.76,1.64,1.63,1.63,0,0,0,.84.61c.81.18,2.14-3.18,3.71-3.26s2.63,1,1.34,3.11-.86,4.38-.26,4.72,6.9-4.5,1.34-15.52-19.7-5.09-21.89-2.85c0,0-2.32,2-4.2.22C178.13,17.21,176,33,184.71,29.84Z"/><path class="cls-19" d="M174.26,36.35l-7.59-3.27a3.37,3.37,0,0,1-1.85-2l-7.5-21.73-3.47.6,6.06,27a4.56,4.56,0,0,0,2.22,3l12.64,7.1Z"/><path class="cls-19" d="M253.25,39.88l1.74-.8a14,14,0,0,0,4-2.76l1.21-1.2a2.35,2.35,0,0,0,.51-2.58h0a1.3,1.3,0,0,0-1.78-.65l-3.64,1.84s.57-1.61.3-2-3.09,2.69-4.39,4.89S253.25,39.88,253.25,39.88Z"/><path class="cls-19" d="M223,48.57l6.49-.73a11.44,11.44,0,0,0,4.37-1.41l17.4-9.85,2,3.3L235.46,53.62a8.2,8.2,0,0,1-1.79,1L223.07,59.2Z"/><path class="cls-19" d="M153.84,10l-.66-.76a6.1,6.1,0,0,1-1.43-3.11l-.46-3.17a2.71,2.71,0,0,1,1-2.58l.09-.06a1.64,1.64,0,0,1,2.41.78l1.56,3.78s-.49-2,.14-2.17c.46-.16,1.34,2.27.82,3.62a5.7,5.7,0,0,0,0,3.08Z"/><path class="cls-20" d="M189.27,36.25l-2.81-.77a6.77,6.77,0,0,0,3.3,2.64c2,.54,2.26-1.12,2.26-1.12Z"/><path class="cls-17" d="M185.06,37s-12.68-2.51-16.56-3.68S163,42.8,163.31,45.5s13.48,5.71,15.05,10.33S185.06,37,185.06,37Z"/><path class="cls-17" d="M204.45,41.69s9.27,4,24.78,5.92a1.67,1.67,0,0,1,1.38,1.1,18.35,18.35,0,0,1,.82,9.33,3.42,3.42,0,0,1-3.39,2.7c-4.86,0-15.31.43-17,5C208.82,71.65,204.45,41.69,204.45,41.69Z"/><circle class="cls-20" cx="202.62" cy="31.76" r="1.48"/><polygon class="cls-2" points="21.01 201.59 18.19 205.01 21.26 203.03 21.01 201.59"/><polygon class="cls-2" points="89.73 271.79 86.66 273.78 87.73 270.34 89.69 271.24 89.73 271.79"/><polygon class="cls-2" points="14.53 172.1 43.43 185.02 35.72 191.28 90.26 258.1 115.55 237.56 168.03 302.15 191.29 283.25 260.16 367.53 253.11 373.26 190.44 296.49 167.18 315.39 115.02 251.25 89.73 271.79 28.67 197.01 21.26 203.03 14.53 172.1"/><polygon class="cls-2" points="167.18 315.39 164.11 317.37 167.42 310.95 167.18 315.39"/><polygon class="cls-2" points="115.55 237.56 112.48 239.54 113.1 241.25 115.55 237.56"/><polygon class="cls-2" points="191.29 283.25 188.22 285.24 188.73 286.45 191.29 283.25"/><polygon class="cls-3" points="11.46 174.08 40.36 187 32.65 193.26 87.19 260.09 112.48 239.54 164.96 304.13 188.22 285.24 257.09 369.51 250.03 375.25 187.37 298.47 164.11 317.37 111.95 253.23 86.66 273.78 25.59 199 18.19 205.01 11.46 174.08"/><polygon class="cls-17" points="11.46 174.08 14.53 172.1 43.43 185.02 40.36 187 11.46 174.08"/><polygon class="cls-2" points="260.16 367.53 257.09 369.51 250.03 375.25 253.11 373.26 260.16 367.53"/><circle class="cls-3" cx="121.03" cy="34.89" r="2.79" transform="translate(45.68 135.83) rotate(-69.34)"/><rect class="cls-8" x="102.98" y="12.75" width="11.62" height="11.62" transform="translate(13.55 -37.19) rotate(20.66)"/></svg>