<svg id="Ñëîé_1" data-name="Ñëîé 1" xmlns="http://www.w3.org/2000/svg" viewBox="0 0 758.82 806.77"><defs><style>.cls-1{fill:#d4ecff;}.cls-2{fill:#721bd5;}.cls-3{fill:#b45ef4;}.cls-4{fill:#e8a200;}.cls-5{fill:#f9bf30;}.cls-6{fill:#d3008d;}.cls-7{fill:#ff2c9c;}.cls-8{fill:#fdd762;}.cls-9{fill:#8a2ae3;}.cls-10{fill:#95d359;}.cls-11{fill:#c13d1a;}.cls-12{fill:#db5126;}.cls-13{fill:#ef602e;}.cls-14{opacity:0.4;}.cls-15,.cls-16,.cls-20{fill:#fff;}.cls-15{opacity:0.2;}.cls-16{opacity:0.7;}.cls-17{fill:#983be9;}.cls-18{fill:#d8892b;}.cls-19{fill:#ffc2b0;}.cls-21{fill:#ea9c92;}</style></defs><title>ilustracao-lg</title><polygon class="cls-1" points="537.6 806.77 0 496.39 19.97 482.88 557.57 793.27 537.6 806.77"/><path class="cls-1" d="M312.16,466.63c-34.33,19.82-90,19.82-124.31,0s-34.33-52,0-71.77,90-19.82,124.31,0S346.49,446.81,312.16,466.63Z"/><path class="cls-1" d="M468.43,556.41c-34.33,19.82-90,19.82-124.31,0s-34.33-52,0-71.77,90-19.82,124.31,0S502.76,536.59,468.43,556.41Z"/><path class="cls-1" d="M632.28,651.06c-34.33,19.82-90,19.82-124.31,0s-34.33-52,0-71.77,90-19.82,124.31,0S666.61,631.24,632.28,651.06Z"/><polygon class="cls-1" points="58.81 643.17 30.58 626.87 2.35 643.17 30.58 659.46 58.81 643.17"/><polygon class="cls-2" points="30.58 641.17 30.58 602.15 60.34 584.97 60.34 623.99 30.58 641.17"/><polygon class="cls-3" points="30.58 602.15 0.82 584.97 0.82 623.99 30.58 641.17 30.58 602.15"/><polygon class="cls-4" points="30.58 602.15 30.58 574.59 60.34 557.41 60.34 584.97 30.58 602.15"/><polygon class="cls-5" points="30.58 574.59 0.82 557.41 0.82 584.97 30.58 602.15 30.58 574.59"/><polygon class="cls-6" points="30.58 574.59 30.58 554.83 60.34 537.65 60.34 557.41 30.58 574.59"/><polygon class="cls-6" points="30.58 554.83 0.82 537.65 0.82 557.41 30.58 574.59 30.58 554.83"/><polygon class="cls-7" points="60.34 537.65 30.58 520.47 0.82 537.65 30.58 554.83 60.34 537.65"/><rect class="cls-8" x="731.45" y="325.32" width="6.05" height="17.58" transform="translate(882.84 1127.26) rotate(-125.06)"/><rect class="cls-8" x="736.59" y="314.32" width="6.05" height="17.58" transform="translate(899.92 1114.15) rotate(-125.06)"/><rect class="cls-8" x="741.72" y="303.33" width="6.05" height="17.58" transform="translate(916.98 1101.04) rotate(-125.05)"/><rect class="cls-8" x="746.86" y="292.33" width="6.05" height="17.58" transform="translate(934.1 1087.93) rotate(-125.06)"/><polygon class="cls-1" points="669.05 405.89 636.09 386.86 603.13 405.89 636.09 424.92 669.05 405.89"/><polygon class="cls-2" points="651.52 375.13 651.52 256.6 679.52 240.43 679.52 358.96 651.52 375.13"/><polygon class="cls-3" points="651.52 256.6 623.53 240.43 623.53 358.96 651.52 375.13 651.52 256.6"/><polygon class="cls-9" points="679.52 240.43 651.52 224.27 623.53 240.43 651.52 256.6 679.52 240.43"/><polygon class="cls-10" points="679.52 380.51 651.52 364.35 651.52 375.13 679.52 391.29 679.52 380.51"/><polygon class="cls-11" points="623.53 391.29 623.53 305.09 651.52 288.92 651.52 375.13 623.53 391.29"/><polygon class="cls-12" points="623.53 305.09 595.53 288.92 595.53 375.13 623.53 391.29 623.53 305.09"/><polygon class="cls-13" points="651.52 288.92 623.53 272.76 595.53 288.92 623.53 305.09 651.52 288.92"/><polygon class="cls-6" points="623.53 391.29 623.53 305.09 651.52 288.92 651.52 375.13 623.53 391.29"/><polygon class="cls-6" points="623.53 305.09 595.53 288.92 595.53 375.13 623.53 391.29 623.53 305.09"/><polygon class="cls-7" points="651.52 288.92 623.53 272.76 595.53 288.92 623.53 305.09 651.52 288.92"/><polygon class="cls-4" points="651.52 407.45 651.52 358.96 679.52 342.8 679.52 391.29 651.52 407.45"/><polygon class="cls-5" points="651.52 358.96 623.53 342.8 623.53 391.29 651.52 407.45 651.52 358.96"/><polygon class="cls-8" points="679.52 342.8 651.52 326.64 623.53 342.8 651.52 358.96 679.52 342.8"/><polygon class="cls-1" points="148.4 157.83 120.24 141.57 92.08 157.83 120.24 174.09 148.4 157.83"/><polygon class="cls-4" points="120.24 159.01 120.24 140.69 153.88 121.26 153.88 139.58 120.24 159.01"/><polygon class="cls-5" points="120.24 140.69 86.6 121.26 86.6 139.58 120.24 159.01 120.24 140.69"/><polygon class="cls-8" points="153.88 121.26 120.24 101.84 86.6 121.26 120.24 140.69 153.88 121.26"/><polygon class="cls-4" points="142.55 121.26 120.24 108.39 97.94 121.26 120.24 134.14 142.55 121.26"/><polygon class="cls-6" points="120.24 123.7 120.24 105.38 153.88 85.96 153.88 104.28 120.24 123.7"/><polygon class="cls-6" points="120.24 105.38 86.6 85.96 86.6 104.28 120.24 123.7 120.24 105.38"/><polygon class="cls-7" points="153.88 85.96 120.24 66.54 86.6 85.96 120.24 105.38 153.88 85.96"/><rect class="cls-3" x="554.89" y="711.63" width="25.5" height="5.37" transform="translate(-338.84 610.6) rotate(-45)"/><rect class="cls-3" x="564.96" y="701.56" width="5.37" height="25.5" transform="translate(-338.83 610.53) rotate(-45)"/><path class="cls-7" d="M554.49,223.74a24.61,24.61,0,1,1,24.61-24.61A24.64,24.64,0,0,1,554.49,223.74Zm0-43.85a19.24,19.24,0,1,0,19.24,19.24A19.26,19.26,0,0,0,554.49,179.9Z"/><circle class="cls-8" cx="532.56" cy="215.36" r="17.79"/><rect class="cls-3" x="82.86" y="240.3" width="25.5" height="5.37" transform="translate(-143.81 138.78) rotate(-45)"/><rect class="cls-3" x="92.93" y="230.24" width="5.37" height="25.5" transform="translate(-143.81 138.78) rotate(-45)"/><circle class="cls-8" cx="122.84" cy="400.37" r="13.04"/><circle class="cls-3" cx="208.95" cy="676.07" r="5.95" transform="matrix(0.15, -0.99, 0.99, 0.15, -490.72, 781.82)"/><rect class="cls-7" x="229.35" y="692.26" width="24.78" height="24.78" transform="matrix(-0.99, -0.15, 0.15, -0.99, 375.65, 1437.48)"/><path class="cls-5" d="M358.07,357.32h-4.18c-4.69-9.22-13.34-17.91-25.94-25.19-40.16-23.19-105.27-23.19-145.43,0-12.6,7.27-21.24,16-25.94,25.19H152.4v16.79h0c0,15.19,10,30.39,30.12,42,40.16,23.19,105.27,23.19,145.43,0,20.08-11.59,30.12-26.79,30.12-42h0Z"/><path class="cls-8" d="M232.93,316.16c-18.47,2.36-36,7.67-50.41,16-12.6,7.27-21.24,16-25.94,25.19H152.4v16.79c0,15.19,10,30.39,30.12,42,14.37,8.3,31.94,13.61,50.41,16Z"/><path class="cls-4" d="M328.23,415.93c19.89-11.57,29.84-26.69,29.84-41.81V357.32h-4.18c-4-7.86-10.9-15.33-20.64-21.87h-5Z"/><g class="cls-14"><path class="cls-4" d="M352.77,355.36a49.05,49.05,0,0,0-4.46-6.46v50.46a49,49,0,0,0,4.46-6.46Z"/><path class="cls-4" d="M182.52,332.13a81,81,0,0,0-14.36,10.43v63.12c1.4,1.28,2.87,2.55,4.46,3.78V341H181v74.14c.5.3,1,.61,1.5.91,1,.56,2,1.09,3,1.63V341h8.41v80.71q2.2.95,4.46,1.82V341h8.41v85.43q2.21.68,4.46,1.3V341h8.41v88.76q2.22.47,4.46.88V341h8.41v91q2.22.29,4.46.52V341h8.41v92.16c1.48.08,3,.14,4.46.18V341h8.41v92.4q2.23,0,4.46-.13V341h8.41v91.72c1.49-.13,3-.28,4.46-.46V341H284v90.08q2.24-.37,4.46-.81V341h8.41v87.36q2.25-.57,4.46-1.21V341h8.41v83.42q2.26-.82,4.46-1.71V341h8.41V419q2.27-1.14,4.46-2.37V341h8.41v70.21c1.57-1.13,3.05-2.29,4.46-3.47V341h.74a83.53,83.53,0,0,0-12.7-8.92,123.76,123.76,0,0,0-31.56-12.42H214.07A123.76,123.76,0,0,0,182.52,332.13Z"/><path class="cls-4" d="M159.74,352.11a46,46,0,0,0-3.16,5.21h-1.3V388.1a44.08,44.08,0,0,0,4.46,8.07Z"/></g><path class="cls-8" d="M327.95,399.3c-40.16,23.19-105.27,23.18-145.43,0s-40.16-60.78,0-84,105.27-23.19,145.43,0S368.11,376.12,327.95,399.3Z"/><path class="cls-15" d="M278.27,367.46c29.56-17.07,37.33-41.94,23.37-63.13-38.58-11.27-86.89-7.61-119.12,11-29.56,17.07-37.33,41.94-23.37,63.13C197.73,389.73,246,386.08,278.27,367.46Z"/><path class="cls-16" d="M327.95,399.3c-40.16,23.19-105.27,23.18-145.43,0-19.41-11.2-29.41-25.77-30.06-40.45-.7,15.7,9.3,31.53,30.06,43.51,40.16,23.19,105.27,23.19,145.43,0,20.75-12,30.75-27.81,30.06-43.51C357.35,373.53,347.35,388.1,327.95,399.3Z"/><path class="cls-4" d="M306.85,387.12c-28.51,16.46-74.72,16.46-103.23,0s-28.51-43.14,0-59.6,74.72-16.46,103.23,0S335.35,370.66,306.85,387.12Z"/><path class="cls-5" d="M203.62,331.37c28.51-16.46,74.72-16.46,103.23,0,13.41,7.74,20.5,17.74,21.3,27.88.9-11.42-6.2-23-21.3-31.73-28.51-16.46-74.72-16.46-103.23,0-15.1,8.72-22.2,20.31-21.3,31.72C183.11,349.11,190.21,339.11,203.62,331.37Z"/><path class="cls-5" d="M291.13,337.42,285.47,339l1.61.64-5.52,3.19a31.18,31.18,0,0,0-14-3.27,26.79,26.79,0,0,0-13.49,3.65,20.92,20.92,0,0,0-4.07,3,8.68,8.68,0,0,0-2.18,3.12,10.5,10.5,0,0,0-.72,3,16.89,16.89,0,0,0,.13,3.24l.65,5.15a15.4,15.4,0,0,1,.13,3.61,6.46,6.46,0,0,1-1.22,2.93,9.88,9.88,0,0,1-3.24,2.77q-3.91,2.26-6.94.51-2.31-1.33-1.17-3.33t6.16-5v-3.87l-4.84,1.81-7-3c-4.26,2.61-7,5.08-8.25,7.41l-.79-.89v3.79h0c0,2.6,2,5.17,6,7.69L224,376.8l-3.73-1.71V379l3.35,1.94,6.55-3.78a28.59,28.59,0,0,0,13.24,2.64,26.3,26.3,0,0,0,12.49-3.36,21.14,21.14,0,0,0,4.43-3.29,10.68,10.68,0,0,0,2.46-3.58,13.54,13.54,0,0,0,.91-3.54,19,19,0,0,0,0-3.75l-.56-5c-.09-1-.13-1.73-.13-2.18a10,10,0,0,1,.24-1.89,4.38,4.38,0,0,1,1.12-2.15,10.45,10.45,0,0,1,2.41-1.82,9.8,9.8,0,0,1,3.71-1.18,6,6,0,0,1,3.71.62,3.44,3.44,0,0,1,1.16.89,1.07,1.07,0,0,1,.2.65l-5.76,1.2v3.87l11.66,5.19q1.43-.9,2.55-1.68a24.31,24.31,0,0,0,2.35-1.88,13.9,13.9,0,0,0,2-2.11,7.43,7.43,0,0,0,1.11-2.28,5,5,0,0,0,.19-1.15h0v-.06s0,0,0-.05v-4l-1.49.31-.05-.08a13.78,13.78,0,0,0-3.11-2.66l6.12-3.54Z"/><path class="cls-8" d="M220.28,375.09l6.48-3.74q-6.65-4.21-5.95-8.57t9-9.43l11.79,5q-5,3-6.16,5t1.17,3.33q3,1.75,6.94-.51a9.88,9.88,0,0,0,3.24-2.77,6.46,6.46,0,0,0,1.22-2.93,15.4,15.4,0,0,0-.13-3.61l-.65-5.15a16.89,16.89,0,0,1-.13-3.24,10.5,10.5,0,0,1,.72-3,8.68,8.68,0,0,1,2.18-3.12,20.94,20.94,0,0,1,4.07-3,26.79,26.79,0,0,1,13.49-3.65,31.18,31.18,0,0,1,14,3.27l6.16-3.55,3.42,2L285,341a13.78,13.78,0,0,1,3.11,2.66,6.7,6.7,0,0,1,1.42,2.55,4.65,4.65,0,0,1-.08,2.46,7.44,7.44,0,0,1-1.11,2.28,13.9,13.9,0,0,1-2,2.11,24.31,24.31,0,0,1-2.35,1.88q-1.12.78-2.55,1.68l-11.66-5.19q1.33-.81,2.18-1.35t1.73-1.2a7.14,7.14,0,0,0,1.27-1.15,3.14,3.14,0,0,0,.55-1,1.06,1.06,0,0,0-.18-1,3.44,3.44,0,0,0-1.16-.89,6,6,0,0,0-3.71-.62,9.79,9.79,0,0,0-3.71,1.18,10.45,10.45,0,0,0-2.41,1.82,4.38,4.38,0,0,0-1.12,2.15,10,10,0,0,0-.24,1.89c0,.45,0,1.18.13,2.18l.56,5a19,19,0,0,1,0,3.75,13.54,13.54,0,0,1-.91,3.54,10.68,10.68,0,0,1-2.46,3.58,21.13,21.13,0,0,1-4.43,3.29,26.3,26.3,0,0,1-12.49,3.36,28.59,28.59,0,0,1-13.24-2.64L223.63,377Z"/><path class="cls-5" d="M358.07,340.51h-4.18c-4.69-9.22-13.34-17.91-25.94-25.19-40.16-23.19-105.27-23.19-145.43,0-12.6,7.27-21.24,16-25.94,25.19H152.4V357.3h0c0,15.19,10,30.39,30.12,42,40.16,23.19,105.27,23.19,145.43,0,20.08-11.59,30.12-26.79,30.12-42h0Z"/><path class="cls-8" d="M232.93,299.36c-18.47,2.36-36,7.67-50.41,16-12.6,7.27-21.24,16-25.94,25.19H152.4V357.3c0,15.19,10,30.39,30.12,42,14.37,8.3,31.94,13.61,50.41,16Z"/><path class="cls-4" d="M328.23,399.12c19.89-11.57,29.84-26.69,29.84-41.81V340.51h-4.18c-4-7.86-10.9-15.33-20.64-21.87h-5Z"/><g class="cls-14"><path class="cls-4" d="M352.77,338.56a49.07,49.07,0,0,0-4.46-6.46v50.46a49,49,0,0,0,4.46-6.46Z"/><path class="cls-4" d="M182.52,315.32a81,81,0,0,0-14.36,10.43v63.12c1.4,1.28,2.87,2.55,4.46,3.78V324.24H181v74.14c.5.3,1,.61,1.5.91,1,.56,2,1.09,3,1.63V324.24h8.41V405q2.2.95,4.46,1.82V324.24h8.41v85.43q2.21.68,4.46,1.3V324.24h8.41V413q2.22.47,4.46.88V324.24h8.41v91q2.22.29,4.46.52V324.24h8.41V416.4c1.48.08,3,.14,4.46.18V324.24h8.41v92.4q2.23,0,4.46-.13V324.24h8.41V416c1.49-.13,3-.28,4.46-.46V324.24H284v90.08q2.24-.38,4.46-.81V324.24h8.41V411.6q2.25-.57,4.46-1.21V324.24h8.41v83.42q2.26-.82,4.46-1.71V324.24h8.41v77.91q2.27-1.14,4.46-2.37V324.24h8.41v70.21c1.57-1.13,3.05-2.29,4.46-3.47V324.24h.74a83.53,83.53,0,0,0-12.7-8.92,123.75,123.75,0,0,0-31.56-12.42H214.07A123.75,123.75,0,0,0,182.52,315.32Z"/><path class="cls-4" d="M159.74,335.31a46,46,0,0,0-3.16,5.21h-1.3v30.78a44.09,44.09,0,0,0,4.46,8.07Z"/></g><path class="cls-8" d="M327.95,382.49c-40.16,23.19-105.27,23.19-145.43,0s-40.16-60.78,0-84,105.27-23.19,145.43,0S368.11,359.31,327.95,382.49Z"/><path class="cls-15" d="M278.27,350.66c29.56-17.07,37.33-41.94,23.37-63.13-38.58-11.27-86.89-7.61-119.12,11-29.56,17.07-37.33,41.94-23.37,63.13C197.73,372.93,246,369.27,278.27,350.66Z"/><path class="cls-16" d="M327.95,382.49c-40.16,23.19-105.27,23.18-145.43,0-19.41-11.2-29.41-25.77-30.06-40.45-.7,15.7,9.3,31.53,30.06,43.51,40.16,23.19,105.27,23.19,145.43,0,20.75-12,30.75-27.81,30.06-43.51C357.35,356.72,347.35,371.29,327.95,382.49Z"/><path class="cls-4" d="M306.85,370.31c-28.51,16.46-74.72,16.46-103.23,0s-28.51-43.14,0-59.6,74.72-16.46,103.23,0S335.35,353.85,306.85,370.31Z"/><path class="cls-5" d="M203.62,314.56c28.51-16.46,74.72-16.46,103.23,0,13.41,7.74,20.5,17.74,21.3,27.88.9-11.42-6.2-23-21.3-31.73-28.51-16.46-74.72-16.46-103.23,0-15.1,8.72-22.2,20.31-21.3,31.72C183.11,332.3,190.21,322.3,203.62,314.56Z"/><path class="cls-5" d="M291.13,320.61l-5.66,1.62,1.61.64-5.52,3.19a31.18,31.18,0,0,0-14-3.27,26.79,26.79,0,0,0-13.49,3.65,20.93,20.93,0,0,0-4.07,3,8.68,8.68,0,0,0-2.18,3.12,10.51,10.51,0,0,0-.72,3,16.89,16.89,0,0,0,.13,3.24l.65,5.15a15.4,15.4,0,0,1,.13,3.61,6.47,6.47,0,0,1-1.22,2.93,9.88,9.88,0,0,1-3.24,2.77q-3.91,2.26-6.94.51-2.31-1.33-1.17-3.33t6.16-5v-3.87l-4.84,1.81-7-3c-4.26,2.61-7,5.08-8.25,7.41l-.79-.89v3.79h0c0,2.6,2,5.17,6,7.69L224,360l-3.73-1.71v3.87l3.35,1.94,6.55-3.78a28.59,28.59,0,0,0,13.24,2.64,26.3,26.3,0,0,0,12.49-3.36,21.13,21.13,0,0,0,4.43-3.29,10.67,10.67,0,0,0,2.46-3.58,13.54,13.54,0,0,0,.91-3.54,19,19,0,0,0,0-3.75l-.56-5c-.09-1-.13-1.73-.13-2.18a10,10,0,0,1,.24-1.89,4.39,4.39,0,0,1,1.12-2.15,10.46,10.46,0,0,1,2.41-1.82,9.79,9.79,0,0,1,3.71-1.18,6,6,0,0,1,3.71.62,3.43,3.43,0,0,1,1.16.89,1.07,1.07,0,0,1,.2.65l-5.76,1.2v3.87l11.66,5.19q1.43-.9,2.55-1.68a24.31,24.31,0,0,0,2.35-1.88,13.9,13.9,0,0,0,2-2.11,7.43,7.43,0,0,0,1.11-2.28,5,5,0,0,0,.19-1.16h0v-.06s0,0,0-.05v-4l-1.49.31-.05-.08A13.78,13.78,0,0,0,285,328l6.12-3.54Z"/><path class="cls-8" d="M220.28,358.28l6.48-3.74q-6.65-4.21-5.95-8.57t9-9.43l11.79,5q-5,3-6.16,5t1.17,3.33q3,1.75,6.94-.51a9.88,9.88,0,0,0,3.24-2.77,6.46,6.46,0,0,0,1.22-2.93,15.4,15.4,0,0,0-.13-3.61l-.65-5.15a16.89,16.89,0,0,1-.13-3.24,10.5,10.5,0,0,1,.72-3,8.68,8.68,0,0,1,2.18-3.12,20.92,20.92,0,0,1,4.07-3,26.79,26.79,0,0,1,13.49-3.65,31.18,31.18,0,0,1,14,3.27l6.16-3.55,3.42,2L285,324.15a13.78,13.78,0,0,1,3.11,2.66,6.7,6.7,0,0,1,1.42,2.55,4.65,4.65,0,0,1-.08,2.46,7.43,7.43,0,0,1-1.11,2.28,13.9,13.9,0,0,1-2,2.11,24.31,24.31,0,0,1-2.35,1.88q-1.12.78-2.55,1.68l-11.66-5.19q1.33-.81,2.18-1.35t1.73-1.2a7.14,7.14,0,0,0,1.27-1.15,3.14,3.14,0,0,0,.55-1,1.06,1.06,0,0,0-.18-1,3.44,3.44,0,0,0-1.16-.89,6,6,0,0,0-3.71-.62,9.8,9.8,0,0,0-3.71,1.18,10.45,10.45,0,0,0-2.41,1.82,4.38,4.38,0,0,0-1.12,2.15,10,10,0,0,0-.24,1.89c0,.45,0,1.18.13,2.18l.56,5a19,19,0,0,1,0,3.75,13.54,13.54,0,0,1-.91,3.54,10.68,10.68,0,0,1-2.46,3.58,21.14,21.14,0,0,1-4.43,3.29,26.3,26.3,0,0,1-12.49,3.36,28.59,28.59,0,0,1-13.24-2.64l-6.55,3.78Z"/><path class="cls-5" d="M358.07,323.71h-4.18c-4.69-9.22-13.34-17.91-25.94-25.19-40.16-23.19-105.27-23.19-145.43,0-12.6,7.27-21.24,16-25.94,25.19H152.4V340.5h0c0,15.19,10,30.39,30.12,42,40.16,23.19,105.27,23.19,145.43,0,20.08-11.59,30.12-26.79,30.12-42h0Z"/><path class="cls-8" d="M232.93,282.55c-18.47,2.36-36,7.67-50.41,16-12.6,7.27-21.24,16-25.94,25.19H152.4V340.5c0,15.19,10,30.39,30.12,42,14.37,8.3,31.94,13.61,50.41,16Z"/><path class="cls-4" d="M328.23,382.31c19.89-11.57,29.84-26.69,29.84-41.81V323.71h-4.18c-4-7.86-10.9-15.33-20.64-21.87h-5Z"/><g class="cls-14"><path class="cls-4" d="M352.77,321.75a49.05,49.05,0,0,0-4.46-6.46v50.46a49,49,0,0,0,4.46-6.46Z"/><path class="cls-4" d="M182.52,298.52a81,81,0,0,0-14.36,10.43v63.12c1.4,1.28,2.87,2.55,4.46,3.78V307.43H181v74.14c.5.3,1,.61,1.5.91,1,.56,2,1.09,3,1.63V307.43h8.41v80.71q2.2.95,4.46,1.82V307.43h8.41v85.43q2.21.68,4.46,1.3V307.43h8.41V396.2q2.22.47,4.46.88V307.43h8.41v91q2.22.29,4.46.52V307.43h8.41V399.6c1.48.08,3,.14,4.46.18V307.43h8.41v92.4q2.23,0,4.46-.13V307.43h8.41v91.72c1.49-.13,3-.28,4.46-.46V307.43H284v90.08q2.24-.37,4.46-.81V307.43h8.41v87.36q2.25-.57,4.46-1.21V307.43h8.41v83.42q2.26-.82,4.46-1.71V307.43h8.41v77.92q2.27-1.14,4.46-2.37V307.43h8.41v70.21c1.57-1.13,3.05-2.29,4.46-3.47V307.43h.74a83.53,83.53,0,0,0-12.7-8.92,123.76,123.76,0,0,0-31.56-12.42H214.07A123.75,123.75,0,0,0,182.52,298.52Z"/><path class="cls-4" d="M159.74,318.5a46,46,0,0,0-3.16,5.21h-1.3v30.78a44.08,44.08,0,0,0,4.46,8.07Z"/></g><path class="cls-8" d="M327.95,365.69c-40.16,23.19-105.27,23.19-145.43,0s-40.16-60.78,0-84,105.27-23.19,145.43,0S368.11,342.5,327.95,365.69Z"/><path class="cls-15" d="M278.27,333.85c29.56-17.07,37.33-41.94,23.37-63.13-38.58-11.27-86.89-7.61-119.12,11-29.56,17.07-37.33,41.94-23.37,63.13C197.73,356.12,246,352.46,278.27,333.85Z"/><path class="cls-16" d="M327.95,365.69c-40.16,23.19-105.27,23.18-145.43,0-19.41-11.2-29.41-25.77-30.06-40.45-.7,15.7,9.3,31.53,30.06,43.51,40.16,23.19,105.27,23.19,145.43,0,20.75-12,30.75-27.81,30.06-43.51C357.35,339.92,347.35,354.48,327.95,365.69Z"/><path class="cls-4" d="M306.85,353.51c-28.51,16.46-74.72,16.46-103.23,0s-28.51-43.14,0-59.6,74.72-16.46,103.23,0S335.35,337,306.85,353.51Z"/><path class="cls-5" d="M203.62,297.75c28.51-16.46,74.72-16.46,103.23,0,13.41,7.74,20.5,17.74,21.3,27.88.9-11.42-6.2-23-21.3-31.73-28.51-16.46-74.72-16.46-103.23,0-15.1,8.72-22.2,20.31-21.3,31.72C183.11,315.49,190.21,305.49,203.62,297.75Z"/><path class="cls-5" d="M291.13,303.8l-5.66,1.62,1.61.64-5.52,3.19a31.18,31.18,0,0,0-14-3.27,26.79,26.79,0,0,0-13.49,3.65,20.94,20.94,0,0,0-4.07,3,8.68,8.68,0,0,0-2.18,3.12,10.5,10.5,0,0,0-.72,3,16.89,16.89,0,0,0,.13,3.24l.65,5.15a15.4,15.4,0,0,1,.13,3.61,6.46,6.46,0,0,1-1.22,2.93,9.88,9.88,0,0,1-3.24,2.77q-3.91,2.26-6.94.51-2.31-1.33-1.17-3.33t6.16-5v-3.87l-4.84,1.81-7-3c-4.26,2.61-7,5.08-8.25,7.41l-.79-.89v3.79h0c0,2.6,2,5.17,6,7.69L224,343.19l-3.73-1.71v3.87l3.35,1.94,6.55-3.78a28.59,28.59,0,0,0,13.24,2.64,26.3,26.3,0,0,0,12.49-3.36,21.13,21.13,0,0,0,4.43-3.29,10.68,10.68,0,0,0,2.46-3.58,13.54,13.54,0,0,0,.91-3.54,19,19,0,0,0,0-3.75l-.56-5c-.09-1-.13-1.73-.13-2.18a10,10,0,0,1,.24-1.89,4.39,4.39,0,0,1,1.12-2.15,10.45,10.45,0,0,1,2.41-1.82,9.79,9.79,0,0,1,3.71-1.18,6,6,0,0,1,3.71.62,3.44,3.44,0,0,1,1.16.89,1.07,1.07,0,0,1,.2.65l-5.76,1.2v3.87l11.66,5.19q1.43-.9,2.55-1.68a24.31,24.31,0,0,0,2.35-1.88,13.91,13.91,0,0,0,2-2.11,7.44,7.44,0,0,0,1.11-2.28,5,5,0,0,0,.19-1.16h0v-.06s0,0,0-.05v-4l-1.49.31-.05-.08a13.78,13.78,0,0,0-3.11-2.66l6.12-3.54Z"/><path class="cls-8" d="M220.28,341.48l6.48-3.74q-6.65-4.21-5.95-8.57t9-9.43l11.79,5q-5,3-6.16,5T236.6,333q3,1.75,6.94-.51a9.88,9.88,0,0,0,3.24-2.77,6.47,6.47,0,0,0,1.22-2.93,15.4,15.4,0,0,0-.13-3.61l-.65-5.15a16.89,16.89,0,0,1-.13-3.24,10.51,10.51,0,0,1,.72-3,8.68,8.68,0,0,1,2.18-3.12,20.93,20.93,0,0,1,4.07-3,26.79,26.79,0,0,1,13.49-3.65,31.18,31.18,0,0,1,14,3.27l6.16-3.55,3.42,2L285,307.34a13.78,13.78,0,0,1,3.11,2.66,6.7,6.7,0,0,1,1.42,2.55,4.65,4.65,0,0,1-.08,2.46,7.43,7.43,0,0,1-1.11,2.28,13.9,13.9,0,0,1-2,2.11,24.31,24.31,0,0,1-2.35,1.88q-1.12.78-2.55,1.68l-11.66-5.19q1.33-.81,2.18-1.36t1.73-1.2a7.14,7.14,0,0,0,1.27-1.15,3.14,3.14,0,0,0,.55-1,1.06,1.06,0,0,0-.18-1,3.43,3.43,0,0,0-1.16-.89,6,6,0,0,0-3.71-.62,9.79,9.79,0,0,0-3.71,1.18,10.45,10.45,0,0,0-2.41,1.82,4.38,4.38,0,0,0-1.12,2.15,10,10,0,0,0-.24,1.89c0,.45,0,1.18.13,2.18l.56,5a19,19,0,0,1,0,3.75,13.54,13.54,0,0,1-.91,3.54,10.67,10.67,0,0,1-2.46,3.58,21.13,21.13,0,0,1-4.43,3.29,26.3,26.3,0,0,1-12.49,3.36,28.59,28.59,0,0,1-13.24-2.64l-6.55,3.78Z"/><path class="cls-5" d="M358.07,306.9h-4.18c-4.69-9.22-13.34-17.91-25.94-25.19-40.16-23.19-105.27-23.19-145.43,0-12.6,7.27-21.24,16-25.94,25.19H152.4v16.79h0c0,15.19,10,30.39,30.12,42,40.16,23.19,105.27,23.19,145.43,0,20.08-11.59,30.12-26.79,30.12-42h0Z"/><path class="cls-8" d="M232.93,265.74c-18.47,2.36-36,7.67-50.41,16-12.6,7.27-21.24,16-25.94,25.19H152.4v16.79c0,15.19,10,30.39,30.12,42,14.37,8.3,31.94,13.61,50.41,16Z"/><path class="cls-4" d="M328.23,365.51c19.89-11.57,29.84-26.69,29.84-41.81V306.9h-4.18c-4-7.86-10.9-15.33-20.64-21.87h-5Z"/><g class="cls-14"><path class="cls-4" d="M352.77,304.94a49.05,49.05,0,0,0-4.46-6.46V349a49,49,0,0,0,4.46-6.46Z"/><path class="cls-4" d="M182.52,281.71a81,81,0,0,0-14.36,10.43v63.12c1.4,1.28,2.87,2.55,4.46,3.78V290.63H181v74.14c.5.3,1,.61,1.5.91,1,.56,2,1.09,3,1.63V290.63h8.41v80.71q2.2.95,4.46,1.82V290.63h8.41v85.43q2.21.68,4.46,1.3V290.63h8.41v88.76q2.22.47,4.46.88V290.63h8.41v91q2.22.29,4.46.52V290.63h8.41v92.16c1.48.08,3,.14,4.46.18V290.63h8.41V383q2.23,0,4.46-.13V290.63h8.41v91.72c1.49-.13,3-.28,4.46-.46V290.63H284V380.7q2.24-.38,4.46-.81V290.63h8.41V378q2.25-.57,4.46-1.21V290.63h8.41V374q2.26-.82,4.46-1.71V290.63h8.41v77.91q2.27-1.14,4.46-2.37V290.63h8.41v70.21c1.57-1.13,3.05-2.29,4.46-3.47V290.63h.74a83.53,83.53,0,0,0-12.7-8.92,123.76,123.76,0,0,0-31.56-12.42H214.07A123.76,123.76,0,0,0,182.52,281.71Z"/><path class="cls-4" d="M159.74,301.69a46,46,0,0,0-3.16,5.21h-1.3v30.78a44.09,44.09,0,0,0,4.46,8.07Z"/></g><path class="cls-8" d="M327.95,348.88c-40.16,23.19-105.27,23.19-145.43,0s-40.16-60.78,0-84,105.27-23.19,145.43,0S368.11,325.7,327.95,348.88Z"/><path class="cls-15" d="M278.27,317c29.56-17.07,37.33-41.94,23.37-63.13-38.58-11.27-86.89-7.61-119.12,11C153,282,145.18,306.86,159.15,328,197.73,339.31,246,335.66,278.27,317Z"/><path class="cls-16" d="M327.95,348.88c-40.16,23.19-105.27,23.18-145.43,0-19.41-11.2-29.41-25.77-30.06-40.45-.7,15.7,9.3,31.53,30.06,43.51,40.16,23.19,105.27,23.19,145.43,0,20.75-12,30.75-27.81,30.06-43.51C357.35,323.11,347.35,337.68,327.95,348.88Z"/><path class="cls-4" d="M306.85,336.7c-28.51,16.46-74.72,16.46-103.23,0s-28.51-43.14,0-59.6,74.72-16.46,103.23,0S335.35,320.24,306.85,336.7Z"/><path class="cls-5" d="M203.62,280.95c28.51-16.46,74.72-16.46,103.23,0,13.41,7.74,20.5,17.74,21.3,27.88.9-11.42-6.2-23-21.3-31.73-28.51-16.46-74.72-16.46-103.23,0-15.1,8.72-22.2,20.31-21.3,31.72C183.11,298.69,190.21,288.69,203.62,280.95Z"/><path class="cls-5" d="M291.13,287l-5.66,1.62,1.61.64-5.52,3.19a31.18,31.18,0,0,0-14-3.27,26.79,26.79,0,0,0-13.49,3.65,20.92,20.92,0,0,0-4.07,3,8.68,8.68,0,0,0-2.18,3.12,10.5,10.5,0,0,0-.72,3,16.89,16.89,0,0,0,.13,3.24l.65,5.15a15.4,15.4,0,0,1,.13,3.61,6.46,6.46,0,0,1-1.22,2.93,9.88,9.88,0,0,1-3.24,2.77q-3.91,2.26-6.94.51-2.31-1.33-1.17-3.33t6.16-5v-3.87l-4.84,1.81-7-3c-4.26,2.61-7,5.08-8.25,7.41l-.79-.89v3.79h0c0,2.6,2,5.17,6,7.69L224,326.38l-3.73-1.71v3.87l3.35,1.94,6.55-3.78a28.58,28.58,0,0,0,13.24,2.64A26.3,26.3,0,0,0,255.92,326a21.14,21.14,0,0,0,4.43-3.29,10.68,10.68,0,0,0,2.46-3.58,13.54,13.54,0,0,0,.91-3.54,19,19,0,0,0,0-3.75l-.56-5c-.09-1-.13-1.73-.13-2.18a10,10,0,0,1,.24-1.89,4.38,4.38,0,0,1,1.12-2.15,10.45,10.45,0,0,1,2.41-1.82,9.8,9.8,0,0,1,3.71-1.18,6,6,0,0,1,3.71.62,3.44,3.44,0,0,1,1.16.89,1.07,1.07,0,0,1,.2.65l-5.76,1.2v3.87L281.49,310q1.43-.9,2.55-1.68a24.31,24.31,0,0,0,2.35-1.88,13.9,13.9,0,0,0,2-2.11,7.43,7.43,0,0,0,1.11-2.28,5,5,0,0,0,.19-1.15h0v-.06s0,0,0-.05v-4l-1.49.31-.05-.08A13.78,13.78,0,0,0,285,294.4l6.12-3.54Z"/><path class="cls-8" d="M220.28,324.67l6.48-3.74q-6.65-4.21-5.95-8.57t9-9.43l11.79,5q-5,3-6.16,5t1.17,3.33q3,1.75,6.94-.51a9.88,9.88,0,0,0,3.24-2.77A6.46,6.46,0,0,0,248,310a15.4,15.4,0,0,0-.13-3.61l-.65-5.15a16.89,16.89,0,0,1-.13-3.24,10.5,10.5,0,0,1,.72-3,8.68,8.68,0,0,1,2.18-3.12,20.93,20.93,0,0,1,4.07-3,26.79,26.79,0,0,1,13.49-3.65,31.18,31.18,0,0,1,14,3.27l6.16-3.55,3.42,2L285,290.53a13.78,13.78,0,0,1,3.11,2.66,6.7,6.7,0,0,1,1.42,2.55,4.65,4.65,0,0,1-.08,2.46,7.43,7.43,0,0,1-1.11,2.28,13.9,13.9,0,0,1-2,2.11,24.31,24.31,0,0,1-2.35,1.88q-1.12.78-2.55,1.68L269.83,301q1.33-.81,2.18-1.35t1.73-1.2a7.14,7.14,0,0,0,1.27-1.15,3.14,3.14,0,0,0,.55-1,1.06,1.06,0,0,0-.18-1,3.44,3.44,0,0,0-1.16-.89,6,6,0,0,0-3.71-.62,9.79,9.79,0,0,0-3.71,1.18,10.45,10.45,0,0,0-2.41,1.82,4.38,4.38,0,0,0-1.12,2.15,10,10,0,0,0-.24,1.89c0,.45,0,1.18.13,2.18l.56,5a19,19,0,0,1,0,3.75,13.54,13.54,0,0,1-.91,3.54,10.68,10.68,0,0,1-2.46,3.58,21.13,21.13,0,0,1-4.43,3.29,26.3,26.3,0,0,1-12.49,3.36,28.59,28.59,0,0,1-13.24-2.64l-6.55,3.78Z"/><path class="cls-5" d="M358.07,290.09h-4.18c-4.69-9.22-13.34-17.91-25.94-25.19-40.16-23.19-105.27-23.19-145.43,0-12.6,7.27-21.24,16-25.94,25.19H152.4v16.79h0c0,15.19,10,30.39,30.12,42,40.16,23.19,105.27,23.19,145.43,0,20.08-11.59,30.12-26.79,30.12-42h0Z"/><path class="cls-8" d="M232.93,248.94c-18.47,2.36-36,7.67-50.41,16-12.6,7.27-21.24,16-25.94,25.19H152.4v16.79c0,15.19,10,30.39,30.12,42,14.37,8.3,31.94,13.61,50.41,16Z"/><path class="cls-4" d="M328.23,348.7c19.89-11.57,29.84-26.69,29.84-41.81V290.09h-4.18c-4-7.86-10.9-15.33-20.64-21.87h-5Z"/><g class="cls-14"><path class="cls-4" d="M352.77,288.14a49.07,49.07,0,0,0-4.46-6.46v50.46a49,49,0,0,0,4.46-6.46Z"/><path class="cls-4" d="M182.52,264.9a81,81,0,0,0-14.36,10.43v63.12c1.4,1.28,2.87,2.55,4.46,3.78V273.82H181V348c.5.3,1,.61,1.5.91,1,.56,2,1.09,3,1.63V273.82h8.41v80.71q2.2.95,4.46,1.82V273.82h8.41v85.43q2.21.68,4.46,1.3V273.82h8.41v88.76q2.22.47,4.46.88V273.82h8.41v91q2.22.29,4.46.52V273.82h8.41V366c1.48.08,3,.14,4.46.18V273.82h8.41v92.4q2.23,0,4.46-.13V273.82h8.41v91.72c1.49-.13,3-.28,4.46-.46V273.82H284V363.9q2.24-.38,4.46-.82V273.82h8.41v87.36q2.25-.57,4.46-1.21V273.82h8.41v83.42q2.26-.82,4.46-1.71V273.82h8.41v77.91q2.27-1.14,4.46-2.37V273.82h8.41V344c1.57-1.13,3.05-2.29,4.46-3.47V273.82h.74a83.52,83.52,0,0,0-12.7-8.92,123.74,123.74,0,0,0-31.56-12.42H214.07A123.75,123.75,0,0,0,182.52,264.9Z"/><path class="cls-4" d="M159.74,284.89a46,46,0,0,0-3.16,5.21h-1.3v30.78a44.08,44.08,0,0,0,4.46,8.07Z"/></g><path class="cls-8" d="M327.95,332.07c-40.16,23.19-105.27,23.19-145.43,0s-40.16-60.78,0-84,105.27-23.19,145.43,0S368.11,308.89,327.95,332.07Z"/><path class="cls-15" d="M278.27,300.24c29.56-17.07,37.33-41.94,23.37-63.13-38.58-11.27-86.89-7.61-119.12,11C153,265.18,145.18,290,159.15,311.24,197.73,322.51,246,318.85,278.27,300.24Z"/><path class="cls-16" d="M327.95,332.07c-40.16,23.19-105.27,23.18-145.43,0-19.41-11.2-29.41-25.77-30.06-40.45-.7,15.7,9.3,31.53,30.06,43.51,40.16,23.19,105.27,23.19,145.43,0,20.75-12,30.75-27.81,30.06-43.51C357.35,306.3,347.35,320.87,327.95,332.07Z"/><path class="cls-4" d="M306.85,319.89c-28.51,16.46-74.72,16.46-103.23,0s-28.51-43.14,0-59.6,74.72-16.46,103.23,0S335.35,303.43,306.85,319.89Z"/><path class="cls-5" d="M203.62,264.14c28.51-16.46,74.72-16.46,103.23,0,13.41,7.74,20.5,17.74,21.3,27.88.9-11.42-6.2-23-21.3-31.73-28.51-16.46-74.72-16.46-103.23,0-15.1,8.72-22.2,20.31-21.3,31.72C183.11,281.88,190.21,271.88,203.62,264.14Z"/><path class="cls-5" d="M291.13,270.19l-5.66,1.62,1.61.64-5.52,3.19a31.18,31.18,0,0,0-14-3.27A26.79,26.79,0,0,0,254.06,276a20.93,20.93,0,0,0-4.07,3,8.68,8.68,0,0,0-2.18,3.12,10.5,10.5,0,0,0-.72,3,16.89,16.89,0,0,0,.13,3.24l.65,5.15a15.4,15.4,0,0,1,.13,3.61,6.47,6.47,0,0,1-1.22,2.93,9.88,9.88,0,0,1-3.24,2.77q-3.91,2.26-6.94.51-2.31-1.33-1.17-3.33t6.16-5v-3.87l-4.84,1.81-7-3c-4.26,2.61-7,5.08-8.25,7.41l-.79-.89v3.79h0c0,2.6,2,5.17,6,7.69L224,309.57l-3.73-1.71v3.87l3.35,1.94,6.55-3.78a28.59,28.59,0,0,0,13.24,2.64,26.3,26.3,0,0,0,12.49-3.36,21.13,21.13,0,0,0,4.43-3.29,10.67,10.67,0,0,0,2.46-3.58,13.54,13.54,0,0,0,.91-3.54,19,19,0,0,0,0-3.75l-.56-5c-.09-1-.13-1.73-.13-2.18a10,10,0,0,1,.24-1.89,4.39,4.39,0,0,1,1.12-2.15A10.45,10.45,0,0,1,266.8,282a9.79,9.79,0,0,1,3.71-1.18,6,6,0,0,1,3.71.62,3.44,3.44,0,0,1,1.16.89,1.07,1.07,0,0,1,.2.65l-5.76,1.2V288l11.66,5.19q1.43-.9,2.55-1.68a24.36,24.36,0,0,0,2.35-1.88,13.9,13.9,0,0,0,2-2.11,7.43,7.43,0,0,0,1.11-2.28,5,5,0,0,0,.19-1.16h0V284s0,0,0-.05v-4l-1.49.31-.05-.08a13.78,13.78,0,0,0-3.11-2.66l6.12-3.54Z"/><path class="cls-8" d="M220.28,307.86l6.48-3.74q-6.65-4.21-5.95-8.57t9-9.43l11.79,5q-5,3-6.16,5t1.17,3.33q3,1.75,6.94-.51a9.88,9.88,0,0,0,3.24-2.77,6.47,6.47,0,0,0,1.22-2.93,15.4,15.4,0,0,0-.13-3.61l-.65-5.15a16.89,16.89,0,0,1-.13-3.24,10.5,10.5,0,0,1,.72-3A8.68,8.68,0,0,1,250,275.1a20.92,20.92,0,0,1,4.07-3,26.79,26.79,0,0,1,13.49-3.65,31.18,31.18,0,0,1,14,3.27l6.16-3.55,3.42,2L285,273.73a13.78,13.78,0,0,1,3.11,2.66,6.7,6.7,0,0,1,1.42,2.55,4.65,4.65,0,0,1-.08,2.46,7.43,7.43,0,0,1-1.11,2.28,13.9,13.9,0,0,1-2,2.11,24.31,24.31,0,0,1-2.35,1.88q-1.12.78-2.55,1.68l-11.66-5.19q1.33-.81,2.18-1.35t1.73-1.2a7.14,7.14,0,0,0,1.27-1.15,3.14,3.14,0,0,0,.55-1,1.06,1.06,0,0,0-.18-1,3.44,3.44,0,0,0-1.16-.89,6,6,0,0,0-3.71-.62,9.8,9.8,0,0,0-3.71,1.18,10.45,10.45,0,0,0-2.41,1.82,4.38,4.38,0,0,0-1.12,2.15A10,10,0,0,0,263,284c0,.45,0,1.18.13,2.18l.56,5a19,19,0,0,1,0,3.75,13.54,13.54,0,0,1-.91,3.54,10.68,10.68,0,0,1-2.46,3.58,21.14,21.14,0,0,1-4.43,3.29,26.3,26.3,0,0,1-12.49,3.36A28.58,28.58,0,0,1,230.18,306l-6.55,3.78Z"/><path class="cls-5" d="M358.07,273.29h-4.18c-4.69-9.22-13.34-17.91-25.94-25.19-40.16-23.19-105.27-23.19-145.43,0-12.6,7.27-21.24,16-25.94,25.19H152.4v16.79h0c0,15.19,10,30.39,30.12,42,40.16,23.19,105.27,23.19,145.43,0,20.08-11.59,30.12-26.79,30.12-42h0Z"/><path class="cls-8" d="M232.93,232.13c-18.47,2.36-36,7.67-50.41,16-12.6,7.27-21.24,16-25.94,25.19H152.4v16.79c0,15.19,10,30.39,30.12,42,14.37,8.3,31.94,13.61,50.41,16Z"/><path class="cls-4" d="M328.23,331.89c19.89-11.57,29.84-26.69,29.84-41.81V273.29h-4.18c-4-7.86-10.9-15.33-20.64-21.87h-5Z"/><g class="cls-14"><path class="cls-4" d="M352.77,271.33a49.05,49.05,0,0,0-4.46-6.46v50.46a49,49,0,0,0,4.46-6.46Z"/><path class="cls-4" d="M182.52,248.1a81,81,0,0,0-14.36,10.43v63.12c1.4,1.28,2.87,2.55,4.46,3.78V257H181v74.14c.5.3,1,.61,1.5.91,1,.56,2,1.09,3,1.63V257h8.41v80.71q2.2.95,4.46,1.82V257h8.41v85.43q2.21.68,4.46,1.3V257h8.41v88.76q2.22.47,4.46.88V257h8.41v91q2.22.29,4.46.52V257h8.41v92.16c1.48.08,3,.14,4.46.18V257h8.41v92.4q2.23,0,4.46-.13V257h8.41v91.72c1.49-.13,3-.28,4.46-.46V257H284v90.08q2.24-.37,4.46-.81V257h8.41v87.36q2.25-.57,4.46-1.21V257h8.41v83.42q2.26-.82,4.46-1.71V257h8.41v77.92q2.27-1.14,4.46-2.37V257h8.41v70.21c1.57-1.13,3.05-2.29,4.46-3.47V257h.74a83.53,83.53,0,0,0-12.7-8.92,123.76,123.76,0,0,0-31.56-12.42H214.07A123.75,123.75,0,0,0,182.52,248.1Z"/><path class="cls-4" d="M159.74,268.08a46,46,0,0,0-3.16,5.21h-1.3v30.78a44.08,44.08,0,0,0,4.46,8.07Z"/></g><path class="cls-8" d="M327.95,315.27c-40.16,23.19-105.27,23.19-145.43,0s-40.16-60.78,0-84,105.27-23.19,145.43,0S368.11,292.08,327.95,315.27Z"/><path class="cls-15" d="M278.27,283.43c29.56-17.07,37.33-41.94,23.37-63.13-38.58-11.27-86.89-7.61-119.12,11-29.56,17.07-37.33,41.94-23.37,63.13C197.73,305.7,246,302,278.27,283.43Z"/><path class="cls-16" d="M327.95,315.27c-40.16,23.19-105.27,23.18-145.43,0-19.41-11.2-29.41-25.77-30.06-40.45-.7,15.7,9.3,31.53,30.06,43.51,40.16,23.19,105.27,23.19,145.43,0,20.75-12,30.75-27.81,30.06-43.51C357.35,289.5,347.35,304.06,327.95,315.27Z"/><path class="cls-4" d="M306.85,303.09c-28.51,16.46-74.72,16.46-103.23,0s-28.51-43.14,0-59.6,74.72-16.46,103.23,0S335.35,286.63,306.85,303.09Z"/><path class="cls-5" d="M203.62,247.33c28.51-16.46,74.72-16.46,103.23,0,13.41,7.74,20.5,17.74,21.3,27.88.9-11.42-6.2-23-21.3-31.73-28.51-16.46-74.72-16.46-103.23,0-15.1,8.72-22.2,20.31-21.3,31.72C183.11,265.07,190.21,255.07,203.62,247.33Z"/><path class="cls-5" d="M291.13,253.38,285.47,255l1.61.64-5.52,3.19a31.18,31.18,0,0,0-14-3.27,26.79,26.79,0,0,0-13.49,3.65,20.93,20.93,0,0,0-4.07,3,8.68,8.68,0,0,0-2.18,3.12,10.5,10.5,0,0,0-.72,3,16.89,16.89,0,0,0,.13,3.24l.65,5.15a15.4,15.4,0,0,1,.13,3.61,6.46,6.46,0,0,1-1.22,2.93,9.88,9.88,0,0,1-3.24,2.77q-3.91,2.26-6.94.51-2.31-1.33-1.17-3.33t6.16-5v-3.87l-4.84,1.81-7-3c-4.26,2.61-7,5.08-8.25,7.41l-.79-.89v3.79h0c0,2.6,2,5.17,6,7.69L224,292.77l-3.73-1.71v3.87l3.35,1.94,6.55-3.78a28.59,28.59,0,0,0,13.24,2.64,26.3,26.3,0,0,0,12.49-3.36,21.14,21.14,0,0,0,4.43-3.29,10.68,10.68,0,0,0,2.46-3.58,13.54,13.54,0,0,0,.91-3.54,19,19,0,0,0,0-3.75l-.56-5c-.09-1-.13-1.73-.13-2.18a10,10,0,0,1,.24-1.89,4.39,4.39,0,0,1,1.12-2.15,10.45,10.45,0,0,1,2.41-1.82,9.8,9.8,0,0,1,3.71-1.18,6,6,0,0,1,3.71.62,3.44,3.44,0,0,1,1.16.89,1.07,1.07,0,0,1,.2.65l-5.76,1.2v3.87l11.66,5.19q1.43-.9,2.55-1.68a24.27,24.27,0,0,0,2.35-1.88,13.9,13.9,0,0,0,2-2.11,7.43,7.43,0,0,0,1.11-2.28,5,5,0,0,0,.19-1.16h0v-.06s0,0,0-.05v-4l-1.49.31-.05-.08a13.78,13.78,0,0,0-3.11-2.66l6.12-3.54Z"/><path class="cls-8" d="M220.28,291.06l6.48-3.74q-6.65-4.21-5.95-8.57t9-9.43l11.79,5q-5,3-6.16,5t1.17,3.33q3,1.75,6.94-.51a9.88,9.88,0,0,0,3.24-2.77,6.47,6.47,0,0,0,1.22-2.93,15.4,15.4,0,0,0-.13-3.61l-.65-5.15a16.89,16.89,0,0,1-.13-3.24,10.5,10.5,0,0,1,.72-3,8.68,8.68,0,0,1,2.18-3.12,20.93,20.93,0,0,1,4.07-3,26.79,26.79,0,0,1,13.49-3.65,31.18,31.18,0,0,1,14,3.27l6.16-3.55,3.42,2L285,256.92a13.78,13.78,0,0,1,3.11,2.66,6.7,6.7,0,0,1,1.42,2.55,4.65,4.65,0,0,1-.08,2.46,7.43,7.43,0,0,1-1.11,2.28,13.9,13.9,0,0,1-2,2.11,24.31,24.31,0,0,1-2.35,1.88q-1.12.78-2.55,1.68l-11.66-5.19q1.33-.81,2.18-1.36t1.73-1.2a7.14,7.14,0,0,0,1.27-1.15,3.14,3.14,0,0,0,.55-1,1.06,1.06,0,0,0-.18-1,3.44,3.44,0,0,0-1.16-.89,6,6,0,0,0-3.71-.62,9.79,9.79,0,0,0-3.71,1.18,10.45,10.45,0,0,0-2.41,1.82,4.38,4.38,0,0,0-1.12,2.15,10,10,0,0,0-.24,1.89c0,.45,0,1.18.13,2.18l.56,5a19,19,0,0,1,0,3.75,13.54,13.54,0,0,1-.91,3.54,10.67,10.67,0,0,1-2.46,3.58,21.13,21.13,0,0,1-4.43,3.29,26.3,26.3,0,0,1-12.49,3.36,28.59,28.59,0,0,1-13.24-2.64L223.63,293Z"/><path class="cls-5" d="M365.41,256.48h-4.18c-4.69-9.22-13.34-17.91-25.94-25.19-40.16-23.19-105.27-23.19-145.43,0-12.6,7.27-21.24,16-25.94,25.19h-4.18v16.79h0c0,15.19,10,30.39,30.12,42,40.16,23.19,105.27,23.19,145.43,0,20.08-11.59,30.12-26.79,30.12-42h0Z"/><path class="cls-8" d="M240.28,215.32c-18.47,2.36-36,7.67-50.41,16-12.6,7.27-21.24,16-25.94,25.19h-4.18v16.79c0,15.19,10,30.39,30.12,42,14.37,8.3,31.94,13.61,50.41,16Z"/><path class="cls-4" d="M335.57,315.09c19.89-11.57,29.84-26.69,29.84-41.81V256.48h-4.18c-4-7.86-10.9-15.33-20.64-21.87h-5Z"/><g class="cls-14"><path class="cls-4" d="M360.12,254.52a49.08,49.08,0,0,0-4.46-6.46v50.46a49,49,0,0,0,4.46-6.46Z"/><path class="cls-4" d="M189.86,231.29a81,81,0,0,0-14.36,10.43v63.12c1.4,1.28,2.87,2.55,4.46,3.78V240.21h8.41v74.14c.5.3,1,.61,1.5.91,1,.56,2,1.09,3,1.63V240.21h8.41v80.71q2.2.95,4.46,1.82V240.21h8.41v85.43q2.21.68,4.46,1.3V240.21H227V329q2.22.47,4.46.88V240.21h8.41v91q2.22.29,4.46.52V240.21h8.41v92.16c1.48.08,3,.14,4.46.18V240.21h8.41v92.4q2.23,0,4.46-.13V240.21h8.41v91.72c1.49-.13,3-.28,4.46-.46V240.21h8.41v90.08q2.24-.38,4.46-.81V240.21h8.41v87.36q2.25-.57,4.46-1.21V240.21h8.41v83.42q2.26-.82,4.46-1.71V240.21h8.41v77.91q2.27-1.14,4.46-2.37V240.21h8.41v70.21c1.57-1.13,3.05-2.29,4.46-3.47V240.21H348a83.53,83.53,0,0,0-12.7-8.92,123.75,123.75,0,0,0-31.56-12.42H221.41A123.75,123.75,0,0,0,189.86,231.29Z"/><path class="cls-4" d="M167.09,251.27a46.08,46.08,0,0,0-3.16,5.21h-1.3v30.78a44.11,44.11,0,0,0,4.46,8.07Z"/></g><path class="cls-8" d="M335.3,298.46c-40.16,23.19-105.27,23.19-145.43,0s-40.16-60.78,0-84,105.27-23.19,145.43,0S375.45,275.28,335.3,298.46Z"/><path class="cls-15" d="M285.62,266.62c29.56-17.07,37.33-41.94,23.37-63.13-38.58-11.27-86.89-7.61-119.12,11-29.56,17.07-37.33,41.94-23.37,63.13C205.07,288.89,253.38,285.24,285.62,266.62Z"/><path class="cls-16" d="M335.3,298.46c-40.16,23.19-105.27,23.18-145.43,0-19.41-11.2-29.41-25.77-30.06-40.45-.7,15.7,9.3,31.53,30.06,43.51,40.16,23.19,105.27,23.19,145.43,0C356,289.54,366,273.71,365.35,258,364.7,272.69,354.7,287.26,335.3,298.46Z"/><path class="cls-4" d="M314.2,286.28c-28.51,16.46-74.72,16.46-103.23,0s-28.51-43.14,0-59.6,74.72-16.46,103.23,0S342.7,269.82,314.2,286.28Z"/><path class="cls-5" d="M211,230.53c28.51-16.46,74.72-16.46,103.23,0,13.41,7.74,20.5,17.74,21.3,27.88.9-11.42-6.2-23-21.3-31.73-28.51-16.46-74.72-16.46-103.23,0-15.1,8.72-22.2,20.31-21.3,31.72C190.46,248.27,197.56,238.27,211,230.53Z"/><path class="cls-5" d="M298.48,236.58l-5.66,1.62,1.61.64L288.9,242a31.18,31.18,0,0,0-14-3.27,26.79,26.79,0,0,0-13.49,3.65,20.92,20.92,0,0,0-4.07,3,8.68,8.68,0,0,0-2.18,3.12,10.5,10.5,0,0,0-.72,3,16.88,16.88,0,0,0,.13,3.24l.65,5.15a15.41,15.41,0,0,1,.13,3.61,6.46,6.46,0,0,1-1.22,2.93,9.87,9.87,0,0,1-3.24,2.77q-3.91,2.26-6.94.51-2.31-1.33-1.17-3.33t6.16-5v-3.87l-4.84,1.81-7-3c-4.26,2.61-7,5.08-8.25,7.41l-.8-.89v3.79h0c0,2.6,2,5.17,6,7.69L231.36,276l-3.73-1.71v3.87l3.35,1.94,6.55-3.78a28.58,28.58,0,0,0,13.24,2.64,26.3,26.3,0,0,0,12.49-3.36,21.13,21.13,0,0,0,4.43-3.29,10.67,10.67,0,0,0,2.46-3.58,13.55,13.55,0,0,0,.91-3.54,19,19,0,0,0,0-3.75l-.56-5c-.09-1-.13-1.73-.13-2.18a10,10,0,0,1,.24-1.89,4.38,4.38,0,0,1,1.12-2.15,10.45,10.45,0,0,1,2.41-1.82,9.79,9.79,0,0,1,3.71-1.18,6,6,0,0,1,3.71.62,3.43,3.43,0,0,1,1.16.89,1.07,1.07,0,0,1,.2.65l-5.76,1.2v3.87l11.66,5.19q1.43-.9,2.55-1.68a24.31,24.31,0,0,0,2.35-1.88,13.9,13.9,0,0,0,2-2.11,7.43,7.43,0,0,0,1.11-2.28,5,5,0,0,0,.19-1.16h0v-.06s0,0,0-.05v-4l-1.49.31-.05-.08a13.78,13.78,0,0,0-3.11-2.66l6.12-3.54Z"/><path class="cls-8" d="M227.63,274.25l6.48-3.74q-6.65-4.21-5.95-8.57t9-9.43l11.79,5q-5,3-6.16,5t1.17,3.33q3,1.75,6.94-.51a9.88,9.88,0,0,0,3.24-2.77,6.46,6.46,0,0,0,1.22-2.93,15.4,15.4,0,0,0-.13-3.61l-.65-5.15a16.87,16.87,0,0,1-.13-3.24,10.5,10.5,0,0,1,.72-3,8.68,8.68,0,0,1,2.18-3.12,20.93,20.93,0,0,1,4.07-3,26.79,26.79,0,0,1,13.49-3.65,31.18,31.18,0,0,1,14,3.27l6.16-3.55,3.42,2-6.12,3.54a13.78,13.78,0,0,1,3.11,2.66,6.7,6.7,0,0,1,1.42,2.55,4.65,4.65,0,0,1-.08,2.46,7.43,7.43,0,0,1-1.11,2.28,13.9,13.9,0,0,1-2,2.11,24.27,24.27,0,0,1-2.35,1.88q-1.12.78-2.55,1.68l-11.66-5.19q1.33-.81,2.18-1.35t1.73-1.2a7.15,7.15,0,0,0,1.27-1.15,3.13,3.13,0,0,0,.55-1,1.06,1.06,0,0,0-.18-1,3.44,3.44,0,0,0-1.16-.89,6,6,0,0,0-3.71-.62,9.8,9.8,0,0,0-3.71,1.18,10.45,10.45,0,0,0-2.41,1.82,4.39,4.39,0,0,0-1.12,2.15,10,10,0,0,0-.24,1.89c0,.45,0,1.18.13,2.18l.56,5a19,19,0,0,1,0,3.75,13.54,13.54,0,0,1-.91,3.54,10.68,10.68,0,0,1-2.46,3.58,21.14,21.14,0,0,1-4.43,3.29A26.3,26.3,0,0,1,250.77,275a28.59,28.59,0,0,1-13.24-2.64L231,276.19Z"/><path class="cls-5" d="M344.76,236h-4.18c-4.69-9.22-13.34-17.91-25.94-25.19-40.16-23.19-105.27-23.19-145.43,0-12.6,7.27-21.24,16-25.94,25.19h-4.18v16.79h0c0,15.19,10,30.39,30.12,42,40.16,23.19,105.27,23.19,145.43,0,20.08-11.59,30.12-26.79,30.12-42h0Z"/><path class="cls-8" d="M219.62,194.81c-18.47,2.36-36,7.67-50.41,16-12.6,7.27-21.24,16-25.94,25.19h-4.18v16.79c0,15.19,10,30.39,30.12,42,14.37,8.3,31.94,13.61,50.41,16Z"/><path class="cls-4" d="M314.92,294.58c19.89-11.57,29.84-26.69,29.84-41.81V236h-4.18c-4-7.86-10.9-15.33-20.64-21.87h-5Z"/><g class="cls-14"><path class="cls-4" d="M339.47,234a49.08,49.08,0,0,0-4.46-6.46V278a49,49,0,0,0,4.46-6.46Z"/><path class="cls-4" d="M169.21,210.78a81,81,0,0,0-14.36,10.43v63.12c1.4,1.28,2.87,2.55,4.46,3.78V219.7h8.41v74.14c.5.3,1,.61,1.5.91,1,.56,2,1.09,3,1.63V219.7h8.41v80.71q2.2.95,4.46,1.82V219.7h8.41v85.43q2.21.68,4.46,1.3V219.7h8.41v88.76q2.22.47,4.46.88V219.7h8.41v91q2.22.29,4.46.52V219.7h8.41v92.16c1.48.08,3,.14,4.46.18V219.7h8.41v92.4q2.23,0,4.46-.13V219.7h8.41v91.72c1.49-.13,3-.28,4.46-.46V219.7h8.41v90.08q2.24-.37,4.46-.81V219.7h8.41v87.36q2.25-.57,4.46-1.21V219.7h8.41v83.42q2.26-.82,4.46-1.71V219.7h8.41v77.92q2.27-1.14,4.46-2.37V219.7h8.41v70.21c1.57-1.13,3.05-2.29,4.46-3.47V219.7h.74a83.52,83.52,0,0,0-12.7-8.92,123.77,123.77,0,0,0-31.55-12.42H200.76A123.76,123.76,0,0,0,169.21,210.78Z"/><path class="cls-4" d="M146.44,230.76a46,46,0,0,0-3.16,5.21H142v30.78a44.09,44.09,0,0,0,4.46,8.07Z"/></g><path class="cls-8" d="M314.64,278c-40.16,23.19-105.27,23.19-145.43,0s-40.16-60.78,0-84,105.27-23.19,145.43,0S354.8,254.77,314.64,278Z"/><path class="cls-15" d="M265,246.11C294.52,229,302.29,204.17,288.33,183c-38.58-11.27-86.89-7.61-119.12,11-29.56,17.07-37.33,41.94-23.37,63.13C184.42,268.38,232.72,264.73,265,246.11Z"/><path class="cls-16" d="M314.64,278c-40.16,23.19-105.27,23.18-145.43,0-19.41-11.2-29.41-25.77-30.06-40.45-.7,15.7,9.3,31.53,30.06,43.51,40.16,23.19,105.27,23.19,145.43,0,20.75-12,30.75-27.81,30.06-43.51C344,252.18,334,266.75,314.64,278Z"/><path class="cls-4" d="M293.54,265.77c-28.51,16.46-74.72,16.46-103.23,0s-28.51-43.14,0-59.6,74.72-16.46,103.23,0S322,249.31,293.54,265.77Z"/><path class="cls-5" d="M190.31,210c28.51-16.46,74.72-16.46,103.23,0,13.41,7.74,20.5,17.74,21.3,27.88.9-11.42-6.2-23-21.3-31.73-28.51-16.46-74.72-16.46-103.23,0-15.1,8.72-22.2,20.31-21.3,31.72C169.81,227.76,176.9,217.76,190.31,210Z"/><path class="cls-5" d="M277.82,216.07l-5.66,1.62,1.61.64-5.52,3.19a31.18,31.18,0,0,0-14-3.27,26.79,26.79,0,0,0-13.49,3.65,20.92,20.92,0,0,0-4.07,3A8.68,8.68,0,0,0,234.5,228a10.51,10.51,0,0,0-.72,3,16.89,16.89,0,0,0,.13,3.24l.65,5.15a15.41,15.41,0,0,1,.13,3.61,6.46,6.46,0,0,1-1.22,2.93,9.87,9.87,0,0,1-3.24,2.77q-3.91,2.26-6.94.51-2.31-1.33-1.17-3.33t6.16-5V237l-4.84,1.81-7-3c-4.26,2.61-7,5.08-8.25,7.41l-.8-.89v3.79h0c0,2.6,2,5.17,6,7.69l-2.75,1.59L207,253.74v3.87l3.35,1.94,6.55-3.78a28.59,28.59,0,0,0,13.24,2.64A26.3,26.3,0,0,0,242.61,255a21.14,21.14,0,0,0,4.43-3.29,10.68,10.68,0,0,0,2.46-3.58,13.54,13.54,0,0,0,.91-3.54,19,19,0,0,0,0-3.75l-.56-5c-.09-1-.13-1.73-.13-2.18a10,10,0,0,1,.24-1.89,4.38,4.38,0,0,1,1.12-2.15,10.44,10.44,0,0,1,2.41-1.82,9.8,9.8,0,0,1,3.71-1.18,6,6,0,0,1,3.71.62,3.44,3.44,0,0,1,1.16.89,1.06,1.06,0,0,1,.2.65l-5.76,1.2v3.87l11.66,5.19q1.43-.9,2.55-1.68a24.27,24.27,0,0,0,2.35-1.88,13.9,13.9,0,0,0,2-2.11,7.45,7.45,0,0,0,1.11-2.28,5.05,5.05,0,0,0,.19-1.16h0v-.06s0,0,0-.05v-4l-1.49.31-.05-.08a13.78,13.78,0,0,0-3.11-2.66l6.12-3.54Z"/><path class="cls-8" d="M207,253.74l6.48-3.74q-6.65-4.21-5.95-8.57t9-9.43l11.79,5q-5,3-6.16,5t1.17,3.33q3,1.75,6.94-.51a9.88,9.88,0,0,0,3.24-2.77,6.46,6.46,0,0,0,1.22-2.93,15.41,15.41,0,0,0-.13-3.61l-.65-5.15a16.91,16.91,0,0,1-.13-3.24,10.51,10.51,0,0,1,.72-3,8.68,8.68,0,0,1,2.18-3.12,20.93,20.93,0,0,1,4.07-3,26.79,26.79,0,0,1,13.49-3.65,31.18,31.18,0,0,1,14,3.27l6.16-3.55,3.42,2-6.12,3.54a13.78,13.78,0,0,1,3.11,2.66,6.7,6.7,0,0,1,1.42,2.55,4.65,4.65,0,0,1-.08,2.46,7.45,7.45,0,0,1-1.11,2.28,13.9,13.9,0,0,1-2,2.11,24.31,24.31,0,0,1-2.35,1.88q-1.12.78-2.55,1.68L256.52,230q1.33-.81,2.18-1.36t1.73-1.2a7.14,7.14,0,0,0,1.27-1.15,3.14,3.14,0,0,0,.55-1,1.06,1.06,0,0,0-.18-1,3.44,3.44,0,0,0-1.16-.89,6,6,0,0,0-3.71-.62,9.79,9.79,0,0,0-3.71,1.18,10.44,10.44,0,0,0-2.41,1.82A4.38,4.38,0,0,0,250,228a10,10,0,0,0-.24,1.89c0,.45,0,1.18.13,2.18l.56,5a19,19,0,0,1,0,3.75,13.55,13.55,0,0,1-.91,3.54,10.68,10.68,0,0,1-2.46,3.58,21.13,21.13,0,0,1-4.43,3.29,26.3,26.3,0,0,1-12.49,3.36,28.59,28.59,0,0,1-13.24-2.64l-6.55,3.78Z"/><path class="cls-5" d="M514,448.87h-4.18c-4.69-9.22-13.34-17.91-25.94-25.19-40.16-23.19-105.27-23.19-145.43,0-12.6,7.27-21.24,16-25.94,25.19h-4.18v16.79h0c0,15.19,10,30.39,30.12,42,40.16,23.19,105.27,23.19,145.43,0C504,496.06,514,480.86,514,465.67h0Z"/><path class="cls-8" d="M388.9,407.72c-18.47,2.36-36,7.67-50.41,16-12.6,7.27-21.24,16-25.94,25.19h-4.18v16.79c0,15.19,10,30.39,30.12,42,14.37,8.3,31.94,13.61,50.41,16Z"/><path class="cls-4" d="M484.2,507.48C504.08,495.91,514,480.79,514,465.67V448.87h-4.18c-4-7.86-10.9-15.33-20.64-21.87h-5Z"/><g class="cls-14"><path class="cls-4" d="M508.74,446.92a49.11,49.11,0,0,0-4.46-6.46v50.46a49,49,0,0,0,4.46-6.46Z"/><path class="cls-4" d="M338.48,423.68a81,81,0,0,0-14.36,10.43v63.12c1.4,1.28,2.87,2.55,4.46,3.78V432.6H337v74.14c.5.3,1,.61,1.5.91,1,.56,2,1.09,3,1.63V432.6h8.41v80.71q2.2.95,4.46,1.82V432.6h8.41V518q2.21.68,4.46,1.3V432.6h8.41v88.76q2.22.47,4.46.88V432.6h8.41v91q2.22.29,4.46.52V432.6h8.41v92.16c1.48.08,3,.14,4.46.18V432.6h8.41V525q2.23,0,4.46-.13V432.6h8.41v91.72c1.49-.13,3-.28,4.46-.46V432.6h8.41v90.08q2.24-.38,4.46-.81V432.6h8.41V520q2.25-.57,4.46-1.21V432.6h8.41V516q2.26-.82,4.46-1.71V432.6h8.41v77.91q2.27-1.14,4.46-2.37V432.6h8.41v70.21c1.57-1.13,3.05-2.29,4.46-3.47V432.6h.74a83.52,83.52,0,0,0-12.7-8.92,123.76,123.76,0,0,0-31.56-12.42H370A123.75,123.75,0,0,0,338.48,423.68Z"/><path class="cls-4" d="M315.71,443.67a46.06,46.06,0,0,0-3.16,5.21h-1.3v30.78a44.11,44.11,0,0,0,4.46,8.07Z"/></g><path class="cls-8" d="M483.92,490.86c-40.16,23.19-105.27,23.19-145.43,0s-40.16-60.78,0-84,105.27-23.19,145.43,0S524.07,467.67,483.92,490.86Z"/><path class="cls-15" d="M434.24,459c29.56-17.07,37.33-41.94,23.37-63.13-38.58-11.27-86.89-7.61-119.12,11C308.92,424,301.15,448.83,315.11,470,353.7,481.29,402,477.63,434.24,459Z"/><path class="cls-16" d="M483.92,490.86c-40.16,23.19-105.27,23.18-145.43,0-19.41-11.2-29.41-25.77-30.06-40.45-.7,15.7,9.3,31.53,30.06,43.51,40.16,23.19,105.27,23.19,145.43,0,20.75-12,30.75-27.81,30.06-43.51C513.32,465.09,503.32,479.65,483.92,490.86Z"/><path class="cls-4" d="M462.82,478.67c-28.51,16.46-74.72,16.46-103.23,0s-28.51-43.14,0-59.6,74.72-16.46,103.23,0S491.32,462.22,462.82,478.67Z"/><path class="cls-5" d="M359.58,422.92c28.51-16.46,74.72-16.46,103.23,0,13.41,7.74,20.5,17.74,21.3,27.88.9-11.42-6.2-23-21.3-31.73-28.51-16.46-74.72-16.46-103.23,0-15.1,8.72-22.2,20.31-21.3,31.72C339.08,440.66,346.18,430.66,359.58,422.92Z"/><path class="cls-5" d="M447.1,429l-5.66,1.62,1.61.64-5.52,3.19a31.18,31.18,0,0,0-14-3.27A26.79,26.79,0,0,0,410,434.79a20.92,20.92,0,0,0-4.07,3,8.68,8.68,0,0,0-2.18,3.12,10.5,10.5,0,0,0-.72,3,16.88,16.88,0,0,0,.13,3.24l.65,5.15a15.41,15.41,0,0,1,.13,3.61,6.46,6.46,0,0,1-1.22,2.93,9.87,9.87,0,0,1-3.24,2.77q-3.91,2.26-6.94.51-2.31-1.33-1.17-3.33t6.16-5V449.9l-4.84,1.81-7-3c-4.26,2.61-7,5.08-8.25,7.41l-.8-.89v3.79h0c0,2.6,2,5.17,6,7.69L380,468.35l-3.73-1.71v3.87l3.35,1.94,6.55-3.78a28.58,28.58,0,0,0,13.24,2.64A26.3,26.3,0,0,0,411.88,468a21.14,21.14,0,0,0,4.43-3.29,10.67,10.67,0,0,0,2.46-3.58,13.55,13.55,0,0,0,.91-3.54,19,19,0,0,0,0-3.75l-.56-5c-.09-1-.13-1.73-.13-2.18a10,10,0,0,1,.24-1.89,4.38,4.38,0,0,1,1.12-2.15,10.44,10.44,0,0,1,2.41-1.82,9.8,9.8,0,0,1,3.71-1.18,6,6,0,0,1,3.71.62,3.43,3.43,0,0,1,1.16.89,1.07,1.07,0,0,1,.2.65l-5.76,1.2v3.87L437.46,452q1.43-.9,2.55-1.68a24.31,24.31,0,0,0,2.35-1.88,13.9,13.9,0,0,0,2-2.11,7.44,7.44,0,0,0,1.11-2.28,5,5,0,0,0,.19-1.16h0v-.06s0,0,0-.05v-4l-1.49.31-.05-.08a13.78,13.78,0,0,0-3.11-2.66l6.12-3.54Z"/><path class="cls-8" d="M376.25,466.64l6.48-3.74q-6.65-4.21-5.95-8.57t9-9.43l11.79,5q-5,3-6.16,5t1.17,3.33q3,1.75,6.94-.51a9.88,9.88,0,0,0,3.24-2.77A6.46,6.46,0,0,0,404,452a15.41,15.41,0,0,0-.13-3.61l-.65-5.15a16.89,16.89,0,0,1-.13-3.24,10.5,10.5,0,0,1,.72-3,8.68,8.68,0,0,1,2.18-3.12,20.93,20.93,0,0,1,4.07-3,26.79,26.79,0,0,1,13.49-3.65,31.18,31.18,0,0,1,14,3.27l6.16-3.55,3.42,2L441,432.51a13.77,13.77,0,0,1,3.11,2.66,6.7,6.7,0,0,1,1.42,2.55,4.65,4.65,0,0,1-.08,2.46,7.44,7.44,0,0,1-1.11,2.28,13.9,13.9,0,0,1-2,2.11,24.27,24.27,0,0,1-2.35,1.88q-1.12.78-2.55,1.68l-11.66-5.19q1.33-.81,2.18-1.35t1.73-1.2a7.14,7.14,0,0,0,1.27-1.15,3.13,3.13,0,0,0,.55-1,1.06,1.06,0,0,0-.18-1,3.44,3.44,0,0,0-1.16-.89,6,6,0,0,0-3.71-.62,9.8,9.8,0,0,0-3.71,1.18,10.44,10.44,0,0,0-2.41,1.82,4.38,4.38,0,0,0-1.12,2.15,10,10,0,0,0-.24,1.89c0,.45,0,1.18.13,2.18l.56,5a19,19,0,0,1,0,3.75,13.55,13.55,0,0,1-.91,3.54,10.68,10.68,0,0,1-2.46,3.58,21.15,21.15,0,0,1-4.43,3.29,26.3,26.3,0,0,1-12.49,3.36,28.59,28.59,0,0,1-13.24-2.64l-6.55,3.78Z"/><path class="cls-5" d="M514,432.07h-4.18c-4.69-9.22-13.34-17.91-25.94-25.19-40.16-23.19-105.27-23.19-145.43,0-12.6,7.27-21.24,16-25.94,25.19h-4.18v16.79h0c0,15.19,10,30.39,30.12,42,40.16,23.19,105.27,23.19,145.43,0C504,479.25,514,464.05,514,448.86h0Z"/><path class="cls-8" d="M388.9,390.91c-18.47,2.36-36,7.67-50.41,16-12.6,7.27-21.24,16-25.94,25.19h-4.18v16.79c0,15.19,10,30.39,30.12,42,14.37,8.3,31.94,13.61,50.41,16Z"/><path class="cls-4" d="M484.2,490.67C504.08,479.1,514,464,514,448.86V432.07h-4.18c-4-7.86-10.9-15.33-20.64-21.87h-5Z"/><g class="cls-14"><path class="cls-4" d="M508.74,430.11a49.1,49.1,0,0,0-4.46-6.46v50.46a49,49,0,0,0,4.46-6.46Z"/><path class="cls-4" d="M338.48,406.88a81,81,0,0,0-14.36,10.43v63.12c1.4,1.28,2.87,2.55,4.46,3.78V415.79H337v74.14c.5.3,1,.61,1.5.91,1,.56,2,1.09,3,1.63V415.79h8.41v80.71q2.2.95,4.46,1.82V415.79h8.41v85.43q2.21.68,4.46,1.3V415.79h8.41v88.76q2.22.47,4.46.88V415.79h8.41v91q2.22.29,4.46.52V415.79h8.41V508c1.48.08,3,.14,4.46.18V415.79h8.41v92.4q2.23,0,4.46-.13V415.79h8.41v91.72c1.49-.13,3-.28,4.46-.46V415.79h8.41v90.08q2.24-.38,4.46-.82V415.79h8.41v87.36q2.25-.57,4.46-1.21V415.79h8.41v83.42q2.26-.82,4.46-1.71V415.79h8.41v77.91q2.27-1.14,4.46-2.37V415.79h8.41V486c1.57-1.13,3.05-2.29,4.46-3.47V415.79h.74a83.5,83.5,0,0,0-12.7-8.92,123.75,123.75,0,0,0-31.56-12.42H370A123.75,123.75,0,0,0,338.48,406.88Z"/><path class="cls-4" d="M315.71,426.86a46.06,46.06,0,0,0-3.16,5.21h-1.3v30.78a44.09,44.09,0,0,0,4.46,8.07Z"/></g><path class="cls-8" d="M483.92,474c-40.16,23.19-105.27,23.19-145.43,0s-40.16-60.78,0-84,105.27-23.19,145.43,0S524.07,450.86,483.92,474Z"/><path class="cls-15" d="M434.24,442.21c29.56-17.07,37.33-41.94,23.37-63.13-38.58-11.27-86.89-7.61-119.12,11-29.56,17.07-37.33,41.94-23.37,63.13C353.7,464.48,402,460.82,434.24,442.21Z"/><path class="cls-16" d="M483.92,474c-40.16,23.19-105.27,23.18-145.43,0-19.41-11.2-29.41-25.77-30.06-40.45-.7,15.7,9.3,31.53,30.06,43.51,40.16,23.19,105.27,23.19,145.43,0,20.75-12,30.75-27.81,30.06-43.51C513.32,448.28,503.32,462.85,483.92,474Z"/><path class="cls-4" d="M462.82,461.87c-28.51,16.46-74.72,16.46-103.23,0s-28.51-43.14,0-59.6,74.72-16.46,103.23,0S491.32,445.41,462.82,461.87Z"/><path class="cls-5" d="M359.58,406.11c28.51-16.46,74.72-16.46,103.23,0,13.41,7.74,20.5,17.74,21.3,27.88.9-11.42-6.2-23-21.3-31.73-28.51-16.46-74.72-16.46-103.23,0-15.1,8.72-22.2,20.31-21.3,31.72C339.08,423.85,346.18,413.85,359.58,406.11Z"/><path class="cls-5" d="M447.1,412.17l-5.66,1.62,1.61.64-5.52,3.19a31.18,31.18,0,0,0-14-3.27A26.79,26.79,0,0,0,410,418a20.94,20.94,0,0,0-4.07,3,8.68,8.68,0,0,0-2.18,3.12,10.5,10.5,0,0,0-.72,3,16.89,16.89,0,0,0,.13,3.24l.65,5.15a15.41,15.41,0,0,1,.13,3.61,6.46,6.46,0,0,1-1.22,2.93,9.88,9.88,0,0,1-3.24,2.77q-3.91,2.26-6.94.51-2.31-1.33-1.17-3.33t6.16-5V433.1l-4.84,1.81-7-3c-4.26,2.61-7,5.08-8.25,7.41l-.8-.89v3.79h0c0,2.6,2,5.17,6,7.69L380,451.55l-3.73-1.71v3.87l3.35,1.94,6.55-3.78a28.59,28.59,0,0,0,13.24,2.64,26.3,26.3,0,0,0,12.49-3.36,21.14,21.14,0,0,0,4.43-3.29,10.67,10.67,0,0,0,2.46-3.58,13.55,13.55,0,0,0,.91-3.54,19,19,0,0,0,0-3.75l-.56-5c-.09-1-.13-1.73-.13-2.18a10,10,0,0,1,.24-1.89,4.38,4.38,0,0,1,1.12-2.15,10.44,10.44,0,0,1,2.41-1.82,9.79,9.79,0,0,1,3.71-1.18,6,6,0,0,1,3.71.62,3.43,3.43,0,0,1,1.16.89,1.06,1.06,0,0,1,.2.65l-5.76,1.2V430l11.66,5.19q1.43-.9,2.55-1.68a24.31,24.31,0,0,0,2.35-1.88,13.9,13.9,0,0,0,2-2.11,7.44,7.44,0,0,0,1.11-2.28,5,5,0,0,0,.19-1.16h0V426s0,0,0-.05v-4l-1.49.31-.05-.08a13.78,13.78,0,0,0-3.11-2.66L447.1,416Z"/><path class="cls-8" d="M376.25,449.84l6.48-3.74q-6.65-4.21-5.95-8.57t9-9.43l11.79,5q-5,3-6.16,5t1.17,3.33q3,1.75,6.94-.51a9.87,9.87,0,0,0,3.24-2.77,6.46,6.46,0,0,0,1.22-2.93,15.41,15.41,0,0,0-.13-3.61l-.65-5.15a16.88,16.88,0,0,1-.13-3.24,10.5,10.5,0,0,1,.72-3,8.68,8.68,0,0,1,2.18-3.12,20.92,20.92,0,0,1,4.07-3,26.79,26.79,0,0,1,13.49-3.65,31.18,31.18,0,0,1,14,3.27l6.16-3.55,3.42,2L441,415.7a13.78,13.78,0,0,1,3.11,2.66,6.7,6.7,0,0,1,1.42,2.55,4.65,4.65,0,0,1-.08,2.46,7.44,7.44,0,0,1-1.11,2.28,13.9,13.9,0,0,1-2,2.11,24.31,24.31,0,0,1-2.35,1.88q-1.12.78-2.55,1.68l-11.66-5.19q1.33-.81,2.18-1.35t1.73-1.2a7.14,7.14,0,0,0,1.27-1.15,3.13,3.13,0,0,0,.55-1,1.06,1.06,0,0,0-.18-1,3.43,3.43,0,0,0-1.16-.89,6,6,0,0,0-3.71-.62,9.79,9.79,0,0,0-3.71,1.18,10.44,10.44,0,0,0-2.41,1.82,4.38,4.38,0,0,0-1.12,2.15A10,10,0,0,0,419,426c0,.45,0,1.18.13,2.18l.56,5a19,19,0,0,1,0,3.75,13.55,13.55,0,0,1-.91,3.54,10.67,10.67,0,0,1-2.46,3.58,21.14,21.14,0,0,1-4.43,3.29,26.3,26.3,0,0,1-12.49,3.36A28.58,28.58,0,0,1,386.15,448l-6.55,3.78Z"/><path class="cls-5" d="M499.64,424.16h-4.18c-4.69-9.22-13.34-17.91-25.94-25.19-40.16-23.19-105.27-23.19-145.43,0-12.6,7.27-21.24,16-25.94,25.19H294V441h0c0,15.19,10,30.39,30.12,42,40.16,23.19,105.27,23.19,145.43,0,20.08-11.59,30.12-26.79,30.12-42h0Z"/><path class="cls-8" d="M374.5,383c-18.47,2.36-36,7.67-50.41,16-12.6,7.27-21.24,16-25.94,25.19H294V441c0,15.19,10,30.39,30.12,42,14.37,8.3,31.94,13.61,50.41,16Z"/><path class="cls-4" d="M469.8,482.77c19.89-11.57,29.84-26.69,29.84-41.81V424.16h-4.18c-4-7.86-10.9-15.33-20.64-21.87h-5Z"/><g class="cls-14"><path class="cls-4" d="M494.34,422.21a49.08,49.08,0,0,0-4.46-6.46v50.46a49,49,0,0,0,4.46-6.46Z"/><path class="cls-4" d="M324.09,399a81,81,0,0,0-14.36,10.43v63.12c1.4,1.28,2.87,2.55,4.46,3.78V407.89h8.41V482c.5.3,1,.61,1.5.91,1,.56,2,1.09,3,1.63V407.89h8.41v80.71q2.2.95,4.46,1.82V407.89h8.41v85.43q2.21.68,4.46,1.3V407.89h8.41v88.76q2.22.47,4.46.88V407.89h8.41v91q2.22.29,4.46.52V407.89h8.41v92.16c1.48.08,3,.14,4.46.18V407.89h8.41v92.4q2.23,0,4.46-.13V407.89h8.41v91.72c1.49-.13,3-.28,4.46-.46V407.89h8.41V498q2.24-.38,4.46-.81V407.89h8.41v87.36q2.25-.57,4.46-1.21V407.89h8.41v83.42q2.26-.82,4.46-1.71V407.89h8.41v77.91q2.27-1.14,4.46-2.37V407.89H477v70.21c1.57-1.13,3.05-2.29,4.46-3.47V407.89h.74a83.53,83.53,0,0,0-12.7-8.92A123.76,123.76,0,0,0,438,386.55H355.64A123.76,123.76,0,0,0,324.09,399Z"/><path class="cls-4" d="M301.31,419a46,46,0,0,0-3.16,5.21h-1.3v30.78a44.09,44.09,0,0,0,4.46,8.07Z"/></g><path class="cls-8" d="M469.52,466.15c-40.16,23.19-105.27,23.19-145.43,0s-40.16-60.78,0-84,105.27-23.19,145.43,0S509.68,443,469.52,466.15Z"/><path class="cls-15" d="M419.84,434.31c29.56-17.07,37.33-41.94,23.37-63.13-38.58-11.27-86.89-7.61-119.12,11-29.56,17.07-37.33,41.94-23.37,63.13C339.3,456.58,387.6,452.92,419.84,434.31Z"/><path class="cls-16" d="M469.52,466.15c-40.16,23.19-105.27,23.18-145.43,0-19.41-11.2-29.41-25.77-30.06-40.45-.7,15.7,9.3,31.53,30.06,43.51,40.16,23.19,105.27,23.19,145.43,0,20.75-12,30.75-27.81,30.06-43.51C498.92,440.38,488.92,454.94,469.52,466.15Z"/><path class="cls-4" d="M448.42,454c-28.51,16.46-74.72,16.46-103.23,0s-28.51-43.14,0-59.6,74.72-16.46,103.23,0S476.92,437.51,448.42,454Z"/><path class="cls-5" d="M345.19,398.21c28.51-16.46,74.72-16.46,103.23,0,13.41,7.74,20.5,17.74,21.3,27.88.9-11.42-6.2-23-21.3-31.73-28.51-16.46-74.72-16.46-103.23,0-15.1,8.72-22.2,20.31-21.3,31.72C324.68,416,331.78,406,345.19,398.21Z"/><path class="cls-5" d="M432.7,404.26,427,405.88l1.61.64-5.52,3.19a31.18,31.18,0,0,0-14-3.27,26.79,26.79,0,0,0-13.49,3.65,20.92,20.92,0,0,0-4.07,3,8.68,8.68,0,0,0-2.18,3.12,10.5,10.5,0,0,0-.72,3,16.86,16.86,0,0,0,.13,3.24l.65,5.15a15.41,15.41,0,0,1,.13,3.61,6.46,6.46,0,0,1-1.22,2.93,9.87,9.87,0,0,1-3.24,2.77q-3.91,2.26-6.94.51Q375.86,436,377,434t6.16-5V425.2L378.32,427l-7-3c-4.26,2.61-7,5.08-8.25,7.41l-.8-.89v3.79h0c0,2.6,2,5.17,6,7.69l-2.75,1.59-3.73-1.71v3.87l3.35,1.94,6.55-3.78A28.58,28.58,0,0,0,385,446.6a26.3,26.3,0,0,0,12.49-3.36,21.14,21.14,0,0,0,4.43-3.29,10.68,10.68,0,0,0,2.46-3.58,13.54,13.54,0,0,0,.91-3.54,19,19,0,0,0,0-3.75l-.56-5c-.09-1-.13-1.73-.13-2.18a10,10,0,0,1,.24-1.89,4.38,4.38,0,0,1,1.12-2.15,10.45,10.45,0,0,1,2.41-1.82,9.8,9.8,0,0,1,3.71-1.18,6,6,0,0,1,3.71.62,3.44,3.44,0,0,1,1.16.89,1.07,1.07,0,0,1,.2.65l-5.76,1.2v3.87l11.66,5.19q1.43-.9,2.55-1.68a24.31,24.31,0,0,0,2.35-1.88,13.9,13.9,0,0,0,2-2.11,7.43,7.43,0,0,0,1.11-2.28,5,5,0,0,0,.19-1.15h0v-.06s0,0,0-.05v-4l-1.49.31-.05-.08a13.78,13.78,0,0,0-3.11-2.66l6.12-3.54Z"/><path class="cls-8" d="M361.85,441.94l6.48-3.74q-6.65-4.21-5.95-8.57t9-9.43l11.79,5q-5,3-6.16,5t1.17,3.33q3,1.75,6.94-.51a9.88,9.88,0,0,0,3.24-2.77,6.46,6.46,0,0,0,1.22-2.93,15.4,15.4,0,0,0-.13-3.61l-.65-5.15a16.89,16.89,0,0,1-.13-3.24,10.5,10.5,0,0,1,.72-3,8.68,8.68,0,0,1,2.18-3.12,20.93,20.93,0,0,1,4.07-3,26.79,26.79,0,0,1,13.49-3.65,31.18,31.18,0,0,1,14,3.27l6.16-3.55,3.42,2-6.12,3.54a13.78,13.78,0,0,1,3.11,2.66,6.7,6.7,0,0,1,1.42,2.55,4.65,4.65,0,0,1-.08,2.46,7.43,7.43,0,0,1-1.11,2.28,13.9,13.9,0,0,1-2,2.11,24.27,24.27,0,0,1-2.35,1.88q-1.12.78-2.55,1.68l-11.66-5.19q1.33-.81,2.18-1.35t1.73-1.2a7.15,7.15,0,0,0,1.27-1.15,3.13,3.13,0,0,0,.55-1,1.06,1.06,0,0,0-.18-1,3.44,3.44,0,0,0-1.16-.89,6,6,0,0,0-3.71-.62,9.79,9.79,0,0,0-3.71,1.18A10.45,10.45,0,0,0,406,414a4.39,4.39,0,0,0-1.12,2.15,10,10,0,0,0-.24,1.89c0,.45,0,1.18.13,2.18l.56,5a19,19,0,0,1,0,3.75,13.54,13.54,0,0,1-.91,3.54,10.68,10.68,0,0,1-2.46,3.58,21.13,21.13,0,0,1-4.43,3.29A26.3,26.3,0,0,1,385,442.73a28.59,28.59,0,0,1-13.24-2.64l-6.55,3.78Z"/><path class="cls-5" d="M514,398.45h-4.18c-4.69-9.22-13.34-17.91-25.94-25.19-40.16-23.19-105.27-23.19-145.43,0-12.6,7.27-21.24,16-25.94,25.19h-4.18v16.79h0c0,15.19,10,30.39,30.12,42,40.16,23.19,105.27,23.19,145.43,0C504,445.64,514,430.44,514,415.25h0Z"/><path class="cls-8" d="M388.9,357.3c-18.47,2.36-36,7.67-50.41,16-12.6,7.27-21.24,16-25.94,25.19h-4.18v16.79c0,15.19,10,30.39,30.12,42,14.37,8.3,31.94,13.61,50.41,16Z"/><path class="cls-4" d="M484.2,457.06C504.08,445.49,514,430.37,514,415.25V398.45h-4.18c-4-7.86-10.9-15.33-20.64-21.87h-5Z"/><g class="cls-14"><path class="cls-4" d="M508.74,396.5a49.11,49.11,0,0,0-4.46-6.46v50.46a49,49,0,0,0,4.46-6.46Z"/><path class="cls-4" d="M338.48,373.26a81,81,0,0,0-14.36,10.43v63.12c1.4,1.28,2.87,2.55,4.46,3.78V382.18H337v74.14c.5.3,1,.61,1.5.91,1,.56,2,1.09,3,1.63V382.18h8.41V462.9q2.2.95,4.46,1.82V382.18h8.41v85.43q2.21.68,4.46,1.3V382.18h8.41v88.76q2.22.47,4.46.88V382.18h8.41v91q2.22.29,4.46.52V382.18h8.41v92.16c1.48.08,3,.14,4.46.18V382.18h8.41v92.4q2.23,0,4.46-.13V382.18h8.41V473.9c1.49-.13,3-.28,4.46-.46V382.18h8.41v90.08q2.24-.38,4.46-.81V382.18h8.41v87.36q2.25-.57,4.46-1.21V382.18h8.41V465.6q2.26-.82,4.46-1.71V382.18h8.41V460.1q2.27-1.14,4.46-2.37V382.18h8.41v70.21c1.57-1.13,3.05-2.29,4.46-3.47V382.18h.74a83.52,83.52,0,0,0-12.7-8.92,123.76,123.76,0,0,0-31.56-12.42H370A123.75,123.75,0,0,0,338.48,373.26Z"/><path class="cls-4" d="M315.71,393.25a46.08,46.08,0,0,0-3.16,5.21h-1.3v30.78a44.1,44.1,0,0,0,4.46,8.07Z"/></g><path class="cls-8" d="M483.92,440.44c-40.16,23.19-105.27,23.19-145.43,0s-40.16-60.78,0-84,105.27-23.19,145.43,0S524.07,417.25,483.92,440.44Z"/><path class="cls-15" d="M434.24,408.6c29.56-17.07,37.33-41.94,23.37-63.13-38.58-11.27-86.89-7.61-119.12,11-29.56,17.07-37.33,41.94-23.37,63.13C353.7,430.87,402,427.21,434.24,408.6Z"/><path class="cls-16" d="M483.92,440.44c-40.16,23.19-105.27,23.18-145.43,0-19.41-11.2-29.41-25.77-30.06-40.45-.7,15.7,9.3,31.53,30.06,43.51,40.16,23.19,105.27,23.19,145.43,0,20.75-12,30.75-27.81,30.06-43.51C513.32,414.67,503.32,429.23,483.92,440.44Z"/><path class="cls-4" d="M462.82,428.25c-28.51,16.46-74.72,16.46-103.23,0s-28.51-43.14,0-59.6,74.72-16.46,103.23,0S491.32,411.8,462.82,428.25Z"/><path class="cls-5" d="M359.58,372.5c28.51-16.46,74.72-16.46,103.23,0,13.41,7.74,20.5,17.74,21.3,27.88.9-11.42-6.2-23-21.3-31.73-28.51-16.46-74.72-16.46-103.23,0-15.1,8.72-22.2,20.31-21.3,31.72C339.08,390.24,346.18,380.24,359.58,372.5Z"/><path class="cls-5" d="M447.1,378.55l-5.66,1.62,1.61.64L437.52,384a31.18,31.18,0,0,0-14-3.27A26.79,26.79,0,0,0,410,384.37a20.93,20.93,0,0,0-4.07,3,8.68,8.68,0,0,0-2.18,3.12,10.5,10.5,0,0,0-.72,3,16.89,16.89,0,0,0,.13,3.24l.65,5.15a15.41,15.41,0,0,1,.13,3.61,6.46,6.46,0,0,1-1.22,2.93,9.88,9.88,0,0,1-3.24,2.77q-3.91,2.26-6.94.51-2.31-1.33-1.17-3.33t6.16-5v-3.87l-4.84,1.81-7-3c-4.26,2.61-7,5.08-8.25,7.41l-.8-.89v3.79h0c0,2.6,2,5.17,6,7.69L380,417.93l-3.73-1.71v3.87L379.6,422l6.55-3.78a28.59,28.59,0,0,0,13.24,2.64,26.3,26.3,0,0,0,12.49-3.36,21.14,21.14,0,0,0,4.43-3.29,10.67,10.67,0,0,0,2.46-3.58,13.55,13.55,0,0,0,.91-3.54,19,19,0,0,0,0-3.75l-.56-5c-.09-1-.13-1.73-.13-2.18a10,10,0,0,1,.24-1.89,4.38,4.38,0,0,1,1.12-2.15,10.45,10.45,0,0,1,2.41-1.82,9.79,9.79,0,0,1,3.71-1.18,6,6,0,0,1,3.71.62,3.43,3.43,0,0,1,1.16.89,1.07,1.07,0,0,1,.2.65l-5.76,1.2v3.87l11.66,5.19q1.43-.9,2.55-1.68a24.31,24.31,0,0,0,2.35-1.88,13.9,13.9,0,0,0,2-2.11,7.44,7.44,0,0,0,1.11-2.28,5,5,0,0,0,.19-1.16h0v-.06s0,0,0-.05v-4l-1.49.31-.05-.08A13.78,13.78,0,0,0,441,386l6.12-3.54Z"/><path class="cls-8" d="M376.25,416.22l6.48-3.74q-6.65-4.21-5.95-8.57t9-9.43l11.79,5q-5,3-6.16,5t1.17,3.33q3,1.75,6.94-.51a9.87,9.87,0,0,0,3.24-2.77,6.46,6.46,0,0,0,1.22-2.93,15.41,15.41,0,0,0-.13-3.61l-.65-5.15a16.89,16.89,0,0,1-.13-3.24,10.5,10.5,0,0,1,.72-3,8.68,8.68,0,0,1,2.18-3.12,20.93,20.93,0,0,1,4.07-3,26.79,26.79,0,0,1,13.49-3.65,31.18,31.18,0,0,1,14,3.27l6.16-3.55,3.42,2L441,382.09a13.78,13.78,0,0,1,3.11,2.66,6.7,6.7,0,0,1,1.42,2.55,4.65,4.65,0,0,1-.08,2.46,7.44,7.44,0,0,1-1.11,2.28,13.9,13.9,0,0,1-2,2.11A24.27,24.27,0,0,1,440,396q-1.12.78-2.55,1.68l-11.66-5.19q1.33-.81,2.18-1.35t1.73-1.2A7.14,7.14,0,0,0,431,388.8a3.13,3.13,0,0,0,.55-1,1.06,1.06,0,0,0-.18-1,3.44,3.44,0,0,0-1.16-.89,6,6,0,0,0-3.71-.62,9.8,9.8,0,0,0-3.71,1.18,10.44,10.44,0,0,0-2.41,1.82,4.38,4.38,0,0,0-1.12,2.15,10,10,0,0,0-.24,1.89c0,.45,0,1.18.13,2.18l.56,5a19,19,0,0,1,0,3.75,13.55,13.55,0,0,1-.91,3.54,10.68,10.68,0,0,1-2.46,3.58,21.15,21.15,0,0,1-4.43,3.29A26.3,26.3,0,0,1,399.39,417a28.59,28.59,0,0,1-13.24-2.64l-6.55,3.78Z"/><path class="cls-5" d="M670,540.43h-4.18c-4.69-9.22-13.34-17.91-25.94-25.19-40.16-23.19-105.27-23.19-145.43,0-12.6,7.27-21.24,16-25.94,25.19h-4.18v16.79h0c0,15.19,10,30.39,30.12,42,40.16,23.19,105.27,23.19,145.43,0C660,587.61,670,572.41,670,557.22h0Z"/><path class="cls-8" d="M544.86,499.27c-18.47,2.36-36,7.67-50.41,16-12.6,7.27-21.24,16-25.94,25.19h-4.18v16.79c0,15.19,10,30.39,30.12,42,14.37,8.3,31.94,13.61,50.41,16Z"/><path class="cls-4" d="M640.16,599C660.05,587.46,670,572.34,670,557.22V540.43h-4.18c-4-7.86-10.9-15.33-20.64-21.87h-5Z"/><g class="cls-14"><path class="cls-4" d="M664.71,538.47a49.09,49.09,0,0,0-4.46-6.46v50.46a49,49,0,0,0,4.46-6.46Z"/><path class="cls-4" d="M494.45,515.24a81,81,0,0,0-14.36,10.43v63.12c1.4,1.28,2.87,2.55,4.46,3.78V524.16H493v74.14c.5.3,1,.61,1.5.91,1,.56,2,1.09,3,1.63V524.16h8.41v80.71q2.2.95,4.46,1.82V524.16h8.41v85.43q2.21.68,4.46,1.3V524.16h8.41v88.76q2.22.47,4.46.88V524.16h8.41v91q2.22.29,4.46.52V524.16h8.41v92.16c1.48.08,3,.14,4.46.18V524.16h8.41v92.4q2.23,0,4.46-.13V524.16H583v91.72c1.49-.13,3-.28,4.46-.46V524.16h8.41v90.08q2.24-.38,4.46-.81V524.16h8.41v87.36q2.25-.57,4.46-1.21V524.16h8.41v83.42q2.26-.82,4.46-1.71V524.16h8.41v77.91q2.27-1.14,4.46-2.37V524.16h8.41v70.21c1.57-1.13,3.05-2.29,4.46-3.47V524.16h.74a83.52,83.52,0,0,0-12.7-8.92,123.75,123.75,0,0,0-31.55-12.42H526A123.75,123.75,0,0,0,494.45,515.24Z"/><path class="cls-4" d="M471.68,535.22a46.08,46.08,0,0,0-3.16,5.21h-1.3v30.78a44.12,44.12,0,0,0,4.46,8.07Z"/></g><path class="cls-8" d="M639.88,582.41c-40.16,23.19-105.27,23.19-145.43,0s-40.16-60.78,0-84,105.27-23.19,145.43,0S680,559.22,639.88,582.41Z"/><path class="cls-15" d="M590.2,550.57c29.56-17.07,37.33-41.94,23.37-63.13-38.58-11.27-86.89-7.61-119.12,11-29.56,17.07-37.33,41.94-23.37,63.13C509.66,572.84,558,569.19,590.2,550.57Z"/><path class="cls-16" d="M639.88,582.41c-40.16,23.19-105.27,23.18-145.43,0C475,571.2,465,556.64,464.4,542c-.7,15.7,9.3,31.53,30.06,43.51,40.16,23.19,105.27,23.19,145.43,0,20.75-12,30.75-27.81,30.06-43.51C669.29,556.64,659.29,571.21,639.88,582.41Z"/><path class="cls-4" d="M618.78,570.23c-28.51,16.46-74.72,16.46-103.23,0s-28.51-43.14,0-59.6,74.72-16.46,103.23,0S647.29,553.77,618.78,570.23Z"/><path class="cls-5" d="M515.55,514.47c28.51-16.46,74.72-16.46,103.23,0,13.41,7.74,20.5,17.74,21.3,27.88.9-11.42-6.2-23-21.3-31.73-28.51-16.46-74.72-16.46-103.23,0-15.1,8.72-22.2,20.31-21.3,31.72C495,532.21,502.15,522.21,515.55,514.47Z"/><path class="cls-5" d="M603.07,520.53l-5.66,1.62,1.61.64L593.49,526a31.18,31.18,0,0,0-14-3.27A26.79,26.79,0,0,0,566,526.35a20.93,20.93,0,0,0-4.07,3,8.67,8.67,0,0,0-2.18,3.12,10.5,10.5,0,0,0-.72,3,16.89,16.89,0,0,0,.13,3.24l.65,5.15a15.43,15.43,0,0,1,.13,3.61,6.46,6.46,0,0,1-1.22,2.93,9.87,9.87,0,0,1-3.24,2.77q-3.91,2.26-6.94.51-2.31-1.33-1.17-3.33t6.16-5v-3.87l-4.84,1.81-7-3c-4.26,2.61-7,5.08-8.25,7.41l-.8-.89v3.79h0c0,2.6,2,5.17,6,7.69l-2.75,1.59-3.73-1.71v3.87l3.35,1.94,6.55-3.78a28.59,28.59,0,0,0,13.24,2.64,26.3,26.3,0,0,0,12.49-3.36,21.13,21.13,0,0,0,4.43-3.29,10.68,10.68,0,0,0,2.46-3.58,13.55,13.55,0,0,0,.91-3.54,19,19,0,0,0,0-3.75l-.56-5c-.09-1-.13-1.73-.13-2.18a10,10,0,0,1,.24-1.89,4.38,4.38,0,0,1,1.12-2.15,10.45,10.45,0,0,1,2.41-1.82,9.79,9.79,0,0,1,3.71-1.18,6,6,0,0,1,3.71.62,3.43,3.43,0,0,1,1.16.89,1.07,1.07,0,0,1,.2.65l-5.76,1.2v3.87l11.66,5.19q1.43-.9,2.55-1.68a24.31,24.31,0,0,0,2.35-1.88,13.9,13.9,0,0,0,2-2.11,7.44,7.44,0,0,0,1.11-2.28,5,5,0,0,0,.19-1.16h0v-.06s0,0,0-.05v-4l-1.49.31-.05-.08a13.78,13.78,0,0,0-3.11-2.66l6.12-3.54Z"/><path class="cls-8" d="M532.21,558.2l6.48-3.74q-6.65-4.21-5.95-8.57t9-9.43l11.79,5q-5,3-6.16,5t1.17,3.33q3,1.75,6.94-.51a9.87,9.87,0,0,0,3.24-2.77,6.46,6.46,0,0,0,1.22-2.93,15.43,15.43,0,0,0-.13-3.61l-.65-5.15a16.88,16.88,0,0,1-.13-3.24,10.49,10.49,0,0,1,.72-3,8.67,8.67,0,0,1,2.18-3.12,20.92,20.92,0,0,1,4.07-3,26.79,26.79,0,0,1,13.49-3.65,31.18,31.18,0,0,1,14,3.27l6.16-3.55,3.42,2-6.12,3.54a13.78,13.78,0,0,1,3.11,2.66,6.7,6.7,0,0,1,1.42,2.55,4.64,4.64,0,0,1-.08,2.46,7.44,7.44,0,0,1-1.11,2.28,13.9,13.9,0,0,1-2,2.11A24.28,24.28,0,0,1,596,538q-1.12.78-2.55,1.68l-11.66-5.19q1.33-.81,2.18-1.35t1.73-1.2a7.12,7.12,0,0,0,1.27-1.15,3.14,3.14,0,0,0,.55-1,1.06,1.06,0,0,0-.18-1,3.44,3.44,0,0,0-1.16-.89,6,6,0,0,0-3.71-.62,9.8,9.8,0,0,0-3.71,1.18,10.44,10.44,0,0,0-2.41,1.82,4.38,4.38,0,0,0-1.12,2.15,10,10,0,0,0-.24,1.89c0,.45,0,1.18.13,2.18l.56,5a19,19,0,0,1,0,3.75,13.55,13.55,0,0,1-.91,3.54,10.68,10.68,0,0,1-2.46,3.58,21.14,21.14,0,0,1-4.43,3.29A26.3,26.3,0,0,1,555.36,559a28.59,28.59,0,0,1-13.24-2.64l-6.55,3.78Z"/><path class="cls-5" d="M682.34,515.22h-4.18c-4.69-9.22-13.34-17.91-25.94-25.19-40.16-23.19-105.27-23.19-145.43,0-12.6,7.27-21.24,16-25.94,25.19h-4.18V532h0c0,15.19,10,30.39,30.12,42,40.16,23.19,105.27,23.19,145.43,0,20.08-11.59,30.12-26.79,30.12-42h0Z"/><path class="cls-8" d="M557.21,474.07c-18.47,2.36-36,7.67-50.41,16-12.6,7.27-21.24,16-25.94,25.19h-4.18V532c0,15.19,10,30.39,30.12,42,14.37,8.3,31.94,13.61,50.41,16Z"/><path class="cls-4" d="M652.5,573.83c19.89-11.57,29.84-26.69,29.84-41.81V515.22h-4.18c-4-7.86-10.9-15.33-20.64-21.87h-5Z"/><g class="cls-14"><path class="cls-4" d="M677.05,513.27a49.1,49.1,0,0,0-4.46-6.46v50.46a49,49,0,0,0,4.46-6.46Z"/><path class="cls-4" d="M506.79,490a81,81,0,0,0-14.36,10.43v63.12c1.4,1.28,2.87,2.55,4.46,3.78V499h8.41v74.14c.5.3,1,.61,1.5.91,1,.56,2,1.09,3,1.63V499h8.41v80.71q2.2.95,4.46,1.82V499H531v85.43q2.21.68,4.46,1.3V499h8.41v88.76q2.22.47,4.46.88V499h8.41v91q2.22.29,4.46.52V499h8.41v92.16c1.48.08,3,.14,4.46.18V499h8.41v92.4q2.23,0,4.46-.13V499h8.41v91.72c1.49-.13,3-.28,4.46-.46V499h8.41V589q2.24-.38,4.46-.82V499h8.41v87.36q2.25-.57,4.46-1.21V499H634v83.42q2.26-.82,4.46-1.71V499h8.41v77.91q2.27-1.14,4.46-2.37V499h8.41v70.21c1.57-1.13,3.05-2.29,4.46-3.47V499h.74a83.52,83.52,0,0,0-12.7-8.92,123.74,123.74,0,0,0-31.56-12.42H538.35A123.75,123.75,0,0,0,506.79,490Z"/><path class="cls-4" d="M484,510a46,46,0,0,0-3.16,5.21h-1.3V546a44.08,44.08,0,0,0,4.46,8.07Z"/></g><path class="cls-8" d="M652.23,557.21c-40.16,23.19-105.27,23.19-145.43,0s-40.16-60.78,0-84,105.27-23.19,145.43,0S692.38,534,652.23,557.21Z"/><path class="cls-15" d="M602.55,525.37c29.56-17.07,37.33-41.94,23.37-63.13-38.58-11.27-86.89-7.61-119.12,11-29.56,17.07-37.33,41.94-23.37,63.13C522,547.64,570.31,544,602.55,525.37Z"/><path class="cls-16" d="M652.23,557.21c-40.16,23.19-105.27,23.18-145.43,0-19.41-11.2-29.41-25.77-30.06-40.45-.7,15.7,9.3,31.53,30.06,43.51,40.16,23.19,105.27,23.19,145.43,0,20.75-12,30.75-27.81,30.06-43.51C681.63,531.44,671.63,546,652.23,557.21Z"/><path class="cls-4" d="M631.13,545c-28.51,16.46-74.72,16.46-103.23,0s-28.51-43.14,0-59.6,74.72-16.46,103.23,0S659.63,528.57,631.13,545Z"/><path class="cls-5" d="M527.89,489.27c28.51-16.46,74.72-16.46,103.23,0,13.41,7.74,20.5,17.74,21.3,27.88.9-11.42-6.2-23-21.3-31.73-28.51-16.46-74.72-16.46-103.23,0-15.1,8.72-22.2,20.31-21.3,31.72C507.39,507,514.49,497,527.89,489.27Z"/><path class="cls-5" d="M615.41,495.32l-5.66,1.62,1.61.64-5.52,3.19a31.18,31.18,0,0,0-14-3.27,26.79,26.79,0,0,0-13.49,3.65,20.93,20.93,0,0,0-4.07,3,8.68,8.68,0,0,0-2.18,3.12,10.5,10.5,0,0,0-.72,3,16.89,16.89,0,0,0,.13,3.24l.65,5.15a15.4,15.4,0,0,1,.13,3.61,6.46,6.46,0,0,1-1.22,2.93,9.88,9.88,0,0,1-3.24,2.77q-3.91,2.26-6.94.51-2.31-1.33-1.17-3.33t6.16-5v-3.87L561,518.07l-7-3c-4.26,2.61-7,5.08-8.25,7.41l-.8-.89v3.79h0c0,2.6,2,5.17,6,7.69l-2.75,1.59L544.56,533v3.87l3.35,1.94,6.55-3.78a28.59,28.59,0,0,0,13.24,2.64,26.3,26.3,0,0,0,12.49-3.36,21.13,21.13,0,0,0,4.43-3.29,10.67,10.67,0,0,0,2.46-3.58,13.54,13.54,0,0,0,.91-3.54,19,19,0,0,0,0-3.75l-.56-5c-.09-1-.13-1.73-.13-2.18a10,10,0,0,1,.24-1.89,4.39,4.39,0,0,1,1.12-2.15,10.46,10.46,0,0,1,2.41-1.82,9.79,9.79,0,0,1,3.71-1.18,6,6,0,0,1,3.71.62,3.43,3.43,0,0,1,1.16.89,1.07,1.07,0,0,1,.2.65l-5.76,1.2v3.87l11.66,5.19q1.43-.9,2.55-1.68a24.36,24.36,0,0,0,2.35-1.88,13.9,13.9,0,0,0,2-2.11,7.43,7.43,0,0,0,1.11-2.28,5,5,0,0,0,.19-1.16h0v-.06s0,0,0-.05v-4l-1.49.31-.05-.08a13.78,13.78,0,0,0-3.11-2.66l6.12-3.54Z"/><path class="cls-8" d="M544.56,533l6.48-3.74q-6.65-4.21-5.95-8.57t9-9.43l11.79,5q-5,3-6.16,5t1.17,3.33q3,1.75,6.94-.51a9.88,9.88,0,0,0,3.24-2.77,6.46,6.46,0,0,0,1.22-2.93,15.4,15.4,0,0,0-.13-3.61l-.65-5.15a16.89,16.89,0,0,1-.13-3.24,10.5,10.5,0,0,1,.72-3,8.68,8.68,0,0,1,2.18-3.12,20.92,20.92,0,0,1,4.07-3,26.79,26.79,0,0,1,13.49-3.65,31.18,31.18,0,0,1,14,3.27l6.16-3.55,3.42,2-6.12,3.54a13.78,13.78,0,0,1,3.11,2.66,6.7,6.7,0,0,1,1.42,2.55,4.65,4.65,0,0,1-.08,2.46,7.43,7.43,0,0,1-1.11,2.28,13.9,13.9,0,0,1-2,2.11,24.31,24.31,0,0,1-2.35,1.88q-1.12.78-2.55,1.68l-11.66-5.19q1.33-.81,2.18-1.35t1.73-1.2a7.15,7.15,0,0,0,1.27-1.15,3.14,3.14,0,0,0,.55-1,1.06,1.06,0,0,0-.18-1,3.44,3.44,0,0,0-1.16-.89,6,6,0,0,0-3.71-.62,9.8,9.8,0,0,0-3.71,1.18,10.45,10.45,0,0,0-2.41,1.82,4.38,4.38,0,0,0-1.12,2.15,10,10,0,0,0-.24,1.89c0,.45,0,1.18.13,2.18l.56,5a19,19,0,0,1,0,3.75,13.54,13.54,0,0,1-.91,3.54,10.68,10.68,0,0,1-2.46,3.58,21.14,21.14,0,0,1-4.43,3.29,26.3,26.3,0,0,1-12.49,3.36,28.58,28.58,0,0,1-13.24-2.64l-6.55,3.78Z"/><path class="cls-17" d="M412.16,380.57c-.66,1.66-12.11,15.59-23.55,19.07-5,1.51-8.32,1.71-10.51,1.45a3.47,3.47,0,0,1-2.82-4.62,43.48,43.48,0,0,1,22-24.2C416.64,362.66,412.16,380.57,412.16,380.57Z"/><path class="cls-17" d="M416,385.92s-4.31,10.12-5.64,18.58c-.81,5.16,2,11.86,4.35,16.31a4.76,4.76,0,0,0,7.42,1.28,27.53,27.53,0,0,0,9.29-17.76c1.33-14.26,0-16.75,0-16.75Z"/><path class="cls-8" d="M443.55,213.52a271.28,271.28,0,0,1,0,37.9c-1.49,19.9-6.84,113-7.83,135.38,0,0,.5,6.78-12.63,5.29s-12.07-9-12.07-9-18.43-.25-19-11.11-18.88-129.73-18.88-172.47Z"/><path class="cls-18" d="M411,383.06a37.72,37.72,0,0,1-5.27-.55h0l-3.61-144.69Z"/><path class="cls-17" d="M424.08,82.84c30.1,12.48,29.5,30.28,29.5,30.28s-5.9,65.24-3.88,108.81c.84,18.21-96.77,19.6-82.21-29,17.16-57.29,10.73-103.68,18.77-110.67S416.29,79.61,424.08,82.84Z"/><ellipse class="cls-19" cx="418.73" cy="94.74" rx="11.43" ry="15.53" transform="translate(222.53 476.6) rotate(-75.56)"/><path class="cls-20" d="M421,107.9a21.84,21.84,0,0,1-5.44-.7c-9.06-2.34-15-9.82-13.22-16.69s10.58-10.56,19.64-8.23,15,9.82,13.22,16.69h0C433.74,104.45,427.87,107.9,421,107.9Zm-4.53-23.45c-5.59,0-10.27,2.6-11.34,6.78-1.37,5.34,3.63,11.25,11.15,13.19s14.76-.83,16.13-6.16h0c1.37-5.34-3.63-11.25-11.15-13.19A19.17,19.17,0,0,0,416.43,84.45Z"/><path class="cls-19" d="M412,81.48s.26,1.21-.26,10.75c-.16,3,10.34,5.8,13.05,3.09s1.63-5.54,2.28-15.74S412,81.48,412,81.48Z"/><path class="cls-21" d="M427.08,79.57S424.49,89,411.74,92.66l.19-8.6Z"/><circle class="cls-19" cx="412.72" cy="61.32" r="23.17" transform="translate(-2.21 105.26) rotate(-14.5)"/><path class="cls-21" d="M418,62.17s-12.76,5.47-21.59,5.53-6.89-7.34-6.89-7.34l26.22-3.79Z"/><path class="cls-7" d="M393.81,63.61s11.11-4.72,20.86-2.75a10.22,10.22,0,0,1,5.89,3.5,3.48,3.48,0,0,0,1.78,1.29c1.73.39,4.56-6.78,7.92-6.95s5.6,2.22,2.85,6.63-1.82,9.35-.56,10.06,14.72-9.59,2.85-33.09-42-10.84-46.68-6.08c0,0-4.94,4.3-9,.47C379.79,36.7,375.29,70.41,393.81,63.61Z"/><path class="cls-19" d="M371.52,77.49l-16.19-7a7.18,7.18,0,0,1-3.95-4.25l-16-46.33L328,21.23l12.92,57.65a9.72,9.72,0,0,0,4.73,6.35l27,15.14Z"/><path class="cls-19" d="M539.94,85l3.71-1.7a29.88,29.88,0,0,0,8.53-5.89l2.58-2.55a5,5,0,0,0,1.1-5.51h0A2.76,2.76,0,0,0,552.07,68l-7.76,3.92s1.21-3.43.63-4.33S538.36,73.3,535.58,78,539.94,85,539.94,85Z"/><path class="cls-19" d="M475.33,103.56,489.18,102a24.4,24.4,0,0,0,9.31-3l37.09-21,4.36,7L502,114.31a17.48,17.48,0,0,1-3.81,2.24l-22.62,9.67Z"/><path class="cls-19" d="M328,21.23l-1.41-1.63a13,13,0,0,1-3-6.64l-1-6.76A5.79,5.79,0,0,1,324.77.7L325,.57a3.5,3.5,0,0,1,5.13,1.67l3.33,8s-1.05-4.17.3-4.63c1-.34,2.86,4.83,1.75,7.71s-.06,6.57-.06,6.57Z"/><path class="cls-20" d="M403.52,77.28l-6-1.64s2.86,4.49,7,5.64,4.82-2.38,4.82-2.38Z"/><path class="cls-17" d="M394.55,78.93s-27-5.34-35.3-7.85S347.55,91.25,348.17,97s28.75,12.16,32.09,22S394.55,78.93,394.55,78.93Z"/><path class="cls-17" d="M435.9,88.89s19.76,8.48,52.84,12.61a3.56,3.56,0,0,1,2.94,2.34c1.27,3.66,3.45,11.66,1.75,19.88a7.3,7.3,0,0,1-7.23,5.75c-10.35-.07-32.64.92-36.25,10.6C445.2,152.75,435.9,88.89,435.9,88.89Z"/><circle class="cls-20" cx="431.99" cy="67.7" r="3.15"/><polygon class="cls-2" points="44.8 429.78 38.77 437.09 45.33 432.86 44.8 429.78"/><polygon class="cls-2" points="191.31 579.47 184.76 583.7 187.03 576.36 191.22 578.3 191.31 579.47"/><polygon class="cls-2" points="30.98 366.92 92.59 394.46 76.16 407.81 192.44 550.28 246.35 506.47 358.25 644.18 407.84 603.89 554.67 783.58 539.63 795.8 406.02 632.12 356.43 672.41 245.23 535.66 191.31 579.47 61.12 420.03 45.33 432.86 30.98 366.92"/><polygon class="cls-2" points="356.43 672.41 349.88 676.64 356.94 662.95 356.43 672.41"/><polygon class="cls-2" points="246.35 506.47 239.8 510.7 241.13 514.36 246.35 506.47"/><polygon class="cls-2" points="407.84 603.89 401.28 608.13 402.37 610.72 407.84 603.89"/><polygon class="cls-3" points="24.42 371.15 86.04 398.69 69.61 412.04 185.88 554.51 239.8 510.7 351.69 648.41 401.28 608.13 548.12 787.81 533.07 800.03 399.47 636.35 349.88 676.64 238.68 539.89 184.76 583.7 54.56 424.26 38.77 437.09 24.42 371.15"/><polygon class="cls-17" points="24.42 371.15 30.98 366.92 92.59 394.46 86.04 398.69 24.42 371.15"/><polygon class="cls-2" points="554.67 783.58 548.12 787.81 533.07 800.03 539.63 795.8 554.67 783.58"/><circle class="cls-3" cx="258.03" cy="74.39" r="5.95" transform="translate(97.39 289.59) rotate(-69.34)"/><rect class="cls-8" x="219.56" y="27.19" width="24.78" height="24.78" transform="translate(28.88 -79.29) rotate(20.66)"/></svg>