<svg id="Ñëîé_1" data-name="Ñëîé 1" xmlns="http://www.w3.org/2000/svg" viewBox="0 0 578.34 614.89"><defs><style>.cls-1{fill:#d4ecff;}.cls-2{fill:#721bd5;}.cls-3{fill:#b45ef4;}.cls-4{fill:#e8a200;}.cls-5{fill:#f9bf30;}.cls-6{fill:#d3008d;}.cls-7{fill:#ff2c9c;}.cls-8{fill:#fdd762;}.cls-9{fill:#8a2ae3;}.cls-10{fill:#95d359;}.cls-11{fill:#c13d1a;}.cls-12{fill:#db5126;}.cls-13{fill:#ef602e;}.cls-14{opacity:0.4;}.cls-15,.cls-16,.cls-20{fill:#fff;}.cls-15{opacity:0.2;}.cls-16{opacity:0.7;}.cls-17{fill:#983be9;}.cls-18{fill:#d8892b;}.cls-19{fill:#ffc2b0;}.cls-21{fill:#ea9c92;}</style></defs><title>ilustracao-md</title><polygon class="cls-1" points="409.73 614.89 0 378.33 15.22 368.03 424.96 604.59 409.73 614.89"/><path class="cls-1" d="M237.92,355.65c-26.16,15.11-68.58,15.1-94.75,0s-26.16-39.6,0-54.7,68.58-15.1,94.75,0S264.08,340.54,237.92,355.65Z"/><path class="cls-1" d="M357,424.07c-26.16,15.11-68.58,15.1-94.75,0s-26.16-39.6,0-54.7,68.58-15.1,94.75,0S383.18,409,357,424.07Z"/><path class="cls-1" d="M481.9,496.21c-26.16,15.11-68.58,15.1-94.75,0s-26.16-39.6,0-54.7,68.58-15.1,94.75,0S508.06,481.1,481.9,496.21Z"/><polygon class="cls-1" points="44.82 490.19 23.31 477.77 1.79 490.19 23.31 502.62 44.82 490.19"/><polygon class="cls-2" points="23.31 488.67 23.31 458.94 45.99 445.84 45.99 475.58 23.31 488.67"/><polygon class="cls-3" points="23.31 458.94 0.63 445.84 0.63 475.58 23.31 488.67 23.31 458.94"/><polygon class="cls-4" points="23.31 458.94 23.31 437.93 45.99 424.84 45.99 445.84 23.31 458.94"/><polygon class="cls-5" points="23.31 437.93 0.63 424.84 0.63 445.84 23.31 458.94 23.31 437.93"/><polygon class="cls-6" points="23.31 437.93 23.31 422.87 45.99 409.77 45.99 424.84 23.31 437.93"/><polygon class="cls-6" points="23.31 422.87 0.63 409.77 0.63 424.84 23.31 437.93 23.31 422.87"/><polygon class="cls-7" points="45.99 409.77 23.31 396.68 0.63 409.77 23.31 422.87 45.99 409.77"/><rect class="cls-8" x="557.48" y="247.95" width="4.61" height="13.4" transform="translate(672.86 859.15) rotate(-125.06)"/><rect class="cls-8" x="561.39" y="239.56" width="4.61" height="13.4" transform="translate(685.88 849.15) rotate(-125.06)"/><rect class="cls-8" x="565.31" y="231.18" width="4.61" height="13.4" transform="translate(698.88 839.17) rotate(-125.05)"/><rect class="cls-8" x="569.22" y="222.8" width="4.61" height="13.4" transform="translate(711.93 829.17) rotate(-125.06)"/><polygon class="cls-1" points="509.92 309.35 484.8 294.85 459.68 309.35 484.8 323.85 509.92 309.35"/><polygon class="cls-2" points="496.56 285.9 496.56 195.57 517.9 183.25 517.9 273.58 496.56 285.9"/><polygon class="cls-3" points="496.56 195.57 475.23 183.25 475.23 273.58 496.56 285.9 496.56 195.57"/><polygon class="cls-9" points="517.9 183.25 496.56 170.93 475.23 183.25 496.56 195.57 517.9 183.25"/><polygon class="cls-10" points="517.9 290.01 496.56 277.69 496.56 285.9 517.9 298.22 517.9 290.01"/><polygon class="cls-11" points="475.23 298.22 475.23 232.52 496.56 220.21 496.56 285.9 475.23 298.22"/><polygon class="cls-12" points="475.23 232.52 453.89 220.21 453.89 285.9 475.23 298.22 475.23 232.52"/><polygon class="cls-13" points="496.56 220.21 475.23 207.89 453.89 220.21 475.23 232.52 496.56 220.21"/><polygon class="cls-6" points="475.23 298.22 475.23 232.52 496.56 220.21 496.56 285.9 475.23 298.22"/><polygon class="cls-6" points="475.23 232.52 453.89 220.21 453.89 285.9 475.23 298.22 475.23 232.52"/><polygon class="cls-7" points="496.56 220.21 475.23 207.89 453.89 220.21 475.23 232.52 496.56 220.21"/><polygon class="cls-4" points="496.56 310.54 496.56 273.58 517.9 261.27 517.9 298.22 496.56 310.54"/><polygon class="cls-5" points="496.56 273.58 475.23 261.27 475.23 298.22 496.56 310.54 496.56 273.58"/><polygon class="cls-8" points="517.9 261.27 496.56 248.95 475.23 261.27 496.56 273.58 517.9 261.27"/><polygon class="cls-1" points="113.1 120.29 91.64 107.9 70.18 120.29 91.64 132.68 113.1 120.29"/><polygon class="cls-4" points="91.64 121.19 91.64 107.23 117.28 92.42 117.28 106.38 91.64 121.19"/><polygon class="cls-5" points="91.64 107.23 66 92.42 66 106.38 91.64 121.19 91.64 107.23"/><polygon class="cls-8" points="117.28 92.42 91.64 77.62 66 92.42 91.64 107.23 117.28 92.42"/><polygon class="cls-4" points="108.64 92.42 91.64 82.61 74.64 92.42 91.64 102.24 108.64 92.42"/><polygon class="cls-6" points="91.64 94.28 91.64 80.32 117.28 65.52 117.28 79.48 91.64 94.28"/><polygon class="cls-6" points="91.64 80.32 66 65.52 66 79.48 91.64 94.28 91.64 80.32"/><polygon class="cls-7" points="117.28 65.52 91.64 50.71 66 65.52 91.64 80.32 117.28 65.52"/><rect class="cls-3" x="422.91" y="542.37" width="19.44" height="4.09" transform="translate(-258.25 465.37) rotate(-45)"/><rect class="cls-3" x="430.58" y="534.7" width="4.09" height="19.44" transform="translate(-258.24 465.32) rotate(-45)"/><path class="cls-7" d="M422.61,170.53a18.76,18.76,0,1,1,18.75-18.75A18.78,18.78,0,0,1,422.61,170.53Zm0-33.42a14.66,14.66,0,1,0,14.66,14.66A14.68,14.68,0,0,0,422.61,137.11Z"/><circle class="cls-8" cx="405.9" cy="164.13" r="13.56"/><rect class="cls-3" x="63.15" y="183.15" width="19.44" height="4.09" transform="translate(-109.61 105.77) rotate(-45)"/><rect class="cls-3" x="70.83" y="175.48" width="4.09" height="19.44" transform="translate(-109.61 105.77) rotate(-45)"/><circle class="cls-8" cx="93.63" cy="305.15" r="9.94"/><circle class="cls-3" cx="159.25" cy="515.27" r="4.54" transform="translate(-374.01 595.87) rotate(-81.42)"/><rect class="cls-7" x="174.8" y="527.61" width="18.89" height="18.89" transform="translate(286.3 1095.59) rotate(-171.42)"/><path class="cls-5" d="M272.9,272.33h-3.19c-3.58-7-10.16-13.65-19.77-19.2-30.61-17.67-80.23-17.67-110.84,0-9.6,5.54-16.19,12.17-19.77,19.2h-3.19v12.8h0c0,11.58,7.65,23.16,23,32,30.61,17.67,80.23,17.67,110.84,0,15.3-8.84,23-20.42,23-32h0Z"/><path class="cls-8" d="M177.53,241c-14.08,1.8-27.47,5.85-38.42,12.17-9.6,5.54-16.19,12.17-19.77,19.2h-3.19v12.8c0,11.58,7.65,23.16,23,32,11,6.32,24.34,10.37,38.42,12.17Z"/><path class="cls-4" d="M250.16,317c15.16-8.82,22.74-20.34,22.74-31.87v-12.8h-3.19c-3-6-8.31-11.68-15.73-16.67h-3.82Z"/><g class="cls-14"><path class="cls-4" d="M268.87,270.84a37.39,37.39,0,0,0-3.4-4.92v38.46a37.37,37.37,0,0,0,3.4-4.93Z"/><path class="cls-4" d="M139.11,253.13a61.72,61.72,0,0,0-10.95,8v48.11c1.07,1,2.19,1.94,3.4,2.88V259.93H138v56.5c.38.23.75.47,1.14.69.74.43,1.5.83,2.26,1.24V259.93h6.41v61.52q1.68.72,3.4,1.39v-62.9h6.41V325q1.68.52,3.4,1v-66.1h6.41v67.65q1.69.36,3.4.67V259.93h6.41v69.32q1.69.22,3.4.4V259.93H187v70.24c1.13.06,2.27.11,3.4.14V259.93h6.41v70.42q1.7,0,3.4-.1V259.93h6.41v69.9c1.14-.1,2.27-.22,3.4-.35V259.93h6.41v68.65q1.71-.29,3.4-.62v-68h6.41v66.58q1.72-.44,3.4-.93V259.93H236v63.58q1.72-.62,3.4-1.3V259.93h6.41v59.38q1.73-.87,3.4-1.8V259.93h6.41v53.51c1.2-.86,2.33-1.74,3.4-2.64V259.93h.57a63.67,63.67,0,0,0-9.68-6.8,94.33,94.33,0,0,0-24-9.47H163.15A94.33,94.33,0,0,0,139.11,253.13Z"/><path class="cls-4" d="M121.75,268.36a35.06,35.06,0,0,0-2.41,4h-1v23.46a33.59,33.59,0,0,0,3.4,6.15Z"/></g><path class="cls-8" d="M249.95,304.33c-30.61,17.67-80.23,17.67-110.84,0s-30.61-46.32,0-64,80.23-17.67,110.84,0S280.56,286.66,249.95,304.33Z"/><path class="cls-15" d="M212.08,280.07c22.53-13,28.45-32,17.81-48.11-29.4-8.59-66.22-5.8-90.79,8.38-22.53,13-28.45,32-17.81,48.11C150.7,297,187.52,294.25,212.08,280.07Z"/><path class="cls-16" d="M249.95,304.33c-30.61,17.67-80.23,17.67-110.84,0-14.79-8.54-22.41-19.64-22.91-30.83-.53,12,7.09,24,22.91,33.16,30.61,17.67,80.23,17.67,110.84,0,15.82-9.13,23.44-21.2,22.91-33.16C272.36,284.69,264.74,295.79,249.95,304.33Z"/><path class="cls-4" d="M233.87,295c-21.73,12.54-57,12.54-78.68,0s-21.73-32.88,0-45.42,57-12.54,78.68,0S255.59,282.5,233.87,295Z"/><path class="cls-5" d="M155.19,252.55c21.73-12.54,57-12.54,78.68,0,10.22,5.9,15.63,13.52,16.23,21.25.69-8.7-4.72-17.53-16.23-24.18-21.73-12.54-57-12.54-78.68,0-11.51,6.64-16.92,15.48-16.23,24.18C139.56,266.07,145,258.45,155.19,252.55Z"/><path class="cls-5" d="M221.89,257.17l-4.31,1.23,1.23.49-4.21,2.43a23.77,23.77,0,0,0-10.68-2.5,20.42,20.42,0,0,0-10.28,2.78,15.94,15.94,0,0,0-3.1,2.25,6.61,6.61,0,0,0-1.66,2.38,8,8,0,0,0-.55,2.28,12.87,12.87,0,0,0,.1,2.47l.5,3.93a11.74,11.74,0,0,1,.1,2.75,4.93,4.93,0,0,1-.93,2.23,7.53,7.53,0,0,1-2.47,2.11q-3,1.72-5.29.39-1.76-1-.9-2.54t4.69-3.79v-2.95l-3.69,1.38-5.3-2.25c-3.25,2-5.33,3.87-6.29,5.65l-.61-.68v2.89h0c0,2,1.53,3.94,4.57,5.86l-2.1,1.21-2.85-1.3v2.95l2.56,1.48,5-2.88a21.79,21.79,0,0,0,10.09,2,20,20,0,0,0,9.52-2.56,16.11,16.11,0,0,0,3.38-2.51,8.14,8.14,0,0,0,1.87-2.73,10.32,10.32,0,0,0,.7-2.7,14.47,14.47,0,0,0,0-2.86l-.42-3.8c-.07-.76-.1-1.32-.1-1.66a7.61,7.61,0,0,1,.19-1.44,3.34,3.34,0,0,1,.86-1.64,8,8,0,0,1,1.84-1.39,7.47,7.47,0,0,1,2.83-.9,4.55,4.55,0,0,1,2.83.47,2.62,2.62,0,0,1,.88.68.81.81,0,0,1,.16.49l-4.39.91v2.95l8.89,4q1.09-.69,1.95-1.28a18.53,18.53,0,0,0,1.79-1.43,10.59,10.59,0,0,0,1.49-1.6,5.66,5.66,0,0,0,.85-1.73,3.84,3.84,0,0,0,.15-.88h0v0s0,0,0,0v-3l-1.13.24,0-.06a10.5,10.5,0,0,0-2.37-2l4.67-2.7Z"/><path class="cls-8" d="M167.89,285.88l4.94-2.85q-5.07-3.21-4.53-6.53t6.84-7.19l9,3.81q-3.82,2.27-4.69,3.79t.9,2.54q2.31,1.34,5.29-.39a7.53,7.53,0,0,0,2.47-2.11,4.93,4.93,0,0,0,.93-2.23,11.73,11.73,0,0,0-.1-2.75l-.5-3.93a12.87,12.87,0,0,1-.1-2.47,8,8,0,0,1,.55-2.28,6.62,6.62,0,0,1,1.66-2.38,16,16,0,0,1,3.1-2.25,20.42,20.42,0,0,1,10.28-2.78,23.77,23.77,0,0,1,10.68,2.5l4.69-2.71,2.61,1.5-4.67,2.69a10.5,10.5,0,0,1,2.37,2,5.1,5.1,0,0,1,1.08,1.94,3.54,3.54,0,0,1-.06,1.87,5.67,5.67,0,0,1-.85,1.73,10.59,10.59,0,0,1-1.49,1.6,18.53,18.53,0,0,1-1.79,1.43q-.86.6-1.95,1.28l-8.89-4q1-.62,1.66-1t1.32-.92a5.44,5.44,0,0,0,1-.87,2.39,2.39,0,0,0,.42-.77.81.81,0,0,0-.14-.75,2.62,2.62,0,0,0-.88-.68,4.56,4.56,0,0,0-2.83-.47,7.46,7.46,0,0,0-2.83.9,8,8,0,0,0-1.84,1.39,3.34,3.34,0,0,0-.86,1.64,7.61,7.61,0,0,0-.19,1.44c0,.34,0,.9.1,1.66l.42,3.8a14.47,14.47,0,0,1,0,2.86,10.32,10.32,0,0,1-.7,2.7,8.14,8.14,0,0,1-1.87,2.73,16.1,16.1,0,0,1-3.38,2.51,20,20,0,0,1-9.52,2.56,21.79,21.79,0,0,1-10.09-2l-5,2.88Z"/><path class="cls-5" d="M272.9,259.52h-3.19c-3.58-7-10.16-13.65-19.77-19.2-30.61-17.67-80.23-17.67-110.84,0-9.6,5.54-16.19,12.17-19.77,19.2h-3.19v12.8h0c0,11.58,7.65,23.16,23,32,30.61,17.67,80.23,17.67,110.84,0,15.3-8.84,23-20.42,23-32h0Z"/><path class="cls-8" d="M177.53,228.16c-14.08,1.8-27.47,5.85-38.42,12.17-9.6,5.54-16.19,12.17-19.77,19.2h-3.19v12.8c0,11.58,7.65,23.16,23,32,11,6.32,24.34,10.37,38.42,12.17Z"/><path class="cls-4" d="M250.16,304.19c15.16-8.82,22.74-20.34,22.74-31.87v-12.8h-3.19c-3-6-8.31-11.68-15.73-16.67h-3.82Z"/><g class="cls-14"><path class="cls-4" d="M268.87,258a37.4,37.4,0,0,0-3.4-4.92v38.46a37.37,37.37,0,0,0,3.4-4.93Z"/><path class="cls-4" d="M139.11,240.32a61.72,61.72,0,0,0-10.95,8v48.11c1.07,1,2.19,1.94,3.4,2.88V247.12H138v56.5c.38.23.75.47,1.14.69.74.43,1.5.83,2.26,1.24V247.12h6.41v61.52q1.68.72,3.4,1.39v-62.9h6.41v65.11q1.68.52,3.4,1v-66.1h6.41v67.65q1.69.36,3.4.67V247.12h6.41v69.32q1.69.22,3.4.4V247.12H187v70.24c1.13.06,2.27.11,3.4.14V247.12h6.41v70.42q1.7,0,3.4-.1V247.12h6.41V317c1.14-.1,2.27-.22,3.4-.35V247.12h6.41v68.65q1.71-.29,3.4-.62v-68h6.41V313.7q1.72-.44,3.4-.93V247.12H236V310.7q1.72-.62,3.4-1.3V247.12h6.41v59.38q1.73-.87,3.4-1.8V247.12h6.41v53.51c1.2-.86,2.33-1.74,3.4-2.64V247.12h.57a63.67,63.67,0,0,0-9.68-6.8,94.32,94.32,0,0,0-24-9.47H163.15A94.32,94.32,0,0,0,139.11,240.32Z"/><path class="cls-4" d="M121.75,255.56a35.09,35.09,0,0,0-2.41,4h-1V283a33.6,33.6,0,0,0,3.4,6.15Z"/></g><path class="cls-8" d="M249.95,291.52c-30.61,17.67-80.23,17.67-110.84,0s-30.61-46.32,0-64,80.23-17.67,110.84,0S280.56,273.85,249.95,291.52Z"/><path class="cls-15" d="M212.08,267.26c22.53-13,28.45-32,17.81-48.11-29.4-8.59-66.22-5.8-90.79,8.38-22.53,13-28.45,32-17.81,48.11C150.7,284.23,187.52,281.44,212.08,267.26Z"/><path class="cls-16" d="M249.95,291.52c-30.61,17.67-80.23,17.67-110.84,0-14.79-8.54-22.41-19.64-22.91-30.83-.53,12,7.09,24,22.91,33.16,30.61,17.67,80.23,17.67,110.84,0,15.82-9.13,23.44-21.2,22.91-33.16C272.36,271.88,264.74,283,249.95,291.52Z"/><path class="cls-4" d="M233.87,282.24c-21.73,12.54-57,12.54-78.68,0s-21.73-32.88,0-45.42,57-12.54,78.68,0S255.59,269.69,233.87,282.24Z"/><path class="cls-5" d="M155.19,239.74c21.73-12.54,57-12.54,78.68,0,10.22,5.9,15.63,13.52,16.23,21.25.69-8.7-4.72-17.53-16.23-24.18-21.73-12.54-57-12.54-78.68,0C143.68,243.46,138.27,252.29,139,261,139.56,253.26,145,245.64,155.19,239.74Z"/><path class="cls-5" d="M221.89,244.36l-4.31,1.23,1.23.49-4.21,2.43a23.76,23.76,0,0,0-10.68-2.5,20.42,20.42,0,0,0-10.28,2.78,16,16,0,0,0-3.1,2.25,6.62,6.62,0,0,0-1.66,2.38,8,8,0,0,0-.55,2.28,12.87,12.87,0,0,0,.1,2.47l.5,3.93a11.73,11.73,0,0,1,.1,2.75,4.93,4.93,0,0,1-.93,2.23,7.53,7.53,0,0,1-2.47,2.11q-3,1.72-5.29.39-1.76-1-.9-2.54t4.69-3.79v-2.95l-3.69,1.38-5.3-2.25c-3.25,2-5.33,3.87-6.29,5.65l-.61-.68v2.89h0c0,2,1.53,3.94,4.57,5.86l-2.1,1.21-2.85-1.3V276l2.56,1.48,5-2.88a21.79,21.79,0,0,0,10.09,2,20,20,0,0,0,9.52-2.56,16.1,16.1,0,0,0,3.38-2.51,8.14,8.14,0,0,0,1.87-2.73,10.32,10.32,0,0,0,.7-2.7,14.47,14.47,0,0,0,0-2.86l-.42-3.8c-.07-.76-.1-1.32-.1-1.66a7.61,7.61,0,0,1,.19-1.44,3.34,3.34,0,0,1,.86-1.64,8,8,0,0,1,1.84-1.39,7.47,7.47,0,0,1,2.83-.9,4.55,4.55,0,0,1,2.83.47,2.62,2.62,0,0,1,.88.68.81.81,0,0,1,.16.49l-4.39.91v2.95l8.89,4q1.09-.69,1.95-1.28a18.53,18.53,0,0,0,1.79-1.43,10.59,10.59,0,0,0,1.49-1.6,5.66,5.66,0,0,0,.85-1.73,3.84,3.84,0,0,0,.15-.88h0v0s0,0,0,0v-3l-1.13.24,0-.06a10.5,10.5,0,0,0-2.37-2l4.67-2.7Z"/><path class="cls-8" d="M167.89,273.07l4.94-2.85q-5.07-3.21-4.53-6.53t6.84-7.19l9,3.81q-3.82,2.27-4.69,3.79t.9,2.54q2.31,1.34,5.29-.39a7.53,7.53,0,0,0,2.47-2.11,4.93,4.93,0,0,0,.93-2.23,11.74,11.74,0,0,0-.1-2.75l-.5-3.93a12.87,12.87,0,0,1-.1-2.47,8,8,0,0,1,.55-2.28,6.61,6.61,0,0,1,1.66-2.38,15.94,15.94,0,0,1,3.1-2.25,20.42,20.42,0,0,1,10.28-2.78,23.77,23.77,0,0,1,10.68,2.5l4.69-2.71,2.61,1.5-4.67,2.7a10.5,10.5,0,0,1,2.37,2,5.11,5.11,0,0,1,1.08,1.94,3.54,3.54,0,0,1-.06,1.87,5.66,5.66,0,0,1-.85,1.73,10.59,10.59,0,0,1-1.49,1.6,18.53,18.53,0,0,1-1.79,1.43q-.86.6-1.95,1.28l-8.89-4q1-.62,1.66-1t1.32-.92a5.44,5.44,0,0,0,1-.87,2.39,2.39,0,0,0,.42-.77.81.81,0,0,0-.14-.75A2.62,2.62,0,0,0,209,250a4.55,4.55,0,0,0-2.83-.47,7.47,7.47,0,0,0-2.83.9,8,8,0,0,0-1.84,1.39,3.34,3.34,0,0,0-.86,1.64,7.61,7.61,0,0,0-.19,1.44c0,.34,0,.9.1,1.66l.42,3.8a14.47,14.47,0,0,1,0,2.86,10.32,10.32,0,0,1-.7,2.7,8.14,8.14,0,0,1-1.87,2.73,16.11,16.11,0,0,1-3.38,2.51,20,20,0,0,1-9.52,2.56,21.79,21.79,0,0,1-10.09-2l-5,2.88Z"/><path class="cls-5" d="M272.9,246.71h-3.19c-3.58-7-10.16-13.65-19.77-19.2-30.61-17.67-80.23-17.67-110.84,0-9.6,5.54-16.19,12.17-19.77,19.2h-3.19v12.8h0c0,11.58,7.65,23.16,23,32,30.61,17.67,80.23,17.67,110.84,0,15.3-8.84,23-20.42,23-32h0Z"/><path class="cls-8" d="M177.53,215.35c-14.08,1.8-27.47,5.85-38.42,12.17-9.6,5.54-16.19,12.17-19.77,19.2h-3.19v12.8c0,11.58,7.65,23.16,23,32,11,6.32,24.34,10.37,38.42,12.17Z"/><path class="cls-4" d="M250.16,291.38c15.16-8.82,22.74-20.34,22.74-31.87v-12.8h-3.19c-3-6-8.31-11.68-15.73-16.67h-3.82Z"/><g class="cls-14"><path class="cls-4" d="M268.87,245.22a37.39,37.39,0,0,0-3.4-4.92v38.46a37.36,37.36,0,0,0,3.4-4.93Z"/><path class="cls-4" d="M139.11,227.52a61.71,61.71,0,0,0-10.95,8v48.11c1.07,1,2.19,1.94,3.4,2.88V234.31H138v56.5c.38.23.75.47,1.14.69.74.43,1.5.83,2.26,1.24V234.31h6.41v61.52q1.68.72,3.4,1.39v-62.9h6.41v65.11q1.68.52,3.4,1v-66.1h6.41V302q1.69.36,3.4.67V234.31h6.41v69.33q1.69.22,3.4.4V234.31H187v70.24c1.13.06,2.27.11,3.4.14V234.31h6.41v70.42q1.7,0,3.4-.1V234.31h6.41v69.9c1.14-.1,2.27-.22,3.4-.35V234.31h6.41V303q1.71-.29,3.4-.62v-68h6.41v66.58q1.72-.44,3.4-.93V234.31H236v63.58q1.72-.62,3.4-1.3V234.31h6.41V293.7q1.73-.87,3.4-1.8V234.31h6.41v53.51c1.2-.86,2.33-1.74,3.4-2.64V234.31h.57a63.67,63.67,0,0,0-9.68-6.8,94.33,94.33,0,0,0-24-9.47H163.15A94.32,94.32,0,0,0,139.11,227.52Z"/><path class="cls-4" d="M121.75,242.75a35.06,35.06,0,0,0-2.41,4h-1v23.46a33.59,33.59,0,0,0,3.4,6.15Z"/></g><path class="cls-8" d="M249.95,278.71c-30.61,17.67-80.23,17.67-110.84,0s-30.61-46.32,0-64,80.23-17.67,110.84,0S280.56,261,249.95,278.71Z"/><path class="cls-15" d="M212.08,254.45c22.53-13,28.45-32,17.81-48.11-29.4-8.59-66.22-5.8-90.79,8.38-22.53,13-28.45,32-17.81,48.11C150.7,271.42,187.52,268.63,212.08,254.45Z"/><path class="cls-16" d="M249.95,278.71c-30.61,17.67-80.23,17.67-110.84,0-14.79-8.54-22.41-19.64-22.91-30.83-.53,12,7.09,24,22.91,33.16,30.61,17.67,80.23,17.67,110.84,0,15.82-9.13,23.44-21.2,22.91-33.16C272.36,259.07,264.74,270.17,249.95,278.71Z"/><path class="cls-4" d="M233.87,269.43c-21.73,12.54-57,12.54-78.68,0s-21.73-32.88,0-45.42,57-12.54,78.68,0S255.59,256.88,233.87,269.43Z"/><path class="cls-5" d="M155.19,226.93c21.73-12.54,57-12.54,78.68,0,10.22,5.9,15.63,13.52,16.23,21.25.69-8.7-4.72-17.53-16.23-24.18-21.73-12.54-57-12.54-78.68,0-11.51,6.64-16.92,15.48-16.23,24.18C139.56,240.45,145,232.83,155.19,226.93Z"/><path class="cls-5" d="M221.89,231.55l-4.31,1.23,1.23.49-4.21,2.43a23.77,23.77,0,0,0-10.68-2.5A20.42,20.42,0,0,0,193.63,236a16,16,0,0,0-3.1,2.25,6.62,6.62,0,0,0-1.66,2.38,8,8,0,0,0-.55,2.28,12.87,12.87,0,0,0,.1,2.47l.5,3.93A11.73,11.73,0,0,1,189,252a4.93,4.93,0,0,1-.93,2.23,7.53,7.53,0,0,1-2.47,2.11q-3,1.72-5.29.39-1.76-1-.9-2.54t4.69-3.79V247.5l-3.69,1.38-5.3-2.25c-3.25,2-5.33,3.87-6.29,5.65l-.61-.68v2.89h0c0,2,1.53,3.94,4.57,5.86l-2.1,1.21-2.85-1.3v2.95l2.56,1.48,5-2.88a21.79,21.79,0,0,0,10.09,2,20,20,0,0,0,9.52-2.56,16.1,16.1,0,0,0,3.38-2.51A8.14,8.14,0,0,0,200.3,256a10.32,10.32,0,0,0,.7-2.7,14.47,14.47,0,0,0,0-2.86l-.42-3.8c-.07-.76-.1-1.32-.1-1.66a7.61,7.61,0,0,1,.19-1.44,3.34,3.34,0,0,1,.86-1.64,8,8,0,0,1,1.84-1.39,7.46,7.46,0,0,1,2.83-.9,4.56,4.56,0,0,1,2.83.47,2.62,2.62,0,0,1,.88.68.81.81,0,0,1,.16.49l-4.39.91v2.95l8.89,4q1.09-.69,1.95-1.28a18.53,18.53,0,0,0,1.79-1.43,10.6,10.6,0,0,0,1.49-1.6,5.67,5.67,0,0,0,.85-1.73,3.84,3.84,0,0,0,.15-.88h0v0s0,0,0,0v-3l-1.13.24,0-.06a10.5,10.5,0,0,0-2.37-2l4.67-2.7Z"/><path class="cls-8" d="M167.89,260.26l4.94-2.85q-5.07-3.21-4.53-6.53t6.84-7.19l9,3.81q-3.82,2.27-4.69,3.79t.9,2.54q2.31,1.34,5.29-.39a7.53,7.53,0,0,0,2.47-2.11,4.93,4.93,0,0,0,.93-2.23,11.73,11.73,0,0,0-.1-2.75l-.5-3.93a12.87,12.87,0,0,1-.1-2.47,8,8,0,0,1,.55-2.28,6.62,6.62,0,0,1,1.66-2.38,16,16,0,0,1,3.1-2.25,20.42,20.42,0,0,1,10.28-2.78,23.76,23.76,0,0,1,10.68,2.5l4.69-2.71,2.61,1.5-4.67,2.7a10.5,10.5,0,0,1,2.37,2,5.11,5.11,0,0,1,1.08,1.94,3.54,3.54,0,0,1-.06,1.87,5.66,5.66,0,0,1-.85,1.73,10.59,10.59,0,0,1-1.49,1.6,18.53,18.53,0,0,1-1.79,1.43q-.86.6-1.95,1.28l-8.89-4q1-.62,1.66-1t1.32-.92a5.44,5.44,0,0,0,1-.87,2.39,2.39,0,0,0,.42-.77.81.81,0,0,0-.14-.75,2.62,2.62,0,0,0-.88-.68,4.55,4.55,0,0,0-2.83-.47,7.47,7.47,0,0,0-2.83.9A8,8,0,0,0,201.5,239a3.34,3.34,0,0,0-.86,1.64,7.61,7.61,0,0,0-.19,1.44c0,.34,0,.9.1,1.66l.42,3.8a14.47,14.47,0,0,1,0,2.86,10.32,10.32,0,0,1-.7,2.7,8.14,8.14,0,0,1-1.87,2.73,16.1,16.1,0,0,1-3.38,2.51,20,20,0,0,1-9.52,2.56,21.79,21.79,0,0,1-10.09-2l-5,2.88Z"/><path class="cls-5" d="M272.9,233.9h-3.19c-3.58-7-10.16-13.65-19.77-19.2-30.61-17.67-80.23-17.67-110.84,0-9.6,5.54-16.19,12.17-19.77,19.2h-3.19v12.8h0c0,11.58,7.65,23.16,23,32,30.61,17.67,80.23,17.67,110.84,0,15.3-8.84,23-20.42,23-32h0Z"/><path class="cls-8" d="M177.53,202.54c-14.08,1.8-27.47,5.85-38.42,12.17-9.6,5.54-16.19,12.17-19.77,19.2h-3.19v12.8c0,11.58,7.65,23.16,23,32,11,6.32,24.34,10.37,38.42,12.17Z"/><path class="cls-4" d="M250.16,278.57c15.16-8.82,22.74-20.34,22.74-31.87V233.9h-3.19c-3-6-8.31-11.68-15.73-16.67h-3.82Z"/><g class="cls-14"><path class="cls-4" d="M268.87,232.42a37.39,37.39,0,0,0-3.4-4.92V266a37.37,37.37,0,0,0,3.4-4.93Z"/><path class="cls-4" d="M139.11,214.71a61.72,61.72,0,0,0-10.95,8v48.11c1.07,1,2.19,1.94,3.4,2.88V221.5H138V278c.38.23.75.47,1.14.69.74.43,1.5.83,2.26,1.24V221.5h6.41V283q1.68.72,3.4,1.39V221.5h6.41v65.11q1.68.52,3.4,1V221.5h6.41v67.65q1.69.36,3.4.67V221.5h6.41v69.32q1.69.22,3.4.4V221.5H187v70.24c1.13.06,2.27.11,3.4.14V221.5h6.41v70.42q1.7,0,3.4-.1V221.5h6.41v69.9c1.14-.1,2.27-.22,3.4-.35V221.5h6.41v68.65q1.71-.29,3.4-.62v-68h6.41v66.58q1.72-.44,3.4-.93V221.5H236v63.58q1.72-.62,3.4-1.3V221.5h6.41v59.38q1.73-.87,3.4-1.8V221.5h6.41V275c1.2-.86,2.33-1.74,3.4-2.64V221.5h.57a63.67,63.67,0,0,0-9.68-6.8,94.33,94.33,0,0,0-24-9.47H163.15A94.33,94.33,0,0,0,139.11,214.71Z"/><path class="cls-4" d="M121.75,229.94a35.08,35.08,0,0,0-2.41,4h-1v23.46a33.61,33.61,0,0,0,3.4,6.15Z"/></g><path class="cls-8" d="M249.95,265.9c-30.61,17.67-80.23,17.67-110.84,0s-30.61-46.32,0-64,80.23-17.67,110.84,0S280.56,248.23,249.95,265.9Z"/><path class="cls-15" d="M212.08,241.64c22.53-13,28.45-32,17.81-48.11-29.4-8.59-66.22-5.8-90.79,8.38-22.53,13-28.45,32-17.81,48.11C150.7,258.61,187.52,255.82,212.08,241.64Z"/><path class="cls-16" d="M249.95,265.9c-30.61,17.67-80.23,17.67-110.84,0-14.79-8.54-22.41-19.64-22.91-30.83-.53,12,7.09,24,22.91,33.16,30.61,17.67,80.23,17.67,110.84,0,15.82-9.13,23.44-21.2,22.91-33.16C272.36,246.26,264.74,257.36,249.95,265.9Z"/><path class="cls-4" d="M233.87,256.62c-21.73,12.54-57,12.54-78.68,0s-21.73-32.88,0-45.42,57-12.54,78.68,0S255.59,244.07,233.87,256.62Z"/><path class="cls-5" d="M155.19,214.13c21.73-12.54,57-12.54,78.68,0,10.22,5.9,15.63,13.52,16.23,21.25.69-8.7-4.72-17.53-16.23-24.18-21.73-12.54-57-12.54-78.68,0-11.51,6.64-16.92,15.48-16.23,24.18C139.56,227.65,145,220,155.19,214.13Z"/><path class="cls-5" d="M221.89,218.74,217.58,220l1.23.49-4.21,2.43a23.76,23.76,0,0,0-10.68-2.5,20.42,20.42,0,0,0-10.28,2.78,15.94,15.94,0,0,0-3.1,2.25,6.61,6.61,0,0,0-1.66,2.38,8,8,0,0,0-.55,2.28,12.87,12.87,0,0,0,.1,2.47l.5,3.93a11.74,11.74,0,0,1,.1,2.75,4.93,4.93,0,0,1-.93,2.23,7.53,7.53,0,0,1-2.47,2.11q-3,1.72-5.29.39-1.76-1-.9-2.54t4.69-3.79v-2.95l-3.69,1.38-5.3-2.25c-3.25,2-5.33,3.87-6.29,5.65l-.61-.68v2.89h0c0,2,1.53,3.94,4.57,5.86l-2.1,1.21-2.85-1.3v2.95l2.56,1.48,5-2.88a21.79,21.79,0,0,0,10.09,2,20,20,0,0,0,9.52-2.56,16.11,16.11,0,0,0,3.38-2.51,8.14,8.14,0,0,0,1.87-2.73,10.32,10.32,0,0,0,.7-2.7,14.47,14.47,0,0,0,0-2.86l-.42-3.8c-.07-.76-.1-1.32-.1-1.66a7.61,7.61,0,0,1,.19-1.44,3.34,3.34,0,0,1,.86-1.64,8,8,0,0,1,1.84-1.39,7.47,7.47,0,0,1,2.83-.9,4.55,4.55,0,0,1,2.83.47,2.62,2.62,0,0,1,.88.68.81.81,0,0,1,.16.49l-4.39.91v2.95l8.89,4q1.09-.69,1.95-1.28a18.53,18.53,0,0,0,1.79-1.43,10.59,10.59,0,0,0,1.49-1.6,5.66,5.66,0,0,0,.85-1.73,3.84,3.84,0,0,0,.15-.88h0v0s0,0,0,0v-3l-1.13.24,0-.06a10.5,10.5,0,0,0-2.37-2l4.67-2.7Z"/><path class="cls-8" d="M167.89,247.45l4.94-2.85q-5.07-3.21-4.53-6.53t6.84-7.19l9,3.81q-3.82,2.27-4.69,3.79t.9,2.54q2.31,1.34,5.29-.39a7.53,7.53,0,0,0,2.47-2.11,4.93,4.93,0,0,0,.93-2.23,11.73,11.73,0,0,0-.1-2.75l-.5-3.93a12.87,12.87,0,0,1-.1-2.47,8,8,0,0,1,.55-2.28,6.62,6.62,0,0,1,1.66-2.38,16,16,0,0,1,3.1-2.25,20.42,20.42,0,0,1,10.28-2.78,23.77,23.77,0,0,1,10.68,2.5l4.69-2.71,2.61,1.5-4.67,2.7a10.5,10.5,0,0,1,2.37,2,5.1,5.1,0,0,1,1.08,1.94,3.54,3.54,0,0,1-.06,1.87,5.66,5.66,0,0,1-.85,1.73,10.59,10.59,0,0,1-1.49,1.6,18.53,18.53,0,0,1-1.79,1.43q-.86.6-1.95,1.28l-8.89-4q1-.62,1.66-1t1.32-.92a5.44,5.44,0,0,0,1-.87,2.39,2.39,0,0,0,.42-.77.81.81,0,0,0-.14-.75,2.62,2.62,0,0,0-.88-.68,4.55,4.55,0,0,0-2.83-.47,7.46,7.46,0,0,0-2.83.9,8,8,0,0,0-1.84,1.39,3.34,3.34,0,0,0-.86,1.64,7.61,7.61,0,0,0-.19,1.44c0,.34,0,.9.1,1.66l.42,3.8a14.47,14.47,0,0,1,0,2.86,10.32,10.32,0,0,1-.7,2.7,8.14,8.14,0,0,1-1.87,2.73A16.1,16.1,0,0,1,195,245.5a20,20,0,0,1-9.52,2.56,21.79,21.79,0,0,1-10.09-2l-5,2.88Z"/><path class="cls-5" d="M272.9,221.1h-3.19c-3.58-7-10.16-13.65-19.77-19.2-30.61-17.67-80.23-17.67-110.84,0-9.6,5.54-16.19,12.17-19.77,19.2h-3.19v12.8h0c0,11.58,7.65,23.16,23,32,30.61,17.67,80.23,17.67,110.84,0,15.3-8.84,23-20.42,23-32h0Z"/><path class="cls-8" d="M177.53,189.73c-14.08,1.8-27.47,5.85-38.42,12.17-9.6,5.54-16.19,12.17-19.77,19.2h-3.19v12.8c0,11.58,7.65,23.16,23,32,11,6.32,24.34,10.37,38.42,12.17Z"/><path class="cls-4" d="M250.16,265.76c15.16-8.82,22.74-20.34,22.74-31.87V221.1h-3.19c-3-6-8.31-11.68-15.73-16.67h-3.82Z"/><g class="cls-14"><path class="cls-4" d="M268.87,219.61a37.4,37.4,0,0,0-3.4-4.92v38.46a37.37,37.37,0,0,0,3.4-4.93Z"/><path class="cls-4" d="M139.11,201.9a61.72,61.72,0,0,0-10.95,8V258c1.07,1,2.19,1.94,3.4,2.88V208.69H138v56.5c.38.23.75.47,1.14.69.74.43,1.5.83,2.26,1.24V208.69h6.41v61.52q1.68.72,3.4,1.39v-62.9h6.41v65.11q1.68.52,3.4,1v-66.1h6.41v67.65q1.69.36,3.4.67V208.69h6.41V278q1.69.22,3.4.4V208.69H187v70.24c1.13.06,2.27.11,3.4.14V208.69h6.41v70.42q1.7,0,3.4-.1V208.69h6.41v69.9c1.14-.1,2.27-.22,3.4-.35V208.69h6.41v68.65q1.71-.29,3.4-.62v-68h6.41v66.58q1.72-.44,3.4-.93V208.69H236v63.58q1.72-.62,3.4-1.3V208.69h6.41v59.38q1.73-.87,3.4-1.8V208.69h6.41v53.51c1.2-.86,2.33-1.74,3.4-2.64V208.69h.57a63.65,63.65,0,0,0-9.68-6.8,94.31,94.31,0,0,0-24-9.47H163.15A94.32,94.32,0,0,0,139.11,201.9Z"/><path class="cls-4" d="M121.75,217.13a35.08,35.08,0,0,0-2.41,4h-1v23.46a33.59,33.59,0,0,0,3.4,6.15Z"/></g><path class="cls-8" d="M249.95,253.09c-30.61,17.67-80.23,17.67-110.84,0s-30.61-46.32,0-64,80.23-17.67,110.84,0S280.56,235.42,249.95,253.09Z"/><path class="cls-15" d="M212.08,228.83c22.53-13,28.45-32,17.81-48.11-29.4-8.59-66.22-5.8-90.79,8.38-22.53,13-28.45,32-17.81,48.11C150.7,245.8,187.52,243,212.08,228.83Z"/><path class="cls-16" d="M249.95,253.09c-30.61,17.67-80.23,17.67-110.84,0-14.79-8.54-22.41-19.64-22.91-30.83-.53,12,7.09,24,22.91,33.16,30.61,17.67,80.23,17.67,110.84,0,15.82-9.13,23.44-21.2,22.91-33.16C272.36,233.45,264.74,244.55,249.95,253.09Z"/><path class="cls-4" d="M233.87,243.81c-21.73,12.54-57,12.54-78.68,0s-21.73-32.88,0-45.42,57-12.54,78.68,0S255.59,231.26,233.87,243.81Z"/><path class="cls-5" d="M155.19,201.32c21.73-12.54,57-12.54,78.68,0,10.22,5.9,15.63,13.52,16.23,21.25.69-8.7-4.72-17.53-16.23-24.18-21.73-12.54-57-12.54-78.68,0C143.68,205,138.27,213.86,139,222.56,139.56,214.84,145,207.21,155.19,201.32Z"/><path class="cls-5" d="M221.89,205.93l-4.31,1.23,1.23.49-4.21,2.43a23.77,23.77,0,0,0-10.68-2.5,20.42,20.42,0,0,0-10.28,2.78,16,16,0,0,0-3.1,2.25,6.62,6.62,0,0,0-1.66,2.38,8,8,0,0,0-.55,2.28,12.87,12.87,0,0,0,.1,2.47l.5,3.93a11.73,11.73,0,0,1,.1,2.75,4.93,4.93,0,0,1-.93,2.23,7.53,7.53,0,0,1-2.47,2.11q-3,1.72-5.29.39-1.76-1-.9-2.54t4.69-3.79v-2.95l-3.69,1.38-5.3-2.25c-3.25,2-5.33,3.87-6.29,5.65l-.61-.68v2.89h0c0,2,1.53,3.94,4.57,5.86l-2.1,1.21-2.85-1.3v2.95l2.56,1.48,5-2.88a21.79,21.79,0,0,0,10.09,2,20,20,0,0,0,9.52-2.56,16.1,16.1,0,0,0,3.38-2.51,8.14,8.14,0,0,0,1.87-2.73,10.32,10.32,0,0,0,.7-2.7,14.47,14.47,0,0,0,0-2.86l-.42-3.8c-.07-.76-.1-1.32-.1-1.66a7.61,7.61,0,0,1,.19-1.44,3.34,3.34,0,0,1,.86-1.64,8,8,0,0,1,1.84-1.39,7.47,7.47,0,0,1,2.83-.9,4.56,4.56,0,0,1,2.83.47,2.62,2.62,0,0,1,.88.68.81.81,0,0,1,.16.49l-4.39.91v2.95l8.89,4q1.09-.69,1.95-1.28a18.56,18.56,0,0,0,1.79-1.43,10.59,10.59,0,0,0,1.49-1.6,5.66,5.66,0,0,0,.85-1.73,3.84,3.84,0,0,0,.15-.88h0v0s0,0,0,0v-3l-1.13.24,0-.06a10.5,10.5,0,0,0-2.37-2l4.67-2.7Z"/><path class="cls-8" d="M167.89,234.64l4.94-2.85q-5.07-3.21-4.53-6.53t6.84-7.19l9,3.81q-3.82,2.27-4.69,3.79t.9,2.54q2.31,1.34,5.29-.39a7.53,7.53,0,0,0,2.47-2.11,4.93,4.93,0,0,0,.93-2.23,11.74,11.74,0,0,0-.1-2.75l-.5-3.93a12.87,12.87,0,0,1-.1-2.47,8,8,0,0,1,.55-2.28,6.61,6.61,0,0,1,1.66-2.38,15.94,15.94,0,0,1,3.1-2.25,20.42,20.42,0,0,1,10.28-2.78,23.76,23.76,0,0,1,10.68,2.5l4.69-2.71,2.61,1.5-4.67,2.7a10.5,10.5,0,0,1,2.37,2,5.11,5.11,0,0,1,1.08,1.94,3.54,3.54,0,0,1-.06,1.87,5.66,5.66,0,0,1-.85,1.73,10.59,10.59,0,0,1-1.49,1.6,18.53,18.53,0,0,1-1.79,1.43q-.86.6-1.95,1.28l-8.89-4q1-.62,1.66-1t1.32-.92a5.44,5.44,0,0,0,1-.87A2.39,2.39,0,0,0,210,213a.81.81,0,0,0-.14-.75,2.62,2.62,0,0,0-.88-.68,4.55,4.55,0,0,0-2.83-.47,7.47,7.47,0,0,0-2.83.9,8,8,0,0,0-1.84,1.39,3.34,3.34,0,0,0-.86,1.64,7.61,7.61,0,0,0-.19,1.44c0,.34,0,.9.1,1.66l.42,3.8a14.47,14.47,0,0,1,0,2.86,10.32,10.32,0,0,1-.7,2.7,8.14,8.14,0,0,1-1.87,2.73,16.11,16.11,0,0,1-3.38,2.51,20,20,0,0,1-9.52,2.56,21.79,21.79,0,0,1-10.09-2l-5,2.88Z"/><path class="cls-5" d="M272.9,208.29h-3.19c-3.58-7-10.16-13.65-19.77-19.2-30.61-17.67-80.23-17.67-110.84,0-9.6,5.54-16.19,12.17-19.77,19.2h-3.19v12.8h0c0,11.58,7.65,23.16,23,32,30.61,17.67,80.23,17.67,110.84,0,15.3-8.84,23-20.42,23-32h0Z"/><path class="cls-8" d="M177.53,176.92c-14.08,1.8-27.47,5.85-38.42,12.17-9.6,5.54-16.19,12.17-19.77,19.2h-3.19v12.8c0,11.58,7.65,23.16,23,32,11,6.32,24.34,10.37,38.42,12.17Z"/><path class="cls-4" d="M250.16,253c15.16-8.82,22.74-20.34,22.74-31.87v-12.8h-3.19c-3-6-8.31-11.68-15.73-16.67h-3.82Z"/><g class="cls-14"><path class="cls-4" d="M268.87,206.8a37.39,37.39,0,0,0-3.4-4.92v38.46a37.36,37.36,0,0,0,3.4-4.93Z"/><path class="cls-4" d="M139.11,189.09a61.72,61.72,0,0,0-10.95,8v48.11c1.07,1,2.19,1.94,3.4,2.88V195.88H138v56.5c.38.23.75.47,1.14.69.74.43,1.5.83,2.26,1.24V195.88h6.41V257.4q1.68.72,3.4,1.39v-62.9h6.41V261q1.68.52,3.4,1v-66.1h6.41v67.65q1.69.36,3.4.67V195.88h6.41v69.33q1.69.22,3.4.4V195.88H187v70.24c1.13.06,2.27.11,3.4.14V195.88h6.41V266.3q1.7,0,3.4-.1V195.88h6.41v69.9c1.14-.1,2.27-.22,3.4-.35V195.88h6.41v68.65q1.71-.29,3.4-.62v-68h6.41v66.58q1.72-.44,3.4-.93V195.88H236v63.58q1.72-.62,3.4-1.3V195.88h6.41v59.38q1.73-.87,3.4-1.8V195.88h6.41V249.4c1.2-.86,2.33-1.74,3.4-2.64V195.88h.57a63.67,63.67,0,0,0-9.68-6.8,94.33,94.33,0,0,0-24-9.47H163.15A94.32,94.32,0,0,0,139.11,189.09Z"/><path class="cls-4" d="M121.75,204.32a35.06,35.06,0,0,0-2.41,4h-1v23.46a33.59,33.59,0,0,0,3.4,6.15Z"/></g><path class="cls-8" d="M249.95,240.28c-30.61,17.67-80.23,17.67-110.84,0s-30.61-46.32,0-64,80.23-17.67,110.84,0S280.56,222.61,249.95,240.28Z"/><path class="cls-15" d="M212.08,216c22.53-13,28.45-32,17.81-48.11-29.4-8.59-66.22-5.8-90.79,8.38-22.53,13-28.45,32-17.81,48.11C150.7,233,187.52,230.2,212.08,216Z"/><path class="cls-16" d="M249.95,240.28c-30.61,17.67-80.23,17.67-110.84,0-14.79-8.54-22.41-19.64-22.91-30.83-.53,12,7.09,24,22.91,33.16,30.61,17.67,80.23,17.67,110.84,0,15.82-9.13,23.44-21.2,22.91-33.16C272.36,220.64,264.74,231.74,249.95,240.28Z"/><path class="cls-4" d="M233.87,231c-21.73,12.54-57,12.54-78.68,0s-21.73-32.88,0-45.42,57-12.54,78.68,0S255.59,218.46,233.87,231Z"/><path class="cls-5" d="M155.19,188.51c21.73-12.54,57-12.54,78.68,0,10.22,5.9,15.63,13.52,16.23,21.25.69-8.7-4.72-17.53-16.23-24.18-21.73-12.54-57-12.54-78.68,0C143.68,192.22,138.27,201,139,209.75,139.56,202,145,194.4,155.19,188.51Z"/><path class="cls-5" d="M221.89,193.12l-4.31,1.23,1.23.49-4.21,2.43a23.76,23.76,0,0,0-10.68-2.5,20.42,20.42,0,0,0-10.28,2.78,16,16,0,0,0-3.1,2.25,6.61,6.61,0,0,0-1.66,2.38,8,8,0,0,0-.55,2.28,12.87,12.87,0,0,0,.1,2.47l.5,3.93a11.73,11.73,0,0,1,.1,2.75,4.93,4.93,0,0,1-.93,2.23,7.53,7.53,0,0,1-2.47,2.11q-3,1.72-5.29.39-1.76-1-.9-2.54t4.69-3.79v-2.95l-3.69,1.38-5.3-2.25c-3.25,2-5.33,3.87-6.29,5.65l-.61-.68v2.89h0c0,2,1.53,3.94,4.57,5.86l-2.1,1.21-2.85-1.3v2.95l2.56,1.48,5-2.88a21.79,21.79,0,0,0,10.09,2,20,20,0,0,0,9.52-2.56,16.11,16.11,0,0,0,3.38-2.51,8.14,8.14,0,0,0,1.87-2.73,10.32,10.32,0,0,0,.7-2.7,14.47,14.47,0,0,0,0-2.86l-.42-3.8c-.07-.76-.1-1.32-.1-1.66a7.61,7.61,0,0,1,.19-1.44,3.34,3.34,0,0,1,.86-1.64,8,8,0,0,1,1.84-1.39,7.47,7.47,0,0,1,2.83-.9,4.56,4.56,0,0,1,2.83.47,2.62,2.62,0,0,1,.88.68.81.81,0,0,1,.16.49l-4.39.91v2.95l8.89,4q1.09-.69,1.95-1.28a18.5,18.5,0,0,0,1.79-1.43,10.59,10.59,0,0,0,1.49-1.6,5.67,5.67,0,0,0,.85-1.73,3.84,3.84,0,0,0,.15-.88h0v0s0,0,0,0v-3l-1.13.24,0-.06a10.5,10.5,0,0,0-2.37-2l4.67-2.7Z"/><path class="cls-8" d="M167.89,221.83l4.94-2.85q-5.07-3.21-4.53-6.53t6.84-7.19l9,3.81q-3.82,2.27-4.69,3.79t.9,2.54q2.31,1.34,5.29-.39a7.53,7.53,0,0,0,2.47-2.11,4.93,4.93,0,0,0,.93-2.23,11.73,11.73,0,0,0-.1-2.75l-.5-3.93a12.87,12.87,0,0,1-.1-2.47,8,8,0,0,1,.55-2.28,6.62,6.62,0,0,1,1.66-2.38,16,16,0,0,1,3.1-2.25,20.42,20.42,0,0,1,10.28-2.78,23.77,23.77,0,0,1,10.68,2.5l4.69-2.71,2.61,1.5-4.67,2.7a10.5,10.5,0,0,1,2.37,2,5.11,5.11,0,0,1,1.08,1.94,3.54,3.54,0,0,1-.06,1.87,5.66,5.66,0,0,1-.85,1.73,10.59,10.59,0,0,1-1.49,1.6,18.53,18.53,0,0,1-1.79,1.43q-.86.6-1.95,1.28l-8.89-4q1-.62,1.66-1t1.32-.92a5.44,5.44,0,0,0,1-.87,2.39,2.39,0,0,0,.42-.77.81.81,0,0,0-.14-.75,2.62,2.62,0,0,0-.88-.68,4.56,4.56,0,0,0-2.83-.47,7.46,7.46,0,0,0-2.83.9,8,8,0,0,0-1.84,1.39,3.34,3.34,0,0,0-.86,1.64,7.61,7.61,0,0,0-.19,1.44c0,.34,0,.9.1,1.66l.42,3.8a14.47,14.47,0,0,1,0,2.86,10.32,10.32,0,0,1-.7,2.7,8.14,8.14,0,0,1-1.87,2.73,16.1,16.1,0,0,1-3.38,2.51,20,20,0,0,1-9.52,2.56,21.79,21.79,0,0,1-10.09-2l-5,2.88Z"/><path class="cls-5" d="M278.5,195.48h-3.19c-3.58-7-10.16-13.65-19.77-19.2-30.61-17.67-80.23-17.67-110.84,0-9.6,5.54-16.19,12.17-19.77,19.2h-3.19v12.8h0c0,11.58,7.65,23.16,23,32,30.61,17.67,80.23,17.67,110.84,0,15.3-8.84,23-20.42,23-32h0Z"/><path class="cls-8" d="M183.13,164.11c-14.08,1.8-27.47,5.85-38.42,12.17-9.6,5.54-16.19,12.17-19.77,19.2h-3.19v12.8c0,11.58,7.65,23.16,23,32,11,6.32,24.34,10.37,38.42,12.17Z"/><path class="cls-4" d="M255.76,240.14c15.16-8.82,22.74-20.34,22.74-31.87v-12.8h-3.19c-3-6-8.31-11.68-15.73-16.67h-3.82Z"/><g class="cls-14"><path class="cls-4" d="M274.47,194a37.41,37.41,0,0,0-3.4-4.92v38.46a37.37,37.37,0,0,0,3.4-4.93Z"/><path class="cls-4" d="M144.71,176.28a61.72,61.72,0,0,0-10.95,8v48.11c1.07,1,2.19,1.94,3.4,2.88V183.08h6.41v56.5c.38.23.75.47,1.14.69.74.43,1.5.83,2.26,1.24V183.08h6.41v61.52q1.68.72,3.4,1.39v-62.9h6.41v65.11q1.68.52,3.4,1v-66.1H173v67.65q1.69.36,3.4.67V183.08h6.41V252.4q1.69.22,3.4.4V183.08h6.41v70.24c1.13.06,2.27.11,3.4.14V183.08h6.41V253.5q1.7,0,3.4-.1V183.08h6.41V253c1.14-.1,2.27-.22,3.4-.35V183.08H222v68.65q1.71-.29,3.4-.62v-68h6.41v66.58q1.72-.44,3.4-.93V183.08h6.41v63.58q1.72-.62,3.4-1.3V183.08h6.41v59.38q1.73-.87,3.4-1.8V183.08h6.41v53.51c1.2-.86,2.33-1.74,3.4-2.64V183.08h.57a63.67,63.67,0,0,0-9.68-6.8,94.32,94.32,0,0,0-24-9.47H168.75A94.31,94.31,0,0,0,144.71,176.28Z"/><path class="cls-4" d="M127.35,191.51a35.12,35.12,0,0,0-2.41,4h-1v23.46a33.62,33.62,0,0,0,3.4,6.15Z"/></g><path class="cls-8" d="M255.55,227.47c-30.61,17.67-80.23,17.67-110.84,0s-30.61-46.32,0-64,80.23-17.67,110.84,0S286.16,209.8,255.55,227.47Z"/><path class="cls-15" d="M217.68,203.21c22.53-13,28.45-32,17.81-48.11-29.4-8.59-66.22-5.8-90.79,8.38-22.53,13-28.45,32-17.81,48.11C156.3,220.18,193.12,217.4,217.68,203.21Z"/><path class="cls-16" d="M255.55,227.47c-30.61,17.67-80.23,17.67-110.84,0-14.79-8.54-22.41-19.64-22.91-30.83-.53,12,7.09,24,22.91,33.16,30.61,17.67,80.23,17.67,110.84,0,15.82-9.13,23.44-21.2,22.91-33.16C278,207.83,270.34,218.94,255.55,227.47Z"/><path class="cls-4" d="M239.47,218.19c-21.73,12.54-57,12.54-78.68,0s-21.73-32.88,0-45.42,57-12.54,78.68,0S261.19,205.65,239.47,218.19Z"/><path class="cls-5" d="M160.79,175.7c21.73-12.54,57-12.54,78.68,0,10.22,5.9,15.63,13.52,16.23,21.25.69-8.7-4.72-17.53-16.23-24.18-21.73-12.54-57-12.54-78.68,0-11.51,6.64-16.92,15.48-16.23,24.18C145.16,189.22,150.57,181.6,160.79,175.7Z"/><path class="cls-5" d="M227.49,180.31l-4.31,1.23,1.23.49-4.21,2.43a23.76,23.76,0,0,0-10.68-2.5,20.42,20.42,0,0,0-10.28,2.78,15.94,15.94,0,0,0-3.1,2.25,6.61,6.61,0,0,0-1.66,2.38,8,8,0,0,0-.55,2.28,12.87,12.87,0,0,0,.1,2.47l.5,3.93a11.75,11.75,0,0,1,.1,2.75,4.93,4.93,0,0,1-.93,2.23,7.52,7.52,0,0,1-2.47,2.11q-3,1.72-5.29.39-1.76-1-.9-2.54t4.69-3.79v-2.95L186,197.65l-5.3-2.25c-3.25,2-5.33,3.87-6.29,5.65l-.61-.68v2.89h0c0,2,1.53,3.94,4.57,5.86l-2.1,1.21-2.85-1.3V212l2.56,1.48,5-2.88a21.79,21.79,0,0,0,10.09,2,20,20,0,0,0,9.52-2.56,16.11,16.11,0,0,0,3.38-2.51,8.14,8.14,0,0,0,1.87-2.73,10.33,10.33,0,0,0,.7-2.69,14.47,14.47,0,0,0,0-2.86l-.42-3.8c-.07-.76-.1-1.32-.1-1.66a7.61,7.61,0,0,1,.19-1.44,3.34,3.34,0,0,1,.86-1.64,8,8,0,0,1,1.84-1.39,7.46,7.46,0,0,1,2.83-.9,4.55,4.55,0,0,1,2.83.47,2.62,2.62,0,0,1,.88.68.81.81,0,0,1,.16.49l-4.39.91v2.95l8.89,4q1.09-.69,1.95-1.28a18.53,18.53,0,0,0,1.79-1.43,10.59,10.59,0,0,0,1.49-1.6,5.66,5.66,0,0,0,.85-1.73,3.84,3.84,0,0,0,.15-.88h0v0s0,0,0,0v-3l-1.13.24,0-.06a10.5,10.5,0,0,0-2.37-2l4.67-2.7Z"/><path class="cls-8" d="M173.49,209l4.94-2.85q-5.07-3.21-4.53-6.53t6.84-7.19l9,3.81Q185.9,198.53,185,200t.9,2.54q2.31,1.34,5.29-.39a7.53,7.53,0,0,0,2.47-2.11,4.93,4.93,0,0,0,.93-2.23,11.73,11.73,0,0,0-.1-2.75l-.5-3.93a12.85,12.85,0,0,1-.1-2.47,8,8,0,0,1,.55-2.28,6.61,6.61,0,0,1,1.66-2.38,16,16,0,0,1,3.1-2.25A20.42,20.42,0,0,1,209.51,179a23.76,23.76,0,0,1,10.68,2.5l4.69-2.71,2.61,1.5-4.67,2.7a10.5,10.5,0,0,1,2.37,2,5.11,5.11,0,0,1,1.08,1.94,3.54,3.54,0,0,1-.06,1.87,5.67,5.67,0,0,1-.85,1.73,10.59,10.59,0,0,1-1.49,1.6,18.5,18.5,0,0,1-1.79,1.43q-.86.6-1.95,1.28l-8.89-4q1-.62,1.66-1t1.32-.92a5.45,5.45,0,0,0,1-.87,2.39,2.39,0,0,0,.42-.77.81.81,0,0,0-.14-.75,2.62,2.62,0,0,0-.88-.68,4.56,4.56,0,0,0-2.83-.47,7.47,7.47,0,0,0-2.83.9,8,8,0,0,0-1.84,1.39,3.34,3.34,0,0,0-.86,1.64,7.61,7.61,0,0,0-.19,1.44c0,.34,0,.9.1,1.66l.42,3.8a14.47,14.47,0,0,1,0,2.86,10.32,10.32,0,0,1-.7,2.7,8.14,8.14,0,0,1-1.87,2.73,16.11,16.11,0,0,1-3.38,2.51,20,20,0,0,1-9.52,2.56,21.79,21.79,0,0,1-10.09-2l-5,2.88Z"/><path class="cls-5" d="M262.76,179.85h-3.19c-3.58-7-10.16-13.65-19.77-19.2C209.2,143,159.57,143,129,160.65c-9.6,5.54-16.19,12.17-19.77,19.2H106v12.8h0c0,11.58,7.65,23.16,23,32,30.61,17.67,80.23,17.67,110.84,0,15.3-8.84,23-20.42,23-32h0Z"/><path class="cls-8" d="M167.39,148.48c-14.08,1.8-27.47,5.85-38.42,12.17-9.6,5.54-16.19,12.17-19.77,19.2H106v12.8c0,11.58,7.65,23.16,23,32,11,6.32,24.34,10.37,38.42,12.17Z"/><path class="cls-4" d="M240,224.51c15.16-8.82,22.74-20.34,22.74-31.87v-12.8h-3.19c-3-6-8.31-11.68-15.73-16.67H240Z"/><g class="cls-14"><path class="cls-4" d="M258.73,178.36a37.4,37.4,0,0,0-3.4-4.92V211.9a37.37,37.37,0,0,0,3.4-4.93Z"/><path class="cls-4" d="M129,160.65a61.75,61.75,0,0,0-10.95,8v48.11c1.07,1,2.19,1.94,3.4,2.88V167.44h6.41v56.5c.38.23.75.47,1.14.69.74.43,1.5.83,2.26,1.24V167.44h6.41V229q1.68.72,3.4,1.39v-62.9h6.41v65.11q1.68.52,3.4,1v-66.1h6.41v67.65q1.69.36,3.4.67V167.44h6.41v69.33q1.69.22,3.4.4V167.44h6.41v70.24c1.13.06,2.27.11,3.4.14V167.44h6.41v70.42q1.7,0,3.4-.1V167.44h6.41v69.9c1.14-.1,2.27-.22,3.4-.35V167.44h6.41V236.1q1.71-.29,3.4-.62v-68h6.41V234q1.72-.44,3.4-.93V167.44h6.41V231q1.72-.62,3.4-1.3V167.44h6.41v59.38q1.73-.87,3.4-1.8V167.44h6.41V221c1.2-.86,2.33-1.74,3.4-2.64V167.44h.57a63.66,63.66,0,0,0-9.68-6.8,94.33,94.33,0,0,0-24-9.47H153A94.33,94.33,0,0,0,129,160.65Z"/><path class="cls-4" d="M111.61,175.88a35.06,35.06,0,0,0-2.41,4h-1v23.46a33.61,33.61,0,0,0,3.4,6.15Z"/></g><path class="cls-8" d="M239.81,211.84c-30.61,17.67-80.23,17.67-110.84,0s-30.61-46.32,0-64,80.23-17.67,110.84,0S270.41,194.17,239.81,211.84Z"/><path class="cls-15" d="M201.94,187.58c22.53-13,28.45-32,17.81-48.11-29.4-8.59-66.22-5.8-90.79,8.38-22.53,13-28.45,32-17.81,48.11C140.56,204.55,177.37,201.76,201.94,187.58Z"/><path class="cls-16" d="M239.81,211.84c-30.61,17.67-80.23,17.67-110.84,0-14.79-8.54-22.41-19.64-22.91-30.83-.53,12,7.09,24,22.91,33.16,30.61,17.67,80.23,17.67,110.84,0C255.62,205,263.24,193,262.71,181,262.22,192.2,254.59,203.3,239.81,211.84Z"/><path class="cls-4" d="M223.72,202.56c-21.73,12.54-57,12.54-78.68,0s-21.73-32.88,0-45.42,57-12.54,78.68,0S245.45,190,223.72,202.56Z"/><path class="cls-5" d="M145,160.07c21.73-12.54,57-12.54,78.68,0,10.22,5.9,15.63,13.52,16.23,21.25.69-8.7-4.72-17.53-16.23-24.18-21.73-12.54-57-12.54-78.68,0-11.51,6.64-16.92,15.48-16.23,24.18C129.42,173.59,134.83,166,145,160.07Z"/><path class="cls-5" d="M211.74,164.68l-4.31,1.23,1.23.49-4.21,2.43a23.76,23.76,0,0,0-10.68-2.5,20.42,20.42,0,0,0-10.28,2.78,16,16,0,0,0-3.1,2.25,6.61,6.61,0,0,0-1.66,2.38,8,8,0,0,0-.55,2.28,12.87,12.87,0,0,0,.1,2.47l.5,3.93a11.74,11.74,0,0,1,.1,2.75,4.92,4.92,0,0,1-.93,2.23,7.53,7.53,0,0,1-2.47,2.11q-3,1.72-5.29.39-1.76-1-.9-2.54t4.69-3.79v-2.95L170.3,182l-5.3-2.25c-3.25,2-5.33,3.87-6.29,5.65l-.61-.68v2.89h0c0,2,1.53,3.94,4.57,5.86l-2.1,1.21-2.85-1.3v2.95l2.56,1.48,5-2.88a21.79,21.79,0,0,0,10.09,2,20,20,0,0,0,9.52-2.56,16.11,16.11,0,0,0,3.38-2.51,8.14,8.14,0,0,0,1.87-2.73,10.32,10.32,0,0,0,.7-2.7,14.47,14.47,0,0,0,0-2.86l-.42-3.8c-.07-.76-.1-1.32-.1-1.66a7.59,7.59,0,0,1,.19-1.44,3.34,3.34,0,0,1,.86-1.64,8,8,0,0,1,1.84-1.39,7.47,7.47,0,0,1,2.83-.9,4.56,4.56,0,0,1,2.83.47,2.62,2.62,0,0,1,.88.68.81.81,0,0,1,.16.49l-4.39.91v2.95l8.89,4q1.09-.69,1.95-1.28a18.5,18.5,0,0,0,1.79-1.43,10.59,10.59,0,0,0,1.49-1.6,5.68,5.68,0,0,0,.85-1.73,3.85,3.85,0,0,0,.15-.88h0v0s0,0,0,0v-3l-1.13.24,0-.06a10.5,10.5,0,0,0-2.37-2l4.67-2.7Z"/><path class="cls-8" d="M157.74,193.39l4.94-2.85q-5.07-3.21-4.53-6.53t6.84-7.19l9,3.81q-3.82,2.27-4.69,3.79t.9,2.54q2.31,1.34,5.29-.39a7.53,7.53,0,0,0,2.47-2.11,4.92,4.92,0,0,0,.93-2.23,11.74,11.74,0,0,0-.1-2.75l-.5-3.93a12.89,12.89,0,0,1-.1-2.47,8,8,0,0,1,.55-2.28,6.61,6.61,0,0,1,1.66-2.38,16,16,0,0,1,3.1-2.25,20.42,20.42,0,0,1,10.28-2.78,23.77,23.77,0,0,1,10.68,2.5l4.69-2.71,2.61,1.5-4.67,2.69a10.5,10.5,0,0,1,2.37,2,5.1,5.1,0,0,1,1.08,1.94,3.54,3.54,0,0,1-.06,1.87,5.67,5.67,0,0,1-.85,1.73,10.59,10.59,0,0,1-1.49,1.6,18.53,18.53,0,0,1-1.79,1.43q-.86.6-1.95,1.28l-8.89-4q1-.62,1.66-1t1.32-.92a5.44,5.44,0,0,0,1-.87,2.39,2.39,0,0,0,.42-.77.8.8,0,0,0-.14-.75,2.62,2.62,0,0,0-.88-.68,4.56,4.56,0,0,0-2.83-.47,7.46,7.46,0,0,0-2.83.9,8,8,0,0,0-1.84,1.39,3.34,3.34,0,0,0-.86,1.64,7.59,7.59,0,0,0-.19,1.44c0,.34,0,.9.1,1.66l.42,3.8a14.48,14.48,0,0,1,0,2.86,10.33,10.33,0,0,1-.7,2.7,8.14,8.14,0,0,1-1.87,2.73,16.1,16.1,0,0,1-3.38,2.51,20,20,0,0,1-9.52,2.56,21.79,21.79,0,0,1-10.09-2l-5,2.88Z"/><path class="cls-5" d="M391.78,342.11h-3.19c-3.58-7-10.16-13.65-19.77-19.2-30.61-17.67-80.23-17.67-110.84,0-9.6,5.54-16.19,12.17-19.77,19.2H235v12.8h0c0,11.58,7.65,23.16,23,32,30.61,17.67,80.23,17.67,110.84,0,15.3-8.84,23-20.42,23-32h0Z"/><path class="cls-8" d="M296.4,310.74c-14.08,1.8-27.47,5.85-38.42,12.17-9.6,5.54-16.19,12.17-19.77,19.2H235v12.8c0,11.58,7.65,23.16,23,32,11,6.32,24.34,10.37,38.42,12.17Z"/><path class="cls-4" d="M369,386.78c15.16-8.82,22.74-20.34,22.74-31.87v-12.8h-3.19c-3-6-8.31-11.68-15.73-16.67H369Z"/><g class="cls-14"><path class="cls-4" d="M387.74,340.62a37.43,37.43,0,0,0-3.4-4.92v38.46a37.37,37.37,0,0,0,3.4-4.93Z"/><path class="cls-4" d="M258,322.91a61.72,61.72,0,0,0-10.95,8V379c1.07,1,2.19,1.94,3.4,2.88V329.71h6.41v56.5c.38.23.75.47,1.14.69.74.43,1.5.83,2.26,1.24V329.71h6.41v61.52q1.68.72,3.4,1.39v-62.9h6.41v65.11q1.68.52,3.4,1v-66.1h6.41v67.65q1.69.36,3.4.67V329.71h6.41V399q1.69.22,3.4.4V329.71h6.41V400c1.13.06,2.27.11,3.4.14V329.71h6.41v70.42q1.7,0,3.4-.1V329.71h6.41v69.9c1.14-.1,2.27-.22,3.4-.35V329.71h6.41v68.65q1.71-.29,3.4-.62v-68h6.41v66.58q1.72-.44,3.4-.93V329.71h6.41v63.58q1.72-.62,3.4-1.3V329.71h6.41v59.38q1.73-.87,3.4-1.8V329.71h6.41v53.51c1.2-.86,2.33-1.74,3.4-2.64V329.71h.57a63.65,63.65,0,0,0-9.68-6.8,94.32,94.32,0,0,0-24-9.47H282A94.32,94.32,0,0,0,258,322.91Z"/><path class="cls-4" d="M240.62,338.14a35.11,35.11,0,0,0-2.41,4h-1v23.46a33.62,33.62,0,0,0,3.4,6.15Z"/></g><path class="cls-8" d="M368.82,374.11c-30.61,17.67-80.23,17.67-110.84,0s-30.61-46.32,0-64,80.23-17.67,110.84,0S399.43,356.44,368.82,374.11Z"/><path class="cls-15" d="M331,349.84c22.53-13,28.45-32,17.81-48.11-29.4-8.59-66.22-5.8-90.79,8.38-22.53,13-28.45,32-17.81,48.11C269.57,366.82,306.39,364,331,349.84Z"/><path class="cls-16" d="M368.82,374.11c-30.61,17.67-80.23,17.67-110.84,0-14.79-8.54-22.41-19.64-22.91-30.83-.53,12,7.09,24,22.91,33.16,30.61,17.67,80.23,17.67,110.84,0,15.82-9.13,23.44-21.2,22.91-33.16C391.23,354.47,383.61,365.57,368.82,374.11Z"/><path class="cls-4" d="M352.74,364.82c-21.73,12.54-57,12.54-78.68,0s-21.73-32.88,0-45.42,57-12.54,78.68,0S374.46,352.28,352.74,364.82Z"/><path class="cls-5" d="M274.06,322.33c21.73-12.54,57-12.54,78.68,0,10.22,5.9,15.63,13.52,16.23,21.25.69-8.7-4.72-17.53-16.23-24.18-21.73-12.54-57-12.54-78.68,0-11.51,6.64-16.92,15.48-16.23,24.18C258.43,335.85,263.84,328.23,274.06,322.33Z"/><path class="cls-5" d="M340.76,326.94l-4.31,1.23,1.23.49-4.21,2.43a23.76,23.76,0,0,0-10.68-2.5,20.42,20.42,0,0,0-10.28,2.78,15.94,15.94,0,0,0-3.1,2.25,6.61,6.61,0,0,0-1.66,2.38,8,8,0,0,0-.55,2.28,12.87,12.87,0,0,0,.1,2.47l.5,3.93a11.75,11.75,0,0,1,.1,2.75,4.93,4.93,0,0,1-.93,2.23,7.52,7.52,0,0,1-2.47,2.11q-3,1.72-5.29.39-1.76-1-.9-2.54t4.69-3.79V342.9l-3.69,1.38L294,342c-3.25,2-5.33,3.87-6.29,5.65l-.61-.68v2.89h0c0,2,1.53,3.94,4.57,5.86L289.6,357l-2.85-1.3v2.95l2.56,1.48,5-2.88a21.78,21.78,0,0,0,10.09,2,20,20,0,0,0,9.52-2.56,16.11,16.11,0,0,0,3.38-2.51,8.14,8.14,0,0,0,1.87-2.73,10.33,10.33,0,0,0,.7-2.69,14.45,14.45,0,0,0,0-2.86l-.42-3.8c-.07-.76-.1-1.32-.1-1.66a7.59,7.59,0,0,1,.19-1.44,3.34,3.34,0,0,1,.86-1.64,8,8,0,0,1,1.84-1.39A7.47,7.47,0,0,1,325,335a4.55,4.55,0,0,1,2.83.47,2.62,2.62,0,0,1,.88.68.81.81,0,0,1,.16.49l-4.39.91v2.95l8.89,4q1.09-.69,1.95-1.28a18.53,18.53,0,0,0,1.79-1.43,10.59,10.59,0,0,0,1.49-1.6,5.67,5.67,0,0,0,.85-1.73,3.84,3.84,0,0,0,.15-.88h0v0s0,0,0,0v-3l-1.13.24,0-.06a10.5,10.5,0,0,0-2.37-2l4.67-2.7Z"/><path class="cls-8" d="M286.76,355.66l4.94-2.85q-5.07-3.21-4.53-6.53t6.84-7.19l9,3.81q-3.82,2.27-4.69,3.79t.9,2.54q2.31,1.34,5.29-.39a7.53,7.53,0,0,0,2.47-2.11,4.93,4.93,0,0,0,.93-2.23,11.75,11.75,0,0,0-.1-2.75l-.5-3.93a12.87,12.87,0,0,1-.1-2.47,8,8,0,0,1,.55-2.28,6.61,6.61,0,0,1,1.66-2.38,16,16,0,0,1,3.1-2.25,20.42,20.42,0,0,1,10.28-2.78,23.76,23.76,0,0,1,10.68,2.5l4.69-2.71,2.61,1.5-4.67,2.7a10.5,10.5,0,0,1,2.37,2,5.1,5.1,0,0,1,1.08,1.94,3.54,3.54,0,0,1-.06,1.87,5.67,5.67,0,0,1-.85,1.73,10.59,10.59,0,0,1-1.49,1.6,18.5,18.5,0,0,1-1.79,1.43q-.86.6-1.95,1.28l-8.89-4q1-.62,1.66-1t1.32-.92a5.44,5.44,0,0,0,1-.87,2.39,2.39,0,0,0,.42-.77.8.8,0,0,0-.14-.75,2.62,2.62,0,0,0-.88-.68,4.56,4.56,0,0,0-2.83-.47,7.47,7.47,0,0,0-2.83.9,8,8,0,0,0-1.84,1.39,3.34,3.34,0,0,0-.86,1.64,7.61,7.61,0,0,0-.19,1.44c0,.34,0,.9.1,1.66l.42,3.8a14.47,14.47,0,0,1,0,2.86,10.33,10.33,0,0,1-.7,2.7,8.14,8.14,0,0,1-1.87,2.73,16.12,16.12,0,0,1-3.38,2.51,20,20,0,0,1-9.52,2.56,21.79,21.79,0,0,1-10.09-2l-5,2.88Z"/><path class="cls-5" d="M391.78,329.3h-3.19c-3.58-7-10.16-13.65-19.77-19.2-30.61-17.67-80.23-17.67-110.84,0-9.6,5.54-16.19,12.17-19.77,19.2H235v12.8h0c0,11.58,7.65,23.16,23,32,30.61,17.67,80.23,17.67,110.84,0,15.3-8.84,23-20.42,23-32h0Z"/><path class="cls-8" d="M296.4,297.94c-14.08,1.8-27.47,5.85-38.42,12.17-9.6,5.54-16.19,12.17-19.77,19.2H235v12.8c0,11.58,7.65,23.16,23,32,11,6.32,24.34,10.37,38.42,12.17Z"/><path class="cls-4" d="M369,374c15.16-8.82,22.74-20.34,22.74-31.87V329.3h-3.19c-3-6-8.31-11.68-15.73-16.67H369Z"/><g class="cls-14"><path class="cls-4" d="M387.74,327.81a37.42,37.42,0,0,0-3.4-4.92v38.46a37.38,37.38,0,0,0,3.4-4.93Z"/><path class="cls-4" d="M258,310.1a61.72,61.72,0,0,0-10.95,8v48.11c1.07,1,2.19,1.94,3.4,2.88V316.9h6.41v56.5c.38.23.75.47,1.14.69.74.43,1.5.83,2.26,1.24V316.9h6.41v61.52q1.68.72,3.4,1.39V316.9h6.41V382q1.68.52,3.4,1V316.9h6.41v67.65q1.69.36,3.4.67V316.9h6.41v69.32q1.69.22,3.4.4V316.9h6.41v70.24c1.13.06,2.27.11,3.4.14V316.9h6.41v70.42q1.7,0,3.4-.1V316.9h6.41v69.9c1.14-.1,2.27-.22,3.4-.35V316.9h6.41v68.65q1.71-.29,3.4-.62v-68h6.41v66.58q1.72-.44,3.4-.93V316.9h6.41v63.58q1.72-.62,3.4-1.3V316.9h6.41v59.38q1.73-.87,3.4-1.8V316.9h6.41v53.51c1.2-.86,2.33-1.74,3.4-2.64V316.9h.57a63.64,63.64,0,0,0-9.68-6.8,94.32,94.32,0,0,0-24-9.47H282A94.32,94.32,0,0,0,258,310.1Z"/><path class="cls-4" d="M240.62,325.33a35.11,35.11,0,0,0-2.41,4h-1v23.46a33.6,33.6,0,0,0,3.4,6.15Z"/></g><path class="cls-8" d="M368.82,361.3C338.21,379,288.59,379,258,361.3s-30.61-46.32,0-64,80.23-17.67,110.84,0S399.43,343.63,368.82,361.3Z"/><path class="cls-15" d="M331,337c22.53-13,28.45-32,17.81-48.11-29.4-8.59-66.22-5.8-90.79,8.38-22.53,13-28.45,32-17.81,48.11C269.57,354,306.39,351.22,331,337Z"/><path class="cls-16" d="M368.82,361.3C338.21,379,288.59,379,258,361.3c-14.79-8.54-22.41-19.64-22.91-30.83-.53,12,7.09,24,22.91,33.16,30.61,17.67,80.23,17.67,110.84,0,15.82-9.13,23.44-21.2,22.91-33.16C391.23,341.66,383.61,352.76,368.82,361.3Z"/><path class="cls-4" d="M352.74,352c-21.73,12.54-57,12.54-78.68,0s-21.73-32.88,0-45.42,57-12.54,78.68,0S374.46,339.47,352.74,352Z"/><path class="cls-5" d="M274.06,309.52c21.73-12.54,57-12.54,78.68,0C363,315.42,368.36,323,369,330.77c.69-8.7-4.72-17.53-16.23-24.18-21.73-12.54-57-12.54-78.68,0-11.51,6.64-16.92,15.48-16.23,24.18C258.43,323,263.84,315.42,274.06,309.52Z"/><path class="cls-5" d="M340.76,314.13l-4.31,1.23,1.23.49-4.21,2.43a23.77,23.77,0,0,0-10.68-2.5,20.42,20.42,0,0,0-10.28,2.78,16,16,0,0,0-3.1,2.25,6.62,6.62,0,0,0-1.66,2.38,8,8,0,0,0-.55,2.28,12.87,12.87,0,0,0,.1,2.47l.5,3.93a11.75,11.75,0,0,1,.1,2.75,4.93,4.93,0,0,1-.93,2.23,7.53,7.53,0,0,1-2.47,2.11q-3,1.72-5.29.39-1.76-1-.9-2.54T303,333v-2.95l-3.69,1.38-5.3-2.25c-3.25,2-5.33,3.87-6.29,5.65l-.61-.68v2.89h0c0,2,1.53,3.94,4.57,5.86l-2.1,1.21-2.85-1.3v2.95l2.56,1.48,5-2.88a21.79,21.79,0,0,0,10.09,2,20,20,0,0,0,9.52-2.56,16.11,16.11,0,0,0,3.38-2.51,8.14,8.14,0,0,0,1.87-2.73,10.33,10.33,0,0,0,.7-2.7,14.45,14.45,0,0,0,0-2.86l-.42-3.8c-.07-.76-.1-1.32-.1-1.66a7.6,7.6,0,0,1,.19-1.44,3.34,3.34,0,0,1,.86-1.64,8,8,0,0,1,1.84-1.39,7.46,7.46,0,0,1,2.83-.9,4.56,4.56,0,0,1,2.83.47,2.62,2.62,0,0,1,.88.68.81.81,0,0,1,.16.49l-4.39.91v2.95l8.89,4q1.09-.69,1.95-1.28a18.53,18.53,0,0,0,1.79-1.43,10.59,10.59,0,0,0,1.49-1.6,5.67,5.67,0,0,0,.85-1.73,3.84,3.84,0,0,0,.15-.88h0v0s0,0,0,0v-3l-1.13.24,0-.06a10.5,10.5,0,0,0-2.37-2l4.67-2.69Z"/><path class="cls-8" d="M286.76,342.85,291.7,340q-5.07-3.21-4.53-6.53t6.84-7.19l9,3.81q-3.82,2.27-4.69,3.79t.9,2.54q2.31,1.34,5.29-.39a7.52,7.52,0,0,0,2.47-2.11,4.93,4.93,0,0,0,.93-2.23,11.75,11.75,0,0,0-.1-2.75l-.5-3.93a12.87,12.87,0,0,1-.1-2.47,8,8,0,0,1,.55-2.28,6.61,6.61,0,0,1,1.66-2.38,15.94,15.94,0,0,1,3.1-2.25,20.42,20.42,0,0,1,10.28-2.78,23.76,23.76,0,0,1,10.68,2.5l4.69-2.71,2.61,1.5-4.67,2.7a10.5,10.5,0,0,1,2.37,2,5.11,5.11,0,0,1,1.08,1.94,3.54,3.54,0,0,1-.06,1.87,5.67,5.67,0,0,1-.85,1.73,10.59,10.59,0,0,1-1.49,1.6,18.53,18.53,0,0,1-1.79,1.43q-.86.6-1.95,1.28l-8.89-4q1-.62,1.66-1t1.32-.92a5.44,5.44,0,0,0,1-.87,2.39,2.39,0,0,0,.42-.77.8.8,0,0,0-.14-.75,2.62,2.62,0,0,0-.88-.68,4.55,4.55,0,0,0-2.83-.47,7.46,7.46,0,0,0-2.83.9,8,8,0,0,0-1.84,1.39,3.34,3.34,0,0,0-.86,1.64,7.61,7.61,0,0,0-.19,1.44c0,.34,0,.9.1,1.66l.42,3.8a14.47,14.47,0,0,1,0,2.86,10.33,10.33,0,0,1-.7,2.69,8.14,8.14,0,0,1-1.87,2.73,16.11,16.11,0,0,1-3.38,2.51,20,20,0,0,1-9.52,2.56,21.78,21.78,0,0,1-10.09-2l-5,2.88Z"/><path class="cls-5" d="M380.8,323.28h-3.19c-3.58-7-10.16-13.65-19.77-19.2-30.61-17.67-80.23-17.67-110.84,0-9.6,5.54-16.19,12.17-19.77,19.2H224v12.8h0c0,11.58,7.65,23.16,23,32,30.61,17.67,80.23,17.67,110.84,0,15.3-8.84,23-20.42,23-32h0Z"/><path class="cls-8" d="M285.43,291.91c-14.08,1.8-27.47,5.85-38.42,12.17-9.6,5.54-16.19,12.17-19.77,19.2H224v12.8c0,11.58,7.65,23.16,23,32,11,6.32,24.34,10.37,38.42,12.17Z"/><path class="cls-4" d="M358.06,367.95c15.16-8.82,22.74-20.34,22.74-31.87v-12.8h-3.19c-3-6-8.31-11.68-15.73-16.67h-3.82Z"/><g class="cls-14"><path class="cls-4" d="M376.77,321.79a37.41,37.41,0,0,0-3.4-4.92v38.46a37.37,37.37,0,0,0,3.4-4.93Z"/><path class="cls-4" d="M247,304.08a61.72,61.72,0,0,0-10.95,8v48.11c1.07,1,2.19,1.94,3.4,2.88V310.88h6.41v56.5c.38.23.75.47,1.14.69.74.43,1.5.83,2.26,1.24V310.88h6.41V372.4q1.68.72,3.4,1.39v-62.9h6.41V376q1.68.52,3.4,1v-66.1h6.41v67.65q1.69.36,3.4.67V310.88h6.41V380.2q1.69.22,3.4.4V310.88h6.41v70.24c1.13.06,2.27.11,3.4.14V310.88h6.41V381.3q1.7,0,3.4-.1V310.88h6.41v69.9c1.14-.1,2.27-.22,3.4-.35V310.88h6.41v68.65q1.71-.29,3.4-.62v-68h6.41v66.58q1.72-.44,3.4-.93V310.88h6.41v63.58q1.72-.62,3.4-1.3V310.88h6.41v59.38q1.73-.87,3.4-1.8V310.88h6.41v53.51c1.2-.86,2.33-1.74,3.4-2.64V310.88h.57a63.67,63.67,0,0,0-9.68-6.8,94.33,94.33,0,0,0-24-9.47H271.05A94.32,94.32,0,0,0,247,304.08Z"/><path class="cls-4" d="M229.65,319.31a35.08,35.08,0,0,0-2.41,4h-1v23.46a33.61,33.61,0,0,0,3.4,6.15Z"/></g><path class="cls-8" d="M357.85,355.28c-30.61,17.67-80.23,17.67-110.84,0s-30.61-46.32,0-64,80.23-17.67,110.84,0S388.45,337.61,357.85,355.28Z"/><path class="cls-15" d="M320,331c22.53-13,28.45-32,17.81-48.11-29.4-8.59-66.22-5.8-90.79,8.38-22.53,13-28.45,32-17.81,48.11C258.6,348,295.41,345.2,320,331Z"/><path class="cls-16" d="M357.85,355.28c-30.61,17.67-80.23,17.67-110.84,0-14.79-8.54-22.41-19.64-22.91-30.83-.53,12,7.09,24,22.91,33.16,30.61,17.67,80.23,17.67,110.84,0,15.82-9.13,23.44-21.2,22.91-33.16C380.26,335.64,372.64,346.74,357.85,355.28Z"/><path class="cls-4" d="M341.77,346c-21.73,12.54-57,12.54-78.68,0s-21.73-32.88,0-45.42,57-12.54,78.68,0S363.49,333.45,341.77,346Z"/><path class="cls-5" d="M263.09,303.5c21.73-12.54,57-12.54,78.68,0C352,309.4,357.39,317,358,324.75c.69-8.7-4.72-17.53-16.23-24.18-21.73-12.54-57-12.54-78.68,0-11.51,6.64-16.92,15.48-16.23,24.18C247.46,317,252.87,309.4,263.09,303.5Z"/><path class="cls-5" d="M329.79,308.11l-4.31,1.23,1.23.49-4.21,2.43a23.76,23.76,0,0,0-10.68-2.5,20.42,20.42,0,0,0-10.28,2.78,15.94,15.94,0,0,0-3.1,2.25,6.61,6.61,0,0,0-1.66,2.38,8,8,0,0,0-.55,2.28,12.85,12.85,0,0,0,.1,2.47l.5,3.93a11.75,11.75,0,0,1,.1,2.75,4.93,4.93,0,0,1-.93,2.23,7.52,7.52,0,0,1-2.47,2.11q-3,1.72-5.29.39-1.76-1-.9-2.54T292,327v-2.95l-3.69,1.38L283,323.2c-3.25,2-5.33,3.87-6.29,5.65l-.61-.68v2.89h0c0,2,1.53,3.94,4.57,5.86l-2.1,1.21-2.85-1.3v2.95l2.56,1.48,5-2.88a21.79,21.79,0,0,0,10.09,2,20,20,0,0,0,9.52-2.56,16.11,16.11,0,0,0,3.38-2.51,8.14,8.14,0,0,0,1.87-2.73,10.32,10.32,0,0,0,.7-2.7,14.47,14.47,0,0,0,0-2.86l-.42-3.8c-.07-.76-.1-1.32-.1-1.66a7.61,7.61,0,0,1,.19-1.44,3.34,3.34,0,0,1,.86-1.64,8,8,0,0,1,1.84-1.39,7.47,7.47,0,0,1,2.83-.9,4.55,4.55,0,0,1,2.83.47,2.62,2.62,0,0,1,.88.68.81.81,0,0,1,.16.49l-4.39.91v2.95l8.89,4q1.09-.69,1.95-1.28a18.53,18.53,0,0,0,1.79-1.43,10.59,10.59,0,0,0,1.49-1.6,5.66,5.66,0,0,0,.85-1.73,3.84,3.84,0,0,0,.15-.88h0v0s0,0,0,0v-3l-1.13.24,0-.06a10.5,10.5,0,0,0-2.37-2l4.67-2.7Z"/><path class="cls-8" d="M275.79,336.82l4.94-2.85q-5.07-3.21-4.53-6.53t6.84-7.19l9,3.81q-3.82,2.27-4.69,3.79t.9,2.54q2.31,1.34,5.29-.39a7.53,7.53,0,0,0,2.47-2.11,4.93,4.93,0,0,0,.93-2.23,11.73,11.73,0,0,0-.1-2.75l-.5-3.93a12.87,12.87,0,0,1-.1-2.47,8,8,0,0,1,.55-2.28,6.62,6.62,0,0,1,1.66-2.38,16,16,0,0,1,3.1-2.25,20.42,20.42,0,0,1,10.28-2.78,23.77,23.77,0,0,1,10.68,2.5l4.69-2.71,2.61,1.5-4.67,2.7a10.5,10.5,0,0,1,2.37,2,5.1,5.1,0,0,1,1.08,1.94,3.54,3.54,0,0,1-.06,1.87,5.66,5.66,0,0,1-.85,1.73,10.59,10.59,0,0,1-1.49,1.6,18.5,18.5,0,0,1-1.79,1.43q-.86.6-1.95,1.28l-8.89-4q1-.62,1.66-1t1.32-.92a5.45,5.45,0,0,0,1-.87,2.39,2.39,0,0,0,.42-.77.81.81,0,0,0-.14-.75,2.62,2.62,0,0,0-.88-.68,4.55,4.55,0,0,0-2.83-.47,7.46,7.46,0,0,0-2.83.9,8,8,0,0,0-1.84,1.39,3.34,3.34,0,0,0-.86,1.64,7.61,7.61,0,0,0-.19,1.44c0,.34,0,.9.1,1.66l.42,3.8a14.47,14.47,0,0,1,0,2.86,10.32,10.32,0,0,1-.7,2.7,8.14,8.14,0,0,1-1.87,2.73,16.11,16.11,0,0,1-3.38,2.51,20,20,0,0,1-9.52,2.56,21.79,21.79,0,0,1-10.09-2l-5,2.88Z"/><path class="cls-5" d="M391.78,303.68h-3.19c-3.58-7-10.16-13.65-19.77-19.2-30.61-17.67-80.23-17.67-110.84,0-9.6,5.54-16.19,12.17-19.77,19.2H235v12.8h0c0,11.58,7.65,23.16,23,32,30.61,17.67,80.23,17.67,110.84,0,15.3-8.84,23-20.42,23-32h0Z"/><path class="cls-8" d="M296.4,272.32c-14.08,1.8-27.47,5.85-38.42,12.17-9.6,5.54-16.19,12.17-19.77,19.2H235v12.8c0,11.58,7.65,23.16,23,32,11,6.32,24.34,10.37,38.42,12.17Z"/><path class="cls-4" d="M369,348.35c15.16-8.82,22.74-20.34,22.74-31.87v-12.8h-3.19c-3-6-8.31-11.68-15.73-16.67H369Z"/><g class="cls-14"><path class="cls-4" d="M387.74,302.19a37.43,37.43,0,0,0-3.4-4.92v38.46a37.37,37.37,0,0,0,3.4-4.93Z"/><path class="cls-4" d="M258,284.49a61.72,61.72,0,0,0-10.95,8v48.11c1.07,1,2.19,1.94,3.4,2.88V291.28h6.41v56.5c.38.23.75.47,1.14.69.74.43,1.5.83,2.26,1.24V291.28h6.41V352.8q1.68.72,3.4,1.39v-62.9h6.41V356.4q1.68.52,3.4,1v-66.1h6.41v67.65q1.69.36,3.4.67V291.28h6.41v69.32q1.69.22,3.4.4V291.28h6.41v70.24c1.13.06,2.27.11,3.4.14V291.28h6.41V361.7q1.7,0,3.4-.1V291.28h6.41v69.9c1.14-.1,2.27-.22,3.4-.35V291.28h6.41v68.65q1.71-.29,3.4-.62v-68h6.41v66.58q1.72-.44,3.4-.93V291.28h6.41v63.58q1.72-.62,3.4-1.3V291.28h6.41v59.38q1.73-.87,3.4-1.8V291.28h6.41v53.51c1.2-.86,2.33-1.74,3.4-2.64V291.28h.57a63.65,63.65,0,0,0-9.68-6.8,94.32,94.32,0,0,0-24-9.47H282A94.32,94.32,0,0,0,258,284.49Z"/><path class="cls-4" d="M240.62,299.72a35.12,35.12,0,0,0-2.41,4h-1v23.46a33.61,33.61,0,0,0,3.4,6.15Z"/></g><path class="cls-8" d="M368.82,335.68c-30.61,17.67-80.23,17.67-110.84,0s-30.61-46.32,0-64,80.23-17.67,110.84,0S399.43,318,368.82,335.68Z"/><path class="cls-15" d="M331,311.42c22.53-13,28.45-32,17.81-48.11-29.4-8.59-66.22-5.8-90.79,8.38-22.53,13-28.45,32-17.81,48.11C269.57,328.39,306.39,325.6,331,311.42Z"/><path class="cls-16" d="M368.82,335.68c-30.61,17.67-80.23,17.67-110.84,0-14.79-8.54-22.41-19.64-22.91-30.83-.53,12,7.09,24,22.91,33.16,30.61,17.67,80.23,17.67,110.84,0,15.82-9.13,23.44-21.2,22.91-33.16C391.23,316,383.61,327.14,368.82,335.68Z"/><path class="cls-4" d="M352.74,326.4c-21.73,12.54-57,12.54-78.68,0s-21.73-32.88,0-45.42,57-12.54,78.68,0S374.46,313.85,352.74,326.4Z"/><path class="cls-5" d="M274.06,283.9c21.73-12.54,57-12.54,78.68,0,10.22,5.9,15.63,13.52,16.23,21.25.69-8.7-4.72-17.53-16.23-24.18-21.73-12.54-57-12.54-78.68,0-11.51,6.64-16.92,15.48-16.23,24.18C258.43,297.42,263.84,289.8,274.06,283.9Z"/><path class="cls-5" d="M340.76,288.52l-4.31,1.23,1.23.49-4.21,2.43a23.76,23.76,0,0,0-10.68-2.5A20.42,20.42,0,0,0,312.51,293a16,16,0,0,0-3.1,2.25,6.61,6.61,0,0,0-1.66,2.38,8,8,0,0,0-.55,2.28,12.87,12.87,0,0,0,.1,2.47l.5,3.93a11.75,11.75,0,0,1,.1,2.75,4.93,4.93,0,0,1-.93,2.23,7.53,7.53,0,0,1-2.47,2.11q-3,1.72-5.29.39-1.76-1-.9-2.54t4.69-3.79v-2.95l-3.69,1.38L294,303.6c-3.25,2-5.33,3.87-6.29,5.65l-.61-.68v2.89h0c0,2,1.53,3.94,4.57,5.86l-2.1,1.21-2.85-1.3v2.95l2.56,1.48,5-2.88a21.79,21.79,0,0,0,10.09,2,20,20,0,0,0,9.52-2.56,16.11,16.11,0,0,0,3.38-2.51,8.14,8.14,0,0,0,1.87-2.73,10.33,10.33,0,0,0,.7-2.69,14.45,14.45,0,0,0,0-2.86l-.42-3.8c-.07-.76-.1-1.32-.1-1.66a7.59,7.59,0,0,1,.19-1.44,3.34,3.34,0,0,1,.86-1.64,8,8,0,0,1,1.84-1.39,7.46,7.46,0,0,1,2.83-.9,4.55,4.55,0,0,1,2.83.47,2.62,2.62,0,0,1,.88.68.81.81,0,0,1,.16.49l-4.39.91v2.95l8.89,4q1.09-.69,1.95-1.28a18.53,18.53,0,0,0,1.79-1.43,10.59,10.59,0,0,0,1.49-1.6,5.67,5.67,0,0,0,.85-1.73,3.84,3.84,0,0,0,.15-.88h0v0s0,0,0,0v-3l-1.13.24,0-.06a10.5,10.5,0,0,0-2.37-2l4.67-2.7Z"/><path class="cls-8" d="M286.76,317.23l4.94-2.85q-5.07-3.21-4.53-6.53t6.84-7.19l9,3.81q-3.82,2.27-4.69,3.79t.9,2.54q2.31,1.34,5.29-.39a7.52,7.52,0,0,0,2.47-2.11,4.93,4.93,0,0,0,.93-2.23,11.75,11.75,0,0,0-.1-2.75l-.5-3.93a12.87,12.87,0,0,1-.1-2.47,8,8,0,0,1,.55-2.28,6.61,6.61,0,0,1,1.66-2.38,16,16,0,0,1,3.1-2.25,20.42,20.42,0,0,1,10.28-2.78,23.77,23.77,0,0,1,10.68,2.5l4.69-2.71,2.61,1.5-4.67,2.7a10.5,10.5,0,0,1,2.37,2,5.11,5.11,0,0,1,1.08,1.94,3.54,3.54,0,0,1-.06,1.87,5.67,5.67,0,0,1-.85,1.73,10.59,10.59,0,0,1-1.49,1.6,18.5,18.5,0,0,1-1.79,1.43q-.86.6-1.95,1.28l-8.89-4q1-.62,1.66-1t1.32-.92a5.44,5.44,0,0,0,1-.88,2.39,2.39,0,0,0,.42-.77.8.8,0,0,0-.14-.75,2.62,2.62,0,0,0-.88-.68,4.56,4.56,0,0,0-2.83-.47,7.47,7.47,0,0,0-2.83.9,8,8,0,0,0-1.84,1.39,3.34,3.34,0,0,0-.86,1.64,7.61,7.61,0,0,0-.19,1.44c0,.34,0,.9.1,1.66l.42,3.8a14.47,14.47,0,0,1,0,2.86,10.33,10.33,0,0,1-.7,2.7,8.14,8.14,0,0,1-1.87,2.73,16.12,16.12,0,0,1-3.38,2.51,20,20,0,0,1-9.52,2.56,21.79,21.79,0,0,1-10.09-2l-5,2.88Z"/><path class="cls-5" d="M510.65,411.89h-3.19c-3.58-7-10.16-13.65-19.77-19.2-30.61-17.67-80.23-17.67-110.84,0-9.6,5.54-16.19,12.17-19.77,19.2h-3.19v12.8h0c0,11.58,7.65,23.16,23,32,30.61,17.67,80.23,17.67,110.84,0,15.3-8.84,23-20.42,23-32h0Z"/><path class="cls-8" d="M415.27,380.52c-14.08,1.8-27.47,5.85-38.42,12.17-9.6,5.54-16.19,12.17-19.77,19.2h-3.19v12.8c0,11.58,7.65,23.16,23,32,11,6.32,24.34,10.37,38.42,12.17Z"/><path class="cls-4" d="M487.9,456.56c15.16-8.82,22.74-20.34,22.74-31.87v-12.8h-3.19c-3-6-8.31-11.68-15.73-16.67H487.9Z"/><g class="cls-14"><path class="cls-4" d="M506.61,410.4a37.42,37.42,0,0,0-3.4-4.92v38.46a37.36,37.36,0,0,0,3.4-4.93Z"/><path class="cls-4" d="M376.85,392.69a61.74,61.74,0,0,0-10.95,8v48.11c1.07,1,2.19,1.94,3.4,2.88V399.49h6.41V456c.38.23.75.47,1.14.69.74.43,1.5.83,2.26,1.24V399.49h6.41V461q1.68.72,3.4,1.39v-62.9h6.41V464.6q1.68.52,3.4,1v-66.1h6.41v67.65q1.69.36,3.4.67V399.49h6.41v69.32q1.69.22,3.4.4V399.49h6.41v70.24c1.13.06,2.27.11,3.4.14V399.49h6.41v70.42q1.7,0,3.4-.1V399.49h6.41v69.9c1.14-.1,2.27-.22,3.4-.35V399.49h6.41v68.65q1.71-.29,3.4-.62v-68H464v66.58q1.72-.44,3.4-.93V399.49h6.41v63.58q1.72-.62,3.4-1.3V399.49h6.41v59.38q1.73-.87,3.4-1.8V399.49h6.41V453c1.2-.86,2.33-1.74,3.4-2.64V399.49h.57a63.66,63.66,0,0,0-9.68-6.8,94.32,94.32,0,0,0-24-9.47H400.9A94.32,94.32,0,0,0,376.85,392.69Z"/><path class="cls-4" d="M359.49,407.92a35.12,35.12,0,0,0-2.41,4h-1v23.46a33.63,33.63,0,0,0,3.4,6.15Z"/></g><path class="cls-8" d="M487.69,443.89c-30.61,17.67-80.23,17.67-110.84,0s-30.61-46.32,0-64,80.23-17.67,110.84,0S518.3,426.22,487.69,443.89Z"/><path class="cls-15" d="M449.83,419.62c22.53-13,28.45-32,17.81-48.11-29.4-8.59-66.22-5.8-90.79,8.38-22.53,13-28.45,32-17.81,48.11C388.44,436.59,425.26,433.81,449.83,419.62Z"/><path class="cls-16" d="M487.69,443.89c-30.61,17.67-80.23,17.67-110.84,0-14.79-8.54-22.41-19.64-22.91-30.83-.53,12,7.09,24,22.91,33.16,30.61,17.67,80.23,17.67,110.84,0,15.82-9.13,23.44-21.2,22.91-33.16C510.1,424.25,502.48,435.35,487.69,443.89Z"/><path class="cls-4" d="M471.61,434.6c-21.73,12.54-57,12.54-78.68,0s-21.73-32.88,0-45.42,57-12.54,78.68,0S493.34,422.06,471.61,434.6Z"/><path class="cls-5" d="M392.93,392.11c21.73-12.54,57-12.54,78.68,0,10.22,5.9,15.63,13.52,16.23,21.25.68-8.7-4.72-17.53-16.23-24.18-21.73-12.54-57-12.54-78.68,0-11.51,6.64-16.92,15.48-16.23,24.18C377.31,405.63,382.72,398,392.93,392.11Z"/><path class="cls-5" d="M459.63,396.72,455.32,398l1.23.49-4.21,2.43a23.76,23.76,0,0,0-10.68-2.5,20.42,20.42,0,0,0-10.28,2.78,16,16,0,0,0-3.1,2.25,6.61,6.61,0,0,0-1.66,2.38,8,8,0,0,0-.55,2.28,12.87,12.87,0,0,0,.1,2.47l.5,3.93a11.76,11.76,0,0,1,.1,2.75,4.93,4.93,0,0,1-.93,2.23,7.53,7.53,0,0,1-2.47,2.11q-3,1.72-5.29.39-1.76-1-.9-2.54t4.69-3.79v-2.95l-3.69,1.38-5.3-2.25c-3.25,2-5.33,3.87-6.29,5.65l-.61-.68v2.89h0c0,2,1.53,3.94,4.57,5.86l-2.1,1.21-2.85-1.3v2.95l2.56,1.48,5-2.88a21.79,21.79,0,0,0,10.09,2,20,20,0,0,0,9.52-2.56,16.11,16.11,0,0,0,3.38-2.51,8.14,8.14,0,0,0,1.87-2.73,10.33,10.33,0,0,0,.7-2.7,14.47,14.47,0,0,0,0-2.86l-.42-3.8c-.07-.76-.1-1.32-.1-1.66a7.61,7.61,0,0,1,.19-1.44,3.34,3.34,0,0,1,.86-1.64,8,8,0,0,1,1.84-1.39,7.47,7.47,0,0,1,2.83-.9,4.55,4.55,0,0,1,2.83.47,2.62,2.62,0,0,1,.88.68.81.81,0,0,1,.16.49l-4.39.91v2.95l8.89,4q1.09-.69,1.95-1.28a18.53,18.53,0,0,0,1.79-1.43,10.59,10.59,0,0,0,1.49-1.6,5.67,5.67,0,0,0,.85-1.73,3.85,3.85,0,0,0,.15-.88h0v0s0,0,0,0v-3l-1.13.24,0-.06a10.5,10.5,0,0,0-2.37-2l4.67-2.7Z"/><path class="cls-8" d="M405.63,425.43l4.94-2.85q-5.07-3.21-4.53-6.53t6.84-7.19l9,3.81q-3.82,2.27-4.69,3.79t.9,2.54q2.31,1.34,5.29-.39a7.52,7.52,0,0,0,2.47-2.11,4.93,4.93,0,0,0,.93-2.23,11.76,11.76,0,0,0-.1-2.75l-.5-3.93a12.87,12.87,0,0,1-.1-2.47,8,8,0,0,1,.55-2.28,6.61,6.61,0,0,1,1.66-2.38,15.94,15.94,0,0,1,3.1-2.25,20.42,20.42,0,0,1,10.28-2.78,23.77,23.77,0,0,1,10.68,2.5l4.69-2.71,2.61,1.5-4.67,2.7a10.5,10.5,0,0,1,2.37,2,5.11,5.11,0,0,1,1.08,1.94,3.54,3.54,0,0,1-.06,1.87,5.67,5.67,0,0,1-.85,1.73,10.59,10.59,0,0,1-1.49,1.6,18.51,18.51,0,0,1-1.79,1.43q-.86.6-1.95,1.28l-8.89-4q1-.62,1.66-1t1.32-.92a5.43,5.43,0,0,0,1-.87,2.39,2.39,0,0,0,.42-.77.8.8,0,0,0-.14-.75,2.62,2.62,0,0,0-.88-.68,4.55,4.55,0,0,0-2.83-.47,7.47,7.47,0,0,0-2.83.9,8,8,0,0,0-1.84,1.39,3.34,3.34,0,0,0-.86,1.64,7.59,7.59,0,0,0-.19,1.44c0,.34,0,.9.1,1.66l.42,3.8a14.47,14.47,0,0,1,0,2.86,10.33,10.33,0,0,1-.7,2.7,8.14,8.14,0,0,1-1.87,2.73,16.11,16.11,0,0,1-3.38,2.51,20,20,0,0,1-9.52,2.56,21.79,21.79,0,0,1-10.09-2l-5,2.88Z"/><path class="cls-5" d="M520.05,392.68h-3.19c-3.58-7-10.16-13.65-19.77-19.2-30.61-17.67-80.23-17.67-110.84,0-9.6,5.54-16.19,12.17-19.77,19.2H363.3v12.8h0c0,11.58,7.65,23.16,23,32,30.61,17.67,80.23,17.67,110.84,0,15.3-8.84,23-20.42,23-32h0Z"/><path class="cls-8" d="M424.68,361.31c-14.08,1.8-27.47,5.85-38.42,12.17-9.6,5.54-16.19,12.17-19.77,19.2H363.3v12.8c0,11.58,7.65,23.16,23,32,11,6.32,24.34,10.37,38.42,12.17Z"/><path class="cls-4" d="M497.31,437.35c15.16-8.82,22.74-20.34,22.74-31.87v-12.8h-3.19c-3-6-8.31-11.68-15.73-16.67h-3.82Z"/><g class="cls-14"><path class="cls-4" d="M516,391.19a37.42,37.42,0,0,0-3.4-4.92v38.46a37.37,37.37,0,0,0,3.4-4.93Z"/><path class="cls-4" d="M386.26,373.48a61.72,61.72,0,0,0-10.95,8v48.11c1.07,1,2.19,1.94,3.4,2.88V380.28h6.41v56.5c.38.23.75.47,1.14.69.74.43,1.5.83,2.26,1.24V380.28h6.41V441.8q1.68.72,3.4,1.39v-62.9h6.41v65.11q1.68.52,3.4,1v-66.1h6.41v67.65q1.69.36,3.4.67V380.28h6.41V449.6q1.69.22,3.4.4V380.28h6.41v70.24c1.13.06,2.27.11,3.4.14V380.28H444V450.7q1.7,0,3.4-.1V380.28h6.41v69.9c1.14-.1,2.27-.22,3.4-.35V380.28h6.41v68.65q1.71-.29,3.4-.62v-68h6.41v66.58q1.72-.44,3.4-.93V380.28h6.41v63.58q1.72-.62,3.4-1.3V380.28H493v59.38q1.73-.87,3.4-1.8V380.28h6.41v53.51c1.2-.86,2.33-1.74,3.4-2.64V380.28h.57a63.65,63.65,0,0,0-9.68-6.8A94.31,94.31,0,0,0,473,364H410.3A94.31,94.31,0,0,0,386.26,373.48Z"/><path class="cls-4" d="M368.9,388.71a35.09,35.09,0,0,0-2.41,4h-1v23.46a33.59,33.59,0,0,0,3.4,6.15Z"/></g><path class="cls-8" d="M497.1,424.68c-30.61,17.67-80.23,17.67-110.84,0s-30.61-46.32,0-64,80.23-17.67,110.84,0S527.71,407,497.1,424.68Z"/><path class="cls-15" d="M459.24,400.41c22.53-13,28.45-32,17.81-48.11-29.4-8.59-66.22-5.8-90.79,8.38-22.53,13-28.45,32-17.81,48.11C397.85,417.39,434.67,414.6,459.24,400.41Z"/><path class="cls-16" d="M497.1,424.68c-30.61,17.67-80.23,17.67-110.84,0-14.79-8.54-22.41-19.64-22.91-30.83-.53,12,7.09,24,22.91,33.16,30.61,17.67,80.23,17.67,110.84,0,15.82-9.13,23.44-21.2,22.91-33.16C519.51,405,511.89,416.14,497.1,424.68Z"/><path class="cls-4" d="M481,415.39c-21.73,12.54-57,12.54-78.68,0s-21.73-32.88,0-45.42,57-12.54,78.68,0S502.74,402.85,481,415.39Z"/><path class="cls-5" d="M402.34,372.9c21.73-12.54,57-12.54,78.68,0,10.22,5.9,15.63,13.52,16.23,21.25.69-8.7-4.72-17.53-16.23-24.18-21.73-12.54-57-12.54-78.68,0-11.51,6.64-16.92,15.48-16.23,24.18C386.71,386.42,392.12,378.8,402.34,372.9Z"/><path class="cls-5" d="M469,377.51l-4.31,1.23,1.23.49-4.21,2.43a23.76,23.76,0,0,0-10.68-2.5A20.42,20.42,0,0,0,440.78,382a16,16,0,0,0-3.1,2.25,6.62,6.62,0,0,0-1.66,2.38,8,8,0,0,0-.55,2.28,12.87,12.87,0,0,0,.1,2.47l.5,3.93a11.73,11.73,0,0,1,.1,2.75,4.93,4.93,0,0,1-.93,2.23,7.53,7.53,0,0,1-2.47,2.11q-3,1.72-5.29.39-1.76-1-.9-2.54t4.69-3.79v-2.95l-3.69,1.38-5.3-2.25c-3.25,2-5.33,3.87-6.29,5.65l-.61-.68v2.89h0c0,2,1.53,3.94,4.57,5.86l-2.1,1.21-2.85-1.3v2.95l2.56,1.48,5-2.88a21.79,21.79,0,0,0,10.09,2,20,20,0,0,0,9.52-2.56,16.11,16.11,0,0,0,3.38-2.51,8.14,8.14,0,0,0,1.87-2.73,10.32,10.32,0,0,0,.7-2.7,14.47,14.47,0,0,0,0-2.86l-.42-3.8c-.07-.76-.1-1.32-.1-1.66a7.61,7.61,0,0,1,.19-1.44,3.34,3.34,0,0,1,.86-1.64,8,8,0,0,1,1.84-1.39,7.47,7.47,0,0,1,2.83-.9,4.55,4.55,0,0,1,2.83.47,2.62,2.62,0,0,1,.88.68.81.81,0,0,1,.16.49l-4.39.91v2.95l8.89,4q1.09-.69,1.95-1.28a18.56,18.56,0,0,0,1.79-1.43,10.59,10.59,0,0,0,1.49-1.6,5.66,5.66,0,0,0,.85-1.73,3.84,3.84,0,0,0,.15-.88h0v0s0,0,0,0v-3l-1.13.24,0-.06a10.5,10.5,0,0,0-2.37-2l4.67-2.7Z"/><path class="cls-8" d="M415,406.23l4.94-2.85q-5.07-3.21-4.53-6.53t6.84-7.19l9,3.81q-3.82,2.27-4.69,3.79t.9,2.54q2.31,1.34,5.29-.39a7.53,7.53,0,0,0,2.47-2.11,4.93,4.93,0,0,0,.93-2.23,11.74,11.74,0,0,0-.1-2.75l-.5-3.93a12.87,12.87,0,0,1-.1-2.47,8,8,0,0,1,.55-2.28,6.61,6.61,0,0,1,1.66-2.38,15.94,15.94,0,0,1,3.1-2.25,20.42,20.42,0,0,1,10.28-2.78,23.77,23.77,0,0,1,10.68,2.5l4.69-2.71,2.61,1.5-4.67,2.7a10.5,10.5,0,0,1,2.37,2,5.11,5.11,0,0,1,1.08,1.94,3.54,3.54,0,0,1-.06,1.87,5.66,5.66,0,0,1-.85,1.73,10.59,10.59,0,0,1-1.49,1.6,18.53,18.53,0,0,1-1.79,1.43q-.86.6-1.95,1.28l-8.89-4q1-.62,1.66-1t1.32-.92a5.45,5.45,0,0,0,1-.87,2.39,2.39,0,0,0,.42-.77.81.81,0,0,0-.14-.75,2.62,2.62,0,0,0-.88-.68,4.55,4.55,0,0,0-2.83-.47,7.47,7.47,0,0,0-2.83.9,8,8,0,0,0-1.84,1.39,3.34,3.34,0,0,0-.86,1.64,7.61,7.61,0,0,0-.19,1.44c0,.34,0,.9.1,1.66l.42,3.8a14.47,14.47,0,0,1,0,2.86,10.32,10.32,0,0,1-.7,2.7,8.14,8.14,0,0,1-1.87,2.73,16.11,16.11,0,0,1-3.38,2.51,20,20,0,0,1-9.52,2.56,21.79,21.79,0,0,1-10.09-2l-5,2.88Z"/><path class="cls-17" d="M314.13,290.06c-.51,1.26-9.23,11.88-18,14.54a20.05,20.05,0,0,1-8,1.11,2.64,2.64,0,0,1-2.15-3.52,33.14,33.14,0,0,1,16.73-18.45C317.55,276.4,314.13,290.06,314.13,290.06Z"/><path class="cls-17" d="M317,294.13a72.2,72.2,0,0,0-4.3,14.16c-.62,3.93,1.54,9,3.32,12.43a3.63,3.63,0,0,0,5.66,1,21,21,0,0,0,7.08-13.53c1-10.87,0-12.77,0-12.77Z"/><path class="cls-8" d="M338.05,162.74a206.76,206.76,0,0,1,0,28.88c-1.14,15.17-5.21,86.11-6,103.18,0,0,.38,5.17-9.62,4s-9.2-6.87-9.2-6.87-14-.19-14.49-8.47S284.39,184.61,284.39,152Z"/><path class="cls-18" d="M313.26,292a28.75,28.75,0,0,1-4-.42h0L306.5,181.26Z"/><path class="cls-17" d="M323.21,63.13c22.94,9.51,22.48,23.08,22.48,23.08s-4.49,49.72-3,82.93C343.38,183,269,184.08,280.08,147c13.08-43.67,8.18-79,14.3-84.35S317.28,60.67,323.21,63.13Z"/><ellipse class="cls-19" cx="319.14" cy="72.21" rx="8.71" ry="11.83" transform="translate(169.6 363.24) rotate(-75.56)"/><path class="cls-20" d="M320.83,82.24a16.65,16.65,0,0,1-4.15-.53c-6.9-1.78-11.42-7.49-10.08-12.72s8.06-8,15-6.27S333,70.2,331.66,75.43h0C330.58,79.61,326.1,82.24,320.83,82.24Zm-3.45-17.88c-4.26,0-7.82,2-8.64,5.17-1,4.07,2.77,8.57,8.5,10.05s11.25-.63,12.3-4.69h0c1-4.07-2.77-8.57-8.5-10.05A14.61,14.61,0,0,0,317.38,64.37Z"/><path class="cls-19" d="M314,62.1s.2.92-.2,8.19c-.12,2.29,7.88,4.42,9.95,2.35s1.24-4.22,1.74-12S314,62.1,314,62.1Z"/><path class="cls-21" d="M325.5,60.64s-2,7.21-11.69,10l.15-6.56Z"/><circle class="cls-19" cx="314.56" cy="46.74" r="17.66" transform="translate(-1.69 80.22) rotate(-14.5)"/><path class="cls-21" d="M318.61,47.39s-9.72,4.17-16.46,4.21S296.91,46,296.91,46l20-2.89Z"/><path class="cls-7" d="M300.15,48.48s8.47-3.6,15.9-2.1a7.79,7.79,0,0,1,4.49,2.67,2.65,2.65,0,0,0,1.36,1c1.32.3,3.47-5.17,6-5.29s4.27,1.69,2.17,5.05-1.39,7.13-.42,7.66,11.22-7.31,2.17-25.22-32-8.26-35.58-4.63c0,0-3.76,3.28-6.82.36C289.46,28,286,53.66,300.15,48.48Z"/><path class="cls-19" d="M283.16,59.06l-12.34-5.32a5.47,5.47,0,0,1-3-3.24L255.63,15.2l-5.65,1,9.85,43.94a7.41,7.41,0,0,0,3.6,4.84L284,76.49Z"/><path class="cls-19" d="M411.52,64.81l2.83-1.3a22.77,22.77,0,0,0,6.5-4.49l2-1.94a3.82,3.82,0,0,0,.84-4.2h0a2.1,2.1,0,0,0-2.89-1.06l-5.91,3s.93-2.62.48-3.3-5,4.37-7.14,8S411.52,64.81,411.52,64.81Z"/><path class="cls-19" d="M362.28,78.93l10.55-1.18a18.6,18.6,0,0,0,7.09-2.3l28.27-16,3.32,5.35-28.9,22.32a13.32,13.32,0,0,1-2.91,1.71L362.47,96.2Z"/><path class="cls-19" d="M250,16.18l-1.08-1.24a9.92,9.92,0,0,1-2.32-5.06l-.75-5.15A4.41,4.41,0,0,1,247.53.53l.14-.1a2.66,2.66,0,0,1,3.91,1.27l2.54,6.13s-.8-3.18.23-3.53c.75-.26,2.18,3.68,1.33,5.88a9.26,9.26,0,0,0,0,5Z"/><path class="cls-20" d="M307.55,58.9,303,57.65s2.18,3.42,5.36,4.3S312,60.13,312,60.13Z"/><path class="cls-17" d="M300.71,60.16s-20.61-4.07-26.9-6-8.92,15.37-8.44,19.76,21.91,9.27,24.46,16.78S300.71,60.16,300.71,60.16Z"/><path class="cls-17" d="M332.22,67.74s15.06,6.46,40.27,9.61a2.71,2.71,0,0,1,2.24,1.78c1,2.79,2.63,8.89,1.33,15.15a5.56,5.56,0,0,1-5.51,4.38c-7.89-.05-24.87.7-27.63,8.08C339.32,116.42,332.22,67.74,332.22,67.74Z"/><circle class="cls-20" cx="329.24" cy="51.6" r="2.4"/><polygon class="cls-2" points="34.15 327.56 29.55 333.13 34.55 329.91 34.15 327.56"/><polygon class="cls-2" points="145.81 441.64 140.81 444.87 142.55 439.28 145.74 440.75 145.81 441.64"/><polygon class="cls-2" points="23.61 279.65 70.57 300.64 58.05 310.82 146.67 419.4 187.76 386.01 273.04 490.97 310.84 460.26 422.75 597.21 411.28 606.52 309.45 481.77 271.66 512.48 186.9 408.26 145.81 441.64 46.58 320.13 34.55 329.91 23.61 279.65"/><polygon class="cls-2" points="271.66 512.48 266.66 515.71 272.04 505.27 271.66 512.48"/><polygon class="cls-2" points="187.76 386.01 182.77 389.24 183.78 392.02 187.76 386.01"/><polygon class="cls-2" points="310.84 460.26 305.84 463.49 306.67 465.46 310.84 460.26"/><polygon class="cls-3" points="18.61 282.87 65.58 303.87 53.05 314.04 141.67 422.63 182.77 389.24 268.05 494.19 305.84 463.49 417.75 600.43 406.29 609.75 304.46 485 266.66 515.71 181.91 411.48 140.81 444.87 41.59 323.36 29.55 333.13 18.61 282.87"/><polygon class="cls-17" points="18.61 282.87 23.61 279.65 70.57 300.64 65.58 303.87 18.61 282.87"/><polygon class="cls-2" points="422.75 597.21 417.75 600.43 406.29 609.75 411.28 606.52 422.75 597.21"/><circle class="cls-3" cx="196.66" cy="56.7" r="4.54" transform="translate(74.23 220.71) rotate(-69.34)"/><rect class="cls-8" x="167.34" y="20.72" width="18.89" height="18.89" transform="translate(22.01 -60.43) rotate(20.66)"/></svg>