<?xml version="1.0" encoding="utf-8"?>
<!-- Generator: Adobe Illustrator 21.0.0, SVG Export Plug-In . SVG Version: 6.00 Build 0)  -->
<svg version="1.1" id="Capa_1" xmlns="http://www.w3.org/2000/svg" xmlns:xlink="http://www.w3.org/1999/xlink" x="0px" y="0px"
	 viewBox="0 0 32 32" style="enable-background:new 0 0 32 32;" xml:space="preserve">
<style type="text/css">
	.st0{fill:#FFFFFF;}
</style>
<path class="st0" d="M22,0H10C4.5,0,0,4.5,0,10v12c0,5.5,4.5,10,10,10h12c5.5,0,10-4.5,10-10V10C32,4.5,27.5,0,22,0z M29,22
	c0,3.9-3.1,7-7,7H10c-3.9,0-7-3.1-7-7V10c0-3.9,3.1-7,7-7h12c3.9,0,7,3.1,7,7V22z"/>
<path class="st0" d="M16,8c-4.4,0-8,3.6-8,8s3.6,8,8,8s8-3.6,8-8S20.4,8,16,8z M16,21c-2.8,0-5-2.2-5-5c0-2.8,2.2-5,5-5s5,2.2,5,5
	C21,18.8,18.8,21,16,21z"/>
<circle class="st0" cx="24.6" cy="7.4" r="1.1"/>
</svg>
