<?xml version="1.0" encoding="UTF-8" standalone="no"?>
<!-- Creator: CorelDRAW X5 -->

<svg
   xmlns:dc="http://purl.org/dc/elements/1.1/"
   xmlns:cc="http://creativecommons.org/ns#"
   xmlns:rdf="http://www.w3.org/1999/02/22-rdf-syntax-ns#"
   xmlns:svg="http://www.w3.org/2000/svg"
   xmlns="http://www.w3.org/2000/svg"
   xmlns:sodipodi="http://sodipodi.sourceforge.net/DTD/sodipodi-0.dtd"
   xmlns:inkscape="http://www.inkscape.org/namespaces/inkscape"
   xml:space="preserve"
   style="clip-rule:evenodd;fill-rule:evenodd;image-rendering:optimizeQuality;shape-rendering:geometricPrecision;text-rendering:geometricPrecision"
   viewBox="0 0 21383.344 17291.125"
   version="1.1"
   id="svg6044"
   sodipodi:docname="landing.svg"
   width="21383.344"
   height="17291.125"
   inkscape:version="0.92.4 (5da689c313, 2019-01-14)"><metadata
   id="metadata6048"><rdf:RDF><cc:Work
       rdf:about=""><dc:format>image/svg+xml</dc:format><dc:type
         rdf:resource="http://purl.org/dc/dcmitype/StillImage" /><dc:title></dc:title></cc:Work></rdf:RDF></metadata><sodipodi:namedview
   pagecolor="#ffffff"
   bordercolor="#666666"
   borderopacity="1"
   objecttolerance="10"
   gridtolerance="10"
   guidetolerance="10"
   inkscape:pageopacity="0"
   inkscape:pageshadow="2"
   inkscape:window-width="1366"
   inkscape:window-height="705"
   id="namedview6046"
   showgrid="false"
   showguides="false"
   inkscape:lockguides="false"
   fit-margin-top="0"
   fit-margin-left="0"
   fit-margin-right="0"
   fit-margin-bottom="0"
   inkscape:zoom="0.011804607"
   inkscape:cx="16504.697"
   inkscape:cy="-5451.3851"
   inkscape:window-x="-8"
   inkscape:window-y="-8"
   inkscape:window-maximized="1"
   inkscape:current-layer="svg6044" />
 <defs
   id="defs5556">
  <style
   type="text/css"
   id="style5326">
   <![CDATA[
    .str5 {stroke:#373435;stroke-width:30}
    .str11 {stroke:#373435;stroke-width:30;stroke-linecap:round;stroke-linejoin:round}
    .str12 {stroke:#373435;stroke-width:40}
    .str9 {stroke:#373435;stroke-width:9.74;stroke-linecap:round;stroke-linejoin:round}
    .str8 {stroke:#373435;stroke-width:9.83;stroke-linecap:round;stroke-linejoin:round}
    .str4 {stroke:#373435;stroke-width:58.95;stroke-linecap:round;stroke-linejoin:round}
    .str6 {stroke:#373435;stroke-width:58.96;stroke-linecap:round;stroke-linejoin:round}
    .str1 {stroke:#373435;stroke-width:58.96;stroke-linecap:round;stroke-linejoin:round;stroke-opacity:0.309804}
    .str0 {stroke:#373435;stroke-width:58.96;stroke-linecap:round;stroke-linejoin:round}
    .str7 {stroke:#373435;stroke-width:58.97;stroke-linecap:round;stroke-linejoin:round}
    .str2 {stroke:#373435;stroke-width:58.97;stroke-linecap:round;stroke-linejoin:round;stroke-opacity:0.309804}
    .str3 {stroke:#373435;stroke-width:58.97;stroke-linecap:round;stroke-linejoin:round}
    .str10 {stroke:#373435;stroke-width:98.28;stroke-linecap:round}
    .fil5 {fill:none}
    .fil11 {fill:none}
    .fil18 {fill:#373435}
    .fil15 {fill:#848688}
    .fil14 {fill:#96989A}
    .fil13 {fill:#A9ABAE}
    .fil9 {fill:#BDBFC1}
    .fil17 {fill:#D2D3D5}
    .fil8 {fill:#E6E7E8}
    .fil2 {fill:#FEFEFE}
    .fil7 {fill:#00B0D4}
    .fil12 {fill:#0A4A90}
    .fil4 {fill:#0D86FF}
    .fil1 {fill:#0E6BCE}
    .fil20 {fill:#118BFF}
    .fil6 {fill:#1ADCFF}
    .fil3 {fill:#50ACFF}
    .fil19 {fill:#B69100}
    .fil0 {fill:#FBCD00}
    .fil16 {fill:#373435;fill-rule:nonzero}
    .fil10 {fill:#1ADCFF;fill-opacity:0.309804}
   ]]>
  </style>
     <clipPath
   id="id0">
      <path
   d="M 21784,4705 V 9402 L 19352,7699 v -467 l -327,-230 -4,956 187,131 v 616 c 86,139 212,282 395,401 562,364 2059,1446 2059,1446 0,0 222,173 360,103 126,-19 255,-94 359,-171 307,-227 218,-681 219,-1071 1,-1272 4,-4533 0,-5070 -5,-650 -468,-827 -468,-827 l -926,-650 c 0,0 -474,-360 -844,-594 -393,-249 -643,-292 -1099,-126 -13,5 -27,10 -40,15 -105,50 -183,180 -183,455 v 26 l 815,583 v 130 l 1927,1349 z m -1484,3928 c 71,50 135,132 182,225 47,94 76,199 76,294 0,97 -30,164 -79,195 -49,31 -118,24 -193,-29 -75,-53 -142,-140 -189,-239 -46,-97 -73,-205 -69,-299 4,-92 37,-155 86,-181 49,-26 115,-17 186,33 z"
   id="path5328"
   inkscape:connector-curvature="0" />
     </clipPath>
     <clipPath
   id="id1">
      <path
   d="m 19042,2616 -21,5533 c 0,0 21,593 582,957 562,364 2059,1446 2059,1446 0,0 468,364 468,-177 0,-541 -10,-5824 -10,-5824 0,0 94,-572 -447,-926 -541,-354 -1903,-1331 -1903,-1331 0,0 -728,-520 -728,322 z"
   id="path5331"
   inkscape:connector-curvature="0" />
     </clipPath>
       <clipPath
   id="id2">
        <path
   d="m 17153,7919 -459,-322 c 0,0 17,512 -203,921 -220,409 -310,1307 -278,1674 32,367 267,1354 267,1354 168,118 749,557 631,84 -74,-294 -89,-945 37,-1637 126,-693 105,-1228 7,-2074 z"
   id="path5334"
   inkscape:connector-curvature="0" />
       </clipPath>
       <clipPath
   id="id3">
        <path
   d="m 17285,7962 582,-336 c 0,0 -35,433 18,863 52,430 210,1081 210,1511 0,430 71,1553 -96,1650 -94,54 -248,143 -365,210 -243,140 -293,88 -401,-286 -250,-866 125,-1792 125,-2608 0,-388 -72,-1004 -72,-1004 z"
   id="path5337"
   inkscape:connector-curvature="0" />
       </clipPath>
       <clipPath
   id="id4">
        <path
   d="m 16715,7512 528,370 522,-301 -522,-373 -528,305 z"
   id="path5340"
   inkscape:connector-curvature="0" />
       </clipPath>
       <clipPath
   id="id5">
        <path
   d="m 17015,7280 255,-145 235,164 -253,146 -242,-170 6,4 z"
   id="path5343"
   inkscape:connector-curvature="0" />
       </clipPath>
       <clipPath
   id="id6">
        <path
   d="m 17015,7475 -3,-197 240,168 v 191 z"
   id="path5346"
   inkscape:connector-curvature="0" />
       </clipPath>
       <clipPath
   id="id7">
        <path
   d="m 17264,6927 v 0 c 83,0 151,68 151,151 v 96 c 0,83 -68,151 -151,151 v 0 c -83,0 -151,-68 -151,-151 v -96 c 0,-83 68,-151 151,-151 z"
   id="path5349"
   inkscape:connector-curvature="0" />
       </clipPath>
       <clipPath
   id="id8">
        <path
   d="m 17071,6915 c 0,0 223,252 428,182 206,-70 368,-177 398,-263 16,-46 24,-398 27,-716 7,-637 101,-498 -481,-864 -186,-117 -375,-217 -468,-207 -215,22 -326,189 -326,255 0,66 5,751 5,751 0,0 -132,431 416,862 z"
   id="path5352"
   inkscape:connector-curvature="0" />
       </clipPath>
       <clipPath
   id="id9">
        <path
   d="m 16686,5216 c 87,61 533,343 666,431 153,101 288,143 295,259 11,176 0,833 0,833 0,0 23,426 -295,409 l -667,-1933 z"
   id="path5355"
   inkscape:connector-curvature="0" />
       </clipPath>
       <clipPath
   id="id10">
        <path
   d="m 16546,5982 c 42,4 108,15 208,36 254,54 368,372 431,571 63,199 -4,304 -86,376 -82,73 -499,-190 -567,-286 -33,-47 -100,-168 -140,-304 -59,-155 -147,-492 -129,-510 29,-28 87,-64 131,-64 35,0 64,44 140,178 l 13,1 z"
   id="path5358"
   inkscape:connector-curvature="0" />
       </clipPath>
       <clipPath
   id="id11">
        <path
   d="m 17405,5136 c 136,-238 173,-309 217,-309 44,0 102,37 130,65 19,19 -85,396 -145,534 -104,241 -339,-52 -203,-290 z"
   id="path5361"
   inkscape:connector-curvature="0" />
       </clipPath>
       <clipPath
   id="id12">
        <path
   d="m 17695,5361 c 66,-101 111,-124 149,-122 37,2 84,36 107,62 15,17 -41,202 -99,316 -100,199 -345,32 -157,-256 z"
   id="path5364"
   inkscape:connector-curvature="0" />
       </clipPath>
       <clipPath
   id="id13">
        <path
   d="m 18050,4819 c 22,15 48,419 -21,413 -105,-9 -106,4 -140,-38 -79,-97 36,-460 161,-375 z"
   id="path5367"
   inkscape:connector-curvature="0" />
       </clipPath>
       <clipPath
   id="id14">
        <path
   d="m 17827,4297 c 25,19 36,496 -45,486 -123,-16 -125,-1 -163,-52 -88,-118 65,-540 208,-434 z"
   id="path5370"
   inkscape:connector-curvature="0" />
       </clipPath>
       <clipPath
   id="id15">
        <path
   d="m 16714,4967 c -39,-271 -54,-350 -19,-377 35,-27 103,-34 143,-29 27,3 177,364 215,510 18,70 -66,114 -97,136 -83,57 -214,-43 -242,-239 z"
   id="path5373"
   inkscape:connector-curvature="0" />
       </clipPath>
       <clipPath
   id="id16">
        <path
   d="m 16531,4046 c 32,-1 334,369 263,411 -107,63 -99,76 -161,59 -142,-39 -281,-466 -103,-470 z"
   id="path5376"
   inkscape:connector-curvature="0" />
       </clipPath>
       <clipPath
   id="id17">
        <path
   d="m 17059,4891 c 91,-291 114,-377 158,-386 44,-9 107,20 140,46 22,17 -12,456 -46,621 -41,199 -211,211 -269,51 -26,-71 -12,-242 16,-332 z"
   id="path5379"
   inkscape:connector-curvature="0" />
       </clipPath>
       <clipPath
   id="id18">
        <path
   d="m 17347,3884 c 63,44 95,431 -6,519 -34,30 -109,62 -168,-14 -39,-50 -26,-158 -7,-262 28,-158 90,-308 181,-243 z"
   id="path5382"
   inkscape:connector-curvature="0" />
       </clipPath>
       <clipPath
   id="id19">
        <path
   d="m 16097,5316 c -23,21 15,498 95,479 121,-29 124,-14 157,-68 76,-126 -120,-530 -252,-410 z"
   id="path5385"
   inkscape:connector-curvature="0" />
       </clipPath>
       <clipPath
   id="id20">
        <path
   d="m 17501,7503 3,-197 -240,140 v 191 l 237,-133 z"
   id="path5388"
   inkscape:connector-curvature="0" />
       </clipPath>
       <clipPath
   id="id21">
        <path
   d="m 17415,7146 c 253,-37 233,-406 233,-406 0,0 11,-658 0,-833 -7,-117 -143,-158 -295,-259 -133,-88 -579,-370 -666,-431 -24,36 -36,69 -36,91 0,54 3,506 5,692 29,5 62,12 100,20 254,54 368,372 431,571 63,199 -4,304 -86,376 -3,2 -6,4 -9,6 8,8 21,22 39,38 49,45 132,110 225,139 22,1 42,0 61,-2 z"
   id="path5391"
   inkscape:connector-curvature="0" />
       </clipPath>
       <clipPath
   id="id22">
        <path
   d="m 17415,7146 c 253,-37 233,-406 233,-406 0,0 11,-658 0,-833 -7,-117 -143,-158 -295,-259 -133,-88 -579,-370 -666,-431 -24,36 -36,69 -36,91 0,54 3,506 5,692 29,5 62,12 100,20 254,54 368,372 431,571 63,199 -4,304 -86,376 -3,2 -6,4 -9,6 8,8 21,22 39,38 49,45 132,110 225,139 22,1 42,0 61,-2 z"
   id="path5394"
   inkscape:connector-curvature="0" />
       </clipPath>
      <clipPath
   id="id23">
       <path
   d="m 17023,7973 c 12,8 23,22 30,37 8,16 13,33 13,49 0,16 -5,27 -13,33 -8,5 -20,4 -32,-5 -13,-9 -24,-23 -31,-40 -8,-16 -12,-34 -11,-50 1,-15 6,-26 14,-30 8,-4 19,-3 31,5 z"
   id="path5397"
   inkscape:connector-curvature="0" />
      </clipPath>
      <clipPath
   id="id24">
       <path
   d="m 17427,8003 c -11,10 -20,24 -25,41 -6,16 -8,34 -7,50 2,16 8,26 17,30 9,4 20,2 31,-9 11,-10 20,-26 26,-43 6,-17 8,-35 5,-50 -3,-15 -9,-25 -18,-28 -9,-3 -19,0 -30,9 z"
   id="path5400"
   inkscape:connector-curvature="0" />
      </clipPath>
      <clipPath
   id="id25">
       <path
   d="m 17480,11619 c -11,10 -20,24 -25,41 -6,16 -8,34 -7,50 2,16 8,26 17,30 9,4 20,2 31,-9 11,-10 20,-26 26,-43 6,-17 8,-35 5,-50 -3,-15 -9,-25 -18,-28 -9,-3 -19,0 -30,9 z"
   id="path5403"
   inkscape:connector-curvature="0" />
      </clipPath>
      <clipPath
   id="id26">
       <path
   d="m 16427,9432 850,3172 z"
   id="path5406"
   inkscape:connector-curvature="0" />
      </clipPath>
      <clipPath
   id="id27">
       <path
   d="m 15518,9958 850,3172 z"
   id="path5409"
   inkscape:connector-curvature="0" />
      </clipPath>
      <clipPath
   id="id28">
       <path
   d="m 14638,9341 -850,3172 z"
   id="path5412"
   inkscape:connector-curvature="0" />
      </clipPath>
      <clipPath
   id="id29">
       <path
   d="m 15545,8830 -850,3172 z"
   id="path5415"
   inkscape:connector-curvature="0" />
      </clipPath>
      <clipPath
   id="id30">
       <path
   d="m 15518,9958 909,-525 z"
   id="path5418"
   inkscape:connector-curvature="0" />
      </clipPath>
      <clipPath
   id="id31">
       <path
   d="m 15725,10713 909,-525 z"
   id="path5421"
   inkscape:connector-curvature="0" />
      </clipPath>
      <clipPath
   id="id32">
       <path
   d="m 15936,11533 909,-525 z"
   id="path5424"
   inkscape:connector-curvature="0" />
      </clipPath>
      <clipPath
   id="id33">
       <path
   d="m 16147,12256 909,-525 z"
   id="path5427"
   inkscape:connector-curvature="0" />
      </clipPath>
      <clipPath
   id="id34">
       <path
   d="m 14398,10177 909,-525 z"
   id="path5430"
   inkscape:connector-curvature="0" />
      </clipPath>
      <clipPath
   id="id35">
       <path
   d="m 14217,10973 909,-525 z"
   id="path5433"
   inkscape:connector-curvature="0" />
      </clipPath>
      <clipPath
   id="id36">
       <path
   d="m 13996,11752 909,-525 z"
   id="path5436"
   inkscape:connector-curvature="0" />
      </clipPath>
      <clipPath
   id="id37">
       <path
   d="m 14638,9341 909,-525 880,616 -909,525 z"
   id="path5439"
   inkscape:connector-curvature="0" />
      </clipPath>
      <clipPath
   id="id38">
       <path
   d="m 21131,25251 v 4697 l -2432,-1703 v -467 l -327,-230 -4,956 187,131 v 616 c 86,139 212,282 395,401 562,364 2059,1446 2059,1446 0,0 222,173 360,103 126,-19 255,-94 359,-171 307,-227 218,-681 219,-1071 1,-1272 4,-4533 0,-5070 -5,-650 -468,-827 -468,-827 l -926,-650 c 0,0 -474,-360 -844,-594 -393,-249 -643,-292 -1099,-126 -13,5 -27,10 -40,15 -105,50 -183,180 -183,455 v 26 l 815,583 v 130 l 1927,1349 z m -1484,3928 c 71,50 135,132 182,225 47,94 76,199 76,294 0,97 -30,164 -79,195 -49,31 -118,24 -193,-29 -75,-53 -142,-140 -189,-239 -46,-97 -73,-205 -69,-299 4,-92 37,-155 86,-181 49,-26 115,-17 186,33 z"
   id="path5442"
   inkscape:connector-curvature="0" />
      </clipPath>
      <clipPath
   id="id39">
       <path
   d="m 18388,23163 -21,5533 c 0,0 21,593 582,957 562,364 2059,1446 2059,1446 0,0 468,364 468,-177 0,-541 -10,-5824 -10,-5824 0,0 94,-572 -447,-926 -541,-354 -1903,-1331 -1903,-1331 0,0 -728,-520 -728,322 z"
   id="path5445"
   inkscape:connector-curvature="0" />
      </clipPath>
        <clipPath
   id="id40">
         <path
   d="m 16500,28465 -459,-322 c 0,0 17,512 -203,921 -220,409 -310,1307 -278,1674 32,367 267,1354 267,1354 168,118 749,557 631,84 -74,-294 -89,-945 37,-1637 126,-693 105,-1228 7,-2074 z"
   id="path5448"
   inkscape:connector-curvature="0" />
        </clipPath>
        <clipPath
   id="id41">
         <path
   d="m 16632,28509 582,-336 c 0,0 -35,433 18,863 52,430 210,1081 210,1511 0,430 71,1553 -96,1650 -94,54 -248,143 -365,211 -243,140 -293,88 -401,-286 -250,-866 125,-1792 125,-2608 0,-388 -72,-1004 -72,-1004 z"
   id="path5451"
   inkscape:connector-curvature="0" />
        </clipPath>
        <clipPath
   id="id42">
         <path
   d="m 16061,28058 528,370 522,-301 -522,-373 -528,305 z"
   id="path5454"
   inkscape:connector-curvature="0" />
        </clipPath>
        <clipPath
   id="id43">
         <path
   d="m 16361,27826 255,-145 235,164 -253,146 -242,-170 6,4 z"
   id="path5457"
   inkscape:connector-curvature="0" />
        </clipPath>
        <clipPath
   id="id44">
         <path
   d="m 16361,28021 -3,-197 240,168 v 191 z"
   id="path5460"
   inkscape:connector-curvature="0" />
        </clipPath>
        <clipPath
   id="id45">
         <path
   d="m 16610,27473 v 0 c 83,0 151,68 151,151 v 96 c 0,83 -68,151 -151,151 v 0 c -83,0 -151,-68 -151,-151 v -96 c 0,-83 68,-151 151,-151 z"
   id="path5463"
   inkscape:connector-curvature="0" />
        </clipPath>
        <clipPath
   id="id46">
         <path
   d="m 16418,27461 c 0,0 223,252 428,182 206,-70 368,-177 398,-263 16,-46 24,-398 27,-716 7,-637 101,-498 -481,-864 -186,-117 -375,-217 -468,-207 -215,22 -326,189 -326,255 0,66 5,751 5,751 0,0 -132,431 416,862 z"
   id="path5466"
   inkscape:connector-curvature="0" />
        </clipPath>
        <clipPath
   id="id47">
         <path
   d="m 16033,25762 c 87,61 533,343 666,431 153,101 288,143 295,259 11,176 0,833 0,833 0,0 23,426 -295,409 l -667,-1933 z"
   id="path5469"
   inkscape:connector-curvature="0" />
        </clipPath>
        <clipPath
   id="id48">
         <path
   d="m 15893,26529 c 42,4 108,15 208,36 254,54 368,372 431,571 63,199 -4,304 -86,376 -82,73 -499,-190 -567,-286 -33,-47 -100,-168 -140,-304 -59,-155 -147,-492 -129,-510 29,-28 87,-64 131,-64 35,0 64,44 140,178 l 13,1 z"
   id="path5472"
   inkscape:connector-curvature="0" />
        </clipPath>
        <clipPath
   id="id49">
         <path
   d="m 16752,25682 c 136,-238 173,-309 217,-309 44,0 102,37 130,65 19,19 -85,396 -145,534 -104,241 -339,-52 -203,-290 z"
   id="path5475"
   inkscape:connector-curvature="0" />
        </clipPath>
        <clipPath
   id="id50">
         <path
   d="m 17042,25908 c 66,-101 111,-124 149,-122 37,2 84,36 107,62 15,17 -41,202 -99,316 -100,199 -345,32 -157,-256 z"
   id="path5478"
   inkscape:connector-curvature="0" />
        </clipPath>
        <clipPath
   id="id51">
         <path
   d="m 17397,25366 c 22,15 48,419 -21,413 -105,-9 -106,4 -140,-38 -79,-97 36,-460 161,-375 z"
   id="path5481"
   inkscape:connector-curvature="0" />
        </clipPath>
        <clipPath
   id="id52">
         <path
   d="m 17174,24843 c 25,19 36,496 -45,486 -123,-16 -125,-1 -163,-52 -88,-118 65,-540 208,-434 z"
   id="path5484"
   inkscape:connector-curvature="0" />
        </clipPath>
        <clipPath
   id="id53">
         <path
   d="m 16061,25513 c -39,-271 -54,-350 -19,-377 35,-27 103,-34 143,-29 27,3 177,364 215,510 18,70 -66,114 -97,136 -83,57 -214,-43 -242,-239 z"
   id="path5487"
   inkscape:connector-curvature="0" />
        </clipPath>
        <clipPath
   id="id54">
         <path
   d="m 15877,24592 c 32,-1 334,369 263,411 -107,63 -99,76 -161,59 -142,-39 -281,-466 -103,-470 z"
   id="path5490"
   inkscape:connector-curvature="0" />
        </clipPath>
        <clipPath
   id="id55">
         <path
   d="m 16406,25438 c 91,-291 114,-377 158,-386 44,-9 107,20 140,46 22,17 -12,456 -46,621 -41,199 -211,211 -269,51 -26,-71 -12,-242 16,-332 z"
   id="path5493"
   inkscape:connector-curvature="0" />
        </clipPath>
        <clipPath
   id="id56">
         <path
   d="m 16694,24430 c 63,44 95,431 -6,519 -34,30 -109,62 -168,-14 -39,-50 -26,-158 -7,-262 28,-158 90,-308 181,-243 z"
   id="path5496"
   inkscape:connector-curvature="0" />
        </clipPath>
        <clipPath
   id="id57">
         <path
   d="m 15443,25863 c -23,21 15,498 95,479 121,-29 124,-14 157,-68 76,-126 -120,-530 -252,-410 z"
   id="path5499"
   inkscape:connector-curvature="0" />
        </clipPath>
        <clipPath
   id="id58">
         <path
   d="m 16848,28049 3,-197 -240,140 v 191 l 237,-133 z"
   id="path5502"
   inkscape:connector-curvature="0" />
        </clipPath>
        <clipPath
   id="id59">
         <path
   d="m 16761,27693 c 253,-37 233,-406 233,-406 0,0 11,-658 0,-833 -7,-117 -143,-158 -295,-259 -133,-88 -579,-370 -666,-431 -24,36 -36,69 -36,91 0,54 3,506 5,692 29,5 62,12 100,20 254,54 368,372 431,571 63,199 -4,304 -86,376 -3,2 -6,4 -9,6 8,8 21,22 39,38 49,45 132,110 225,139 22,1 42,0 61,-2 z"
   id="path5505"
   inkscape:connector-curvature="0" />
        </clipPath>
        <clipPath
   id="id60">
         <path
   d="m 16761,27693 c 253,-37 233,-406 233,-406 0,0 11,-658 0,-833 -7,-117 -143,-158 -295,-259 -133,-88 -579,-370 -666,-431 -24,36 -36,69 -36,91 0,54 3,506 5,692 29,5 62,12 100,20 254,54 368,372 431,571 63,199 -4,304 -86,376 -3,2 -6,4 -9,6 8,8 21,22 39,38 49,45 132,110 225,139 22,1 42,0 61,-2 z"
   id="path5508"
   inkscape:connector-curvature="0" />
        </clipPath>
       <clipPath
   id="id61">
        <path
   d="m 16369,28520 c 12,8 23,22 30,37 8,16 13,33 13,49 0,16 -5,27 -13,33 -8,5 -20,4 -32,-5 -13,-9 -24,-23 -31,-40 -8,-16 -12,-34 -11,-50 1,-15 6,-26 14,-30 8,-4 19,-3 31,5 z"
   id="path5511"
   inkscape:connector-curvature="0" />
       </clipPath>
       <clipPath
   id="id62">
        <path
   d="m 16774,28550 c -11,10 -20,24 -25,41 -6,16 -8,34 -7,50 2,16 8,26 17,30 9,4 20,2 31,-9 11,-10 20,-26 26,-43 6,-17 8,-35 5,-50 -3,-15 -9,-25 -18,-28 -9,-3 -19,0 -30,9 z"
   id="path5514"
   inkscape:connector-curvature="0" />
       </clipPath>
       <clipPath
   id="id63">
        <path
   d="m 16827,32166 c -11,10 -20,24 -25,41 -6,16 -8,34 -7,50 2,16 8,26 17,30 9,4 20,2 31,-9 11,-10 20,-26 26,-43 6,-17 8,-35 5,-50 -3,-15 -9,-25 -18,-28 -9,-3 -19,0 -30,9 z"
   id="path5517"
   inkscape:connector-curvature="0" />
       </clipPath>
       <clipPath
   id="id64">
        <path
   d="m 15774,29979 850,3172 z"
   id="path5520"
   inkscape:connector-curvature="0" />
       </clipPath>
       <clipPath
   id="id65">
        <path
   d="m 14865,30504 850,3172 z"
   id="path5523"
   inkscape:connector-curvature="0" />
       </clipPath>
       <clipPath
   id="id66">
        <path
   d="m 13985,29888 -850,3172 z"
   id="path5526"
   inkscape:connector-curvature="0" />
       </clipPath>
       <clipPath
   id="id67">
        <path
   d="m 14892,29376 -850,3172 z"
   id="path5529"
   inkscape:connector-curvature="0" />
       </clipPath>
       <clipPath
   id="id68">
        <path
   d="m 14865,30504 909,-525 z"
   id="path5532"
   inkscape:connector-curvature="0" />
       </clipPath>
       <clipPath
   id="id69">
        <path
   d="m 15072,31259 909,-525 z"
   id="path5535"
   inkscape:connector-curvature="0" />
       </clipPath>
       <clipPath
   id="id70">
        <path
   d="m 15283,32079 909,-525 z"
   id="path5538"
   inkscape:connector-curvature="0" />
       </clipPath>
       <clipPath
   id="id71">
        <path
   d="m 15494,32803 909,-525 z"
   id="path5541"
   inkscape:connector-curvature="0" />
       </clipPath>
       <clipPath
   id="id72">
        <path
   d="m 13745,30724 909,-525 z"
   id="path5544"
   inkscape:connector-curvature="0" />
       </clipPath>
       <clipPath
   id="id73">
        <path
   d="m 13564,31520 909,-525 z"
   id="path5547"
   inkscape:connector-curvature="0" />
       </clipPath>
       <clipPath
   id="id74">
        <path
   d="m 13343,32299 909,-525 z"
   id="path5550"
   inkscape:connector-curvature="0" />
       </clipPath>
       <clipPath
   id="id75">
        <path
   d="m 13985,29888 909,-525 880,616 -909,525 z"
   id="path5553"
   inkscape:connector-curvature="0" />
       </clipPath>
 </defs>
 <g
   id="Camada_x0020_1"
   transform="translate(-11415.228,-20545.672)">
  <metadata
   id="CorelCorpID_0Corel-Layer" />
  <g
   id="_467352928">
   <path
   class="fil0"
   d="m 22669,34496 448,313 c 144,101 220,255 212,430 -8,175 -97,322 -249,410 l -382,221 c -152,88 -241,235 -249,410 -8,175 68,329 212,430 l 1304,913 c 162,114 363,122 535,23 l 746,-431 c 172,-99 372,-90 535,23 l 725,507 c 162,114 363,122 535,23 l 1465,-846 177,124 c 162,114 363,122 535,23 l 3331,-1923 c 152,-88 241,-235 249,-410 8,-175 -68,-329 -212,-430 l -3565,-2496 c -162,-114 -363,-122 -535,-23 l -3194,1844 -249,-174 c -162,-114 -363,-122 -535,-23 l -1840,1062 z"
   id="path5559"
   inkscape:connector-curvature="0"
   style="fill:#fbcd00" />
   <g
   id="g6040">

    <!--Begin Blue Version-->
    <g
   id="g6038">
     <path
   class="fil6"
   d="m 22426,21017 v 5982 c 0,158 70,293 199,384 l 2897,2036 c 147,103 327,115 486,32 159,-83 253,-237 253,-416 v -5947 c 0,-156 -69,-291 -196,-382 l -2897,-2071 c -147,-105 -327,-118 -487,-36 -160,82 -255,237 -255,417 z"
   id="path5561"
   inkscape:connector-curvature="0"
   style="fill:#1adcff" />
     <path
   class="fil6"
   d="m 11723,30697 627,439 c 201,141 308,357 297,602 -11,245 -136,451 -348,574 l -535,309 c -213,123 -338,329 -348,574 -11,245 96,461 297,602 l 1827,1279 c 227,159 509,172 749,33 l 1046,-604 c 240,-139 522,-127 749,33 l 1016,711 c 227,159 509,172 749,33 l 2053,-1185 248,174 c 227,159 509,172 749,33 l 4668,-2695 c 213,-123 338,-329 348,-574 11,-245 -96,-461 -297,-602 l -4995,-3498 c -227,-159 -509,-172 -749,-33 l -4475,2584 -349,-244 c -227,-159 -509,-172 -749,-33 z"
   id="path5563"
   inkscape:connector-curvature="0"
   style="fill:#1adcff" />
     <path
   class="fil6"
   d="m 20910,21248 v 3889 c 0,103 46,191 130,250 l 1884,1324 c 96,67 212,75 316,21 104,-54 164,-154 164,-271 v -3867 c 0,-102 -45,-189 -128,-248 l -1884,-1346 c -95,-68 -213,-77 -317,-23 -104,54 -166,154 -166,271 z"
   id="path5565"
   inkscape:connector-curvature="0"
   style="fill:#1adcff" />
     <ellipse
   class="fil2"
   transform="matrix(1.5536,0.794547,-0.794547,1.5536,19953.6,29992.4)"
   rx="1482"
   ry="521"
   id="ellipse5567"
   cx="0"
   cy="0"
   style="fill:#fefefe" />
     <path
   class="fil3"
   d="m 21131,25251 v 4697 l -2432,-1703 v -467 l -327,-230 -4,956 187,131 v 616 c 86,139 212,282 395,401 562,364 2059,1446 2059,1446 0,0 222,173 360,103 126,-19 255,-94 359,-171 307,-227 218,-681 219,-1071 1,-1272 4,-4533 0,-5070 -5,-650 -468,-827 -468,-827 l -926,-650 c 0,0 -474,-360 -844,-594 -393,-249 -643,-292 -1099,-126 -13,5 -27,10 -40,15 -105,50 -183,180 -183,455 v 26 l 815,583 v 130 l 1927,1349 z m -1484,3928 c 71,50 135,132 182,225 47,94 76,199 76,294 0,97 -30,164 -79,195 -49,31 -118,24 -193,-29 -75,-53 -142,-140 -189,-239 -46,-97 -73,-205 -69,-299 4,-92 37,-155 86,-181 49,-26 115,-17 186,33 z"
   id="path5569"
   inkscape:connector-curvature="0"
   style="fill:#50acff" />
     <g
   clip-path="url(#id38)"
   id="g5573">
      <g
   id="_468720088">
       <path
   id="1"
   class="fil4"
   d="m 21397,27609 c 1,674 3,1384 4,1982 l 473,-273 c 0,-411 1,-888 1,-1375 0,-92 0,-185 0,-277 l -478,-336 c 0,92 0,185 1,279 z"
   inkscape:connector-curvature="0"
   style="fill:#0d86ff" />
      </g>
     </g>
     <path
   class="fil5 str0"
   d="m 21131,25251 v 4697 l -2432,-1703 v -467 l -327,-230 -4,956 187,131 v 616 c 86,139 212,282 395,401 562,364 2059,1446 2059,1446 0,0 222,173 360,103 126,-19 255,-94 359,-171 307,-227 218,-681 219,-1071 1,-1272 4,-4533 0,-5070 -5,-650 -468,-827 -468,-827 l -926,-650 c 0,0 -474,-360 -844,-594 -393,-249 -643,-292 -1099,-126 -13,5 -27,10 -40,15 -105,50 -183,180 -183,455 v 26 l 815,583 v 130 l 1927,1349 z m -1484,3928 c 71,50 135,132 182,225 47,94 76,199 76,294 0,97 -30,164 -79,195 -49,31 -118,24 -193,-29 -75,-53 -142,-140 -189,-239 -46,-97 -73,-205 -69,-299 4,-92 37,-155 86,-181 49,-26 115,-17 186,33 z"
   id="path5575"
   inkscape:connector-curvature="0"
   style="fill:none;stroke:#373435;stroke-width:58.95999908;stroke-linecap:round;stroke-linejoin:round" />
     <path
   class="fil6"
   d="m 18388,23163 -21,5533 c 0,0 21,593 582,957 562,364 2059,1446 2059,1446 0,0 468,364 468,-177 0,-541 -10,-5824 -10,-5824 0,0 94,-572 -447,-926 -541,-354 -1903,-1331 -1903,-1331 0,0 -728,-520 -728,322 z"
   id="path5577"
   inkscape:connector-curvature="0"
   style="fill:#1adcff" />
     <g
   clip-path="url(#id39)"
   id="g5584">
      <g
   id="_467353072">
       <path
   id="path5579"
   class="fil7"
   d="m 19496,28858 -809,-566 v -62 c -97,128 -189,249 -274,361 -6,7 -11,15 -17,22 -14,18 -27,36 -40,53 v 76 c 0,0 9,269 187,556 86,139 212,282 395,401 265,172 740,504 1167,807 l 375,-216 -59,-41 v -90 l 511,-295 z m -99,450 c 14,-42 37,-72 66,-88 45,-24 106,-16 172,30 66,46 125,122 168,207 8,15 15,30 21,46 31,74 49,153 49,226 0,89 -28,152 -73,180 l -2,1 c 4,-21 6,-44 6,-70 0,-91 -28,-192 -73,-281 -10,-20 -20,-39 -32,-57 -40,-65 -89,-120 -142,-157 -60,-42 -116,-54 -161,-38 z"
   inkscape:connector-curvature="0"
   style="fill:#00b0d4" />
       <path
   class="fil7"
   d="m 21119,27336 v 2344 75 l 59,-34 285,-165 c -1,-599 -2,-1309 -4,-1982 0,-94 0,-187 -1,-279 l -340,-239 v 279 z"
   id="path5581"
   inkscape:connector-curvature="0"
   style="fill:#00b0d4" />
      </g>
     </g>
     <path
   class="fil5 str0"
   d="m 18388,23163 -21,5533 c 0,0 21,593 582,957 562,364 2059,1446 2059,1446 0,0 468,364 468,-177 0,-541 -10,-5824 -10,-5824 0,0 94,-572 -447,-926 -541,-354 -1903,-1331 -1903,-1331 0,0 -728,-520 -728,322 z"
   id="path5586"
   inkscape:connector-curvature="0"
   style="fill:none;stroke:#373435;stroke-width:58.95999908;stroke-linecap:round;stroke-linejoin:round" />
     <polygon
   class="fil8 str0"
   points="21131,29948 21131,25251 18699,23549 18699,28245 "
   id="polygon5588"
   style="fill:#e6e7e8;stroke:#373435;stroke-width:58.95999908;stroke-linecap:round;stroke-linejoin:round" />
     <polygon
   class="fil9"
   points="21112,29622 21112,29549 21112,27286 21112,27016 20825,26815 20981,25278 18764,28208 19545,28755 20931,29726 21111,29857 "
   id="polygon5590"
   style="fill:#bdbfc1" />
     <polygon
   class="fil10 str1"
   points="22748,27901 22748,23421 20326,21690 20326,26198 "
   id="polygon5592"
   style="fill:#1adcff;fill-opacity:0.30980398;stroke:#373435;stroke-width:58.95999908;stroke-linecap:round;stroke-linejoin:round;stroke-opacity:0.30980398" />
     <polygon
   class="fil11 str1"
   points="22948,27788 22948,23309 20525,21577 20525,26086 "
   id="polygon5594"
   style="fill:none;stroke:#373435;stroke-width:58.95999908;stroke-linecap:round;stroke-linejoin:round;stroke-opacity:0.30980398" />
     <polygon
   class="fil2 str0"
   points="22471,27953 22471,23473 20048,21742 20048,26250 "
   id="polygon5596"
   style="fill:#fefefe;stroke:#373435;stroke-width:58.95999908;stroke-linecap:round;stroke-linejoin:round" />
     <polygon
   class="fil10 str2"
   points="19029,27794 19029,23870 16906,22353 16906,26303 "
   id="polygon5598"
   style="fill:#1adcff;fill-opacity:0.30980398;stroke:#373435;stroke-width:58.97000122;stroke-linecap:round;stroke-linejoin:round;stroke-opacity:0.30980398" />
     <polygon
   class="fil11 str2"
   points="19203,27696 19203,23771 17081,22255 17081,26204 "
   id="polygon5600"
   style="fill:none;stroke:#373435;stroke-width:58.97000122;stroke-linecap:round;stroke-linejoin:round;stroke-opacity:0.30980398" />
     <polygon
   class="fil0 str3"
   points="18786,27840 18786,23916 16663,22399 16663,26348 "
   id="polygon5602"
   style="fill:#fbcd00;stroke:#373435;stroke-width:58.97000122;stroke-linecap:round;stroke-linejoin:round" />
     <ellipse
   class="fil2"
   transform="matrix(0.736644,0.376737,-0.376737,0.736644,16387.5,32135.9)"
   rx="1482"
   ry="521"
   id="ellipse5604"
   cx="0"
   cy="0"
   style="fill:#fefefe" />
     <path
   class="fil0 str0"
   d="m 19647,29179 c 71,50 135,132 182,225 47,94 76,199 76,294 0,97 -30,164 -79,195 -49,31 -118,24 -193,-29 -75,-53 -142,-140 -189,-239 -46,-97 -73,-205 -69,-299 4,-92 37,-155 86,-181 49,-26 115,-17 186,33 z"
   id="path5606"
   inkscape:connector-curvature="0"
   style="fill:#fbcd00;stroke:#373435;stroke-width:58.95999908;stroke-linecap:round;stroke-linejoin:round" />
     <g
   id="_468638768">
      <path
   class="fil0 str0"
   d="m 19989,32177 1462,1021 v -805 l -1492,-1041 c 0,0 227,693 30,825 z"
   id="path5608"
   inkscape:connector-curvature="0"
   style="fill:#fbcd00;stroke:#373435;stroke-width:58.95999908;stroke-linecap:round;stroke-linejoin:round" />
      <polygon
   class="fil1 str0"
   points="23970,30921 22329,29772 19883,31184 21524,32333 "
   id="polygon5610"
   style="fill:#0e6bce;stroke:#373435;stroke-width:58.95999908;stroke-linecap:round;stroke-linejoin:round" />
      <path
   class="fil1 str0"
   d="m 21524,32333 v 1036 l 2446,-1412 c 109,-356 115,-753 0,-1036 z"
   id="path5612"
   inkscape:connector-curvature="0"
   style="fill:#0e6bce;stroke:#373435;stroke-width:58.95999908;stroke-linecap:round;stroke-linejoin:round" />
      <polygon
   class="fil1 str0"
   points="21524,33369 21524,32333 19883,31184 19883,31303 19959,31352 21451,32394 21451,33199 19989,32177 19932,32138 19932,32255 "
   id="polygon5614"
   style="fill:#0e6bce;stroke:#373435;stroke-width:58.95999908;stroke-linecap:round;stroke-linejoin:round" />
     </g>
     <g
   id="_468638816">
      <polygon
   class="fil3 str0"
   points="21057,32314 21057,31733 19635,30738 19635,30837 19701,30883 20994,31786 20994,32167 19727,31282 19678,31248 19678,31349 "
   id="polygon5617"
   style="fill:#50acff;stroke:#373435;stroke-width:58.95999908;stroke-linecap:round;stroke-linejoin:round" />
      <path
   class="fil0 str0"
   d="m 19727,31282 1267,885 v -381 l -1293,-902 c 0,0 106,171 26,398 z"
   id="path5619"
   inkscape:connector-curvature="0"
   style="fill:#fbcd00;stroke:#373435;stroke-width:58.95999908;stroke-linecap:round;stroke-linejoin:round" />
      <path
   class="fil3 str0"
   d="m 21057,31733 v 581 l 2119,-1224 c 44,-150 99,-336 0,-581 l -2120,1224 z"
   id="path5621"
   inkscape:connector-curvature="0"
   style="fill:#50acff;stroke:#373435;stroke-width:58.95999908;stroke-linecap:round;stroke-linejoin:round" />
      <polygon
   class="fil3 str0"
   points="23177,30509 21755,29514 19635,30738 21057,31733 "
   id="polygon5623"
   style="fill:#50acff;stroke:#373435;stroke-width:58.95999908;stroke-linecap:round;stroke-linejoin:round" />
     </g>
     <g
   id="_468639344">
      <polygon
   class="fil3 str4"
   points="21715,31534 21715,31010 20433,30112 20433,30202 20493,30244 21658,31057 21658,31401 20516,30603 20472,30572 20472,30663 "
   id="polygon5626"
   style="fill:#50acff;stroke:#373435;stroke-width:58.95000076;stroke-linecap:round;stroke-linejoin:round" />
      <path
   class="fil0 str4"
   d="m 20516,30603 1142,798 v -343 l -1166,-814 c 0,0 96,154 23,359 z"
   id="path5628"
   inkscape:connector-curvature="0"
   style="fill:#fbcd00;stroke:#373435;stroke-width:58.95000076;stroke-linecap:round;stroke-linejoin:round" />
      <path
   class="fil3 str4"
   d="m 21715,31010 v 524 l 1911,-1103 c 40,-135 90,-303 0,-524 z"
   id="path5630"
   inkscape:connector-curvature="0"
   style="fill:#50acff;stroke:#373435;stroke-width:58.95000076;stroke-linecap:round;stroke-linejoin:round" />
      <polygon
   class="fil3 str0"
   points="23626,29907 22344,29009 20433,30112 21715,31010 "
   id="polygon5632"
   style="fill:#50acff;stroke:#373435;stroke-width:58.95999908;stroke-linecap:round;stroke-linejoin:round" />
     </g>
     <g
   id="_468639944">
      <path
   class="fil0 str5"
   d="m 21884,23865 c -61,18 -119,83 -106,277 12,193 77,340 139,439 62,98 73,114 121,148 l 288,204 289,204 c 48,34 157,113 319,225 162,112 329,225 350,224 0,0 0,0 1,0 33,0 63,-3 92,-7 445,-67 408,-576 169,-763 -64,-50 -126,-80 -126,-98 0,-115 -6,-351 -105,-575 -86,-195 -258,-385 -372,-430 -136,-53 -274,-12 -422,49 -7,3 -15,6 -22,9 0,0 -1,0 -2,-1 -7,-5 -10,-24 -72,-69 -117,-86 -270,-79 -379,16 -11,10 -11,30 -12,49 -23,49 -23,114 -23,114 0,0 -64,-31 -125,-13 z"
   id="path5635"
   inkscape:connector-curvature="0"
   style="fill:#fbcd00;stroke:#373435;stroke-width:30" />
      <path
   class="fil2 str0"
   d="m 22009,23878 c 0,0 0,-192 117,-164 117,28 229,214 229,214 0,0 28,-81 97,-133 68,-52 177,-75 339,40 148,106 269,327 329,516 35,111 52,214 60,289 8,75 7,124 6,128 -1,15 236,205 279,486 43,281 -7,270 -54,306 -47,36 -107,25 -127,25 -20,0 -188,-112 -350,-224 -162,-112 -271,-191 -319,-225 -48,-34 -193,-136 -289,-204 -96,-68 -240,-170 -288,-204 -48,-34 -59,-50 -121,-148 -62,-98 -127,-245 -139,-439 -12,-193 46,-259 106,-277 61,-18 125,13 125,13 z"
   id="path5637"
   inkscape:connector-curvature="0"
   style="fill:#fefefe;stroke:#373435;stroke-width:58.95999908;stroke-linecap:round;stroke-linejoin:round" />
     </g>
     <g
   id="_468640544">
      <g
   id="g5853">
       <path
   class="fil1"
   d="m 16500,28465 -459,-322 c 0,0 17,512 -203,921 -220,409 -310,1307 -278,1674 32,367 267,1354 267,1354 168,118 749,557 631,84 -74,-294 -89,-945 37,-1637 126,-693 105,-1228 7,-2074 z"
   id="path5640"
   inkscape:connector-curvature="0"
   style="fill:#0e6bce" />
       <g
   clip-path="url(#id40)"
   id="g5646">
        <g
   id="g5644">
         <path
   id="path5642"
   class="fil12"
   d="m 16997,27110 c -1,127 -3,230 -3,230 0,0 10,178 -81,271 146,-56 258,-133 280,-196 11,-33 18,-256 21,-483 0,-30 1,-59 1,-88 0,-29 1,-57 2,-82 1,-36 2,-69 3,-98 -11,24 -23,49 -35,75 -19,41 -40,84 -61,129 -16,34 -33,70 -51,107 -23,48 -48,93 -75,135 z"
   inkscape:connector-curvature="0"
   style="fill:#0a4a90" />
        </g>
       </g>
       <path
   class="fil5 str6"
   d="m 16500,28465 -459,-322 c 0,0 17,512 -203,921 -220,409 -310,1307 -278,1674 32,367 267,1354 267,1354 168,118 749,557 631,84 -74,-294 -89,-945 37,-1637 126,-693 105,-1228 7,-2074 z"
   id="path5648"
   inkscape:connector-curvature="0"
   style="fill:none;stroke:#373435;stroke-width:58.95999908;stroke-linecap:round;stroke-linejoin:round" />
       <path
   class="fil1"
   d="m 16632,28509 582,-336 c 0,0 -35,433 18,863 52,430 210,1081 210,1511 0,430 71,1553 -96,1650 -94,54 -248,143 -365,211 -243,140 -293,88 -401,-286 -250,-866 125,-1792 125,-2608 0,-388 -72,-1004 -72,-1004 z"
   id="path5650"
   inkscape:connector-curvature="0"
   style="fill:#0e6bce" />
       <g
   clip-path="url(#id41)"
   id="g5656">
        <g
   id="g5654">
         <path
   id="path5652"
   class="fil12"
   d="m 16997,27110 c -1,127 -3,230 -3,230 0,0 10,178 -81,271 146,-56 258,-133 280,-196 11,-33 18,-256 21,-483 0,-30 1,-59 1,-88 0,-29 1,-57 2,-82 1,-36 2,-69 3,-98 -11,24 -23,49 -35,75 -19,41 -40,84 -61,129 -16,34 -33,70 -51,107 -23,48 -48,93 -75,135 z"
   inkscape:connector-curvature="0"
   style="fill:#0a4a90" />
        </g>
       </g>
       <path
   class="fil5 str6"
   d="m 16632,28509 582,-336 c 0,0 -35,433 18,863 52,430 210,1081 210,1511 0,430 71,1553 -96,1650 -94,54 -248,143 -365,211 -243,140 -293,88 -401,-286 -250,-866 125,-1792 125,-2608 0,-388 -72,-1004 -72,-1004 z"
   id="path5658"
   inkscape:connector-curvature="0"
   style="fill:none;stroke:#373435;stroke-width:58.95999908;stroke-linecap:round;stroke-linejoin:round" />
       <polygon
   class="fil13"
   points="17111,28127 16589,27754 16061,28058 16589,28428 "
   id="polygon5660"
   style="fill:#a9abae" />
       <g
   clip-path="url(#id42)"
   id="g5666">
        <g
   id="g5664">
         <path
   id="path5662"
   class="fil12"
   d="m 16997,27110 c -1,127 -3,230 -3,230 0,0 10,178 -81,271 146,-56 258,-133 280,-196 11,-33 18,-256 21,-483 0,-30 1,-59 1,-88 0,-29 1,-57 2,-82 1,-36 2,-69 3,-98 -11,24 -23,49 -35,75 -19,41 -40,84 -61,129 -16,34 -33,70 -51,107 -23,48 -48,93 -75,135 z"
   inkscape:connector-curvature="0"
   style="fill:#0a4a90" />
        </g>
       </g>
       <polygon
   class="fil5 str6"
   points="17111,28127 16589,27754 16061,28058 16589,28428 "
   id="polygon5668"
   style="fill:none;stroke:#373435;stroke-width:58.95999908;stroke-linecap:round;stroke-linejoin:round" />
       <polygon
   class="fil14"
   points="16616,27681 16851,27846 16598,27992 16355,27822 16361,27826 "
   id="polygon5670"
   style="fill:#96989a" />
       <g
   clip-path="url(#id43)"
   id="g5676">
        <g
   id="g5674">
         <path
   id="path5672"
   class="fil12"
   d="m 16997,27110 c -1,127 -3,230 -3,230 0,0 10,178 -81,271 146,-56 258,-133 280,-196 11,-33 18,-256 21,-483 0,-30 1,-59 1,-88 0,-29 1,-57 2,-82 1,-36 2,-69 3,-98 -11,24 -23,49 -35,75 -19,41 -40,84 -61,129 -16,34 -33,70 -51,107 -23,48 -48,93 -75,135 z"
   inkscape:connector-curvature="0"
   style="fill:#0a4a90" />
        </g>
       </g>
       <polygon
   class="fil5 str6"
   points="16616,27681 16851,27846 16598,27992 16355,27822 16361,27826 "
   id="polygon5678"
   style="fill:none;stroke:#373435;stroke-width:58.95999908;stroke-linecap:round;stroke-linejoin:round" />
       <polygon
   class="fil15"
   points="16598,27992 16598,28183 16361,28021 16358,27824 "
   id="polygon5680"
   style="fill:#848688" />
       <g
   clip-path="url(#id44)"
   id="g5686">
        <g
   id="g5684">
         <path
   id="path5682"
   class="fil12"
   d="m 16997,27110 c -1,127 -3,230 -3,230 0,0 10,178 -81,271 146,-56 258,-133 280,-196 11,-33 18,-256 21,-483 0,-30 1,-59 1,-88 0,-29 1,-57 2,-82 1,-36 2,-69 3,-98 -11,24 -23,49 -35,75 -19,41 -40,84 -61,129 -16,34 -33,70 -51,107 -23,48 -48,93 -75,135 z"
   inkscape:connector-curvature="0"
   style="fill:#0a4a90" />
        </g>
       </g>
       <polygon
   class="fil5 str6"
   points="16598,27992 16598,28183 16361,28021 16358,27824 "
   id="polygon5688"
   style="fill:none;stroke:#373435;stroke-width:58.95999908;stroke-linecap:round;stroke-linejoin:round" />
       <path
   class="fil1"
   d="m 16610,27473 v 0 c 83,0 151,68 151,151 v 96 c 0,83 -68,151 -151,151 v 0 c -83,0 -151,-68 -151,-151 v -96 c 0,-83 68,-151 151,-151 z"
   id="path5690"
   inkscape:connector-curvature="0"
   style="fill:#0e6bce" />
       <g
   clip-path="url(#id45)"
   id="g5696">
        <g
   id="g5694">
         <path
   id="path5692"
   class="fil12"
   d="m 16997,27110 c -1,127 -3,230 -3,230 0,0 10,178 -81,271 146,-56 258,-133 280,-196 11,-33 18,-256 21,-483 0,-30 1,-59 1,-88 0,-29 1,-57 2,-82 1,-36 2,-69 3,-98 -11,24 -23,49 -35,75 -19,41 -40,84 -61,129 -16,34 -33,70 -51,107 -23,48 -48,93 -75,135 z"
   inkscape:connector-curvature="0"
   style="fill:#0a4a90" />
        </g>
       </g>
       <g
   id="g5700">
        <path
   class="fil16"
   d="m 16610,27473 v 0 0 0 -29 z m 180,151 h -59 v 0 -6 -6 l -1,-6 -1,-6 -1,-6 -2,-6 -2,-6 -2,-5 -2,-5 -3,-5 -3,-5 -3,-5 -3,-5 -4,-5 -4,-4 -4,-4 -4,-4 -4,-4 -5,-4 -5,-3 -5,-3 -5,-3 -5,-3 -5,-2 -5,-2 -6,-2 -6,-2 -6,-1 -6,-1 -6,-1 h -6 -6 v -59 h 9 l 9,1 9,1 9,2 9,2 9,2 8,3 8,3 8,4 8,4 8,4 7,5 7,5 7,5 7,6 6,6 6,6 6,7 5,7 5,7 5,7 4,8 4,8 4,8 3,8 3,8 2,9 2,9 2,9 1,9 1,9 v 9 0 z m -59,96 v -96 h 59 v 96 0 z m -121,180 v -59 0 h 6 6 l 6,-1 6,-1 6,-1 6,-2 6,-2 5,-2 5,-2 5,-3 5,-3 5,-3 5,-3 5,-4 4,-4 4,-4 4,-4 4,-4 4,-5 3,-5 3,-5 3,-5 3,-5 2,-5 2,-5 2,-6 2,-6 1,-6 1,-6 1,-6 v -6 -6 h 59 v 9 l -1,9 -1,9 -2,9 -2,9 -2,9 -3,8 -3,8 -4,8 -4,8 -4,8 -5,7 -5,7 -5,7 -6,7 -6,6 -6,6 -7,6 -7,5 -7,5 -7,5 -8,4 -8,4 -8,4 -8,3 -8,3 -9,2 -9,2 -9,2 -9,1 -9,1 h -9 v 0 z m 0,-29 v 0 0 0 29 z m -180,-151 h 59 v 0 6 6 l 1,6 1,6 1,6 2,6 2,6 2,5 2,5 3,5 3,5 3,5 3,5 4,5 4,4 4,4 4,4 4,4 5,4 5,3 5,3 5,3 5,3 5,2 5,2 6,2 6,2 6,1 6,1 6,1 h 6 6 v 59 h -9 l -9,-1 -9,-1 -9,-2 -9,-2 -9,-2 -8,-3 -8,-3 -8,-4 -8,-4 -8,-4 -7,-5 -7,-5 -7,-5 -7,-6 -6,-6 -6,-6 -6,-7 -5,-7 -5,-7 -5,-7 -4,-8 -4,-8 -4,-8 -3,-8 -3,-8 -2,-9 -2,-9 -2,-9 -1,-9 -1,-9 v -9 0 z m 59,-96 v 96 h -59 v -96 0 z m 121,-180 v 59 0 h -6 -6 l -6,1 -6,1 -6,1 -6,2 -6,2 -5,2 -5,2 -5,3 -5,3 -5,3 -5,3 -5,4 -4,4 -4,4 -4,4 -4,4 -4,5 -3,5 -3,5 -3,5 -3,5 -2,5 -2,5 -2,6 -2,6 -1,6 -1,6 -1,6 v 6 6 h -59 v -9 l 1,-9 1,-9 2,-9 2,-9 2,-9 3,-8 3,-8 4,-8 4,-8 4,-8 5,-7 5,-7 5,-7 6,-7 6,-6 6,-6 7,-6 7,-5 7,-5 7,-5 8,-4 8,-4 8,-4 8,-3 8,-3 9,-2 9,-2 9,-2 9,-1 9,-1 h 9 v 0 z"
   id="path5698"
   inkscape:connector-curvature="0"
   style="fill:#373435;fill-rule:nonzero" />
       </g>
       <path
   class="fil1"
   d="m 16418,27461 c 0,0 223,252 428,182 206,-70 368,-177 398,-263 16,-46 24,-398 27,-716 7,-637 101,-498 -481,-864 -186,-117 -375,-217 -468,-207 -215,22 -326,189 -326,255 0,66 5,751 5,751 0,0 -132,431 416,862 z"
   id="path5702"
   inkscape:connector-curvature="0"
   style="fill:#0e6bce" />
       <g
   clip-path="url(#id46)"
   id="g5708">
        <g
   id="g5706">
         <path
   id="path5704"
   class="fil12"
   d="m 16997,27110 c -1,127 -3,230 -3,230 0,0 10,178 -81,271 146,-56 258,-133 280,-196 11,-33 18,-256 21,-483 0,-30 1,-59 1,-88 0,-29 1,-57 2,-82 1,-36 2,-69 3,-98 -11,24 -23,49 -35,75 -19,41 -40,84 -61,129 -16,34 -33,70 -51,107 -23,48 -48,93 -75,135 z"
   inkscape:connector-curvature="0"
   style="fill:#0a4a90" />
        </g>
       </g>
       <path
   class="fil5 str7"
   d="m 16418,27461 c 0,0 223,252 428,182 206,-70 368,-177 398,-263 16,-46 24,-398 27,-716 7,-637 101,-498 -481,-864 -186,-117 -375,-217 -468,-207 -215,22 -326,189 -326,255 0,66 5,751 5,751 0,0 -132,431 416,862 z"
   id="path5710"
   inkscape:connector-curvature="0"
   style="fill:none;stroke:#373435;stroke-width:58.97000122;stroke-linecap:round;stroke-linejoin:round" />
       <g
   clip-path="url(#id47)"
   id="g5716">
        <g
   id="g5714">
         <path
   class="fil12"
   d="m 16997,27110 c -1,127 -3,230 -3,230 0,0 10,178 -81,271 146,-56 258,-133 280,-196 11,-33 18,-256 21,-483 0,-30 1,-59 1,-88 0,-29 1,-57 2,-82 1,-36 2,-69 3,-98 -11,24 -23,49 -35,75 -19,41 -40,84 -61,129 -16,34 -33,70 -51,107 -23,48 -48,93 -75,135 z"
   id="path5712"
   inkscape:connector-curvature="0"
   style="fill:#0a4a90" />
        </g>
       </g>
       <path
   class="fil5 str6"
   d="m 16033,25762 c 87,61 533,343 666,431 153,101 288,143 295,259 11,176 0,833 0,833 0,0 23,426 -295,409"
   id="path5718"
   inkscape:connector-curvature="0"
   style="fill:none;stroke:#373435;stroke-width:58.95999908;stroke-linecap:round;stroke-linejoin:round" />
       <path
   class="fil1"
   d="m 15893,26529 c 42,4 108,15 208,36 254,54 368,372 431,571 63,199 -4,304 -86,376 -82,73 -499,-190 -567,-286 -33,-47 -100,-168 -140,-304 -59,-155 -147,-492 -129,-510 29,-28 87,-64 131,-64 35,0 64,44 140,178 l 13,1 z"
   id="path5720"
   inkscape:connector-curvature="0"
   style="fill:#0e6bce" />
       <g
   clip-path="url(#id48)"
   id="g5726">
        <g
   id="g5724">
         <path
   id="path5722"
   class="fil12"
   d="m 16997,27110 c -1,127 -3,230 -3,230 0,0 10,178 -81,271 146,-56 258,-133 280,-196 11,-33 18,-256 21,-483 0,-30 1,-59 1,-88 0,-29 1,-57 2,-82 1,-36 2,-69 3,-98 -11,24 -23,49 -35,75 -19,41 -40,84 -61,129 -16,34 -33,70 -51,107 -23,48 -48,93 -75,135 z"
   inkscape:connector-curvature="0"
   style="fill:#0a4a90" />
        </g>
       </g>
       <path
   class="fil5 str6"
   d="m 15893,26529 c 42,4 108,15 208,36 254,54 368,372 431,571 63,199 -4,304 -86,376 -82,73 -499,-190 -567,-286 -33,-47 -100,-168 -140,-304 -59,-155 -147,-492 -129,-510 29,-28 87,-64 131,-64 35,0 64,44 140,178 l 13,1 z"
   id="path5728"
   inkscape:connector-curvature="0"
   style="fill:none;stroke:#373435;stroke-width:58.95999908;stroke-linecap:round;stroke-linejoin:round" />
       <path
   class="fil1"
   d="m 16752,25682 c 136,-238 173,-309 217,-309 44,0 102,37 130,65 19,19 -85,396 -145,534 -104,241 -339,-52 -203,-290 z"
   id="path5730"
   inkscape:connector-curvature="0"
   style="fill:#0e6bce" />
       <g
   clip-path="url(#id49)"
   id="g5736">
        <g
   id="g5734">
         <path
   id="path5732"
   class="fil12"
   d="m 16997,27110 c -1,127 -3,230 -3,230 0,0 10,178 -81,271 146,-56 258,-133 280,-196 11,-33 18,-256 21,-483 0,-30 1,-59 1,-88 0,-29 1,-57 2,-82 1,-36 2,-69 3,-98 -11,24 -23,49 -35,75 -19,41 -40,84 -61,129 -16,34 -33,70 -51,107 -23,48 -48,93 -75,135 z"
   inkscape:connector-curvature="0"
   style="fill:#0a4a90" />
        </g>
       </g>
       <path
   class="fil5 str6"
   d="m 16752,25682 c 136,-238 173,-309 217,-309 44,0 102,37 130,65 19,19 -85,396 -145,534 -104,241 -339,-52 -203,-290 z"
   id="path5738"
   inkscape:connector-curvature="0"
   style="fill:none;stroke:#373435;stroke-width:58.95999908;stroke-linecap:round;stroke-linejoin:round" />
       <path
   class="fil1"
   d="m 17042,25908 c 66,-101 111,-124 149,-122 37,2 84,36 107,62 15,17 -41,202 -99,316 -100,199 -345,32 -157,-256 z"
   id="path5740"
   inkscape:connector-curvature="0"
   style="fill:#0e6bce" />
       <g
   clip-path="url(#id50)"
   id="g5746">
        <g
   id="g5744">
         <path
   id="path5742"
   class="fil12"
   d="m 16997,27110 c -1,127 -3,230 -3,230 0,0 10,178 -81,271 146,-56 258,-133 280,-196 11,-33 18,-256 21,-483 0,-30 1,-59 1,-88 0,-29 1,-57 2,-82 1,-36 2,-69 3,-98 -11,24 -23,49 -35,75 -19,41 -40,84 -61,129 -16,34 -33,70 -51,107 -23,48 -48,93 -75,135 z"
   inkscape:connector-curvature="0"
   style="fill:#0a4a90" />
        </g>
       </g>
       <path
   class="fil5 str6"
   d="m 17042,25908 c 66,-101 111,-124 149,-122 37,2 84,36 107,62 15,17 -41,202 -99,316 -100,199 -345,32 -157,-256 z"
   id="path5748"
   inkscape:connector-curvature="0"
   style="fill:none;stroke:#373435;stroke-width:58.95999908;stroke-linecap:round;stroke-linejoin:round" />
       <path
   class="fil3"
   d="m 17397,25366 c 22,15 48,419 -21,413 -105,-9 -106,4 -140,-38 -79,-97 36,-460 161,-375 z"
   id="path5750"
   inkscape:connector-curvature="0"
   style="fill:#50acff" />
       <g
   clip-path="url(#id51)"
   id="g5756">
        <g
   id="g5754">
         <path
   id="path5752"
   class="fil12"
   d="m 16997,27110 c -1,127 -3,230 -3,230 0,0 10,178 -81,271 146,-56 258,-133 280,-196 11,-33 18,-256 21,-483 0,-30 1,-59 1,-88 0,-29 1,-57 2,-82 1,-36 2,-69 3,-98 -11,24 -23,49 -35,75 -19,41 -40,84 -61,129 -16,34 -33,70 -51,107 -23,48 -48,93 -75,135 z"
   inkscape:connector-curvature="0"
   style="fill:#0a4a90" />
        </g>
       </g>
       <path
   class="fil5 str6"
   d="m 17397,25366 c 22,15 48,419 -21,413 -105,-9 -106,4 -140,-38 -79,-97 36,-460 161,-375 z"
   id="path5758"
   inkscape:connector-curvature="0"
   style="fill:none;stroke:#373435;stroke-width:58.95999908;stroke-linecap:round;stroke-linejoin:round" />
       <path
   class="fil3"
   d="m 17174,24843 c 25,19 36,496 -45,486 -123,-16 -125,-1 -163,-52 -88,-118 65,-540 208,-434 z"
   id="path5760"
   inkscape:connector-curvature="0"
   style="fill:#50acff" />
       <g
   clip-path="url(#id52)"
   id="g5766">
        <g
   id="g5764">
         <path
   id="path5762"
   class="fil12"
   d="m 16997,27110 c -1,127 -3,230 -3,230 0,0 10,178 -81,271 146,-56 258,-133 280,-196 11,-33 18,-256 21,-483 0,-30 1,-59 1,-88 0,-29 1,-57 2,-82 1,-36 2,-69 3,-98 -11,24 -23,49 -35,75 -19,41 -40,84 -61,129 -16,34 -33,70 -51,107 -23,48 -48,93 -75,135 z"
   inkscape:connector-curvature="0"
   style="fill:#0a4a90" />
        </g>
       </g>
       <path
   class="fil5 str6"
   d="m 17174,24843 c 25,19 36,496 -45,486 -123,-16 -125,-1 -163,-52 -88,-118 65,-540 208,-434 z"
   id="path5768"
   inkscape:connector-curvature="0"
   style="fill:none;stroke:#373435;stroke-width:58.95999908;stroke-linecap:round;stroke-linejoin:round" />
       <path
   class="fil1"
   d="m 16061,25513 c -39,-271 -54,-350 -19,-377 35,-27 103,-34 143,-29 27,3 177,364 215,510 18,70 -66,114 -97,136 -83,57 -214,-43 -242,-239 z"
   id="path5770"
   inkscape:connector-curvature="0"
   style="fill:#0e6bce" />
       <g
   clip-path="url(#id53)"
   id="g5776">
        <g
   id="g5774">
         <path
   id="path5772"
   class="fil12"
   d="m 16997,27110 c -1,127 -3,230 -3,230 0,0 10,178 -81,271 146,-56 258,-133 280,-196 11,-33 18,-256 21,-483 0,-30 1,-59 1,-88 0,-29 1,-57 2,-82 1,-36 2,-69 3,-98 -11,24 -23,49 -35,75 -19,41 -40,84 -61,129 -16,34 -33,70 -51,107 -23,48 -48,93 -75,135 z"
   inkscape:connector-curvature="0"
   style="fill:#0a4a90" />
        </g>
       </g>
       <path
   class="fil5 str6"
   d="m 16061,25513 c -39,-271 -54,-350 -19,-377 35,-27 103,-34 143,-29 27,3 177,364 215,510 18,70 -66,114 -97,136 -83,57 -214,-43 -242,-239 z"
   id="path5778"
   inkscape:connector-curvature="0"
   style="fill:none;stroke:#373435;stroke-width:58.95999908;stroke-linecap:round;stroke-linejoin:round" />
       <path
   class="fil3"
   d="m 15877,24592 c 32,-1 334,369 263,411 -107,63 -99,76 -161,59 -142,-39 -281,-466 -103,-470 z"
   id="path5780"
   inkscape:connector-curvature="0"
   style="fill:#50acff" />
       <g
   clip-path="url(#id54)"
   id="g5786">
        <g
   id="g5784">
         <path
   id="path5782"
   class="fil12"
   d="m 16997,27110 c -1,127 -3,230 -3,230 0,0 10,178 -81,271 146,-56 258,-133 280,-196 11,-33 18,-256 21,-483 0,-30 1,-59 1,-88 0,-29 1,-57 2,-82 1,-36 2,-69 3,-98 -11,24 -23,49 -35,75 -19,41 -40,84 -61,129 -16,34 -33,70 -51,107 -23,48 -48,93 -75,135 z"
   inkscape:connector-curvature="0"
   style="fill:#0a4a90" />
        </g>
       </g>
       <path
   class="fil5 str6"
   d="m 15877,24592 c 32,-1 334,369 263,411 -107,63 -99,76 -161,59 -142,-39 -281,-466 -103,-470 z"
   id="path5788"
   inkscape:connector-curvature="0"
   style="fill:none;stroke:#373435;stroke-width:58.95999908;stroke-linecap:round;stroke-linejoin:round" />
       <path
   class="fil1"
   d="m 16406,25438 c 91,-291 114,-377 158,-386 44,-9 107,20 140,46 22,17 -12,456 -46,621 -41,199 -211,211 -269,51 -26,-71 -12,-242 16,-332 z"
   id="path5790"
   inkscape:connector-curvature="0"
   style="fill:#0e6bce" />
       <g
   clip-path="url(#id55)"
   id="g5796">
        <g
   id="g5794">
         <path
   id="path5792"
   class="fil12"
   d="m 16997,27110 c -1,127 -3,230 -3,230 0,0 10,178 -81,271 146,-56 258,-133 280,-196 11,-33 18,-256 21,-483 0,-30 1,-59 1,-88 0,-29 1,-57 2,-82 1,-36 2,-69 3,-98 -11,24 -23,49 -35,75 -19,41 -40,84 -61,129 -16,34 -33,70 -51,107 -23,48 -48,93 -75,135 z"
   inkscape:connector-curvature="0"
   style="fill:#0a4a90" />
        </g>
       </g>
       <g
   id="g5800">
        <path
   class="fil16"
   d="m 16558,25022 12,58 v 0 h -1 -1 -1 l -1,1 -2,1 -2,2 -2,3 -3,3 -3,4 -3,5 -3,6 -3,7 -4,8 -4,8 -4,9 -4,10 -4,11 -4,12 -5,13 -5,14 -5,15 -5,16 -5,17 -6,18 -6,19 -6,20 -7,21 -7,22 -7,23 -8,24 -8,26 -8,27 -56,-18 8,-27 8,-26 8,-24 7,-23 7,-22 7,-21 6,-20 6,-19 6,-18 6,-17 5,-16 5,-15 5,-14 5,-13 5,-13 4,-12 4,-11 4,-10 4,-10 4,-9 4,-8 4,-8 4,-7 5,-7 5,-6 5,-6 5,-5 6,-5 6,-4 7,-4 7,-3 7,-2 v 0 z m 164,51 -36,47 v 0 l -3,-2 -3,-2 -3,-2 -3,-2 -3,-2 -3,-2 -4,-2 -4,-2 -4,-2 -4,-2 -4,-2 -4,-2 -4,-2 -4,-2 -4,-2 -4,-2 -4,-1 -4,-1 -4,-1 -4,-1 -4,-1 -4,-1 -4,-1 -4,-1 h -4 -4 -3 -3 -3 -3 -3 -3 l -12,-58 6,-1 6,-1 h 6 6 6 6 l 6,1 6,1 6,1 6,1 6,1 6,1 5,2 5,2 5,2 5,2 5,2 5,2 5,2 5,2 5,2 5,2 5,3 5,3 5,3 5,3 4,3 4,3 4,3 4,3 4,3 4,3 v 0 z m -35,650 -58,-12 v 0 l 3,-16 3,-17 3,-19 3,-20 3,-21 3,-22 3,-23 3,-24 3,-24 3,-25 3,-25 2,-25 2,-25 2,-25 2,-25 2,-25 2,-24 2,-24 1,-23 1,-22 1,-21 1,-20 1,-19 v -18 -16 -14 -13 l -1,-10 -1,-8 -1,-5 v 0 l 7,9 36,-47 11,14 3,10 2,10 1,11 1,12 v 14 16 17 18 l -1,20 -1,21 -1,22 -1,23 -1,24 -2,24 -2,25 -2,25 -2,25 -2,26 -2,26 -3,26 -3,25 -3,25 -3,25 -3,24 -3,23 -3,23 -3,22 -3,21 -3,19 -3,18 -3,17 v 0 z m -325,56 55,-20 v 0 l 5,13 6,12 6,11 6,10 7,9 7,8 7,7 7,6 7,5 7,4 7,3 7,2 7,2 7,1 h 7 l 7,-1 7,-1 7,-2 7,-3 7,-4 7,-5 7,-6 7,-7 7,-8 7,-9 7,-10 6,-11 6,-12 6,-13 5,-14 4,-15 4,-17 58,12 -5,20 -5,19 -6,18 -7,17 -8,15 -8,14 -9,13 -10,12 -10,11 -11,10 -11,9 -12,8 -12,6 -13,5 -13,4 -13,3 -13,1 h -13 l -13,-1 -13,-3 -13,-4 -12,-5 -12,-7 -12,-8 -11,-9 -11,-10 -10,-11 -9,-12 -9,-13 -8,-14 -7,-15 -6,-16 v 0 z m 16,-350 56,18 v 0 l -2,8 -2,8 -2,9 -2,9 -2,10 -2,10 -2,10 -2,11 -2,11 -2,11 -1,11 -1,11 -1,11 -1,11 -1,11 -1,11 -1,11 v 11 11 11 11 10 10 l 1,10 1,9 1,9 1,9 1,8 1,7 2,7 2,6 2,5 -55,20 -3,-8 -2,-9 -2,-9 -2,-10 -2,-10 -1,-10 -1,-10 -1,-11 -1,-11 v -11 -11 -12 -12 -12 -12 l 1,-12 1,-12 1,-12 1,-12 1,-12 1,-12 2,-12 2,-12 2,-12 2,-11 2,-11 2,-11 2,-11 2,-10 3,-10 3,-10 3,-9 v 0 z"
   id="path5798"
   inkscape:connector-curvature="0"
   style="fill:#373435;fill-rule:nonzero" />
       </g>
       <path
   class="fil3"
   d="m 16694,24430 c 63,44 95,431 -6,519 -34,30 -109,62 -168,-14 -39,-50 -26,-158 -7,-262 28,-158 90,-308 181,-243 z"
   id="path5802"
   inkscape:connector-curvature="0"
   style="fill:#50acff" />
       <g
   clip-path="url(#id56)"
   id="g5807">
        <g
   id="_468635160">
         <path
   id="path5804"
   class="fil12"
   d="m 16997,27110 c -1,127 -3,230 -3,230 0,0 10,178 -81,271 146,-56 258,-133 280,-196 11,-33 18,-256 21,-483 0,-30 1,-59 1,-88 0,-29 1,-57 2,-82 1,-36 2,-69 3,-98 -11,24 -23,49 -35,75 -19,41 -40,84 -61,129 -16,34 -33,70 -51,107 -23,48 -48,93 -75,135 z"
   inkscape:connector-curvature="0"
   style="fill:#0a4a90" />
        </g>
       </g>
       <g
   id="g5811">
        <path
   class="fil16"
   d="m 16707,24972 -39,-44 v 0 l 6,-6 6,-8 6,-10 6,-11 5,-13 5,-14 4,-16 4,-17 3,-18 3,-19 2,-19 2,-20 1,-20 1,-20 v -21 -21 l -1,-20 -1,-20 -2,-20 -2,-19 -2,-19 -3,-18 -3,-17 -3,-16 -4,-15 -4,-14 -4,-12 -4,-10 -4,-8 -4,-6 -3,-4 -1,-1 34,-48 10,9 8,10 7,11 6,13 6,14 5,15 5,16 4,17 4,18 3,19 3,20 3,20 2,21 2,21 1,22 1,22 v 22 22 l -1,22 -1,22 -2,21 -2,21 -3,21 -4,20 -4,19 -5,19 -6,18 -7,17 -8,16 -9,15 -10,13 -12,12 v 0 z m -211,-18 46,-36 v 0 l 5,6 5,5 4,4 4,4 4,3 4,3 4,2 4,2 4,2 4,1 4,1 4,1 4,1 h 4 4 4 4 l 4,-1 4,-1 4,-1 4,-1 4,-1 4,-2 4,-2 4,-2 4,-2 3,-2 3,-2 3,-2 3,-2 3,-2 2,-2 39,44 -4,3 -4,3 -5,3 -5,3 -5,3 -5,3 -5,3 -6,3 -6,3 -6,2 -6,2 -7,2 -7,2 -7,1 -7,1 -7,1 h -7 -7 l -8,-1 -8,-1 -8,-2 -8,-2 -8,-3 -8,-3 -8,-4 -8,-4 -7,-5 -7,-6 -7,-6 -7,-7 -7,-7 -7,-8 v 0 z m -13,-285 58,10 v 0 l -2,10 -2,10 -2,10 -2,10 -1,10 -1,10 -1,9 -1,9 -1,9 -1,9 -1,9 -1,9 -1,9 -1,9 v 8 8 8 8 8 7 l 1,7 1,7 1,6 1,6 1,6 1,5 2,5 2,5 2,4 2,4 2,3 2,3 -46,36 -5,-7 -4,-7 -4,-7 -3,-7 -3,-8 -3,-8 -2,-8 -2,-8 -2,-8 -1,-8 -1,-9 -1,-9 -1,-9 v -9 -9 -9 -9 -9 l 1,-9 1,-10 1,-10 1,-10 1,-10 1,-10 1,-10 1,-10 1,-10 2,-10 2,-10 2,-10 2,-10 2,-10 v 0 z m 227,-262 -34,48 v 0 l -6,-4 -5,-3 -5,-2 -4,-1 h -4 -4 l -3,1 -4,1 -4,2 -4,3 -4,3 -5,4 -5,5 -5,6 -5,7 -5,8 -5,8 -5,9 -5,10 -5,10 -5,11 -4,12 -4,12 -4,12 -4,13 -4,13 -4,13 -3,14 -3,14 -3,14 -3,14 -3,14 -58,-10 3,-15 3,-15 3,-15 3,-15 4,-15 4,-14 4,-14 4,-14 4,-14 5,-13 5,-13 5,-13 5,-12 6,-12 6,-11 6,-11 7,-10 7,-10 7,-9 8,-8 8,-8 9,-7 10,-6 10,-5 11,-3 11,-2 h 12 l 12,1 12,3 11,4 11,6 11,7 v 0 z"
   id="path5809"
   inkscape:connector-curvature="0"
   style="fill:#373435;fill-rule:nonzero" />
       </g>
       <path
   class="fil3"
   d="m 15443,25863 c -23,21 15,498 95,479 121,-29 124,-14 157,-68 76,-126 -120,-530 -252,-410 z"
   id="path5813"
   inkscape:connector-curvature="0"
   style="fill:#50acff" />
       <g
   clip-path="url(#id57)"
   id="g5819">
        <g
   id="g5817">
         <path
   id="path5815"
   class="fil12"
   d="m 16997,27110 c -1,127 -3,230 -3,230 0,0 10,178 -81,271 146,-56 258,-133 280,-196 11,-33 18,-256 21,-483 0,-30 1,-59 1,-88 0,-29 1,-57 2,-82 1,-36 2,-69 3,-98 -11,24 -23,49 -35,75 -19,41 -40,84 -61,129 -16,34 -33,70 -51,107 -23,48 -48,93 -75,135 z"
   inkscape:connector-curvature="0"
   style="fill:#0a4a90" />
        </g>
       </g>
       <path
   class="fil5 str6"
   d="m 15443,25863 c -23,21 15,498 95,479 121,-29 124,-14 157,-68 76,-126 -120,-530 -252,-410 z"
   id="path5821"
   inkscape:connector-curvature="0"
   style="fill:none;stroke:#373435;stroke-width:58.95999908;stroke-linecap:round;stroke-linejoin:round" />
       <polygon
   class="fil17"
   points="16611,27992 16611,28183 16848,28049 16851,27852 "
   id="polygon5823"
   style="fill:#d2d3d5" />
       <g
   clip-path="url(#id58)"
   id="g5829">
        <g
   id="g5827">
         <path
   id="path5825"
   class="fil12"
   d="m 16997,27110 c -1,127 -3,230 -3,230 0,0 10,178 -81,271 146,-56 258,-133 280,-196 11,-33 18,-256 21,-483 0,-30 1,-59 1,-88 0,-29 1,-57 2,-82 1,-36 2,-69 3,-98 -11,24 -23,49 -35,75 -19,41 -40,84 -61,129 -16,34 -33,70 -51,107 -23,48 -48,93 -75,135 z"
   inkscape:connector-curvature="0"
   style="fill:#0a4a90" />
        </g>
       </g>
       <polygon
   class="fil5 str6"
   points="16611,27992 16611,28183 16848,28049 16851,27852 "
   id="polygon5831"
   style="fill:none;stroke:#373435;stroke-width:58.95999908;stroke-linecap:round;stroke-linejoin:round" />
       <path
   class="fil3"
   d="m 16761,27693 c 253,-37 233,-406 233,-406 0,0 11,-658 0,-833 -7,-117 -143,-158 -295,-259 -133,-88 -579,-370 -666,-431 -24,36 -36,69 -36,91 0,54 3,506 5,692 29,5 62,12 100,20 254,54 368,372 431,571 63,199 -4,304 -86,376 -3,2 -6,4 -9,6 8,8 21,22 39,38 49,45 132,110 225,139 22,1 42,0 61,-2 z"
   id="path5833"
   inkscape:connector-curvature="0"
   style="fill:#50acff" />
       <g
   clip-path="url(#id59)"
   id="g5839">
        <g
   id="g5837">
         <path
   id="path5835"
   class="fil12"
   d="m 16997,27110 c -1,127 -3,230 -3,230 0,0 10,178 -81,271 146,-56 258,-133 280,-196 11,-33 18,-256 21,-483 0,-30 1,-59 1,-88 0,-29 1,-57 2,-82 1,-36 2,-69 3,-98 -11,24 -23,49 -35,75 -19,41 -40,84 -61,129 -16,34 -33,70 -51,107 -23,48 -48,93 -75,135 z"
   inkscape:connector-curvature="0"
   style="fill:#0a4a90" />
        </g>
       </g>
       <path
   class="fil5 str6"
   d="m 16761,27693 c 253,-37 233,-406 233,-406 0,0 11,-658 0,-833 -7,-117 -143,-158 -295,-259 -133,-88 -579,-370 -666,-431 -24,36 -36,69 -36,91 0,54 3,506 5,692 29,5 62,12 100,20 254,54 368,372 431,571 63,199 -4,304 -86,376 -3,2 -6,4 -9,6 8,8 21,22 39,38 49,45 132,110 225,139 22,1 42,0 61,-2 z"
   id="path5841"
   inkscape:connector-curvature="0"
   style="fill:none;stroke:#373435;stroke-width:58.95999908;stroke-linecap:round;stroke-linejoin:round" />
       <path
   class="fil3"
   d="m 16761,27693 c 253,-37 233,-406 233,-406 0,0 11,-658 0,-833 -7,-117 -143,-158 -295,-259 -133,-88 -579,-370 -666,-431 -24,36 -36,69 -36,91 0,54 3,506 5,692 29,5 62,12 100,20 254,54 368,372 431,571 63,199 -4,304 -86,376 -3,2 -6,4 -9,6 8,8 21,22 39,38 49,45 132,110 225,139 22,1 42,0 61,-2 z"
   id="path5843"
   inkscape:connector-curvature="0"
   style="fill:#50acff" />
       <g
   clip-path="url(#id60)"
   id="g5849">
        <g
   id="g5847">
         <path
   id="path5845"
   class="fil12"
   d="m 16997,27110 c -1,127 -3,230 -3,230 0,0 10,178 -81,271 146,-56 258,-133 280,-196 11,-33 18,-256 21,-483 0,-30 1,-59 1,-88 0,-29 1,-57 2,-82 1,-36 2,-69 3,-98 -11,24 -23,49 -35,75 -19,41 -40,84 -61,129 -16,34 -33,70 -51,107 -23,48 -48,93 -75,135 z"
   inkscape:connector-curvature="0"
   style="fill:#0a4a90" />
        </g>
       </g>
       <path
   class="fil5 str6"
   d="m 16761,27693 c 253,-37 233,-406 233,-406 0,0 11,-658 0,-833 -7,-117 -143,-158 -295,-259 -133,-88 -579,-370 -666,-431 -24,36 -36,69 -36,91 0,54 3,506 5,692 29,5 62,12 100,20 254,54 368,372 431,571 63,199 -4,304 -86,376 -3,2 -6,4 -9,6 8,8 21,22 39,38 49,45 132,110 225,139 22,1 42,0 61,-2 z"
   id="path5851"
   inkscape:connector-curvature="0"
   style="fill:none;stroke:#373435;stroke-width:58.95999908;stroke-linecap:round;stroke-linejoin:round" />
      </g>
      <path
   class="fil18"
   d="m 16369,28520 c 12,8 23,22 30,37 8,16 13,33 13,49 0,16 -5,27 -13,33 -8,5 -20,4 -32,-5 -13,-9 -24,-23 -31,-40 -8,-16 -12,-34 -11,-50 1,-15 6,-26 14,-30 8,-4 19,-3 31,5 z"
   id="path5855"
   inkscape:connector-curvature="0"
   style="fill:#373435" />
      <g
   clip-path="url(#id61)"
   id="g5861">
       <g
   id="g5859">
        <path
   id="path5857"
   class="fil12"
   d="m 16997,27110 c -1,127 -3,230 -3,230 0,0 10,178 -81,271 146,-56 258,-133 280,-196 11,-33 18,-256 21,-483 0,-30 1,-59 1,-88 0,-29 1,-57 2,-82 1,-36 2,-69 3,-98 -11,24 -23,49 -35,75 -19,41 -40,84 -61,129 -16,34 -33,70 -51,107 -23,48 -48,93 -75,135 z"
   inkscape:connector-curvature="0"
   style="fill:#0a4a90" />
       </g>
      </g>
      <path
   class="fil5 str8"
   d="m 16369,28520 c 12,8 23,22 30,37 8,16 13,33 13,49 0,16 -5,27 -13,33 -8,5 -20,4 -32,-5 -13,-9 -24,-23 -31,-40 -8,-16 -12,-34 -11,-50 1,-15 6,-26 14,-30 8,-4 19,-3 31,5 z"
   id="path5863"
   inkscape:connector-curvature="0"
   style="fill:none;stroke:#373435;stroke-width:9.82999992;stroke-linecap:round;stroke-linejoin:round" />
      <path
   class="fil18"
   d="m 16774,28550 c -11,10 -20,24 -25,41 -6,16 -8,34 -7,50 2,16 8,26 17,30 9,4 20,2 31,-9 11,-10 20,-26 26,-43 6,-17 8,-35 5,-50 -3,-15 -9,-25 -18,-28 -9,-3 -19,0 -30,9 z"
   id="path5865"
   inkscape:connector-curvature="0"
   style="fill:#373435" />
      <g
   clip-path="url(#id62)"
   id="g5871">
       <g
   id="g5869">
        <path
   id="path5867"
   class="fil12"
   d="m 16997,27110 c -1,127 -3,230 -3,230 0,0 10,178 -81,271 146,-56 258,-133 280,-196 11,-33 18,-256 21,-483 0,-30 1,-59 1,-88 0,-29 1,-57 2,-82 1,-36 2,-69 3,-98 -11,24 -23,49 -35,75 -19,41 -40,84 -61,129 -16,34 -33,70 -51,107 -23,48 -48,93 -75,135 z"
   inkscape:connector-curvature="0"
   style="fill:#0a4a90" />
       </g>
      </g>
      <path
   class="fil5 str9"
   d="m 16774,28550 c -11,10 -20,24 -25,41 -6,16 -8,34 -7,50 2,16 8,26 17,30 9,4 20,2 31,-9 11,-10 20,-26 26,-43 6,-17 8,-35 5,-50 -3,-15 -9,-25 -18,-28 -9,-3 -19,0 -30,9 z"
   id="path5873"
   inkscape:connector-curvature="0"
   style="fill:none;stroke:#373435;stroke-width:9.73999977;stroke-linecap:round;stroke-linejoin:round" />
      <path
   class="fil18"
   d="m 16827,32166 c -11,10 -20,24 -25,41 -6,16 -8,34 -7,50 2,16 8,26 17,30 9,4 20,2 31,-9 11,-10 20,-26 26,-43 6,-17 8,-35 5,-50 -3,-15 -9,-25 -18,-28 -9,-3 -19,0 -30,9 z"
   id="path5875"
   inkscape:connector-curvature="0"
   style="fill:#373435" />
      <g
   clip-path="url(#id63)"
   id="g5881">
       <g
   id="g5879">
        <path
   id="path5877"
   class="fil12"
   d="m 16997,27110 c -1,127 -3,230 -3,230 0,0 10,178 -81,271 146,-56 258,-133 280,-196 11,-33 18,-256 21,-483 0,-30 1,-59 1,-88 0,-29 1,-57 2,-82 1,-36 2,-69 3,-98 -11,24 -23,49 -35,75 -19,41 -40,84 -61,129 -16,34 -33,70 -51,107 -23,48 -48,93 -75,135 z"
   inkscape:connector-curvature="0"
   style="fill:#0a4a90" />
       </g>
      </g>
      <path
   class="fil5 str9"
   d="m 16827,32166 c -11,10 -20,24 -25,41 -6,16 -8,34 -7,50 2,16 8,26 17,30 9,4 20,2 31,-9 11,-10 20,-26 26,-43 6,-17 8,-35 5,-50 -3,-15 -9,-25 -18,-28 -9,-3 -19,0 -30,9 z"
   id="path5883"
   inkscape:connector-curvature="0"
   style="fill:none;stroke:#373435;stroke-width:9.73999977;stroke-linecap:round;stroke-linejoin:round" />
     </g>
     <path
   class="fil12"
   d="m 16528,31620 c 5,98 16,196 35,293 11,56 24,111 40,166 29,99 53,174 78,226 7,14 14,27 21,38 56,84 123,75 256,0 3,-1 5,-3 8,-4 l 330,-191 c 33,-19 56,-84 72,-177 55,-329 15,-1014 15,-1317 0,-390 -143,-979 -190,-1369 -41,-336 -28,-1030 -28,-1030 l -181,105 c 84,814 102,1360 -186,2196 -81,234 -170,439 -259,616 -14,150 -19,300 -11,449 z"
   id="path5886"
   inkscape:connector-curvature="0"
   style="fill:#0a4a90" />
     <path
   class="fil12"
   d="m 16209,31640 c -202,296 -358,434 -358,434 31,22 78,56 131,92 83,57 183,120 269,155 l 122,-70 25,93 c 46,-16 65,-73 35,-193 -14,-54 -25,-122 -34,-201 -11,-98 -17,-214 -18,-341 -1,-80 1,-165 5,-253 -46,82 -92,156 -135,223 -14,21 -27,42 -41,61 z"
   id="path5888"
   inkscape:connector-curvature="0"
   style="fill:#0a4a90" />
     <g
   id="g5988">
      <g
   clip-path="url(#id64)"
   id="g5894">
       <g
   id="g5892">
        <path
   class="fil19"
   d="m 14750,30060 c -274,-12 -523,-92 -694,-165 l -38,22 546,382 103,72 231,162 717,-414 192,-111 -163,-114 -81,-56 c -266,182 -552,233 -814,222 z"
   id="path5890"
   inkscape:connector-curvature="0"
   style="fill:#b69100" />
       </g>
      </g>
      <line
   class="fil5 str10"
   x1="15774"
   y1="29979"
   x2="16624"
   y2="33150"
   id="line5896"
   style="fill:none;stroke:#373435;stroke-width:98.27999878;stroke-linecap:round" />
      <g
   clip-path="url(#id65)"
   id="g5902">
       <g
   id="g5900">
        <path
   class="fil19"
   d="m 14750,30060 c -274,-12 -523,-92 -694,-165 l -38,22 546,382 103,72 231,162 717,-414 192,-111 -163,-114 -81,-56 c -266,182 -552,233 -814,222 z"
   id="path5898"
   inkscape:connector-curvature="0"
   style="fill:#b69100" />
       </g>
      </g>
      <line
   class="fil5 str10"
   x1="14865"
   y1="30504"
   x2="15714"
   y2="33676"
   id="line5904"
   style="fill:none;stroke:#373435;stroke-width:98.27999878;stroke-linecap:round" />
      <g
   clip-path="url(#id66)"
   id="g5910">
       <g
   id="g5908">
        <path
   class="fil19"
   d="m 14750,30060 c -274,-12 -523,-92 -694,-165 l -38,22 546,382 103,72 231,162 717,-414 192,-111 -163,-114 -81,-56 c -266,182 -552,233 -814,222 z"
   id="path5906"
   inkscape:connector-curvature="0"
   style="fill:#b69100" />
       </g>
      </g>
      <line
   class="fil5 str10"
   x1="13985"
   y1="29888"
   x2="13135"
   y2="33059"
   id="line5912"
   style="fill:none;stroke:#373435;stroke-width:98.27999878;stroke-linecap:round" />
      <g
   clip-path="url(#id67)"
   id="g5918">
       <g
   id="g5916">
        <path
   class="fil19"
   d="m 14750,30060 c -274,-12 -523,-92 -694,-165 l -38,22 546,382 103,72 231,162 717,-414 192,-111 -163,-114 -81,-56 c -266,182 -552,233 -814,222 z"
   id="path5914"
   inkscape:connector-curvature="0"
   style="fill:#b69100" />
       </g>
      </g>
      <line
   class="fil5 str10"
   x1="14892"
   y1="29376"
   x2="14042"
   y2="32548"
   id="line5920"
   style="fill:none;stroke:#373435;stroke-width:98.27999878;stroke-linecap:round" />
      <g
   clip-path="url(#id68)"
   id="g5926">
       <g
   id="g5924">
        <path
   class="fil19"
   d="m 14750,30060 c -274,-12 -523,-92 -694,-165 l -38,22 546,382 103,72 231,162 717,-414 192,-111 -163,-114 -81,-56 c -266,182 -552,233 -814,222 z"
   id="path5922"
   inkscape:connector-curvature="0"
   style="fill:#b69100" />
       </g>
      </g>
      <line
   class="fil5 str10"
   x1="14865"
   y1="30504"
   x2="15774"
   y2="29979"
   id="line5928"
   style="fill:none;stroke:#373435;stroke-width:98.27999878;stroke-linecap:round" />
      <g
   clip-path="url(#id69)"
   id="g5934">
       <g
   id="g5932">
        <path
   class="fil19"
   d="m 14750,30060 c -274,-12 -523,-92 -694,-165 l -38,22 546,382 103,72 231,162 717,-414 192,-111 -163,-114 -81,-56 c -266,182 -552,233 -814,222 z"
   id="path5930"
   inkscape:connector-curvature="0"
   style="fill:#b69100" />
       </g>
      </g>
      <line
   class="fil5 str10"
   x1="15072"
   y1="31259"
   x2="15981"
   y2="30734"
   id="line5936"
   style="fill:none;stroke:#373435;stroke-width:98.27999878;stroke-linecap:round" />
      <g
   clip-path="url(#id70)"
   id="g5942">
       <g
   id="g5940">
        <path
   class="fil19"
   d="m 14750,30060 c -274,-12 -523,-92 -694,-165 l -38,22 546,382 103,72 231,162 717,-414 192,-111 -163,-114 -81,-56 c -266,182 -552,233 -814,222 z"
   id="path5938"
   inkscape:connector-curvature="0"
   style="fill:#b69100" />
       </g>
      </g>
      <line
   class="fil5 str10"
   x1="15283"
   y1="32079"
   x2="16192"
   y2="31554"
   id="line5944"
   style="fill:none;stroke:#373435;stroke-width:98.27999878;stroke-linecap:round" />
      <g
   clip-path="url(#id71)"
   id="g5950">
       <g
   id="g5948">
        <path
   class="fil19"
   d="m 14750,30060 c -274,-12 -523,-92 -694,-165 l -38,22 546,382 103,72 231,162 717,-414 192,-111 -163,-114 -81,-56 c -266,182 -552,233 -814,222 z"
   id="path5946"
   inkscape:connector-curvature="0"
   style="fill:#b69100" />
       </g>
      </g>
      <line
   class="fil5 str10"
   x1="15494"
   y1="32803"
   x2="16404"
   y2="32278"
   id="line5952"
   style="fill:none;stroke:#373435;stroke-width:98.27999878;stroke-linecap:round" />
      <g
   clip-path="url(#id72)"
   id="g5958">
       <g
   id="g5956">
        <path
   class="fil19"
   d="m 14750,30060 c -274,-12 -523,-92 -694,-165 l -38,22 546,382 103,72 231,162 717,-414 192,-111 -163,-114 -81,-56 c -266,182 -552,233 -814,222 z"
   id="path5954"
   inkscape:connector-curvature="0"
   style="fill:#b69100" />
       </g>
      </g>
      <line
   class="fil5 str10"
   x1="13745"
   y1="30724"
   x2="14654"
   y2="30199"
   id="line5960"
   style="fill:none;stroke:#373435;stroke-width:98.27999878;stroke-linecap:round" />
      <g
   clip-path="url(#id73)"
   id="g5966">
       <g
   id="g5964">
        <path
   class="fil19"
   d="m 14750,30060 c -274,-12 -523,-92 -694,-165 l -38,22 546,382 103,72 231,162 717,-414 192,-111 -163,-114 -81,-56 c -266,182 -552,233 -814,222 z"
   id="path5962"
   inkscape:connector-curvature="0"
   style="fill:#b69100" />
       </g>
      </g>
      <line
   class="fil5 str10"
   x1="13564"
   y1="31520"
   x2="14473"
   y2="30995"
   id="line5968"
   style="fill:none;stroke:#373435;stroke-width:98.27999878;stroke-linecap:round" />
      <g
   clip-path="url(#id74)"
   id="g5974">
       <g
   id="g5972">
        <path
   class="fil19"
   d="m 14750,30060 c -274,-12 -523,-92 -694,-165 l -38,22 546,382 103,72 231,162 717,-414 192,-111 -163,-114 -81,-56 c -266,182 -552,233 -814,222 z"
   id="path5970"
   inkscape:connector-curvature="0"
   style="fill:#b69100" />
       </g>
      </g>
      <line
   class="fil5 str10"
   x1="13343"
   y1="32299"
   x2="14252"
   y2="31773"
   id="line5976"
   style="fill:none;stroke:#373435;stroke-width:98.27999878;stroke-linecap:round" />
      <polygon
   class="fil0"
   points="15774,29979 14865,30504 13985,29888 14894,29363 "
   id="polygon5978"
   style="fill:#fbcd00" />
      <g
   clip-path="url(#id75)"
   id="g5984">
       <g
   id="g5982">
        <path
   id="path5980"
   class="fil19"
   d="m 14750,30060 c -274,-12 -523,-92 -694,-165 l -38,22 546,382 103,72 231,162 717,-414 192,-111 -163,-114 -81,-56 c -266,182 -552,233 -814,222 z"
   inkscape:connector-curvature="0"
   style="fill:#b69100" />
       </g>
      </g>
      <polygon
   class="fil5 str10"
   points="15774,29979 14865,30504 13985,29888 14894,29363 "
   id="polygon5986"
   style="fill:none;stroke:#373435;stroke-width:98.27999878;stroke-linecap:round" />
     </g>
     <line
   class="fil5 str11"
   x1="17107"
   y1="23893"
   x2="18410"
   y2="24824"
   id="line5990"
   style="fill:none;stroke:#373435;stroke-width:30;stroke-linecap:round;stroke-linejoin:round" />
     <line
   class="fil5 str11"
   x1="17107"
   y1="24311"
   x2="18410"
   y2="25243"
   id="line5992"
   style="fill:none;stroke:#373435;stroke-width:30;stroke-linecap:round;stroke-linejoin:round" />
     <line
   class="fil5 str11"
   x1="20480"
   y1="22951"
   x2="21783"
   y2="23882"
   id="line5994"
   style="fill:none;stroke:#373435;stroke-width:30;stroke-linecap:round;stroke-linejoin:round" />
     <line
   class="fil5 str11"
   x1="20480"
   y1="23355"
   x2="21783"
   y2="24286"
   id="line5996"
   style="fill:none;stroke:#373435;stroke-width:30;stroke-linecap:round;stroke-linejoin:round" />
     <line
   class="fil5 str11"
   x1="20480"
   y1="24130"
   x2="21783"
   y2="25061"
   id="line5998"
   style="fill:none;stroke:#373435;stroke-width:30;stroke-linecap:round;stroke-linejoin:round" />
     <line
   class="fil5 str11"
   x1="20480"
   y1="24511"
   x2="21783"
   y2="25442"
   id="line6000"
   style="fill:none;stroke:#373435;stroke-width:30;stroke-linecap:round;stroke-linejoin:round" />
     <line
   class="fil5 str11"
   x1="20480"
   y1="25319"
   x2="21783"
   y2="26250"
   id="line6002"
   style="fill:none;stroke:#373435;stroke-width:30;stroke-linecap:round;stroke-linejoin:round" />
     <line
   class="fil5 str11"
   x1="20480"
   y1="25699"
   x2="21783"
   y2="26631"
   id="line6004"
   style="fill:none;stroke:#373435;stroke-width:30;stroke-linecap:round;stroke-linejoin:round" />
     <path
   class="fil19"
   d="m 19570,29300 c 53,37 102,93 142,157 11,18 22,37 32,57 45,89 73,190 73,281 0,25 -2,49 -6,69 1,0 1,-1 2,-1 45,-28 73,-91 73,-180 0,-73 -19,-152 -49,-226 -7,-16 -14,-31 -21,-46 -43,-86 -102,-161 -168,-207 -66,-46 -127,-54 -172,-30 -30,16 -53,45 -66,88 44,-15 101,-4 161,38 z"
   id="path6006"
   inkscape:connector-curvature="0"
   style="fill:#b69100" />
     <path
   class="fil4"
   d="m 20490,30127 123,86 441,309 660,462 1139,-657 108,-62 578,-334 -31,-22 c -129,122 -351,226 -630,297 -48,12 -97,23 -148,34 -226,45 -482,71 -754,71 -175,0 -344,-11 -502,-30 -264,-33 -499,-91 -687,-167 -54,-22 -105,-45 -151,-70 l -145,83 z"
   id="path6008"
   inkscape:connector-curvature="0"
   style="fill:#0d86ff" />
     <path
   class="fil19"
   d="m 20110,31976 1006,679 179,-95 8,503 123,86 v -715 l -214,-149 -136,79 -1008,-709 c 23,101 43,221 41,322 z"
   id="path6010"
   inkscape:connector-curvature="0"
   style="fill:#b69100" />
     <path
   class="fil19"
   d="m 19969,31210 994,688 v -98 l -912,-637 -279,-195 c 0,0 14,48 18,119 l 180,123 z"
   id="path6012"
   inkscape:connector-curvature="0"
   style="fill:#b69100" />
     <polygon
   class="fil4"
   points="20395,30888 21304,31557 21519,31433 20588,30777 20506,30720 20316,30830 "
   id="polygon6014"
   style="fill:#0d86ff" />
     <path
   class="fil4"
   d="m 21575,31470 -215,124 -10,-2 -14,245 1867,-1076 c -2,-26 -5,-52 -9,-79 l -1506,870 -111,-82 z"
   id="path6016"
   inkscape:connector-curvature="0"
   style="fill:#0d86ff" />
     <path
   class="fil19"
   d="m 20996,30698 553,386 -2,183 77,54 9,6 v -12 -264 l -566,-395 -506,-345 c 0,0 28,45 38,117 z"
   id="path6018"
   inkscape:connector-curvature="0"
   style="fill:#b69100" />
     <polygon
   class="fil8"
   points="20122,26264 21158,26992 21483,27221 21941,27542 22440,27893 22440,27657 22440,27415 22440,27176 22440,25101 22397,25070 22302,25003 22211,24939 22211,27254 22211,27485 21941,27295 21483,26974 21158,26745 20388,26204 20122,26017 "
   id="polygon6020"
   style="fill:#e6e7e8" />
     <path
   class="fil8"
   d="m 22264,23616 c 50,-2 101,13 145,45 1,1 1,1 2,2 16,12 27,21 34,29 v -201 l -34,-24 -147,-105 z"
   id="path6022"
   inkscape:connector-curvature="0"
   style="fill:#e6e7e8" />
     <path
   class="fil19"
   d="m 18543,23784 v 3491 116 l -107,-75 -1118,-786 c -1,18 -1,37 -2,57 -1,25 -1,52 -2,81 0,29 -1,58 -1,87 l 1122,788 135,95 122,86 68,48 v -170 -74 -100 -3489 l -68,-49 -149,-107 z"
   id="path6024"
   inkscape:connector-curvature="0"
   style="fill:#b69100" />
     <path
   class="fil20"
   d="m 16511,27528 c 3,3 7,7 11,11 40,36 107,90 183,113 18,1 35,0 50,-2 46,-7 81,-27 108,-54 93,-95 83,-278 83,-278 0,0 2,-106 3,-236 -125,196 -285,337 -418,432 -7,5 -13,9 -20,14 z"
   id="path6026"
   inkscape:connector-curvature="0"
   style="fill:#118bff" />
     <line
   class="fil5 str12"
   x1="16068"
   y1="25024"
   x2="16091"
   y2="25114"
   id="line6028"
   style="fill:none;stroke:#373435;stroke-width:40" />
     <line
   class="fil5 str12"
   x1="16604"
   y1="24976"
   x2="16614"
   y2="25068"
   id="line6030"
   style="fill:none;stroke:#373435;stroke-width:40" />
     <line
   class="fil5 str12"
   x1="17057"
   y1="25309"
   x2="17016"
   y2="25393"
   id="line6032"
   style="fill:none;stroke:#373435;stroke-width:40" />
     <line
   class="fil5 str12"
   x1="17302"
   y1="25753"
   x2="17261"
   y2="25837"
   id="line6034"
   style="fill:none;stroke:#373435;stroke-width:40" />
     <line
   class="fil5 str12"
   x1="15599"
   y1="26320"
   x2="15645"
   y2="26401"
   id="line6036"
   style="fill:none;stroke:#373435;stroke-width:40" />
    </g>
   </g>
  </g>
 </g>
</svg>