<?xml version="1.0" encoding="UTF-8"?>
<!DOCTYPE svg PUBLIC "-//W3C//DTD SVG 1.1//EN" "http://www.w3.org/Graphics/SVG/1.1/DTD/svg11.dtd">
<!-- Creator: CorelDRAW 2018 (64 Bit) -->
<svg xmlns="http://www.w3.org/2000/svg" xml:space="preserve" width="158.457mm" height="158.313mm" version="1.1" style="shape-rendering:geometricPrecision; text-rendering:geometricPrecision; image-rendering:optimizeQuality; fill-rule:evenodd; clip-rule:evenodd"
viewBox="0 0 15115.71 15101.96"
 xmlns:xlink="http://www.w3.org/1999/xlink">
 <defs>
  <style type="text/css">
   <![CDATA[
    .str1 {stroke:#373435;stroke-width:56.24;stroke-linecap:round;stroke-linejoin:round;stroke-miterlimit:22.9256;stroke-opacity:0.309804}
    .str2 {stroke:#373435;stroke-width:56.25;stroke-linecap:round;stroke-linejoin:round;stroke-miterlimit:22.9256;stroke-opacity:0.309804}
    .str10 {stroke:#373435;stroke-width:38.16;stroke-miterlimit:22.9256}
    .str5 {stroke:#373435;stroke-width:28.62;stroke-miterlimit:22.9256}
    .str8 {stroke:#373435;stroke-width:93.75;stroke-linecap:round;stroke-miterlimit:22.9256}
    .str4 {stroke:#373435;stroke-width:56.23;stroke-linecap:round;stroke-linejoin:round;stroke-miterlimit:22.9256}
    .str0 {stroke:#373435;stroke-width:56.24;stroke-linecap:round;stroke-linejoin:round;stroke-miterlimit:22.9256}
    .str3 {stroke:#373435;stroke-width:56.25;stroke-linecap:round;stroke-linejoin:round;stroke-miterlimit:22.9256}
    .str9 {stroke:#373435;stroke-width:28.62;stroke-linecap:round;stroke-linejoin:round;stroke-miterlimit:22.9256}
    .str7 {stroke:#373435;stroke-width:9.29;stroke-linecap:round;stroke-linejoin:round;stroke-miterlimit:22.9256}
    .str6 {stroke:#373435;stroke-width:9.38;stroke-linecap:round;stroke-linejoin:round;stroke-miterlimit:22.9256}
    .fil5 {fill:none}
    .fil10 {fill:none}
    .fil6 {fill:#00B0D4}
    .fil12 {fill:#0A4A90}
    .fil4 {fill:#0D86FF}
    .fil0 {fill:#0E6BCE}
    .fil20 {fill:#118BFF}
    .fil1 {fill:#1ADCFF}
    .fil18 {fill:#373435}
    .fil3 {fill:#50ACFF}
    .fil15 {fill:#848688}
    .fil14 {fill:#96989A}
    .fil13 {fill:#A9ABAE}
    .fil19 {fill:#B69100}
    .fil8 {fill:#BDBFC1}
    .fil17 {fill:#D2D3D5}
    .fil7 {fill:#E6E7E8}
    .fil11 {fill:#FBCD00}
    .fil2 {fill:#FEFEFE}
    .fil16 {fill:#373435;fill-rule:nonzero}
    .fil9 {fill:#1ADCFF;fill-opacity:0.309804}
   ]]>
  </style>
    <clipPath id="id0">
     <path d="M9892.44 4790.89l0 4782.4 -2476.22 -1733.96 0 -475.49 -332.94 -234.19 -4.07 973.39 190.4 133.38 0 627.21c87.57,141.53 215.86,287.12 402.19,408.29 572.23,370.62 2096.44,1472.29 2096.44,1472.29 0,0 226.04,176.14 366.55,104.88 128.29,-19.35 259.64,-95.72 365.53,-174.11 312.58,-231.13 221.97,-693.38 222.99,-1090.48 1.01,-1295.12 4.07,-4615.42 0,-5162.19 -5.09,-661.83 -476.52,-842.04 -476.52,-842.04l-942.84 -661.82c0,0 -482.62,-366.55 -859.35,-604.81 -400.15,-253.53 -654.7,-297.3 -1118.99,-128.28 -13.24,5.08 -27.49,10.18 -40.73,15.27 -106.91,50.91 -186.32,183.27 -186.32,463.28l0 26.47 829.82 593.6 0 132.36 1962.04 1373.53 2.04 1.03zm-1510.98 3999.42c72.29,50.9 137.45,134.4 185.31,229.09 47.86,95.71 77.38,202.62 77.38,299.34 0,98.77 -30.54,166.99 -80.44,198.55 -49.89,31.57 -120.15,24.44 -196.51,-29.52 -76.36,-53.96 -144.59,-142.55 -192.44,-243.35 -46.84,-98.77 -74.33,-208.73 -70.26,-304.44 4.07,-93.68 37.67,-157.82 87.56,-184.29 49.89,-26.48 117.1,-17.31 189.38,33.6l0 1.02z"/>
    </clipPath>
    <clipPath id="id1">
     <path d="M7099.56 2664.92l-21.39 5633.61c0,0 21.39,603.79 592.58,974.4 572.23,370.62 2096.44,1472.3 2096.44,1472.3 0,0 476.51,370.61 476.51,-180.23 0,-550.84 -10.18,-5929.89 -10.18,-5929.89 0,0 95.71,-582.4 -455.13,-942.84 -550.84,-360.44 -1937.61,-1355.19 -1937.61,-1355.19 0,0 -741.23,-529.46 -741.23,327.85l0 -0.01z"/>
    </clipPath>
    <clipPath id="id2">
     <path d="M5177.23 8063.32l-467.35 -327.86c0,0 17.31,521.31 -206.69,937.75 -224,416.44 -315.64,1330.76 -283.06,1704.44 32.59,373.67 271.86,1378.61 271.86,1378.61 171.06,120.15 762.62,567.13 642.47,85.53 -75.34,-299.34 -90.61,-962.18 37.68,-1666.77 128.28,-705.6 106.91,-1250.32 7.13,-2111.71l-2.04 0z"/>
    </clipPath>
    <clipPath id="id3">
     <path d="M5311.63 8108.12l592.59 -342.11c0,0 -35.64,440.88 18.33,878.69 52.94,437.83 213.81,1100.66 213.81,1538.47 0,437.83 72.3,1581.24 -97.74,1680 -95.71,54.98 -252.52,145.61 -371.64,214.84 -247.42,142.55 -298.32,89.59 -408.29,-291.21 -254.55,-881.75 127.27,-1824.57 127.27,-2655.42 0,-395.06 -73.31,-1022.26 -73.31,-1022.26l-1.02 -1.01z"/>
    </clipPath>
    <clipPath id="id4">
     <path d="M4730.25 7648.93l537.61 376.73 531.49 -306.48 -531.49 -379.78 -537.61 310.54 0 -1.01z"/>
    </clipPath>
    <clipPath id="id5">
     <path d="M5035.71 7412.71l259.64 -147.64 239.27 166.99 -257.61 148.65 -246.4 -173.09 6.11 4.07 -1.02 1.02z"/>
    </clipPath>
    <clipPath id="id6">
     <path d="M5035.71 7611.25l-3.05 -200.58 244.36 171.06 0 194.48 -241.31 -164.95z"/>
    </clipPath>
    <clipPath id="id7">
     <path d="M5289.23 7053.29l0 0c84.51,0 153.75,69.24 153.75,153.75l0 97.75c0,84.51 -69.24,153.75 -153.75,153.75l0 0c-84.51,0 -153.75,-69.24 -153.75,-153.75l0 -97.75c0,-84.51 69.24,-153.75 153.75,-153.75z"/>
    </clipPath>
    <clipPath id="id8">
     <path d="M5093.74 7041.07c0,0 227.05,256.59 435.78,185.31 209.74,-71.27 374.69,-180.22 405.24,-267.78 16.29,-46.84 24.43,-405.24 27.49,-729.02 7.13,-648.59 102.83,-507.06 -489.75,-879.72 -189.38,-119.13 -381.82,-220.95 -476.52,-210.76 -218.91,22.4 -331.93,192.44 -331.93,259.63 0,67.2 5.09,764.66 5.09,764.66 0,0 -134.4,438.84 423.56,877.67l1.02 0z"/>
    </clipPath>
    <clipPath id="id9">
     <path d="M4701.74 5311.18c88.58,62.11 542.69,349.23 678.11,438.84 155.78,102.84 293.24,145.6 300.36,263.71 11.2,179.2 0,848.15 0,848.15 0,0 23.42,433.74 -300.36,416.44l-679.13 -1968.15 1.02 1.01z"/>
    </clipPath>
    <clipPath id="id10">
     <path d="M4559.19 6092.12c42.76,4.07 109.97,15.27 211.79,36.66 258.61,54.98 374.69,378.77 438.84,581.38 64.14,202.62 -4.07,309.53 -87.57,382.84 -83.49,74.33 -508.07,-193.46 -577.31,-291.21 -33.6,-47.85 -101.81,-171.05 -142.55,-309.52 -60.07,-157.82 -149.67,-500.95 -131.35,-519.28 29.53,-28.5 88.58,-65.16 133.39,-65.16 35.63,0 65.16,44.81 142.55,181.24l13.23 1.02 -1.02 2.03z"/>
    </clipPath>
    <clipPath id="id11">
     <path d="M5343.79 5254.73c58.01,-273.01 71.85,-353.34 114.52,-367 42.67,-13.66 110.4,4.22 146.24,22.68 24.33,12.53 40.49,410.39 25.15,562.84 -26.04,265.98 -344.87,54.79 -286.87,-218.21l0.96 -0.31z"/>
    </clipPath>
    <clipPath id="id12">
     <path d="M5696.11 5457.95c33.28,-118.25 69.97,-154.33 107.5,-163.98 36.55,-9.35 92.58,9.33 122.86,27.57 19.76,11.93 21.83,208.73 0.29,337.17 -36.39,223.82 -325.36,136.38 -230.64,-200.75z"/>
    </clipPath>
    <clipPath id="id13">
     <path d="M5875.52 4823.12c25.95,7.86 174.51,392.35 105.66,407.59 -104.74,23.3 -101.75,36.24 -147.59,5.82 -106.34,-70.11 -105.43,-457.81 41.93,-413.41z"/>
    </clipPath>
    <clipPath id="id14">
     <path d="M5492.59 4310.15c30.13,10.66 188.87,469.81 107.21,485.26 -124.24,22.67 -121.52,37.83 -174.21,0.17 -121.96,-87.11 -104.58,-543.83 66.99,-485.43z"/>
    </clipPath>
    <clipPath id="id15">
     <path d="M4730.25 5057.66c-39.71,-275.93 -54.98,-356.37 -19.35,-383.86 35.64,-27.49 104.88,-34.62 145.6,-29.52 27.49,3.05 180.23,370.62 218.92,519.27 18.33,71.28 -67.2,116.07 -98.77,138.47 -84.51,58.04 -217.89,-43.78 -246.4,-243.34l0 -1.02z"/>
    </clipPath>
    <clipPath id="id16">
     <path d="M4542.91 4119.9c32.58,-1.02 340.08,375.72 267.78,418.47 -108.94,64.15 -100.8,77.38 -163.92,60.08 -144.59,-39.71 -286.11,-474.48 -104.88,-478.55l1.02 0z"/>
    </clipPath>
    <clipPath id="id17">
     <path d="M5030.12 4997.3c24.3,-309.49 27.61,-400.07 69.25,-418.99 41.63,-18.92 110.74,-4.44 149.4,13.89 25.69,11.88 91.56,455.34 95.25,626.83 4.46,206.83 -161.56,257.31 -255.43,111.66 -41.92,-64.57 -66.82,-237.48 -59.45,-333.16l0.99 -0.23z"/>
    </clipPath>
    <clipPath id="id18">
     <path d="M5087.26 3931.43c72.52,29.38 192.09,406.25 111.81,516.52 -26.94,37.49 -94.12,86.27 -169.93,24.22 -50.05,-40.78 -61.65,-150.93 -66.39,-258.47 -8.06,-163.18 19.44,-326.14 124.52,-282.27z"/>
    </clipPath>
    <clipPath id="id19">
     <path d="M4101.01 5414.02c-23.42,21.39 15.27,507.06 96.73,487.72 123.2,-29.52 126.25,-14.25 159.86,-69.24 77.38,-128.29 -122.19,-539.64 -256.59,-417.46l0 -1.02z"/>
    </clipPath>
    <clipPath id="id20">
     <path d="M5531.56 7639.77l3.06 -200.58 -244.37 142.55 0 194.48 241.31 -135.42 0 -1.02z"/>
    </clipPath>
    <clipPath id="id21">
     <path d="M5442.98 7277.29c257.6,-37.67 237.24,-413.39 237.24,-413.39 0,0 11.2,-669.96 0,-848.15 -7.13,-119.13 -145.6,-160.87 -300.36,-263.7 -135.42,-89.6 -589.53,-376.74 -678.11,-438.85 -24.44,36.66 -36.66,70.26 -36.66,92.66 0,54.98 3.05,515.21 5.09,704.59 29.52,5.08 63.12,12.21 101.81,20.36 258.62,54.98 374.69,378.77 438.84,581.39 64.15,202.61 -4.06,309.52 -87.56,382.83 -3.05,2.04 -6.11,4.07 -9.16,6.11 8.14,8.15 21.38,22.4 39.7,38.69 49.89,45.82 134.4,112 229.1,141.53 22.4,1.02 42.76,0 62.11,-2.03l-2.04 -2.04z"/>
    </clipPath>
    <clipPath id="id22">
     <path d="M5442.98 7277.29c257.6,-37.67 237.24,-413.39 237.24,-413.39 0,0 11.2,-669.96 0,-848.15 -7.13,-119.13 -145.6,-160.87 -300.36,-263.7 -135.42,-89.6 -589.53,-376.74 -678.11,-438.85 -24.44,36.66 -36.66,70.26 -36.66,92.66 0,54.98 3.05,515.21 5.09,704.59 29.52,5.08 63.12,12.21 101.81,20.36 258.62,54.98 374.69,378.77 438.84,581.39 64.15,202.61 -4.06,309.52 -87.56,382.83 -3.05,2.04 -6.11,4.07 -9.16,6.11 8.14,8.15 21.38,22.4 39.7,38.69 49.89,45.82 134.4,112 229.1,141.53 22.4,1.02 42.76,0 62.11,-2.03l-2.04 -2.04z"/>
    </clipPath>
    <clipPath id="id23">
     <path d="M5043.85 8119.33c12.22,8.14 23.42,22.4 30.54,37.67 8.15,16.29 13.23,33.6 13.23,49.89 0,16.29 -5.08,27.49 -13.23,33.6 -8.15,5.09 -20.37,4.07 -32.59,-5.09 -13.23,-9.16 -24.43,-23.41 -31.56,-40.72 -8.15,-16.29 -12.22,-34.62 -11.21,-50.91 1.02,-15.27 6.11,-26.47 14.26,-30.54 8.15,-4.07 19.35,-3.05 31.57,5.09l-1.02 1.02z"/>
    </clipPath>
    <clipPath id="id24">
     <path d="M5456.22 8149.87c-11.2,10.18 -20.37,24.43 -25.46,41.74 -6.11,16.29 -8.14,34.62 -7.13,50.91 2.04,16.28 8.15,26.47 17.31,30.54 9.16,4.07 20.37,2.03 31.57,-9.17 11.2,-10.18 20.36,-26.47 26.47,-43.79 6.11,-17.3 8.15,-35.63 5.08,-50.9 -3.05,-15.27 -9.16,-25.46 -18.33,-28.51 -9.16,-3.05 -19.35,0 -30.54,9.17l1.02 0z"/>
    </clipPath>
    <clipPath id="id25">
     <path d="M5510.18 11831.63c-11.2,10.18 -20.37,24.43 -25.46,41.74 -6.11,16.29 -8.14,34.62 -7.13,50.91 2.04,16.28 8.15,26.47 17.31,30.54 9.16,4.07 20.37,2.03 31.57,-9.17 11.2,-10.18 20.36,-26.47 26.47,-43.79 6.11,-17.3 8.15,-35.63 5.08,-50.9 -3.05,-15.27 -9.16,-25.46 -18.33,-28.51 -9.16,-3.05 -19.35,0 -30.54,9.17l1.02 0z"/>
    </clipPath>
     <clipPath id="id26">
      <path d="M4438.03 9604.85l865.45 3229.69 -865.45 -3229.69z"/>
     </clipPath>
     <clipPath id="id27">
      <path d="M3512.51 10139.41l865.46 3229.68 -865.46 -3229.68z"/>
     </clipPath>
     <clipPath id="id28">
      <path d="M2616.5 9512.2l-865.45 3229.69 865.45 -3229.69z"/>
     </clipPath>
     <clipPath id="id29">
      <path d="M3540 8990.9l-865.46 3229.68 865.46 -3229.68z"/>
     </clipPath>
     <clipPath id="id30">
      <path d="M3512.51 10139.41l925.53 -534.55 -925.53 534.55z"/>
     </clipPath>
     <clipPath id="id31">
      <path d="M3723.27 10908.12l925.53 -534.54 -925.53 534.54z"/>
     </clipPath>
     <clipPath id="id32">
      <path d="M3938.1 11743.04l925.53 -534.55 -925.53 534.55z"/>
     </clipPath>
     <clipPath id="id33">
      <path d="M4152.94 12480.2l925.53 -534.54 -925.53 534.54z"/>
     </clipPath>
     <clipPath id="id34">
      <path d="M2372.14 10363.39l925.53 -534.54 -925.53 534.54z"/>
     </clipPath>
     <clipPath id="id35">
      <path d="M2187.85 11173.87l925.53 -534.54 -925.53 534.54z"/>
     </clipPath>
     <clipPath id="id36">
      <path d="M1962.83 11967.05l925.53 -534.55 -925.53 534.55z"/>
     </clipPath>
     <clipPath id="id37">
      <path d="M2616.5 9512.2l925.53 -534.54 896.01 627.2 -925.53 534.55 -896.01 -627.21z"/>
     </clipPath>
 </defs>
 <g id="Camada_x0020_1">
  <metadata id="CorelCorpID_0Corel-Layer"/>
  <g id="_1717791035744">
   <path class="fil0" d="M11210.98 479.9l0 6090.76c0,160.88 71.28,298.33 202.62,390.99l2949.67 2073.02c149.68,104.88 332.95,117.1 494.84,32.59 161.89,-84.51 257.6,-241.32 257.6,-423.56l0 -6055.13c0,-158.84 -70.25,-296.29 -199.56,-388.95l-2949.68 -2108.65c-149.67,-106.91 -332.95,-120.15 -495.85,-36.65 -162.91,83.49 -259.64,241.31 -259.64,424.58l0 1.02z"/>
   <path class="fil0" d="M951.78 10782.9c204.66,143.57 313.6,363.49 302.41,612.95 -11.2,249.45 -138.47,459.2 -354.33,584.44l-544.73 314.63c-216.88,125.23 -344.15,334.98 -354.33,584.44 -11.2,249.45 97.75,469.38 302.4,612.95l1860.22 1302.25c231.13,161.89 518.26,175.13 762.62,33.61l1065.03 -614.99c244.37,-141.53 531.49,-129.31 762.62,33.6l1034.48 723.94c231.13,161.89 518.25,175.12 762.62,33.6l2090.33 -1206.54 252.51 177.16c231.13,161.89 518.26,175.12 762.63,33.6l4752.88 -2744c216.87,-125.24 344.14,-334.98 354.33,-584.44 11.2,-249.45 -97.75,-469.38 -302.41,-612.95l-5085.83 -3561.6c-231.13,-161.89 -518.25,-175.12 -762.62,-33.6l-4556.37 2630.99 -355.35 -248.44c-231.13,-161.89 -518.25,-175.13 -762.62,-33.6 -632.01,364.78 -316.08,182.28 -948.08,547.07 -891.43,514.53 -1852.38,845.06 -1038.4,1414.96z"/>
   <path class="fil1" d="M9667.41 715.1l0 3959.71c0,104.88 46.84,194.48 132.37,254.55l1918.26 1348.07c97.74,68.23 215.86,76.37 321.74,21.39 105.9,-54.98 166.99,-156.81 166.99,-275.93l0 -3937.3c0,-103.85 -45.82,-192.44 -130.33,-252.52l-1918.26 -1370.46c-96.73,-69.24 -216.88,-78.4 -322.76,-23.42 -105.9,54.98 -169.02,156.8 -169.02,275.92l1.01 0z"/>
   <ellipse class="fil2" transform="matrix(1.65825 0.848067 -0.848067 1.65825 8693.63 9618.5)" rx="1413.72" ry="497"/>
   <path class="fil3" d="M9892.44 4790.89l0 4782.4 -2476.22 -1733.96 0 -475.49 -332.94 -234.19 -4.07 973.39 190.4 133.38 0 627.21c87.57,141.53 215.86,287.12 402.19,408.29 572.23,370.62 2096.44,1472.29 2096.44,1472.29 0,0 226.04,176.14 366.55,104.88 128.29,-19.35 259.64,-95.72 365.53,-174.11 312.58,-231.13 221.97,-693.38 222.99,-1090.48 1.01,-1295.12 4.07,-4615.42 0,-5162.19 -5.09,-661.83 -476.52,-842.04 -476.52,-842.04l-942.84 -661.82c0,0 -482.62,-366.55 -859.35,-604.81 -400.15,-253.53 -654.7,-297.3 -1118.99,-128.28 -13.24,5.08 -27.49,10.18 -40.73,15.27 -106.91,50.91 -186.32,183.27 -186.32,463.28l0 26.47 829.82 593.6 0 132.36 1962.04 1373.53 2.04 1.03zm-1510.98 3999.42c72.29,50.9 137.45,134.4 185.31,229.09 47.86,95.71 77.38,202.62 77.38,299.34 0,98.77 -30.54,166.99 -80.44,198.55 -49.89,31.57 -120.15,24.44 -196.51,-29.52 -76.36,-53.96 -144.59,-142.55 -192.44,-243.35 -46.84,-98.77 -74.33,-208.73 -70.26,-304.44 4.07,-93.68 37.67,-157.82 87.56,-184.29 49.89,-26.48 117.1,-17.31 189.38,33.6l0 1.02z"/>
   <g>
   </g>
   <g style="clip-path:url(#id0)">
    <g id="_1717100712448">
     <path id="_1" class="fil4" d="M10163.28 7191.76c1.02,686.26 3.05,1409.17 4.07,2018.04l481.6 -277.97c0,-418.48 1.02,-904.15 1.02,-1400 0,-93.68 0,-188.36 0,-282.04l-486.7 -342.11c0,93.68 0,188.36 1.02,284.07l-1.02 0z"/>
    </g>
   </g>
   <path class="fil5" d="M9892.44 4790.89l0 4782.4 -2476.22 -1733.96 0 -475.49 -332.94 -234.19 -4.07 973.39 190.4 133.38 0 627.21c87.57,141.53 215.86,287.12 402.19,408.29 572.23,370.62 2096.44,1472.29 2096.44,1472.29 0,0 226.04,176.14 366.55,104.88 128.29,-19.35 259.64,-95.72 365.53,-174.11 312.58,-231.13 221.97,-693.38 222.99,-1090.48 1.01,-1295.12 4.07,-4615.42 0,-5162.19 -5.09,-661.83 -476.52,-842.04 -476.52,-842.04l-942.84 -661.82c0,0 -482.62,-366.55 -859.35,-604.81 -400.15,-253.53 -654.7,-297.3 -1118.99,-128.28 -13.24,5.08 -27.49,10.18 -40.73,15.27 -106.91,50.91 -186.32,183.27 -186.32,463.28l0 26.47 829.82 593.6 0 132.36 1962.04 1373.53 2.04 1.03zm-1510.98 3999.42c72.29,50.9 137.45,134.4 185.31,229.09 47.86,95.71 77.38,202.62 77.38,299.34 0,98.77 -30.54,166.99 -80.44,198.55 -49.89,31.57 -120.15,24.44 -196.51,-29.52 -76.36,-53.96 -144.59,-142.55 -192.44,-243.35 -46.84,-98.77 -74.33,-208.73 -70.26,-304.44 4.07,-93.68 37.67,-157.82 87.56,-184.29 49.89,-26.48 117.1,-17.31 189.38,33.6l0 1.02z"/>
   <path class="fil5 str0" d="M9892.44 4790.89l0 4782.4 -2476.22 -1733.96 0 -475.49 -332.94 -234.19 -4.07 973.39 190.4 133.38 0 627.21c87.57,141.53 215.86,287.12 402.19,408.29 572.23,370.62 2096.44,1472.29 2096.44,1472.29 0,0 226.04,176.14 366.55,104.88 128.29,-19.35 259.64,-95.72 365.53,-174.11 312.58,-231.13 221.97,-693.38 222.99,-1090.48 1.01,-1295.12 4.07,-4615.42 0,-5162.19 -5.09,-661.83 -476.52,-842.04 -476.52,-842.04l-942.84 -661.82c0,0 -482.62,-366.55 -859.35,-604.81 -400.15,-253.53 -654.7,-297.3 -1118.99,-128.28 -13.24,5.08 -27.49,10.18 -40.73,15.27 -106.91,50.91 -186.32,183.27 -186.32,463.28l0 26.47 829.82 593.6 0 132.36 1962.04 1373.53 2.04 1.03zm-1510.98 3999.42c72.29,50.9 137.45,134.4 185.31,229.09 47.86,95.71 77.38,202.62 77.38,299.34 0,98.77 -30.54,166.99 -80.44,198.55 -49.89,31.57 -120.15,24.44 -196.51,-29.52 -76.36,-53.96 -144.59,-142.55 -192.44,-243.35 -46.84,-98.77 -74.33,-208.73 -70.26,-304.44 4.07,-93.68 37.67,-157.82 87.56,-184.29 49.89,-26.48 117.1,-17.31 189.38,33.6l0 1.02z"/>
   <path class="fil1" d="M7099.56 2664.92l-21.39 5633.61c0,0 21.39,603.79 592.58,974.4 572.23,370.62 2096.44,1472.3 2096.44,1472.3 0,0 476.51,370.61 476.51,-180.23 0,-550.84 -10.18,-5929.89 -10.18,-5929.89 0,0 95.71,-582.4 -455.13,-942.84 -550.84,-360.44 -1937.61,-1355.19 -1937.61,-1355.19 0,0 -741.23,-529.46 -741.23,327.85l0 -0.01z"/>
   <g>
   </g>
   <g style="clip-path:url(#id1)">
    <g>
     <path id="_1_0" class="fil6" d="M8227.71 8463.47l-823.71 -576.29 0 -63.13c-98.77,130.33 -192.44,253.53 -278.99,367.57 -6.11,7.13 -11.2,15.27 -17.31,22.4 -14.25,18.33 -27.48,36.66 -40.72,53.96l0 77.38c0,0 9.17,273.89 190.4,566.11 87.56,141.53 215.86,287.13 402.18,408.29 269.82,175.13 753.46,513.17 1188.22,821.68l381.82 -219.93 -60.07 -41.74 0 -91.63 520.29 -300.36 -1462.11 -1024.3zm-100.8 458.18c14.25,-42.76 37.67,-73.31 67.2,-89.59 45.82,-24.44 107.93,-16.29 175.12,30.54 67.2,46.84 127.27,124.22 171.06,210.76 8.15,15.27 15.27,30.54 21.38,46.84 31.57,75.34 49.89,155.79 49.89,230.11 0,90.62 -28.5,154.77 -74.32,183.28l-2.04 1.02c4.07,-21.39 6.11,-44.81 6.11,-71.28 0,-92.66 -28.51,-195.49 -74.33,-286.11 -10.18,-20.37 -20.37,-39.7 -32.59,-58.04 -40.72,-66.18 -90.61,-122.18 -144.58,-159.85 -61.09,-42.76 -118.12,-54.98 -163.93,-38.69l1.02 1.01z"/>
     <path class="fil6" d="M9880.22 6913.8l0 2386.62 0 76.36 60.08 -34.62 290.18 -168c-1.01,-609.9 -2.03,-1332.79 -4.06,-2018.04 0,-95.71 0,-190.4 -1.02,-284.07l-346.18 -243.35 0 284.08 1.01 1.01z"/>
    </g>
   </g>
   <path class="fil5" d="M7099.56 2664.92l-21.39 5633.61c0,0 21.39,603.79 592.58,974.4 572.23,370.62 2096.44,1472.3 2096.44,1472.3 0,0 476.51,370.61 476.51,-180.23 0,-550.84 -10.18,-5929.89 -10.18,-5929.89 0,0 95.71,-582.4 -455.13,-942.84 -550.84,-360.44 -1937.61,-1355.19 -1937.61,-1355.19 0,0 -741.23,-529.46 -741.23,327.85l0 -0.01z"/>
   <path class="fil5 str0" d="M7099.56 2664.92l-21.39 5633.61c0,0 21.39,603.79 592.58,974.4 572.23,370.62 2096.44,1472.3 2096.44,1472.3 0,0 476.51,370.61 476.51,-180.23 0,-550.84 -10.18,-5929.89 -10.18,-5929.89 0,0 95.71,-582.4 -455.13,-942.84 -550.84,-360.44 -1937.61,-1355.19 -1937.61,-1355.19 0,0 -741.23,-529.46 -741.23,327.85l0 -0.01z"/>
   <polygon class="fil7 str0" points="7416.21,3057.94 7416.21,7839.33 9892.44,9573.29 9892.44,4790.89 "/>
   <polygon class="fil8" points="9739.71,4818.38 7482.4,7801.66 7482.4,7801.66 8277.6,8358.6 9688.8,9347.26 9872.07,9480.64 9873.09,9241.37 9873.09,9167.04 9873.09,6862.89 9873.09,6587.98 9580.87,6383.32 "/>
   <polygon class="fil9 str1" points="9072.8,1165.13 9072.8,5755.1 11538.84,7489.07 11538.84,2927.61 "/>
   <polygon class="fil10 str1" points="9275.41,1050.08 9275.41,5641.07 11742.47,7374.02 11742.47,2813.58 "/>
   <polygon class="fil2 str0" points="8789.74,1218.08 8789.74,5808.05 11256.8,7542.02 11256.8,2980.57 "/>
   <polygon class="fil9 str2" points="5590.62,1840.19 5590.62,5862.01 7752.22,7380.13 7752.22,3384.78 "/>
   <polygon class="fil10 str2" points="5768.8,1740.41 5768.8,5761.21 7929.38,7280.34 7929.38,3283.98 "/>
   <polygon class="fil11 str3" points="5343.2,1887.03 5343.2,5907.83 7504.79,7426.96 7504.79,3431.61 "/>
   <ellipse class="fil2" transform="matrix(0.786264 0.402114 -0.402114 0.786264 5062.69 11801)" rx="1413.72" ry="497"/>
   <path class="fil11 str0" d="M8381.46 8790.31c72.29,50.9 137.45,134.4 185.31,229.09 47.86,95.71 77.38,202.62 77.38,299.34 0,98.77 -30.54,166.99 -80.44,198.55 -49.89,31.57 -120.15,24.44 -196.51,-29.52 -76.36,-53.96 -144.59,-142.55 -192.44,-243.35 -46.84,-98.77 -74.33,-208.73 -70.26,-304.44 4.07,-93.68 37.67,-157.82 87.56,-184.29 49.89,-26.48 117.1,-17.31 189.38,33.6l0 1.02z"/>
   <g id="_468638768">
    <path class="fil11 str0" d="M8729.67 11842.82l1488.58 1039.57 0 -819.64 -1519.13 -1059.93c0,0 231.13,705.6 30.54,840z"/>
    <polygon class="fil0 str0" points="8621.74,10831.76 10292.58,12001.66 12783.06,10563.98 11112.22,9394.09 "/>
    <path class="fil0 str0" d="M10292.58 12001.66l0 1054.84 2490.48 -1437.67c110.99,-362.47 117.1,-766.69 0,-1054.84l-2490.48 1437.67z"/>
    <polygon class="fil0 str0" points="8699.13,11002.82 10218.26,12063.76 10218.26,12883.4 8729.67,11842.82 8671.63,11803.11 8671.63,11922.24 10292.58,13056.49 10292.58,12001.66 8621.74,10831.76 8621.74,10952.93 "/>
   </g>
   <g id="_468638816">
    <polygon class="fil3 str0" points="8436.44,10525.28 9752.94,11444.71 9752.94,11832.64 8462.91,10931.54 8413.02,10896.93 8413.02,10999.76 9817.09,11982.32 9817.09,11390.75 8369.24,10377.65 8369.24,10478.46 "/>
    <path class="fil11 str0" d="M8462.91 10931.54l1290.03 901.09 0 -387.93 -1316.5 -918.41c0,0 107.93,174.11 26.47,405.24z"/>
    <path class="fil3 str0" d="M9817.09 11390.75l0 591.57 2157.52 -1246.25c44.8,-152.72 100.8,-342.11 0,-591.57l-2158.55 1246.25 1.02 0z"/>
    <polygon class="fil3 str0" points="8369.24,10377.65 9817.09,11390.75 11975.64,10144.49 10527.78,9131.4 "/>
   </g>
   <g id="_468639344">
    <polygon class="fil3 str4" points="9242.84,9874.67 10429.02,10702.46 10429.02,11052.71 9266.26,10240.21 9221.45,10208.65 9221.45,10301.3 10487.06,11188.13 10487.06,10654.6 9181.74,9740.27 9181.74,9831.91 "/>
    <path class="fil11 str4" d="M9266.26 10240.21l1162.77 812.51 0 -349.24 -1187.2 -828.8c0,0 97.75,156.81 23.42,365.54l1.01 0z"/>
    <path class="fil3 str4" d="M10487.06 10654.6l0 533.53 1945.74 -1123.06c40.73,-137.45 91.63,-308.51 0,-533.53l-1945.74 1123.06z"/>
    <polygon class="fil3 str0" points="9181.74,9740.27 10487.06,10654.6 12432.8,9531.55 11127.49,8617.21 "/>
   </g>
   <g id="_468639944">
    <path class="fil11 str5" d="M10659.13 3379.68c-62.11,18.33 -121.16,84.51 -107.93,282.04 12.22,196.51 78.4,346.18 141.53,446.98 63.12,99.78 74.32,116.07 123.2,150.69l293.24 207.71 294.25 207.71c48.88,34.62 159.86,115.05 324.8,229.1 164.94,114.03 334.98,229.09 356.37,228.08 0,0 0,0 1.01,0 33.61,0 64.15,-3.06 93.68,-7.14 453.1,-68.22 415.42,-586.48 172.07,-776.87 -65.16,-50.91 -128.28,-81.46 -128.28,-99.78 0,-117.1 -6.11,-357.39 -106.92,-585.46 -87.56,-198.55 -262.68,-392.01 -378.76,-437.83 -138.47,-53.96 -278.99,-12.22 -429.68,49.89 -7.13,3.05 -15.27,6.11 -22.4,9.17 0,0 -1.02,0 -2.04,-1.02 -7.13,-5.09 -10.18,-24.44 -73.31,-70.26 -119.13,-87.56 -274.9,-80.44 -385.88,16.29 -11.21,10.18 -11.21,30.54 -12.22,49.89 -23.42,49.89 -23.42,116.07 -23.42,116.07 0,0 -65.16,-31.57 -127.27,-13.24l-2.04 -2.03z"/>
    <path class="fil2 str0" d="M10786.4 3392.92c0,0 0,-195.5 119.13,-166.99 119.13,28.5 233.17,217.89 233.17,217.89 0,0 28.51,-82.47 98.76,-135.42 69.24,-52.94 180.23,-76.36 345.17,40.73 150.69,107.93 273.89,332.95 334.98,525.39 35.64,113.01 52.94,217.89 61.09,294.25 8.15,76.37 7.13,126.26 6.11,130.34 -1.01,15.27 240.3,208.72 284.08,494.83 43.78,286.11 -7.13,274.91 -54.98,311.56 -47.86,36.66 -108.95,25.46 -129.31,25.46 -20.37,0 -191.43,-114.04 -356.37,-228.08 -164.94,-114.03 -275.92,-194.48 -324.8,-229.1 -48.87,-34.62 -196.51,-138.47 -294.25,-207.71 -97.75,-69.24 -244.37,-173.09 -293.24,-207.71 -48.88,-34.62 -60.08,-50.91 -123.2,-150.69 -63.13,-99.78 -129.31,-249.45 -141.53,-446.98 -12.22,-196.51 46.84,-263.71 107.93,-282.04 62.11,-18.33 127.27,13.24 127.27,13.24l0 1.02z"/>
   </g>
   <path class="fil0" d="M5177.23 8063.32l-467.35 -327.86c0,0 17.31,521.31 -206.69,937.75 -224,416.44 -315.64,1330.76 -283.06,1704.44 32.59,373.67 271.86,1378.61 271.86,1378.61 171.06,120.15 762.62,567.13 642.47,85.53 -75.34,-299.34 -90.61,-962.18 37.68,-1666.77 128.28,-705.6 106.91,-1250.32 7.13,-2111.71l-2.04 0z"/>
   <g>
   </g>
   <g style="clip-path:url(#id2)">
    <g>
     <path id="_1_1" class="fil12" d="M5683.27 6683.69c-1.02,129.31 -3.05,234.18 -3.05,234.18 0,0 10.18,181.24 -82.48,275.93 148.66,-57.03 262.69,-135.42 285.09,-199.57 11.2,-33.6 18.33,-260.65 21.39,-491.78 0,-30.54 1.01,-60.07 1.01,-89.6 0,-29.52 1.02,-58.04 2.04,-83.49 1.02,-36.66 2.03,-70.26 3.05,-99.78 -11.2,24.43 -23.42,49.89 -35.64,76.36 -19.35,41.74 -40.72,85.53 -62.11,131.35 -16.28,34.62 -33.6,71.27 -51.92,108.95 -23.42,48.87 -48.87,94.69 -76.36,137.45l-1.02 0z"/>
    </g>
   </g>
   <path class="fil5" d="M5177.23 8063.32l-467.35 -327.86c0,0 17.31,521.31 -206.69,937.75 -224,416.44 -315.64,1330.76 -283.06,1704.44 32.59,373.67 271.86,1378.61 271.86,1378.61 171.06,120.15 762.62,567.13 642.47,85.53 -75.34,-299.34 -90.61,-962.18 37.68,-1666.77 128.28,-705.6 106.91,-1250.32 7.13,-2111.71l-2.04 0z"/>
   <path class="fil5 str0" d="M5177.23 8063.32l-467.35 -327.86c0,0 17.31,521.31 -206.69,937.75 -224,416.44 -315.64,1330.76 -283.06,1704.44 32.59,373.67 271.86,1378.61 271.86,1378.61 171.06,120.15 762.62,567.13 642.47,85.53 -75.34,-299.34 -90.61,-962.18 37.68,-1666.77 128.28,-705.6 106.91,-1250.32 7.13,-2111.71l-2.04 0z"/>
   <path class="fil0" d="M5311.63 8108.12l592.59 -342.11c0,0 -35.64,440.88 18.33,878.69 52.94,437.83 213.81,1100.66 213.81,1538.47 0,437.83 72.3,1581.24 -97.74,1680 -95.71,54.98 -252.52,145.61 -371.64,214.84 -247.42,142.55 -298.32,89.59 -408.29,-291.21 -254.55,-881.75 127.27,-1824.57 127.27,-2655.42 0,-395.06 -73.31,-1022.26 -73.31,-1022.26l-1.02 -1.01z"/>
   <g>
   </g>
   <g style="clip-path:url(#id3)">
    <g>
     <path id="_1_2" class="fil12" d="M5683.27 6683.69c-1.02,129.31 -3.05,234.18 -3.05,234.18 0,0 10.18,181.24 -82.48,275.93 148.66,-57.03 262.69,-135.42 285.09,-199.57 11.2,-33.6 18.33,-260.65 21.39,-491.78 0,-30.54 1.01,-60.07 1.01,-89.6 0,-29.52 1.02,-58.04 2.04,-83.49 1.02,-36.66 2.03,-70.26 3.05,-99.78 -11.2,24.43 -23.42,49.89 -35.64,76.36 -19.35,41.74 -40.72,85.53 -62.11,131.35 -16.28,34.62 -33.6,71.27 -51.92,108.95 -23.42,48.87 -48.87,94.69 -76.36,137.45l-1.02 0z"/>
    </g>
   </g>
   <path class="fil5" d="M5311.63 8108.12l592.59 -342.11c0,0 -35.64,440.88 18.33,878.69 52.94,437.83 213.81,1100.66 213.81,1538.47 0,437.83 72.3,1581.24 -97.74,1680 -95.71,54.98 -252.52,145.61 -371.64,214.84 -247.42,142.55 -298.32,89.59 -408.29,-291.21 -254.55,-881.75 127.27,-1824.57 127.27,-2655.42 0,-395.06 -73.31,-1022.26 -73.31,-1022.26l-1.02 -1.01z"/>
   <path class="fil5 str0" d="M5311.63 8108.12l592.59 -342.11c0,0 -35.64,440.88 18.33,878.69 52.94,437.83 213.81,1100.66 213.81,1538.47 0,437.83 72.3,1581.24 -97.74,1680 -95.71,54.98 -252.52,145.61 -371.64,214.84 -247.42,142.55 -298.32,89.59 -408.29,-291.21 -254.55,-881.75 127.27,-1824.57 127.27,-2655.42 0,-395.06 -73.31,-1022.26 -73.31,-1022.26l-1.02 -1.01z"/>
   <polygon class="fil13" points="4730.25,7648.93 5267.86,8025.65 5799.35,7719.18 5267.86,7339.4 "/>
   <g>
   </g>
   <g style="clip-path:url(#id4)">
    <g>
     <path id="_1_3" class="fil12" d="M5683.27 6683.69c-1.02,129.31 -3.05,234.18 -3.05,234.18 0,0 10.18,181.24 -82.48,275.93 148.66,-57.03 262.69,-135.42 285.09,-199.57 11.2,-33.6 18.33,-260.65 21.39,-491.78 0,-30.54 1.01,-60.07 1.01,-89.6 0,-29.52 1.02,-58.04 2.04,-83.49 1.02,-36.66 2.03,-70.26 3.05,-99.78 -11.2,24.43 -23.42,49.89 -35.64,76.36 -19.35,41.74 -40.72,85.53 -62.11,131.35 -16.28,34.62 -33.6,71.27 -51.92,108.95 -23.42,48.87 -48.87,94.69 -76.36,137.45l-1.02 0z"/>
    </g>
   </g>
   <polygon class="fil5" points="4730.25,7648.93 5267.86,8025.66 5799.35,7719.18 5267.86,7339.4 4730.25,7649.94 "/>
   <polygon class="fil5 str0" points="4730.25,7648.93 5267.86,8025.65 5799.35,7719.18 5267.86,7339.4 "/>
   <polygon class="fil14" points="5035.71,7412.71 5295.35,7265.07 5534.62,7433.08 5277.01,7581.73 5029.59,7408.64 "/>
   <g>
   </g>
   <g style="clip-path:url(#id5)">
    <g>
     <path id="_1_4" class="fil12" d="M5683.27 6683.69c-1.02,129.31 -3.05,234.18 -3.05,234.18 0,0 10.18,181.24 -82.48,275.93 148.66,-57.03 262.69,-135.42 285.09,-199.57 11.2,-33.6 18.33,-260.65 21.39,-491.78 0,-30.54 1.01,-60.07 1.01,-89.6 0,-29.52 1.02,-58.04 2.04,-83.49 1.02,-36.66 2.03,-70.26 3.05,-99.78 -11.2,24.43 -23.42,49.89 -35.64,76.36 -19.35,41.74 -40.72,85.53 -62.11,131.35 -16.28,34.62 -33.6,71.27 -51.92,108.95 -23.42,48.87 -48.87,94.69 -76.36,137.45l-1.02 0z"/>
    </g>
   </g>
   <polygon class="fil5" points="5035.71,7412.71 5295.35,7265.07 5534.62,7432.06 5277.01,7580.71 5030.61,7407.62 5036.73,7411.69 "/>
   <polygon class="fil5 str0" points="5035.71,7412.71 5295.35,7265.07 5534.62,7433.08 5277.01,7581.73 5029.59,7408.64 "/>
   <polygon class="fil15" points="5035.71,7611.25 5032.65,7410.67 5277.01,7581.73 5277.01,7776.21 "/>
   <g>
   </g>
   <g style="clip-path:url(#id6)">
    <g>
     <path id="_1_5" class="fil12" d="M5683.27 6683.69c-1.02,129.31 -3.05,234.18 -3.05,234.18 0,0 10.18,181.24 -82.48,275.93 148.66,-57.03 262.69,-135.42 285.09,-199.57 11.2,-33.6 18.33,-260.65 21.39,-491.78 0,-30.54 1.01,-60.07 1.01,-89.6 0,-29.52 1.02,-58.04 2.04,-83.49 1.02,-36.66 2.03,-70.26 3.05,-99.78 -11.2,24.43 -23.42,49.89 -35.64,76.36 -19.35,41.74 -40.72,85.53 -62.11,131.35 -16.28,34.62 -33.6,71.27 -51.92,108.95 -23.42,48.87 -48.87,94.69 -76.36,137.45l-1.02 0z"/>
    </g>
   </g>
   <polygon class="fil5" points="5035.71,7611.25 5032.65,7410.67 5277.01,7581.73 5277.01,7776.21 "/>
   <polygon class="fil5 str0" points="5035.71,7611.25 5032.65,7410.67 5277.01,7581.73 5277.01,7776.21 "/>
   <path class="fil0" d="M5289.23 7053.29l0 0c84.51,0 153.75,69.24 153.75,153.75l0 97.75c0,84.51 -69.24,153.75 -153.75,153.75l0 0c-84.51,0 -153.75,-69.24 -153.75,-153.75l0 -97.75c0,-84.51 69.24,-153.75 153.75,-153.75z"/>
   <g>
   </g>
   <g style="clip-path:url(#id7)">
    <g>
     <path id="_1_6" class="fil12" d="M5683.27 6683.69c-1.02,129.31 -3.05,234.18 -3.05,234.18 0,0 10.18,181.24 -82.48,275.93 148.66,-57.03 262.69,-135.42 285.09,-199.57 11.2,-33.6 18.33,-260.65 21.39,-491.78 0,-30.54 1.01,-60.07 1.01,-89.6 0,-29.52 1.02,-58.04 2.04,-83.49 1.02,-36.66 2.03,-70.26 3.05,-99.78 -11.2,24.43 -23.42,49.89 -35.64,76.36 -19.35,41.74 -40.72,85.53 -62.11,131.35 -16.28,34.62 -33.6,71.27 -51.92,108.95 -23.42,48.87 -48.87,94.69 -76.36,137.45l-1.02 0z"/>
    </g>
   </g>
   <path class="fil5" d="M5289.23 7053.29l0 0c84.51,0 153.75,69.24 153.75,153.75l0 97.75c0,84.51 -69.24,153.75 -153.75,153.75l0 0c-84.51,0 -153.75,-69.24 -153.75,-153.75l0 -97.75c0,-84.51 69.24,-153.75 153.75,-153.75z"/>
   <g>
    <path class="fil16" d="M5289.23 7053.29l0 0 0 0 0 0 0 -29.52 0 29.52zm183.28 153.75l-60.08 0 0 0 0 -6.11 0 -6.11 -1.02 -6.11 -1.01 -6.11 -1.02 -6.11 -2.03 -6.11 -2.04 -6.11 -2.03 -5.08 -2.04 -5.09 -3.05 -5.09 -3.05 -5.08 -3.06 -5.09 -3.05 -5.09 -4.07 -5.08 -4.07 -4.07 -4.07 -4.07 -4.07 -4.07 -4.06 -4.07 -5.09 -4.07 -5.09 -3.05 -5.08 -3.06 -5.09 -3.05 -5.09 -3.05 -5.09 -2.03 -5.08 -2.04 -6.11 -2.03 -6.11 -2.04 -6.11 -1.02 -6.11 -1.01 -6.11 -1.02 -6.11 0 -6.11 0 0 -60.07 9.17 0 9.16 1.01 9.17 1.02 9.16 2.03 9.17 2.04 9.17 2.03 8.15 3.06 8.14 3.05 8.15 4.07 8.15 4.07 8.15 4.07 7.13 5.08 7.13 5.09 7.14 5.09 7.13 6.11 6.11 6.11 6.11 6.11 6.11 7.13 5.09 7.13 5.08 7.13 5.09 7.14 4.07 8.14 4.07 8.15 4.07 8.15 3.05 8.15 3.05 8.15 2.04 9.17 2.03 9.16 2.04 9.17 1.01 9.16 1.02 9.17 0 9.17 0 0 -2.03 -2.04zm-60.08 97.75l0 -97.75 60.08 0 0 97.75 0 0 -60.08 0zm-123.2 183.27l0 -60.07 0 0 6.11 0 6.11 0 6.11 -1.02 6.11 -1.02 6.11 -1.01 6.11 -2.04 6.11 -2.03 5.09 -2.04 5.08 -2.03 5.09 -3.05 5.09 -3.06 5.08 -3.05 5.09 -3.05 5.09 -4.07 4.07 -4.07 4.07 -4.07 4.07 -4.07 4.07 -4.07 4.07 -5.08 3.05 -5.09 3.05 -5.09 3.05 -5.08 3.05 -5.09 2.04 -5.09 2.03 -5.08 2.04 -6.11 2.03 -6.11 1.02 -6.11 1.02 -6.11 1.01 -6.11 0 -6.11 0 -6.11 60.08 0 0 9.16 -1.02 9.17 -1.02 9.17 -2.03 9.16 -2.04 9.17 -2.03 9.16 -3.05 8.15 -3.05 8.15 -4.07 8.15 -4.07 8.15 -4.07 8.15 -5.09 7.13 -5.09 7.13 -5.08 7.13 -6.11 7.13 -6.11 6.11 -6.11 6.11 -7.13 6.11 -7.13 5.08 -7.13 5.09 -7.13 5.09 -8.15 4.07 -8.15 4.07 -8.15 4.07 -8.15 3.05 -8.15 3.05 -9.16 2.03 -9.17 2.04 -9.16 2.03 -9.17 1.02 -9.17 1.02 -9.16 0 0 0 2.03 -2.04zm0 -29.52l0 0 0 0 0 0 0 29.52 0 -29.52zm-183.27 -153.75l60.07 0 0 0 0 6.11 0 6.11 1.02 6.11 1.02 6.11 1.01 6.11 2.04 6.11 2.03 6.11 2.04 5.08 2.03 5.09 3.05 5.09 3.06 5.09 3.05 5.08 3.05 5.09 4.07 5.09 4.07 4.07 4.07 4.06 4.07 4.07 4.07 4.07 5.08 4.07 5.09 3.05 5.09 3.06 5.08 3.05 5.09 3.05 5.09 2.04 5.09 2.03 6.11 2.04 6.11 2.03 6.11 1.02 6.11 1.01 6.11 1.02 6.11 0 6.11 0 0 60.08 -9.16 0 -9.17 -1.02 -9.16 -1.02 -9.17 -2.03 -9.17 -2.04 -9.16 -2.03 -8.15 -3.05 -8.15 -3.06 -8.15 -4.07 -8.15 -4.07 -8.15 -4.07 -7.13 -5.08 -7.13 -5.09 -7.13 -5.09 -7.13 -6.11 -6.11 -6.11 -6.11 -6.11 -6.11 -7.13 -5.08 -7.13 -5.09 -7.13 -5.09 -7.13 -4.07 -8.15 -4.07 -8.15 -4.06 -8.15 -3.06 -8.15 -3.05 -8.15 -2.03 -9.16 -2.04 -9.17 -2.03 -9.17 -1.02 -9.16 -1.02 -9.17 0 -9.17 0 0 2.04 2.04zm60.07 -97.75l0 97.75 -60.07 0 0 -97.75 0 0 60.07 0zm123.2 -183.27l0 60.07 0 0 -6.11 0 -6.11 0 -6.11 1.02 -6.11 1.02 -6.11 1.01 -6.11 2.04 -6.11 2.03 -5.08 2.04 -5.09 2.03 -5.09 3.06 -5.08 3.05 -5.09 3.05 -5.09 3.05 -5.09 4.07 -4.06 4.07 -4.07 4.07 -4.07 4.07 -4.07 4.07 -4.07 5.09 -3.05 5.08 -3.06 5.09 -3.05 5.09 -3.05 5.08 -2.04 5.09 -2.03 5.09 -2.03 6.11 -2.04 6.11 -1.02 6.11 -1.01 6.11 -1.02 6.11 0 6.11 0 6.11 -60.08 0 0 -9.17 1.02 -9.17 1.02 -9.16 2.03 -9.17 2.04 -9.17 2.03 -9.16 3.06 -8.15 3.05 -8.15 4.07 -8.15 4.07 -8.15 4.07 -8.15 5.08 -7.13 5.09 -7.13 5.09 -7.13 6.11 -7.13 6.11 -6.11 6.11 -6.11 7.13 -6.11 7.13 -5.08 7.13 -5.09 7.13 -5.09 8.15 -4.06 8.15 -4.07 8.15 -4.07 8.15 -3.06 8.15 -3.05 9.17 -2.03 9.16 -2.04 9.17 -2.03 9.16 -1.02 9.17 -1.02 9.17 0 0 0 -2.04 2.04z"/>
   </g>
   <path class="fil0" d="M5093.74 7041.07c0,0 227.05,256.59 435.78,185.31 209.74,-71.27 374.69,-180.22 405.24,-267.78 16.29,-46.84 24.43,-405.24 27.49,-729.02 7.13,-648.59 102.83,-507.06 -489.75,-879.72 -189.38,-119.13 -381.82,-220.95 -476.52,-210.76 -218.91,22.4 -331.93,192.44 -331.93,259.63 0,67.2 5.09,764.66 5.09,764.66 0,0 -134.4,438.84 423.56,877.67l1.02 0z"/>
   <g>
   </g>
   <g style="clip-path:url(#id8)">
    <g>
     <path id="_1_7" class="fil12" d="M5683.27 6683.69c-1.02,129.31 -3.05,234.18 -3.05,234.18 0,0 10.18,181.24 -82.48,275.93 148.66,-57.03 262.69,-135.42 285.09,-199.57 11.2,-33.6 18.33,-260.65 21.39,-491.78 0,-30.54 1.01,-60.07 1.01,-89.6 0,-29.52 1.02,-58.04 2.04,-83.49 1.02,-36.66 2.03,-70.26 3.05,-99.78 -11.2,24.43 -23.42,49.89 -35.64,76.36 -19.35,41.74 -40.72,85.53 -62.11,131.35 -16.28,34.62 -33.6,71.27 -51.92,108.95 -23.42,48.87 -48.87,94.69 -76.36,137.45l-1.02 0z"/>
    </g>
   </g>
   <path class="fil5" d="M5093.74 7041.07c0,0 227.05,256.59 435.78,185.31 209.74,-71.27 374.69,-180.22 405.24,-267.78 16.29,-46.84 24.43,-405.24 27.49,-729.02 7.13,-648.59 102.83,-507.06 -489.75,-879.72 -189.38,-119.13 -381.82,-220.95 -476.52,-210.76 -218.91,22.4 -331.93,192.44 -331.93,259.63 0,67.2 5.09,764.66 5.09,764.66 0,0 -134.4,438.84 423.56,877.67l1.02 0z"/>
   <path class="fil5 str3" d="M5093.74 7041.07c0,0 227.05,256.59 435.78,185.31 209.74,-71.27 374.69,-180.22 405.24,-267.78 16.29,-46.84 24.43,-405.24 27.49,-729.02 7.13,-648.59 102.83,-507.06 -489.75,-879.72 -189.38,-119.13 -381.82,-220.95 -476.52,-210.76 -218.91,22.4 -331.93,192.44 -331.93,259.63 0,67.2 5.09,764.66 5.09,764.66 0,0 -134.4,438.84 423.56,877.67l1.02 0z"/>
   <g>
   </g>
   <g style="clip-path:url(#id9)">
    <g>
     <path class="fil12" d="M5683.27 6683.69c-1.02,129.31 -3.05,234.18 -3.05,234.18 0,0 10.18,181.24 -82.48,275.93 148.66,-57.03 262.69,-135.42 285.09,-199.57 11.2,-33.6 18.33,-260.65 21.39,-491.78 0,-30.54 1.01,-60.07 1.01,-89.6 0,-29.52 1.02,-58.04 2.04,-83.49 1.02,-36.66 2.03,-70.26 3.05,-99.78 -11.2,24.43 -23.42,49.89 -35.64,76.36 -19.35,41.74 -40.72,85.53 -62.11,131.35 -16.28,34.62 -33.6,71.27 -51.92,108.95 -23.42,48.87 -48.87,94.69 -76.36,137.45l-1.02 0z"/>
    </g>
   </g>
   <path class="fil5" d="M4701.74 5311.18c88.58,62.11 542.69,349.23 678.11,438.84 155.78,102.84 293.24,145.6 300.36,263.71 11.2,179.2 0,848.15 0,848.15 0,0 23.42,433.74 -300.36,416.44l-679.13 -1968.15 1.02 1.01z"/>
   <path class="fil5 str0" d="M4701.74 5311.18c88.58,62.11 542.69,349.23 678.11,438.84 155.78,102.84 293.24,145.6 300.36,263.71 11.2,179.2 0,848.15 0,848.15 0,0 23.42,433.74 -300.36,416.44"/>
   <path class="fil0" d="M4559.19 6092.12c42.76,4.07 109.97,15.27 211.79,36.66 258.61,54.98 374.69,378.77 438.84,581.38 64.14,202.62 -4.07,309.53 -87.57,382.84 -83.49,74.33 -508.07,-193.46 -577.31,-291.21 -33.6,-47.85 -101.81,-171.05 -142.55,-309.52 -60.07,-157.82 -149.67,-500.95 -131.35,-519.28 29.53,-28.5 88.58,-65.16 133.39,-65.16 35.63,0 65.16,44.81 142.55,181.24l13.23 1.02 -1.02 2.03z"/>
   <g>
   </g>
   <g style="clip-path:url(#id10)">
    <g>
     <path id="_1_8" class="fil12" d="M5683.27 6683.69c-1.02,129.31 -3.05,234.18 -3.05,234.18 0,0 10.18,181.24 -82.48,275.93 148.66,-57.03 262.69,-135.42 285.09,-199.57 11.2,-33.6 18.33,-260.65 21.39,-491.78 0,-30.54 1.01,-60.07 1.01,-89.6 0,-29.52 1.02,-58.04 2.04,-83.49 1.02,-36.66 2.03,-70.26 3.05,-99.78 -11.2,24.43 -23.42,49.89 -35.64,76.36 -19.35,41.74 -40.72,85.53 -62.11,131.35 -16.28,34.62 -33.6,71.27 -51.92,108.95 -23.42,48.87 -48.87,94.69 -76.36,137.45l-1.02 0z"/>
    </g>
   </g>
   <path class="fil5" d="M4559.19 6092.12c42.76,4.07 109.97,15.27 211.79,36.66 258.61,54.98 374.69,378.77 438.84,581.38 64.14,202.62 -4.07,309.53 -87.57,382.84 -83.49,74.33 -508.07,-193.46 -577.31,-291.21 -33.6,-47.85 -101.81,-171.05 -142.55,-309.52 -60.07,-157.82 -149.67,-500.95 -131.35,-519.28 29.53,-28.5 88.58,-65.16 133.39,-65.16 35.63,0 65.16,44.81 142.55,181.24l13.23 1.02 -1.02 2.03z"/>
   <path class="fil5 str0" d="M4559.19 6092.12c42.76,4.07 109.97,15.27 211.79,36.66 258.61,54.98 374.69,378.77 438.84,581.38 64.14,202.62 -4.07,309.53 -87.57,382.84 -83.49,74.33 -508.07,-193.46 -577.31,-291.21 -33.6,-47.85 -101.81,-171.05 -142.55,-309.52 -60.07,-157.82 -149.67,-500.95 -131.35,-519.28 29.53,-28.5 88.58,-65.16 133.39,-65.16 35.63,0 65.16,44.81 142.55,181.24l13.23 1.02 -1.02 2.03z"/>
   <path class="fil0" d="M5343.79 5254.73c58.01,-273.01 71.85,-353.34 114.52,-367 42.67,-13.66 110.4,4.22 146.24,22.68 24.33,12.53 40.49,410.39 25.15,562.84 -26.04,265.98 -344.87,54.79 -286.87,-218.21l0.96 -0.31z"/>
   <g>
   </g>
   <g style="clip-path:url(#id11)">
    <g>
     <path id="_1_9" class="fil12" d="M6024.62 6563.44c38.45,123.47 68.48,223.96 68.48,223.96 0,0 64.94,169.51 5.57,287.94 124.19,-99.63 208.9,-209.06 210.69,-276.98 0.42,-35.41 -62.02,-253.83 -129.56,-474.9 -9.31,-29.09 -17.34,-57.52 -26.35,-85.64 -9,-28.12 -16.72,-55.59 -23.51,-80.14 -10.2,-35.22 -19.47,-67.53 -27.5,-95.96 -3.22,26.68 -7.1,54.65 -10.66,83.59 -5.69,45.66 -12.72,93.87 -19.11,144.02 -4.97,37.94 -10.27,78.13 -16.25,119.59 -7.4,53.68 -17.69,105.08 -30.83,154.18l-0.96 0.31z"/>
    </g>
   </g>
   <path class="fil5" d="M5343.79 5254.73c58.01,-273.01 71.85,-353.34 114.52,-367 42.67,-13.66 110.4,4.22 146.24,22.68 24.33,12.53 40.49,410.39 25.15,562.84 -26.04,265.98 -344.87,54.79 -286.87,-218.21l0.96 -0.31z"/>
   <path class="fil5 str0" d="M5343.79 5254.73c58.01,-273.01 71.85,-353.34 114.52,-367 42.67,-13.66 110.4,4.22 146.24,22.68 24.33,12.53 40.49,410.39 25.15,562.84 -26.04,265.98 -344.87,54.79 -286.87,-218.21l0.96 -0.31z"/>
   <path class="fil0" d="M5696.11 5457.95c33.28,-118.25 69.97,-154.33 107.5,-163.98 36.55,-9.35 92.58,9.33 122.86,27.57 19.76,11.93 21.83,208.73 0.29,337.17 -36.39,223.82 -325.36,136.38 -230.64,-200.75z"/>
   <g>
   </g>
   <g style="clip-path:url(#id12)">
    <g>
     <path id="_1_10" class="fil12" d="M6019.28 6639.26c37.79,123.67 67.29,224.33 67.29,224.33 0,0 64.05,169.85 4.04,287.96 124.73,-98.96 210.02,-207.94 212.15,-275.85 0.61,-35.42 -60.65,-254.17 -127.03,-475.58 -9.16,-29.14 -17.04,-57.62 -25.89,-85.79 -8.84,-28.17 -16.42,-55.67 -23.09,-80.26 -10.02,-35.27 -19.12,-67.63 -27,-96.11 -3.36,26.67 -7.38,54.62 -11.1,83.54 -5.94,45.63 -13.21,93.81 -19.88,143.93 -5.16,37.91 -10.68,78.07 -16.88,119.5 -7.7,53.65 -18.24,104.99 -31.65,154.03l-0.97 0.31z"/>
    </g>
   </g>
   <path class="fil5" d="M5696.11 5457.95c33.28,-118.25 69.97,-154.33 107.5,-163.98 36.55,-9.35 92.58,9.33 122.86,27.57 19.76,11.93 21.83,208.73 0.29,337.17 -36.39,223.82 -325.36,136.38 -230.64,-200.75z"/>
   <path class="fil5 str0" d="M5696.11 5457.95c33.28,-118.25 69.97,-154.33 107.5,-163.98 36.55,-9.35 92.58,9.33 122.86,27.57 19.76,11.93 21.83,208.73 0.29,337.17 -36.39,223.82 -325.36,136.38 -230.64,-200.75z"/>
   <path class="fil3" d="M5875.52 4823.12c25.95,7.86 174.51,392.35 105.66,407.59 -104.74,23.3 -101.75,36.24 -147.59,5.82 -106.34,-70.11 -105.43,-457.81 41.93,-413.41z"/>
   <g>
   </g>
   <g style="clip-path:url(#id13)">
    <g>
     <path id="_1_11" class="fil12" d="M6019.28 6639.26c37.79,123.67 67.29,224.33 67.29,224.33 0,0 64.05,169.85 4.04,287.96 124.73,-98.96 210.02,-207.94 212.15,-275.85 0.61,-35.42 -60.65,-254.17 -127.03,-475.58 -9.16,-29.14 -17.04,-57.62 -25.89,-85.79 -8.84,-28.17 -16.42,-55.67 -23.09,-80.26 -10.02,-35.27 -19.12,-67.63 -27,-96.11 -3.36,26.67 -7.38,54.62 -11.1,83.54 -5.94,45.63 -13.21,93.81 -19.88,143.93 -5.16,37.91 -10.68,78.07 -16.88,119.5 -7.7,53.65 -18.24,104.99 -31.65,154.03l-0.97 0.31z"/>
    </g>
   </g>
   <path class="fil5" d="M5875.52 4823.12c25.95,7.86 174.51,392.35 105.66,407.59 -104.74,23.3 -101.75,36.24 -147.59,5.82 -106.34,-70.11 -105.43,-457.81 41.93,-413.41z"/>
   <path class="fil5 str0" d="M5875.52 4823.12c25.95,7.86 174.51,392.35 105.66,407.59 -104.74,23.3 -101.75,36.24 -147.59,5.82 -106.34,-70.11 -105.43,-457.81 41.93,-413.41z"/>
   <path class="fil3" d="M5492.59 4310.15c30.13,10.66 188.87,469.81 107.21,485.26 -124.24,22.67 -121.52,37.83 -174.21,0.17 -121.96,-87.11 -104.58,-543.83 66.99,-485.43z"/>
   <g>
   </g>
   <g style="clip-path:url(#id14)">
    <g>
     <path id="_1_12" class="fil12" d="M6024.62 6563.44c38.45,123.47 68.48,223.96 68.48,223.96 0,0 64.94,169.51 5.57,287.94 124.19,-99.63 208.9,-209.06 210.69,-276.98 0.42,-35.41 -62.02,-253.83 -129.56,-474.9 -9.31,-29.09 -17.34,-57.52 -26.35,-85.64 -9,-28.12 -16.72,-55.59 -23.51,-80.14 -10.2,-35.22 -19.47,-67.53 -27.5,-95.96 -3.22,26.68 -7.1,54.65 -10.66,83.59 -5.69,45.66 -12.72,93.87 -19.11,144.02 -4.97,37.94 -10.27,78.13 -16.25,119.59 -7.4,53.68 -17.69,105.08 -30.83,154.18l-0.96 0.31z"/>
    </g>
   </g>
   <path class="fil5" d="M5492.59 4310.15c30.13,10.66 188.87,469.81 107.21,485.26 -124.24,22.67 -121.52,37.83 -174.21,0.17 -121.96,-87.11 -104.58,-543.83 66.99,-485.43z"/>
   <path class="fil5 str0" d="M5492.59 4310.15c30.13,10.66 188.87,469.81 107.21,485.26 -124.24,22.67 -121.52,37.83 -174.21,0.17 -121.96,-87.11 -104.58,-543.83 66.99,-485.43z"/>
   <path class="fil0" d="M4730.25 5057.66c-39.71,-275.93 -54.98,-356.37 -19.35,-383.86 35.64,-27.49 104.88,-34.62 145.6,-29.52 27.49,3.05 180.23,370.62 218.92,519.27 18.33,71.28 -67.2,116.07 -98.77,138.47 -84.51,58.04 -217.89,-43.78 -246.4,-243.34l0 -1.02z"/>
   <g>
   </g>
   <g style="clip-path:url(#id15)">
    <g>
     <path id="_1_13" class="fil12" d="M5683.27 6683.69c-1.02,129.31 -3.05,234.18 -3.05,234.18 0,0 10.18,181.24 -82.48,275.93 148.66,-57.03 262.69,-135.42 285.09,-199.57 11.2,-33.6 18.33,-260.65 21.39,-491.78 0,-30.54 1.01,-60.07 1.01,-89.6 0,-29.52 1.02,-58.04 2.04,-83.49 1.02,-36.66 2.03,-70.26 3.05,-99.78 -11.2,24.43 -23.42,49.89 -35.64,76.36 -19.35,41.74 -40.72,85.53 -62.11,131.35 -16.28,34.62 -33.6,71.27 -51.92,108.95 -23.42,48.87 -48.87,94.69 -76.36,137.45l-1.02 0z"/>
    </g>
   </g>
   <path class="fil5" d="M4730.25 5057.66c-39.71,-275.93 -54.98,-356.37 -19.35,-383.86 35.64,-27.49 104.88,-34.62 145.6,-29.52 27.49,3.05 180.23,370.62 218.92,519.27 18.33,71.28 -67.2,116.07 -98.77,138.47 -84.51,58.04 -217.89,-43.78 -246.4,-243.34l0 -1.02z"/>
   <path class="fil5 str0" d="M4730.25 5057.66c-39.71,-275.93 -54.98,-356.37 -19.35,-383.86 35.64,-27.49 104.88,-34.62 145.6,-29.52 27.49,3.05 180.23,370.62 218.92,519.27 18.33,71.28 -67.2,116.07 -98.77,138.47 -84.51,58.04 -217.89,-43.78 -246.4,-243.34l0 -1.02z"/>
   <path class="fil3" d="M4542.91 4119.9c32.58,-1.02 340.08,375.72 267.78,418.47 -108.94,64.15 -100.8,77.38 -163.92,60.08 -144.59,-39.71 -286.11,-474.48 -104.88,-478.55l1.02 0z"/>
   <g>
   </g>
   <g style="clip-path:url(#id16)">
    <g>
     <path id="_1_14" class="fil12" d="M5683.27 6683.69c-1.02,129.31 -3.05,234.18 -3.05,234.18 0,0 10.18,181.24 -82.48,275.93 148.66,-57.03 262.69,-135.42 285.09,-199.57 11.2,-33.6 18.33,-260.65 21.39,-491.78 0,-30.54 1.01,-60.07 1.01,-89.6 0,-29.52 1.02,-58.04 2.04,-83.49 1.02,-36.66 2.03,-70.26 3.05,-99.78 -11.2,24.43 -23.42,49.89 -35.64,76.36 -19.35,41.74 -40.72,85.53 -62.11,131.35 -16.28,34.62 -33.6,71.27 -51.92,108.95 -23.42,48.87 -48.87,94.69 -76.36,137.45l-1.02 0z"/>
    </g>
   </g>
   <path class="fil5" d="M4542.91 4119.9c32.58,-1.02 340.08,375.72 267.78,418.47 -108.94,64.15 -100.8,77.38 -163.92,60.08 -144.59,-39.71 -286.11,-474.48 -104.88,-478.55l1.02 0z"/>
   <path class="fil5 str0" d="M4542.91 4119.9c32.58,-1.02 340.08,375.72 267.78,418.47 -108.94,64.15 -100.8,77.38 -163.92,60.08 -144.59,-39.71 -286.11,-474.48 -104.88,-478.55l1.02 0z"/>
   <path class="fil0" d="M5030.12 4997.3c24.3,-309.49 27.61,-400.07 69.25,-418.99 41.63,-18.92 110.74,-4.44 149.4,13.89 25.69,11.88 91.56,455.34 95.25,626.83 4.46,206.83 -161.56,257.31 -255.43,111.66 -41.92,-64.57 -66.82,-237.48 -59.45,-333.16l0.99 -0.23z"/>
   <g>
   </g>
   <g style="clip-path:url(#id17)">
    <g>
     <path id="_1_15" class="fil12" d="M5996.12 6522.78c27.82,126.29 49.2,228.98 49.2,228.98 0,0 50.32,174.41 -18.91,287.36 132.21,-88.71 225.91,-190.56 233.46,-258.08 3.42,-35.25 -40.23,-258.18 -88.75,-484.19 -6.81,-29.77 -12.4,-58.78 -18.97,-87.57 -6.58,-28.78 -11.94,-56.81 -16.63,-81.85 -7.17,-35.95 -13.67,-68.94 -19.26,-97.95 -5.47,26.32 -11.7,53.85 -17.72,82.38 -9.55,45.01 -20.64,92.45 -31.27,141.89 -8.17,37.38 -16.88,76.96 -26.35,117.78 -11.93,52.86 -26.54,103.2 -43.8,151.02l-0.99 0.22z"/>
    </g>
   </g>
   <path class="fil5" d="M5030.12 4997.3c24.3,-309.49 27.61,-400.07 69.25,-418.99 41.63,-18.92 110.74,-4.44 149.4,13.89 25.69,11.88 91.56,455.34 95.25,626.83 4.46,206.83 -161.56,257.31 -255.43,111.66 -41.92,-64.57 -66.82,-237.48 -59.45,-333.16l0.99 -0.23z"/>
   <g>
    <path class="fil16" d="M5086.6 4549.9l25.07 54.84 0 0 -0.99 0.23 -0.99 0.23 -0.99 0.23 -0.77 1.22 -1.76 1.44 -1.53 2.44 -1.31 3.43 -2.3 3.65 -2.07 4.66 -1.84 5.64 -1.62 6.64 -1.38 7.63 -2.16 8.84 -2.16 8.85 -1.93 9.84 -1.71 10.84 -1.47 11.83 -1.25 12.82 -2.01 14.03 -1.78 15.03 -1.56 16.03 -1.33 17.01 -1.11 18.01 -1.87 19.23 -1.65 20.21 -1.41 21.22 -2.18 22.44 -1.96 23.42 -1.73 24.42 -2.5 25.64 -2.04 27.62 -1.81 28.62 -59.67 -5.16 1.81 -28.62 2.04 -27.62 2.5 -25.64 1.73 -24.41 1.96 -23.43 2.18 -22.44 1.41 -21.21 1.65 -20.22 1.87 -19.23 2.1 -18.23 1.33 -17.02 1.56 -16.03 1.78 -15.03 2.01 -14.03 2.01 -14.04 1.25 -12.81 1.47 -11.83 1.71 -10.84 1.7 -10.84 1.93 -9.84 2.16 -8.85 2.16 -8.84 2.38 -7.86 3.38 -8.08 3.6 -7.09 3.61 -7.1 3.83 -6.1 4.82 -6.32 5.06 -5.33 6.04 -5.55 6.27 -4.57 6.5 -3.58 0 0 1.98 -0.45zm174.35 13.4l-25.07 54.82 0 0 -3.42 -1.31 -3.43 -1.3 -3.43 -1.31 -3.43 -1.31 -3.42 -1.31 -3.43 -1.3 -4.43 -1.08 -4.43 -1.08 -4.42 -1.08 -4.43 -1.08 -4.43 -1.08 -4.43 -1.08 -4.42 -1.08 -4.43 -1.08 -4.43 -1.08 -4.43 -1.08 -4.2 -0.09 -4.2 -0.09 -4.2 -0.09 -4.2 -0.08 -4.2 -0.09 -4.2 -0.09 -4.2 -0.09 -4.2 -0.09 -3.97 0.91 -3.97 0.91 -2.98 0.69 -2.99 0.68 -2.98 0.68 -2.98 0.69 -2.98 0.68 -2.98 0.68 -25.07 -54.84 5.72 -2.36 5.73 -2.36 5.95 -1.35 5.95 -1.36 5.96 -1.36 5.95 -1.36 6.18 -0.36 6.18 -0.37 6.18 -0.37 6.18 -0.36 6.18 -0.37 6.18 -0.37 5.42 0.86 5.42 0.85 5.42 0.85 5.42 0.85 5.42 0.85 5.41 0.85 5.42 0.86 5.42 0.85 5.42 0.85 5.42 0.85 5.64 1.84 5.65 1.85 5.65 1.84 5.64 1.84 4.66 2.07 4.65 2.07 4.66 2.07 4.66 2.07 4.65 2.07 4.66 2.07 0 0 -2.67 -2.53zm112.75 653.13l-60.3 1.25 0 0 -0.65 -16.57 -0.88 -17.55 -1.34 -19.54 -1.56 -20.54 -1.78 -21.52 -2.01 -22.52 -2.24 -23.5 -2.47 -24.51 -2.47 -24.5 -2.69 -25.5 -2.7 -25.5 -3.68 -25.26 -3.69 -25.27 -3.68 -25.27 -3.69 -25.27 -3.68 -25.27 -3.46 -24.28 -3.46 -24.28 -4.23 -23.06 -4 -22.05 -3.78 -21.07 -3.54 -20.08 -3.32 -19.09 -4.09 -17.87 -3.62 -15.88 -3.18 -13.89 -2.95 -12.91 -3.26 -9.7 -2.81 -7.71 -2.13 -4.74 0 0 9 7.35 25.07 -54.82 14.09 11.4 5.25 9.25 4.25 9.46 3.49 10.69 3.72 11.69 3.18 13.9 3.62 15.88 3.85 16.88 4.09 17.86 3.54 20.08 3.78 21.07 4 22.06 4.23 23.06 4.45 24.05 3.46 24.28 3.68 25.27 3.69 25.27 3.68 25.26 3.92 26.26 3.91 26.26 2.92 26.49 2.7 25.5 2.69 25.49 2.7 25.5 2.47 24.51 2.24 23.5 2.24 23.51 2.01 22.51 1.78 21.53 1.34 19.54 1.11 18.54 0.88 17.55 0 0 0.31 -3.2zm-309.88 129.32l50.05 -32.33 0 0 7.92 11.77 8.67 10.54 8.45 9.56 8.22 8.57 9 7.35 8.77 6.35 8.53 5.36 8.32 4.37 8.08 3.37 7.85 2.38 7.63 1.39 7.4 0.39 7.4 0.4 7.17 -0.6 6.94 -1.58 6.73 -2.59 6.73 -2.58 6.49 -3.58 6.27 -4.56 6.05 -5.56 5.81 -6.55 5.59 -7.55 5.36 -8.54 5.13 -9.53 4.9 -10.51 4.67 -11.52 3.46 -12.28 3.23 -13.27 3 -14.27 1.78 -15.02 0.57 -15.8 0.1 -17.78 60.3 -1.25 -0.43 20.99 -0.65 19.99 -1.87 19.22 -3.09 18.47 -4.54 16.7 -4.76 15.71 -5.98 14.95 -7.2 14.18 -7.43 13.19 -8.65 12.42 -8.87 11.43 -10.1 10.66 -10.55 8.67 -11.76 7.92 -12 6.92 -12.22 5.93 -12.68 3.94 -12.91 2.95 -13.13 1.96 -13.58 -0.03 -13.81 -1.02 -13.05 -2.23 -13.5 -4.23 -13.73 -5.22 -12.95 -6.44 -13.19 -7.43 -12.42 -8.65 -11.66 -9.86 -11.89 -10.87 -11.11 -12.08 -10.35 -13.3 -9.59 -14.53 0 0 3.06 -4.87zm-63.54 -351.04l59.68 5.16 0 0 -0.17 8.39 -0.17 8.39 0.06 9.39 0.06 9.39 0.29 10.38 0.28 10.39 0.29 10.38 0.52 11.37 0.51 11.37 0.52 11.37 1.5 11.14 1.51 11.15 1.51 11.14 1.5 11.14 1.51 11.15 1.5 11.14 1.51 11.15 2.5 10.91 2.49 10.92 2.5 10.91 2.5 10.92 2.27 9.92 2.26 9.93 3.26 9.7 3.03 8.7 3.04 8.71 3.03 8.71 2.8 7.71 2.59 6.73 3.57 6.5 3.35 5.49 3.12 4.51 -50.05 32.33 -4.79 -7.26 -4.04 -8.48 -4.03 -8.48 -4.25 -9.46 -4.25 -9.47 -3.26 -9.7 -3.26 -9.7 -3.48 -10.69 -3.49 -10.68 -2.5 -10.92 -2.49 -10.92 -2.73 -11.91 -2.72 -11.91 -2.73 -11.91 -2.72 -11.91 -1.74 -12.13 -1.73 -12.14 -1.73 -12.13 -1.74 -12.14 -1.73 -12.13 -1.73 -12.13 -0.74 -12.37 -0.73 -12.36 -0.73 -12.36 -0.52 -11.37 -0.52 -11.37 -0.51 -11.37 -0.52 -11.38 -0.28 -10.38 0.71 -10.61 0.71 -10.6 0.93 -9.62 0 0 -1.31 3.42z"/>
   </g>
   <path class="fil3" d="M5087.26 3931.43c72.52,29.38 192.09,406.25 111.81,516.52 -26.94,37.49 -94.12,86.27 -169.93,24.22 -50.05,-40.78 -61.65,-150.93 -66.39,-258.47 -8.06,-163.18 19.44,-326.14 124.52,-282.27z"/>
   <g>
   </g>
   <g style="clip-path:url(#id18)">
    <g>
     <path id="_1_16" class="fil12" d="M5996.12 6522.78c27.82,126.29 49.2,228.98 49.2,228.98 0,0 50.32,174.41 -18.91,287.36 132.21,-88.71 225.91,-190.56 233.46,-258.08 3.42,-35.25 -40.23,-258.18 -88.75,-484.19 -6.81,-29.77 -12.4,-58.78 -18.97,-87.57 -6.58,-28.78 -11.94,-56.81 -16.63,-81.85 -7.17,-35.95 -13.67,-68.94 -19.26,-97.95 -5.47,26.32 -11.7,53.85 -17.72,82.38 -9.55,45.01 -20.64,92.45 -31.27,141.89 -8.17,37.38 -16.88,76.96 -26.35,117.78 -11.93,52.86 -26.54,103.2 -43.8,151.02l-0.99 0.22z"/>
    </g>
   </g>
   <path class="fil5" d="M5087.26 3931.43c72.52,29.38 192.09,406.25 111.81,516.52 -26.94,37.49 -94.12,86.27 -169.93,24.22 -50.05,-40.78 -61.65,-150.93 -66.39,-258.47 -8.06,-163.18 19.44,-326.14 124.52,-282.27z"/>
   <g>
    <path class="fil16" d="M5223.14 4466.46l-48.7 -34.83 0 0 4.6 -7.32 4.14 -9.3 3.68 -11.29 3.46 -12.28 2.01 -14.04 1.78 -15.03 0.34 -16.79 0.11 -17.78 -1.11 -18.54 -1.34 -19.54 -2.33 -19.32 -2.55 -20.3 -3.55 -20.08 -3.55 -20.08 -4.76 -20.84 -4.77 -20.84 -5.53 -19.62 -5.52 -19.63 -6.52 -19.39 -6.3 -18.41 -6.3 -18.4 -7.07 -17.18 -6.83 -16.2 -6.61 -15.2 -7.37 -13.98 -7.14 -12.99 -6.7 -11 -6.24 -9.02 -5.78 -7.03 -5.33 -5.05 -3.89 -3.29 -1.21 -0.76 22.86 -55.36 11.96 6.66 10.21 8.12 9.44 9.33 8.91 11.54 9.13 12.53 8.37 13.75 8.59 14.75 7.83 15.97 8.05 16.96 7.29 18.17 7.52 19.17 7.52 19.17 6.75 20.39 6.74 20.4 5.99 21.61 5.98 21.61 4.99 21.85 5 21.84 4 22.06 4 22.06 2.79 21.29 2.78 21.3 1.78 21.52 0.57 20.77 0.34 19.77 -0.66 19.99 -1.87 19.22 -3.09 18.47 -4.31 17.7 -5.52 16.93 -6.98 15.17 -9.19 14.63 0 0 -0.91 -3.97zm-213.52 30.01l37.49 -46.17 0 0 6.32 4.82 6.1 3.83 4.88 3.06 4.87 3.06 4.65 2.07 4.66 2.07 4.43 1.08 4.43 1.08 4.42 1.08 4.2 0.09 4.2 0.09 4.2 0.08 4.2 0.09 3.98 -0.91 3.97 -0.91 3.97 -0.91 3.97 -0.91 3.75 -1.9 3.74 -1.91 3.74 -1.9 3.75 -1.9 3.74 -1.9 3.52 -2.89 3.52 -2.9 3.51 -2.89 3.52 -2.89 2.52 -2.67 2.53 -2.66 2.53 -2.67 2.52 -2.66 2.53 -2.67 1.53 -2.43 48.7 34.82 -3.29 3.89 -3.29 3.88 -4.28 4.11 -4.28 4.11 -4.28 4.11 -4.27 4.11 -4.28 4.11 -5.28 4.34 -5.28 4.34 -5.5 3.35 -5.5 3.35 -6.5 3.57 -6.49 3.58 -6.73 2.59 -6.72 2.58 -6.73 2.59 -6.94 1.58 -6.95 1.59 -8.17 0.82 -8.17 0.82 -8.39 -0.17 -8.39 -0.16 -8.62 -1.16 -8.62 -1.16 -8.84 -2.16 -8.85 -2.16 -8.08 -3.38 -8.31 -4.37 -8.31 -4.36 -8.54 -5.36 -8.54 -5.36 -8.77 -6.35 0 0 4.66 2.07zm-77.57 -279.93l59.84 -3.24 0 0 0.29 10.39 0.28 10.38 0.29 10.38 0.29 10.38 1.28 10.15 1.28 10.15 1.05 9.17 1.05 9.16 1.05 9.16 1.05 9.16 1.05 9.17 1.05 9.16 1.05 9.16 1.05 9.16 1.81 7.95 1.81 7.94 1.82 7.95 1.81 7.94 1.81 7.94 1.59 6.95 2.58 6.72 2.59 6.73 2.36 5.73 2.35 5.72 2.36 5.73 2.13 4.73 3.12 4.51 3.12 4.5 2.9 3.52 2.89 3.52 2.66 2.52 2.67 2.53 -37.49 46.17 -6.55 -5.82 -5.56 -6.04 -5.56 -6.04 -4.56 -6.27 -4.8 -7.26 -4.79 -7.26 -3.8 -7.49 -3.81 -7.49 -3.8 -7.49 -2.81 -7.71 -3.03 -8.71 -3.03 -8.71 -3.03 -8.7 -2.04 -8.94 -2.04 -8.93 -2.04 -8.94 -2.04 -8.93 -2.04 -8.94 -1.05 -9.16 -1.28 -10.15 -1.28 -10.15 -1.28 -10.16 -1.28 -10.15 -1.28 -10.15 -1.27 -10.16 -1.28 -10.15 -1.28 -10.15 -0.29 -10.38 -0.28 -10.38 -0.29 -10.39 -0.29 -10.38 -0.29 -10.38 0 0 1.22 0.77zm165.87 -311.57l-22.86 55.37 0 0 -6.87 -2.61 -5.64 -1.84 -5.42 -0.85 -4.2 -0.09 -3.97 0.91 -3.98 0.91 -2.75 1.68 -3.74 1.9 -3.52 2.89 -3.29 3.88 -3.29 3.89 -4.05 5.1 -3.83 6.1 -3.61 7.09 -3.37 8.09 -3.15 9.07 -3.15 9.07 -2.93 10.07 -2.69 11.06 -2.69 11.07 -2.47 12.05 -1.25 12.82 -1.24 12.82 -1.25 12.81 -1.02 13.81 -1.02 13.81 -1.02 13.81 0.2 14.58 0.2 14.58 0.19 14.58 0.2 14.58 0.2 14.58 -59.84 3.23 -0.42 -15.57 -0.43 -15.57 -0.43 -15.57 -0.42 -15.57 0.56 -15.8 0.79 -14.81 0.79 -14.81 0.8 -14.81 0.79 -14.81 2.01 -14.03 2.01 -14.04 2.01 -14.03 2.24 -13.05 3.23 -13.27 3.45 -12.29 3.46 -12.28 4.67 -11.51 4.68 -11.51 4.9 -10.52 6.12 -9.76 6.12 -9.75 7.35 -9 8.57 -8.22 8.8 -7.23 10.24 -5.48 10.46 -4.48 11.91 -2.72 12.13 -1.74 12.59 0.26 11.83 1.48 12.28 3.45 12.51 4.45 0 0 1.45 1.76z"/>
   </g>
   <path class="fil3" d="M4101.01 5414.02c-23.42,21.39 15.27,507.06 96.73,487.72 123.2,-29.52 126.25,-14.25 159.86,-69.24 77.38,-128.29 -122.19,-539.64 -256.59,-417.46l0 -1.02z"/>
   <g>
   </g>
   <g style="clip-path:url(#id19)">
    <g>
     <path id="_1_17" class="fil12" d="M5683.27 6683.69c-1.02,129.31 -3.05,234.18 -3.05,234.18 0,0 10.18,181.24 -82.48,275.93 148.66,-57.03 262.69,-135.42 285.09,-199.57 11.2,-33.6 18.33,-260.65 21.39,-491.78 0,-30.54 1.01,-60.07 1.01,-89.6 0,-29.52 1.02,-58.04 2.04,-83.49 1.02,-36.66 2.03,-70.26 3.05,-99.78 -11.2,24.43 -23.42,49.89 -35.64,76.36 -19.35,41.74 -40.72,85.53 -62.11,131.35 -16.28,34.62 -33.6,71.27 -51.92,108.95 -23.42,48.87 -48.87,94.69 -76.36,137.45l-1.02 0z"/>
    </g>
   </g>
   <path class="fil5" d="M4101.01 5414.02c-23.42,21.39 15.27,507.06 96.73,487.72 123.2,-29.52 126.25,-14.25 159.86,-69.24 77.38,-128.29 -122.19,-539.64 -256.59,-417.46l0 -1.02z"/>
   <path class="fil5 str0" d="M4101.01 5414.02c-23.42,21.39 15.27,507.06 96.73,487.72 123.2,-29.52 126.25,-14.25 159.86,-69.24 77.38,-128.29 -122.19,-539.64 -256.59,-417.46l0 -1.02z"/>
   <polygon class="fil17" points="5531.56,7639.77 5534.62,7439.18 5290.25,7581.73 5290.25,7776.21 "/>
   <g>
   </g>
   <g style="clip-path:url(#id20)">
    <g>
     <path id="_1_18" class="fil12" d="M5683.27 6683.69c-1.02,129.31 -3.05,234.18 -3.05,234.18 0,0 10.18,181.24 -82.48,275.93 148.66,-57.03 262.69,-135.42 285.09,-199.57 11.2,-33.6 18.33,-260.65 21.39,-491.78 0,-30.54 1.01,-60.07 1.01,-89.6 0,-29.52 1.02,-58.04 2.04,-83.49 1.02,-36.66 2.03,-70.26 3.05,-99.78 -11.2,24.43 -23.42,49.89 -35.64,76.36 -19.35,41.74 -40.72,85.53 -62.11,131.35 -16.28,34.62 -33.6,71.27 -51.92,108.95 -23.42,48.87 -48.87,94.69 -76.36,137.45l-1.02 0z"/>
    </g>
   </g>
   <polygon class="fil5" points="5531.56,7639.77 5534.62,7439.18 5290.25,7581.73 5290.25,7776.21 5531.56,7640.79 "/>
   <polygon class="fil5 str0" points="5531.56,7639.77 5534.62,7439.18 5290.25,7581.73 5290.25,7776.21 "/>
   <path class="fil3" d="M5442.98 7277.29c257.6,-37.67 237.24,-413.39 237.24,-413.39 0,0 11.2,-669.96 0,-848.15 -7.13,-119.13 -145.6,-160.87 -300.36,-263.7 -135.42,-89.6 -589.53,-376.74 -678.11,-438.85 -24.44,36.66 -36.66,70.26 -36.66,92.66 0,54.98 3.05,515.21 5.09,704.59 29.52,5.08 63.12,12.21 101.81,20.36 258.62,54.98 374.69,378.77 438.84,581.39 64.15,202.61 -4.06,309.52 -87.56,382.83 -3.05,2.04 -6.11,4.07 -9.16,6.11 8.14,8.15 21.38,22.4 39.7,38.69 49.89,45.82 134.4,112 229.1,141.53 22.4,1.02 42.76,0 62.11,-2.03l-2.04 -2.04z"/>
   <g>
   </g>
   <g style="clip-path:url(#id21)">
    <g>
     <path id="_1_19" class="fil12" d="M5683.27 6683.69c-1.02,129.31 -3.05,234.18 -3.05,234.18 0,0 10.18,181.24 -82.48,275.93 148.66,-57.03 262.69,-135.42 285.09,-199.57 11.2,-33.6 18.33,-260.65 21.39,-491.78 0,-30.54 1.01,-60.07 1.01,-89.6 0,-29.52 1.02,-58.04 2.04,-83.49 1.02,-36.66 2.03,-70.26 3.05,-99.78 -11.2,24.43 -23.42,49.89 -35.64,76.36 -19.35,41.74 -40.72,85.53 -62.11,131.35 -16.28,34.62 -33.6,71.27 -51.92,108.95 -23.42,48.87 -48.87,94.69 -76.36,137.45l-1.02 0z"/>
    </g>
   </g>
   <path class="fil5" d="M5442.98 7277.29c257.6,-37.67 237.24,-413.39 237.24,-413.39 0,0 11.2,-669.96 0,-848.15 -7.13,-119.13 -145.6,-160.87 -300.36,-263.7 -135.42,-89.6 -589.53,-376.74 -678.11,-438.85 -24.44,36.66 -36.66,70.26 -36.66,92.66 0,54.98 3.05,515.21 5.09,704.59 29.52,5.08 63.12,12.21 101.81,20.36 258.62,54.98 374.69,378.77 438.84,581.39 64.15,202.61 -4.06,309.52 -87.56,382.83 -3.05,2.04 -6.11,4.07 -9.16,6.11 8.14,8.15 21.38,22.4 39.7,38.69 49.89,45.82 134.4,112 229.1,141.53 22.4,1.02 42.76,0 62.11,-2.03l-2.04 -2.04z"/>
   <path class="fil5 str0" d="M5442.98 7277.29c257.6,-37.67 237.24,-413.39 237.24,-413.39 0,0 11.2,-669.96 0,-848.15 -7.13,-119.13 -145.6,-160.87 -300.36,-263.7 -135.42,-89.6 -589.53,-376.74 -678.11,-438.85 -24.44,36.66 -36.66,70.26 -36.66,92.66 0,54.98 3.05,515.21 5.09,704.59 29.52,5.08 63.12,12.21 101.81,20.36 258.62,54.98 374.69,378.77 438.84,581.39 64.15,202.61 -4.06,309.52 -87.56,382.83 -3.05,2.04 -6.11,4.07 -9.16,6.11 8.14,8.15 21.38,22.4 39.7,38.69 49.89,45.82 134.4,112 229.1,141.53 22.4,1.02 42.76,0 62.11,-2.03l-2.04 -2.04z"/>
   <path class="fil3" d="M5442.98 7277.29c257.6,-37.67 237.24,-413.39 237.24,-413.39 0,0 11.2,-669.96 0,-848.15 -7.13,-119.13 -145.6,-160.87 -300.36,-263.7 -135.42,-89.6 -589.53,-376.74 -678.11,-438.85 -24.44,36.66 -36.66,70.26 -36.66,92.66 0,54.98 3.05,515.21 5.09,704.59 29.52,5.08 63.12,12.21 101.81,20.36 258.62,54.98 374.69,378.77 438.84,581.39 64.15,202.61 -4.06,309.52 -87.56,382.83 -3.05,2.04 -6.11,4.07 -9.16,6.11 8.14,8.15 21.38,22.4 39.7,38.69 49.89,45.82 134.4,112 229.1,141.53 22.4,1.02 42.76,0 62.11,-2.03l-2.04 -2.04z"/>
   <g>
   </g>
   <g style="clip-path:url(#id22)">
    <g>
     <path id="_1_20" class="fil12" d="M5683.27 6683.69c-1.02,129.31 -3.05,234.18 -3.05,234.18 0,0 10.18,181.24 -82.48,275.93 148.66,-57.03 262.69,-135.42 285.09,-199.57 11.2,-33.6 18.33,-260.65 21.39,-491.78 0,-30.54 1.01,-60.07 1.01,-89.6 0,-29.52 1.02,-58.04 2.04,-83.49 1.02,-36.66 2.03,-70.26 3.05,-99.78 -11.2,24.43 -23.42,49.89 -35.64,76.36 -19.35,41.74 -40.72,85.53 -62.11,131.35 -16.28,34.62 -33.6,71.27 -51.92,108.95 -23.42,48.87 -48.87,94.69 -76.36,137.45l-1.02 0z"/>
    </g>
   </g>
   <path class="fil5" d="M5442.98 7277.29c257.6,-37.67 237.24,-413.39 237.24,-413.39 0,0 11.2,-669.96 0,-848.15 -7.13,-119.13 -145.6,-160.87 -300.36,-263.7 -135.42,-89.6 -589.53,-376.74 -678.11,-438.85 -24.44,36.66 -36.66,70.26 -36.66,92.66 0,54.98 3.05,515.21 5.09,704.59 29.52,5.08 63.12,12.21 101.81,20.36 258.62,54.98 374.69,378.77 438.84,581.39 64.15,202.61 -4.06,309.52 -87.56,382.83 -3.05,2.04 -6.11,4.07 -9.16,6.11 8.14,8.15 21.38,22.4 39.7,38.69 49.89,45.82 134.4,112 229.1,141.53 22.4,1.02 42.76,0 62.11,-2.03l-2.04 -2.04z"/>
   <path class="fil5 str0" d="M5442.98 7277.29c257.6,-37.67 237.24,-413.39 237.24,-413.39 0,0 11.2,-669.96 0,-848.15 -7.13,-119.13 -145.6,-160.87 -300.36,-263.7 -135.42,-89.6 -589.53,-376.74 -678.11,-438.85 -24.44,36.66 -36.66,70.26 -36.66,92.66 0,54.98 3.05,515.21 5.09,704.59 29.52,5.08 63.12,12.21 101.81,20.36 258.62,54.98 374.69,378.77 438.84,581.39 64.15,202.61 -4.06,309.52 -87.56,382.83 -3.05,2.04 -6.11,4.07 -9.16,6.11 8.14,8.15 21.38,22.4 39.7,38.69 49.89,45.82 134.4,112 229.1,141.53 22.4,1.02 42.76,0 62.11,-2.03l-2.04 -2.04z"/>
   <path class="fil18" d="M5043.85 8119.33c12.22,8.14 23.42,22.4 30.54,37.67 8.15,16.29 13.23,33.6 13.23,49.89 0,16.29 -5.08,27.49 -13.23,33.6 -8.15,5.09 -20.37,4.07 -32.59,-5.09 -13.23,-9.16 -24.43,-23.41 -31.56,-40.72 -8.15,-16.29 -12.22,-34.62 -11.21,-50.91 1.02,-15.27 6.11,-26.47 14.26,-30.54 8.15,-4.07 19.35,-3.05 31.57,5.09l-1.02 1.02z"/>
   <g>
   </g>
   <g style="clip-path:url(#id23)">
    <g>
     <path id="_1_21" class="fil12" d="M5683.27 6683.69c-1.02,129.31 -3.05,234.18 -3.05,234.18 0,0 10.18,181.24 -82.48,275.93 148.66,-57.03 262.69,-135.42 285.09,-199.57 11.2,-33.6 18.33,-260.65 21.39,-491.78 0,-30.54 1.01,-60.07 1.01,-89.6 0,-29.52 1.02,-58.04 2.04,-83.49 1.02,-36.66 2.03,-70.26 3.05,-99.78 -11.2,24.43 -23.42,49.89 -35.64,76.36 -19.35,41.74 -40.72,85.53 -62.11,131.35 -16.28,34.62 -33.6,71.27 -51.92,108.95 -23.42,48.87 -48.87,94.69 -76.36,137.45l-1.02 0z"/>
    </g>
   </g>
   <path class="fil5" d="M5043.85 8119.33c12.22,8.14 23.42,22.4 30.54,37.67 8.15,16.29 13.23,33.6 13.23,49.89 0,16.29 -5.08,27.49 -13.23,33.6 -8.15,5.09 -20.37,4.07 -32.59,-5.09 -13.23,-9.16 -24.43,-23.41 -31.56,-40.72 -8.15,-16.29 -12.22,-34.62 -11.21,-50.91 1.02,-15.27 6.11,-26.47 14.26,-30.54 8.15,-4.07 19.35,-3.05 31.57,5.09l-1.02 1.02z"/>
   <path class="fil5 str6" d="M5043.85 8119.33c12.22,8.14 23.42,22.4 30.54,37.67 8.15,16.29 13.23,33.6 13.23,49.89 0,16.29 -5.08,27.49 -13.23,33.6 -8.15,5.09 -20.37,4.07 -32.59,-5.09 -13.23,-9.16 -24.43,-23.41 -31.56,-40.72 -8.15,-16.29 -12.22,-34.62 -11.21,-50.91 1.02,-15.27 6.11,-26.47 14.26,-30.54 8.15,-4.07 19.35,-3.05 31.57,5.09l-1.02 1.02z"/>
   <path class="fil18" d="M5456.22 8149.87c-11.2,10.18 -20.37,24.43 -25.46,41.74 -6.11,16.29 -8.14,34.62 -7.13,50.91 2.04,16.28 8.15,26.47 17.31,30.54 9.16,4.07 20.37,2.03 31.57,-9.17 11.2,-10.18 20.36,-26.47 26.47,-43.79 6.11,-17.3 8.15,-35.63 5.08,-50.9 -3.05,-15.27 -9.16,-25.46 -18.33,-28.51 -9.16,-3.05 -19.35,0 -30.54,9.17l1.02 0z"/>
   <g>
   </g>
   <g style="clip-path:url(#id24)">
    <g>
     <path id="_1_22" class="fil12" d="M5683.27 6683.69c-1.02,129.31 -3.05,234.18 -3.05,234.18 0,0 10.18,181.24 -82.48,275.93 148.66,-57.03 262.69,-135.42 285.09,-199.57 11.2,-33.6 18.33,-260.65 21.39,-491.78 0,-30.54 1.01,-60.07 1.01,-89.6 0,-29.52 1.02,-58.04 2.04,-83.49 1.02,-36.66 2.03,-70.26 3.05,-99.78 -11.2,24.43 -23.42,49.89 -35.64,76.36 -19.35,41.74 -40.72,85.53 -62.11,131.35 -16.28,34.62 -33.6,71.27 -51.92,108.95 -23.42,48.87 -48.87,94.69 -76.36,137.45l-1.02 0z"/>
    </g>
   </g>
   <path class="fil5" d="M5456.22 8149.87c-11.2,10.18 -20.37,24.43 -25.46,41.74 -6.11,16.29 -8.14,34.62 -7.13,50.91 2.04,16.28 8.15,26.47 17.31,30.54 9.16,4.07 20.37,2.03 31.57,-9.17 11.2,-10.18 20.36,-26.47 26.47,-43.79 6.11,-17.3 8.15,-35.63 5.08,-50.9 -3.05,-15.27 -9.16,-25.46 -18.33,-28.51 -9.16,-3.05 -19.35,0 -30.54,9.17l1.02 0z"/>
   <path class="fil5 str7" d="M5456.22 8149.87c-11.2,10.18 -20.37,24.43 -25.46,41.74 -6.11,16.29 -8.14,34.62 -7.13,50.91 2.04,16.28 8.15,26.47 17.31,30.54 9.16,4.07 20.37,2.03 31.57,-9.17 11.2,-10.18 20.36,-26.47 26.47,-43.79 6.11,-17.3 8.15,-35.63 5.08,-50.9 -3.05,-15.27 -9.16,-25.46 -18.33,-28.51 -9.16,-3.05 -19.35,0 -30.54,9.17l1.02 0z"/>
   <path class="fil18" d="M5510.18 11831.63c-11.2,10.18 -20.37,24.43 -25.46,41.74 -6.11,16.29 -8.14,34.62 -7.13,50.91 2.04,16.28 8.15,26.47 17.31,30.54 9.16,4.07 20.37,2.03 31.57,-9.17 11.2,-10.18 20.36,-26.47 26.47,-43.79 6.11,-17.3 8.15,-35.63 5.08,-50.9 -3.05,-15.27 -9.16,-25.46 -18.33,-28.51 -9.16,-3.05 -19.35,0 -30.54,9.17l1.02 0z"/>
   <g>
   </g>
   <g style="clip-path:url(#id25)">
    <g>
     <path id="_1_23" class="fil12" d="M5683.27 6683.69c-1.02,129.31 -3.05,234.18 -3.05,234.18 0,0 10.18,181.24 -82.48,275.93 148.66,-57.03 262.69,-135.42 285.09,-199.57 11.2,-33.6 18.33,-260.65 21.39,-491.78 0,-30.54 1.01,-60.07 1.01,-89.6 0,-29.52 1.02,-58.04 2.04,-83.49 1.02,-36.66 2.03,-70.26 3.05,-99.78 -11.2,24.43 -23.42,49.89 -35.64,76.36 -19.35,41.74 -40.72,85.53 -62.11,131.35 -16.28,34.62 -33.6,71.27 -51.92,108.95 -23.42,48.87 -48.87,94.69 -76.36,137.45l-1.02 0z"/>
    </g>
   </g>
   <path class="fil5" d="M5510.18 11831.63c-11.2,10.18 -20.37,24.43 -25.46,41.74 -6.11,16.29 -8.14,34.62 -7.13,50.91 2.04,16.28 8.15,26.47 17.31,30.54 9.16,4.07 20.37,2.03 31.57,-9.17 11.2,-10.18 20.36,-26.47 26.47,-43.79 6.11,-17.3 8.15,-35.63 5.08,-50.9 -3.05,-15.27 -9.16,-25.46 -18.33,-28.51 -9.16,-3.05 -19.35,0 -30.54,9.17l1.02 0z"/>
   <path class="fil5 str7" d="M5510.18 11831.63c-11.2,10.18 -20.37,24.43 -25.46,41.74 -6.11,16.29 -8.14,34.62 -7.13,50.91 2.04,16.28 8.15,26.47 17.31,30.54 9.16,4.07 20.37,2.03 31.57,-9.17 11.2,-10.18 20.36,-26.47 26.47,-43.79 6.11,-17.3 8.15,-35.63 5.08,-50.9 -3.05,-15.27 -9.16,-25.46 -18.33,-28.51 -9.16,-3.05 -19.35,0 -30.54,9.17l1.02 0z"/>
   <path class="fil12" d="M5205.74 11275.69c5.08,99.78 16.29,199.56 35.64,298.33 11.2,57.02 24.43,113.01 40.72,169.02 29.52,100.8 53.96,177.16 79.41,230.11 7.14,14.25 14.26,27.49 21.39,38.69 57.02,85.53 125.23,76.36 260.65,0 3.05,-1.02 5.09,-3.05 8.15,-4.07l336 -194.48c33.6,-19.35 57.02,-85.52 73.31,-180.22 56,-334.98 15.27,-1032.44 15.27,-1340.94 0,-397.09 -145.6,-996.8 -193.46,-1393.88 -41.74,-342.12 -28.5,-1048.73 -28.5,-1048.73l-184.3 106.91c85.53,828.8 103.85,1384.73 -189.37,2235.93 -82.48,238.25 -173.1,446.98 -263.71,627.2 -14.25,152.73 -19.35,305.46 -11.2,457.17l0 -1.03z"/>
   <path class="fil12" d="M4880.94 11296.06c-205.68,301.38 -364.51,441.89 -364.51,441.89 31.56,22.4 79.41,57.02 133.38,93.68 84.51,58.04 186.33,122.18 273.89,157.82l124.22 -71.28 25.45 94.7c46.84,-16.29 66.18,-74.33 35.64,-196.51 -14.25,-54.98 -25.46,-124.22 -34.62,-204.66 -11.2,-99.78 -17.31,-217.9 -18.33,-347.2 -1.02,-81.46 1.01,-168.01 5.08,-257.6 -46.84,83.49 -93.67,158.83 -137.45,227.05 -14.25,21.38 -27.49,42.76 -41.74,62.11l-1.02 0z"/>
   <g>
    <g>
    </g>
    <g style="clip-path:url(#id26)">
     <g>
      <path class="fil19" d="M3395.41 9687.33c-278.98,-12.22 -532.5,-93.68 -706.61,-168.01l-38.69 22.41 555.93 388.95 104.87 73.31 235.2 164.94 730.04 -421.53 195.49 -113.01 -165.96 -116.07 -82.47 -57.02c-270.84,185.3 -562.05,237.23 -828.8,226.03l1.01 0z"/>
     </g>
    </g>
    <polygon class="fil5" points="4438.03,9604.85 5303.48,12834.54 "/>
    <line class="fil5 str8" x1="4438.03" y1="9604.85" x2="5303.48" y2= "12833.51" />
    <g>
    </g>
    <g style="clip-path:url(#id27)">
     <g>
      <path class="fil19" d="M3395.41 9687.33c-278.98,-12.22 -532.5,-93.68 -706.61,-168.01l-38.69 22.41 555.93 388.95 104.87 73.31 235.2 164.94 730.04 -421.53 195.49 -113.01 -165.96 -116.07 -82.47 -57.02c-270.84,185.3 -562.05,237.23 -828.8,226.03l1.01 0z"/>
     </g>
    </g>
    <polygon class="fil5" points="3512.51,10139.41 4377.97,13369.09 "/>
    <line class="fil5 str8" x1="3512.51" y1="10139.41" x2="4376.94" y2= "13369.08" />
    <g>
    </g>
    <g style="clip-path:url(#id28)">
     <g>
      <path class="fil19" d="M3395.41 9687.33c-278.98,-12.22 -532.5,-93.68 -706.61,-168.01l-38.69 22.41 555.93 388.95 104.87 73.31 235.2 164.94 730.04 -421.53 195.49 -113.01 -165.96 -116.07 -82.47 -57.02c-270.84,185.3 -562.05,237.23 -828.8,226.03l1.01 0z"/>
     </g>
    </g>
    <polygon class="fil5" points="2616.5,9512.2 1751.05,12741.89 "/>
    <line class="fil5 str8" x1="2616.5" y1="9512.2" x2="1751.05" y2= "12740.86" />
    <g>
    </g>
    <g style="clip-path:url(#id29)">
     <g>
      <path class="fil19" d="M3395.41 9687.33c-278.98,-12.22 -532.5,-93.68 -706.61,-168.01l-38.69 22.41 555.93 388.95 104.87 73.31 235.2 164.94 730.04 -421.53 195.49 -113.01 -165.96 -116.07 -82.47 -57.02c-270.84,185.3 -562.05,237.23 -828.8,226.03l1.01 0z"/>
     </g>
    </g>
    <polygon class="fil5" points="3540,8990.9 2674.54,12220.57 "/>
    <line class="fil5 str8" x1="3540" y1="8990.9" x2="2674.54" y2= "12220.57" />
    <g>
    </g>
    <g style="clip-path:url(#id30)">
     <g>
      <path class="fil19" d="M3395.41 9687.33c-278.98,-12.22 -532.5,-93.68 -706.61,-168.01l-38.69 22.41 555.93 388.95 104.87 73.31 235.2 164.94 730.04 -421.53 195.49 -113.01 -165.96 -116.07 -82.47 -57.02c-270.84,185.3 -562.05,237.23 -828.8,226.03l1.01 0z"/>
     </g>
    </g>
    <polygon class="fil5" points="3512.51,10139.41 4438.04,9604.85 "/>
    <line class="fil5 str8" x1="3512.51" y1="10139.41" x2="4438.03" y2= "9604.85" />
    <g>
    </g>
    <g style="clip-path:url(#id31)">
     <g>
      <path class="fil19" d="M3395.41 9687.33c-278.98,-12.22 -532.5,-93.68 -706.61,-168.01l-38.69 22.41 555.93 388.95 104.87 73.31 235.2 164.94 730.04 -421.53 195.49 -113.01 -165.96 -116.07 -82.47 -57.02c-270.84,185.3 -562.05,237.23 -828.8,226.03l1.01 0z"/>
     </g>
    </g>
    <polygon class="fil5" points="3723.27,10908.12 4648.8,10373.58 "/>
    <line class="fil5 str8" x1="3723.27" y1="10908.12" x2="4648.79" y2= "10373.58" />
    <g>
    </g>
    <g style="clip-path:url(#id32)">
     <g>
      <path class="fil19" d="M3395.41 9687.33c-278.98,-12.22 -532.5,-93.68 -706.61,-168.01l-38.69 22.41 555.93 388.95 104.87 73.31 235.2 164.94 730.04 -421.53 195.49 -113.01 -165.96 -116.07 -82.47 -57.02c-270.84,185.3 -562.05,237.23 -828.8,226.03l1.01 0z"/>
     </g>
    </g>
    <polygon class="fil5" points="3938.1,11743.04 4863.64,11208.49 "/>
    <line class="fil5 str8" x1="3938.1" y1="11743.04" x2="4863.64" y2= "11208.49" />
    <g>
    </g>
    <g style="clip-path:url(#id33)">
     <g>
      <path class="fil19" d="M3395.41 9687.33c-278.98,-12.22 -532.5,-93.68 -706.61,-168.01l-38.69 22.41 555.93 388.95 104.87 73.31 235.2 164.94 730.04 -421.53 195.49 -113.01 -165.96 -116.07 -82.47 -57.02c-270.84,185.3 -562.05,237.23 -828.8,226.03l1.01 0z"/>
     </g>
    </g>
    <polygon class="fil5" points="4152.94,12480.2 5078.47,11945.66 "/>
    <line class="fil5 str8" x1="4152.94" y1="12480.2" x2="5079.49" y2= "11945.66" />
    <g>
    </g>
    <g style="clip-path:url(#id34)">
     <g>
      <path class="fil19" d="M3395.41 9687.33c-278.98,-12.22 -532.5,-93.68 -706.61,-168.01l-38.69 22.41 555.93 388.95 104.87 73.31 235.2 164.94 730.04 -421.53 195.49 -113.01 -165.96 -116.07 -82.47 -57.02c-270.84,185.3 -562.05,237.23 -828.8,226.03l1.01 0z"/>
     </g>
    </g>
    <polygon class="fil5" points="2372.14,10363.39 3297.67,9828.85 "/>
    <line class="fil5 str8" x1="2372.14" y1="10363.39" x2="3297.67" y2= "9828.86" />
    <g>
    </g>
    <g style="clip-path:url(#id35)">
     <g>
      <path class="fil19" d="M3395.41 9687.33c-278.98,-12.22 -532.5,-93.68 -706.61,-168.01l-38.69 22.41 555.93 388.95 104.87 73.31 235.2 164.94 730.04 -421.53 195.49 -113.01 -165.96 -116.07 -82.47 -57.02c-270.84,185.3 -562.05,237.23 -828.8,226.03l1.01 0z"/>
     </g>
    </g>
    <polygon class="fil5" points="2187.85,11173.87 3113.38,10639.33 "/>
    <line class="fil5 str8" x1="2187.85" y1="11173.87" x2="3113.38" y2= "10639.33" />
    <g>
    </g>
    <g style="clip-path:url(#id36)">
     <g>
      <path class="fil19" d="M3395.41 9687.33c-278.98,-12.22 -532.5,-93.68 -706.61,-168.01l-38.69 22.41 555.93 388.95 104.87 73.31 235.2 164.94 730.04 -421.53 195.49 -113.01 -165.96 -116.07 -82.47 -57.02c-270.84,185.3 -562.05,237.23 -828.8,226.03l1.01 0z"/>
     </g>
    </g>
    <polygon class="fil5" points="1962.83,11967.05 2888.36,11432.49 "/>
    <line class="fil5 str8" x1="1962.83" y1="11967.05" x2="2888.36" y2= "11431.47" />
    <polygon class="fil11" points="2616.5,9512.2 3542.03,8977.65 4438.03,9604.85 3512.51,10139.41 "/>
    <g>
    </g>
    <g style="clip-path:url(#id37)">
     <g>
      <path id="_1_24" class="fil19" d="M3395.41 9687.33c-278.98,-12.22 -532.5,-93.68 -706.61,-168.01l-38.69 22.41 555.93 388.95 104.87 73.31 235.2 164.94 730.04 -421.53 195.49 -113.01 -165.96 -116.07 -82.47 -57.02c-270.84,185.3 -562.05,237.23 -828.8,226.03l1.01 0z"/>
     </g>
    </g>
    <polygon class="fil5" points="2616.5,9512.2 3542.03,8977.65 4438.04,9604.85 3512.51,10139.41 "/>
    <polygon class="fil5 str8" points="2616.5,9512.2 3542.03,8977.65 4438.03,9604.85 3512.51,10139.41 "/>
   </g>
   <line class="fil5 str9" x1="5795.27" y1="3408.2" x2="7121.96" y2= "4356.13" />
   <line class="fil5 str9" x1="5795.27" y1="3833.79" x2="7121.96" y2= "4782.74" />
   <line class="fil5 str9" x1="9229.6" y1="2449.07" x2="10556.3" y2= "3396.99" />
   <line class="fil5 str9" x1="9229.6" y1="2860.42" x2="10556.3" y2= "3808.34" />
   <line class="fil5 str9" x1="9229.6" y1="3649.5" x2="10556.3" y2= "4597.43" />
   <line class="fil5 str9" x1="9229.6" y1="4037.43" x2="10556.3" y2= "4985.37" />
   <line class="fil5 str9" x1="9229.6" y1="4860.13" x2="10556.3" y2= "5808.05" />
   <line class="fil5 str9" x1="9229.6" y1="5247.04" x2="10556.3" y2= "6195.97" />
   <path class="fil19" d="M8303.05 8913.51c53.96,37.67 103.85,94.69 144.59,159.85 11.2,18.33 22.4,37.67 32.58,58.04 45.83,90.62 74.33,193.46 74.33,286.11 0,25.45 -2.03,49.89 -6.11,70.26 1.02,0 1.02,-1.02 2.03,-1.02 45.82,-28.51 74.33,-92.66 74.33,-183.28 0,-74.32 -19.35,-154.76 -49.89,-230.11 -7.13,-16.29 -14.25,-31.57 -21.39,-46.84 -43.78,-87.56 -103.85,-163.92 -171.05,-210.76 -67.2,-46.84 -129.31,-54.98 -175.13,-30.54 -30.54,16.29 -53.96,45.82 -67.19,89.6 44.8,-15.27 102.83,-4.07 163.92,38.69l-1.02 0z"/>
   <path class="fil4" d="M9239.78 9755.55l125.24 87.56 449.02 314.63 672.01 470.4 1159.71 -668.95 109.97 -63.12 588.51 -340.08 -31.57 -22.4c-131.35,124.22 -357.38,230.11 -641.45,302.4 -48.88,12.22 -98.77,23.42 -150.69,34.62 -230.11,45.82 -490.77,72.3 -767.71,72.3 -178.18,0 -350.25,-11.2 -511.13,-30.54 -268.81,-33.61 -508.08,-92.66 -699.5,-170.04 -54.98,-22.41 -106.91,-45.82 -153.75,-71.28l-147.64 84.51 -1.02 0z"/>
   <path class="fil19" d="M8852.87 11638.17l1024.29 691.35 182.26 -96.73 8.15 512.15 125.23 87.56 0 -728 -217.89 -151.71 -138.47 80.44 -1026.33 -721.89c23.42,102.83 43.78,225.01 41.74,327.86l1.02 -1.02z"/>
   <path class="fil19" d="M8709.3 10858.23l1012.07 700.51 0 -99.78 -928.59 -648.58 -284.07 -198.55c0,0 14.25,48.87 18.33,121.17l183.28 125.23 -1.02 0z"/>
   <polygon class="fil4" points="9143.05,10530.38 10068.58,11211.55 10287.5,11085.29 9339.57,10417.36 9256.07,10359.33 9062.61,10471.32 "/>
   <path class="fil4" d="M10344.51 11122.96l-218.91 126.26 -10.19 -2.04 -14.25 249.46 1900.95 -1095.57c-2.04,-26.47 -5.09,-52.95 -9.17,-80.44l-1533.38 885.82 -113.02 -83.5 -2.03 0z"/>
   <path class="fil19" d="M9754.98 10336.93l563.06 393.02 -2.04 186.33 78.4 54.98 9.17 6.11 0 -12.22 0 -268.8 -576.3 -402.18 -515.2 -351.28c0,0 28.5,45.82 38.69,119.13l404.22 274.9z"/>
   <polygon class="fil7" points="10992.07,7065.51 10717.17,6872.05 10250.84,6545.22 9919.93,6312.05 9135.92,5761.21 8865.09,5570.82 8865.09,5822.3 9919.93,6563.54 10250.84,6796.71 10717.17,7123.55 11225.23,7480.93 11225.23,7240.64 11225.23,6994.23 11225.23,6750.89 11225.23,4638.17 11181.45,4606.6 11084.73,4538.37 10992.07,4473.21 10992.07,6830.31 "/>
   <path class="fil7" d="M11046.03 3126.17c50.91,-2.04 102.83,13.23 147.64,45.82 1.01,1.02 1.01,1.02 2.03,2.03 16.29,12.22 27.49,21.39 34.62,29.53l0 -204.66 -34.62 -24.44 -149.67 -106.91 0 258.62z"/>
   <path class="fil19" d="M7257.38 3297.21l0 3554.47 0 118.12 -108.95 -76.36 -1138.34 -800.3c-1.02,18.33 -1.02,37.67 -2.03,58.04 -1.02,25.45 -1.02,52.94 -2.04,82.48 0,29.52 -1.02,59.05 -1.02,88.58l1142.41 802.33 137.45 96.73 124.22 87.56 69.24 48.87 0 -173.09 0 -75.34 0 -101.82 0 -3552.43 -69.24 -49.9 -151.7 -108.94 0 1.01z"/>
   <path class="fil20" d="M5188.43 7109.29c3.06,3.05 7.13,7.13 11.2,11.2 40.73,36.65 108.95,91.63 186.33,115.05 18.33,1.02 35.64,0 50.91,-2.04 46.84,-7.13 82.47,-27.48 109.96,-54.98 94.7,-96.73 84.51,-283.06 84.51,-283.06 0,0 2.04,-107.93 3.06,-240.3 -127.27,199.57 -290.19,343.13 -425.61,439.86 -7.13,5.09 -13.24,9.17 -20.37,14.26z"/>
   <line class="fil5 str10" x1="4737.37" y1="4559.76" x2="4760.79" y2= "4651.4" />
   <line class="fil5 str10" x1="5121.82" y1="4493.8" x2="5152.62" y2= "4582.85" />
   <line class="fil5 str10" x1="5523.78" y1="4798.36" x2="5510.1" y2= "4892.54" />
   <line class="fil5 str10" x1="5901.36" y1="5228.04" x2="5887.17" y2= "5322.14" />
   <line class="fil5 str10" x1="4259.85" y1="5879.32" x2="4306.68" y2= "5961.79" />
  </g>
 </g>
</svg>
