<?xml version="1.0" encoding="UTF-8"?>
<svg width="296px" height="130px" viewBox="0 0 296 130" version="1.1" xmlns="http://www.w3.org/2000/svg" xmlns:xlink="http://www.w3.org/1999/xlink">
    <!-- Generator: Sketch 55.1 (78136) - https://sketchapp.com -->
    <title>mob-design-assistivo</title>
    <desc>Created with Sketch.</desc>
    <defs>
        <polygon id="path-1" points="0.390623441 0.447733675 53.1925702 0.447733675 53.1925702 21.971831 0.390623441 21.971831"></polygon>
        <polygon id="path-3" points="199 0 286 0 286 129 199 129"></polygon>
    </defs>
    <g id="mob-design-assistivo" stroke="none" stroke-width="1" fill="none" fill-rule="evenodd">
        <g id="Group-8" transform="translate(243.000000, 108.000000)">
            <mask id="mask-2" fill="white">
                <use xlink:href="#path-1"></use>
            </mask>
            <g id="Clip-7"></g>
            <path d="M14.1980562,21.5242022 C23.8454091,18.543754 32.2941346,12.3670054 38.1131485,3.90848881 C38.983527,2.64330689 39.7863764,1.33889596 40.519447,-2.50910404e-14 L42.0407336,-2.48689958e-14 L42.0156807,-2.48689958e-14 C47.8389717,-2.48689958e-14 52.8024479,4.87272727 52.8024479,11.0258643 C52.8024479,16.0491677 49.2880301,20.3185659 44.6933323,21.5241997 L14.1980643,21.5241997 Z M-5.32907052e-14,20.524075 L-5.32907052e-14,2.29406146 C0.00612288495,2.29406603 0.0122462977,2.29406832 0.0183702374,2.29406832 C3.67942705,2.29406832 7.15345496,1.47337518 10.256859,9.19118521e-07 L36.2734754,-2.48689958e-14 C35.8226705,0.74922415 35.3476779,1.4858061 34.8489765,2.20872886 C27.0091209,13.5734659 14.0783429,20.5240973 0.0437261528,20.5240973 C0.0291491286,20.5240973 0.014573743,20.5240899 -5.33288691e-14,20.524075 Z" id="Combined-Shape" fill="#FAFAFA" mask="url(#mask-2)"></path>
        </g>
        <path d="M154.579313,43.6608128 C145.778387,43.6608128 137.595512,46.3734179 130.822156,51.0100918 C134.703879,56.6082972 136.805051,63.1428894 136.805051,69.9741886 L136.805051,73.6241863 C140.685767,67.9766974 147.187906,64.301555 154.603511,64.301555 C166.569302,64.301555 176.159681,73.8706039 176.159681,85.8062675 C176.159681,97.7419311 166.569302,107.309974 154.603511,107.309974 C142.638728,107.309974 133.047341,97.7419311 133.047341,85.8062675 C133.047341,85.5095606 133.047341,85.2138595 133.071539,84.9191642 L132.923328,84.9191642 C132.873924,84.5238902 132.82452,84.1286163 132.725713,83.7594928 L132.725713,71.8972516 L132.725713,71.2314212 L132.725713,70.738586 C132.725713,53.2791452 117.745284,39 99.722995,39 C90.4532371,39 82.3691694,42.3542966 76.4860894,48.0752079 C70.2561748,42.3542966 62.1721071,39 53.2481754,39 L53.1735657,39 L32.4824658,39 L32.4582681,39 L27.587461,39 L27.5632632,39 L10.8516864,39 C4.96860638,39 0,43.7845245 0,49.8262815 C0,54.7586565 3.5348892,58.9256283 8.15766928,60.1345832 L19.8744255,60.1345832 L19.8744255,113.05603 C19.8744255,118.431957 24.5970213,122.970064 29.9860638,122.970064 C35.7209325,122.970064 40.0966938,118.431957 40.0966938,113.05603 L40.0966938,70.738586 C40.0966938,64.1788491 45.980782,59.1479071 53.2239777,59.1479071 C60.4671733,59.1479071 66.3502533,64.1788491 66.3502533,70.738586 L66.3502533,71.2314212 L66.3502533,71.8972516 L66.3502533,112.53805 C66.3502533,118.259967 70.7260146,122.625079 76.4608834,122.625079 C81.8499258,122.625079 86.3991044,118.259967 86.3991044,112.53805 L86.3991044,71.8972516 L86.3991044,71.2314212 L86.3991044,70.738586 C86.3991044,64.1788491 92.2821843,59.1479071 99.6987973,59.1479071 C106.596167,59.1479071 112.504453,64.1788491 112.504453,70.738586 L112.504453,71.2314212 L112.504453,71.8972516 L112.504453,81.9349968 C112.380439,83.2163683 112.331035,84.5238902 112.331035,85.8314122 L112.331035,85.9782569 L112.331035,86.0526851 L112.331035,86.2749638 C112.578054,109.406032 131.489611,128 154.579313,128 C177.816219,128 196.851789,109.183754 197,86.0034016 C196.826583,62.6500542 177.816219,43.6859574 154.579313,43.6859574 L154.579313,43.6608128 Z" id="Fill-1" fill="#FAFAFA"></path>
        <mask id="mask-4" fill="white">
            <use xlink:href="#path-3"></use>
        </mask>
        <g id="Clip-4"></g>
        <path d="M285.900874,83.2564986 L285.900874,88.3967841 L264.374413,88.3967841 C263.035204,99.3445843 253.759871,107.771629 242.400874,107.771629 C231.041878,107.771629 221.766544,99.3687739 220.427336,88.3967841 L220.254371,88.3967841 L220.254371,8.15491175 C219.063852,3.5336943 214.846963,0 209.887644,0 C203.811643,0 199,4.99212432 199,10.8490261 L199,88.3967841 L199.099126,88.3967841 C200.512173,111.107775 219.459343,129 242.426161,129 C257.302896,129 270.502119,121.475818 278.373273,110.034515 C283.124617,103.128086 285.934512,94.7943309 286,85.8266414 C286,84.9618639 285.950437,84.0970865 285.900874,83.232309 L285.900874,83.2564986 Z" id="Fill-3" fill="#FAFAFA" mask="url(#mask-4)"></path>
        <path d="M220.409283,89 C220.309116,88.1127343 220.235256,87.2003193 220.235256,86.262755 C220.235256,74.0281453 230.109226,64.2118879 242.38921,64.2118879 C254.668182,64.2118879 264.542152,74.0281453 264.542152,86.262755 C264.542152,87.2003193 264.46728,88.087585 264.368125,89 L285.901857,89 C285.950423,88.1620268 286,87.2989044 286,86.434776 C285.826985,62.4856431 266.278368,43 242.413493,43 C218.548618,43 199,62.4856431 199,86.262755 C199,87.176176 199.049577,88.087585 199.099155,89 L220.45886,89 L220.409283,89 Z" id="Fill-9" fill="#FAFAFA" mask="url(#mask-4)"></path>
    </g>
</svg>