<svg version="1" xmlns="http://www.w3.org/2000/svg" width="396" height="396" viewBox="0 0 297.000000 297.000000"><path d="M205.5 83.9c-1.1.5-2.9 1.9-4 3.1-1.9 2.1-2 3.8-2.2 45.4-.3 46.9-.2 47.8 5.7 58.1 9 15.6 27.3 23.9 45.5 20.6 21.2-3.9 37.2-24.6 35.2-45.5-1-10.6-5.6-19.8-13.6-27.6-11.9-11.5-30.4-15-46.1-8.7l-5.8 2.4v-18.6c0-24.4.1-23.5-1.9-25.8-3.6-4-8.2-5.2-12.8-3.4zm45.6 65.4c12 5 16.9 19.7 10.2 30.6-7.4 11.9-23.7 14.2-34.1 4.7-8.5-7.7-8.5-23.4 0-31.3 6-5.7 16-7.4 23.9-4z"/><path d="M7 122.7c-3 1.1-6 4.7-6.6 7.9-.8 4.2.1 6.9 3.4 9.9 2.3 2.1 3.6 2.5 9.3 2.5h6.7v27.1c0 17.7.4 28.1 1.2 29.8 1.2 3 5.7 6.1 8.9 6.1 1.1 0 3.2-.5 4.6-1.2 5-2.3 5.5-4.7 5.6-30.2.1-22.5.2-23.7 2.3-26.8 4.9-7.3 17.6-7.1 22.1.4 1.5 2.6 1.8 5.9 1.9 27.3.1 22.1.3 24.5 1.9 26.3 4.7 5.2 13.1 4.6 16.7-1.1 1.1-1.7 1.4-7.6 1.5-26.2.1-25.7.3-26.5 5.4-30.1 3-2.2 10-2.6 13.7-.8 5.9 2.8 6.7 5.3 7 20.4.2 14.2 1.1 18.5 5.8 26.5 7.4 12.5 23.1 21 37.5 20.4 11.2-.5 20.3-4.5 28.2-12.3 17-16.9 17.1-42.1.2-59.3-11.8-12.2-30.7-15.8-46.7-8.9-6.5 2.7-6.8 3.3-4.7 7.4 1 2.1 2.2 5.3 2.7 7.2.4 1.9.9 3.8 1 4.2.1.5.2 2.2.3 4l.1 3.2 3.1-3.2c5.5-5.6 15.2-7.2 23.2-3.8 12.8 5.3 16.7 22.7 7.4 33.3-8.6 9.8-24.3 9.7-32.5-.2-4-5-5.2-9.5-5.3-21.5-.1-14.8-2.4-21.6-9.4-28.7-6.9-6.8-12.8-9.5-22.3-9.9-8.2-.3-16.2 1.9-21.4 6l-3.2 2.4-4.1-2.8c-7.7-5.3-12.4-6-39.4-5.9-13.5 0-25.3.3-26.1.6zM280.5 195.6c-4.5 6.6-15.9 15.4-20 15.4-.7 0-1.6.3-1.9.8-.6.9 28.2.9 31.1-.1 1.1-.4 2.9-2 3.9-3.4 4.7-7.3 1-15.7-7.4-16.7-2.3-.3-3.2.3-5.7 4z"/></svg>