<?xml version="1.0" encoding="UTF-8" standalone="no"?>
<!-- Creator: CorelDRAW X5 -->

<svg
   xmlns:dc="http://purl.org/dc/elements/1.1/"
   xmlns:cc="http://creativecommons.org/ns#"
   xmlns:rdf="http://www.w3.org/1999/02/22-rdf-syntax-ns#"
   xmlns:svg="http://www.w3.org/2000/svg"
   xmlns="http://www.w3.org/2000/svg"
   xmlns:sodipodi="http://sodipodi.sourceforge.net/DTD/sodipodi-0.dtd"
   xmlns:inkscape="http://www.inkscape.org/namespaces/inkscape"
   xml:space="preserve"
   style="clip-rule:evenodd;fill-rule:evenodd;image-rendering:optimizeQuality;shape-rendering:geometricPrecision;text-rendering:geometricPrecision"
   viewBox="0 0 14500.543 8571.8311"
   version="1.1"
   id="svg6044"
   sodipodi:docname="tile.svg"
   width="14500.543"
   height="8571.8311"
   inkscape:version="0.92.4 (5da689c313, 2019-01-14)"><metadata
   id="metadata6048"><rdf:RDF><cc:Work
       rdf:about=""><dc:format>image/svg+xml</dc:format><dc:type
         rdf:resource="http://purl.org/dc/dcmitype/StillImage" /><dc:title></dc:title></cc:Work></rdf:RDF></metadata><sodipodi:namedview
   pagecolor="#ffffff"
   bordercolor="#666666"
   borderopacity="1"
   objecttolerance="10"
   gridtolerance="10"
   guidetolerance="10"
   inkscape:pageopacity="0"
   inkscape:pageshadow="2"
   inkscape:window-width="1366"
   inkscape:window-height="705"
   id="namedview6046"
   showgrid="false"
   showguides="false"
   inkscape:lockguides="false"
   fit-margin-top="0"
   fit-margin-left="0"
   fit-margin-right="0"
   fit-margin-bottom="0"
   inkscape:zoom="0.011804607"
   inkscape:cx="19773.472"
   inkscape:cy="2307.7497"
   inkscape:window-x="-8"
   inkscape:window-y="-8"
   inkscape:window-maximized="1"
   inkscape:current-layer="g6038" />
 <defs
   id="defs5556">
  <style
   type="text/css"
   id="style5326">
   <![CDATA[
    .str5 {stroke:#373435;stroke-width:30}
    .str11 {stroke:#373435;stroke-width:30;stroke-linecap:round;stroke-linejoin:round}
    .str12 {stroke:#373435;stroke-width:40}
    .str9 {stroke:#373435;stroke-width:9.74;stroke-linecap:round;stroke-linejoin:round}
    .str8 {stroke:#373435;stroke-width:9.83;stroke-linecap:round;stroke-linejoin:round}
    .str4 {stroke:#373435;stroke-width:58.95;stroke-linecap:round;stroke-linejoin:round}
    .str6 {stroke:#373435;stroke-width:58.96;stroke-linecap:round;stroke-linejoin:round}
    .str1 {stroke:#373435;stroke-width:58.96;stroke-linecap:round;stroke-linejoin:round;stroke-opacity:0.309804}
    .str0 {stroke:#373435;stroke-width:58.96;stroke-linecap:round;stroke-linejoin:round}
    .str7 {stroke:#373435;stroke-width:58.97;stroke-linecap:round;stroke-linejoin:round}
    .str2 {stroke:#373435;stroke-width:58.97;stroke-linecap:round;stroke-linejoin:round;stroke-opacity:0.309804}
    .str3 {stroke:#373435;stroke-width:58.97;stroke-linecap:round;stroke-linejoin:round}
    .str10 {stroke:#373435;stroke-width:98.28;stroke-linecap:round}
    .fil5 {fill:none}
    .fil11 {fill:none}
    .fil18 {fill:#373435}
    .fil15 {fill:#848688}
    .fil14 {fill:#96989A}
    .fil13 {fill:#A9ABAE}
    .fil9 {fill:#BDBFC1}
    .fil17 {fill:#D2D3D5}
    .fil8 {fill:#E6E7E8}
    .fil2 {fill:#FEFEFE}
    .fil7 {fill:#00B0D4}
    .fil12 {fill:#0A4A90}
    .fil4 {fill:#0D86FF}
    .fil1 {fill:#0E6BCE}
    .fil20 {fill:#118BFF}
    .fil6 {fill:#1ADCFF}
    .fil3 {fill:#50ACFF}
    .fil19 {fill:#B69100}
    .fil0 {fill:#FBCD00}
    .fil16 {fill:#373435;fill-rule:nonzero}
    .fil10 {fill:#1ADCFF;fill-opacity:0.309804}
   ]]>
  </style>
     <clipPath
   id="id0">
      <path
   d="M 21784,4705 V 9402 L 19352,7699 v -467 l -327,-230 -4,956 187,131 v 616 c 86,139 212,282 395,401 562,364 2059,1446 2059,1446 0,0 222,173 360,103 126,-19 255,-94 359,-171 307,-227 218,-681 219,-1071 1,-1272 4,-4533 0,-5070 -5,-650 -468,-827 -468,-827 l -926,-650 c 0,0 -474,-360 -844,-594 -393,-249 -643,-292 -1099,-126 -13,5 -27,10 -40,15 -105,50 -183,180 -183,455 v 26 l 815,583 v 130 l 1927,1349 z m -1484,3928 c 71,50 135,132 182,225 47,94 76,199 76,294 0,97 -30,164 -79,195 -49,31 -118,24 -193,-29 -75,-53 -142,-140 -189,-239 -46,-97 -73,-205 -69,-299 4,-92 37,-155 86,-181 49,-26 115,-17 186,33 z"
   id="path5328"
   inkscape:connector-curvature="0" />
     </clipPath>
     <clipPath
   id="id1">
      <path
   d="m 19042,2616 -21,5533 c 0,0 21,593 582,957 562,364 2059,1446 2059,1446 0,0 468,364 468,-177 0,-541 -10,-5824 -10,-5824 0,0 94,-572 -447,-926 -541,-354 -1903,-1331 -1903,-1331 0,0 -728,-520 -728,322 z"
   id="path5331"
   inkscape:connector-curvature="0" />
     </clipPath>
       <clipPath
   id="id2">
        <path
   d="m 17153,7919 -459,-322 c 0,0 17,512 -203,921 -220,409 -310,1307 -278,1674 32,367 267,1354 267,1354 168,118 749,557 631,84 -74,-294 -89,-945 37,-1637 126,-693 105,-1228 7,-2074 z"
   id="path5334"
   inkscape:connector-curvature="0" />
       </clipPath>
       <clipPath
   id="id3">
        <path
   d="m 17285,7962 582,-336 c 0,0 -35,433 18,863 52,430 210,1081 210,1511 0,430 71,1553 -96,1650 -94,54 -248,143 -365,210 -243,140 -293,88 -401,-286 -250,-866 125,-1792 125,-2608 0,-388 -72,-1004 -72,-1004 z"
   id="path5337"
   inkscape:connector-curvature="0" />
       </clipPath>
       <clipPath
   id="id4">
        <path
   d="m 16715,7512 528,370 522,-301 -522,-373 -528,305 z"
   id="path5340"
   inkscape:connector-curvature="0" />
       </clipPath>
       <clipPath
   id="id5">
        <path
   d="m 17015,7280 255,-145 235,164 -253,146 -242,-170 6,4 z"
   id="path5343"
   inkscape:connector-curvature="0" />
       </clipPath>
       <clipPath
   id="id6">
        <path
   d="m 17015,7475 -3,-197 240,168 v 191 z"
   id="path5346"
   inkscape:connector-curvature="0" />
       </clipPath>
       <clipPath
   id="id7">
        <path
   d="m 17264,6927 v 0 c 83,0 151,68 151,151 v 96 c 0,83 -68,151 -151,151 v 0 c -83,0 -151,-68 -151,-151 v -96 c 0,-83 68,-151 151,-151 z"
   id="path5349"
   inkscape:connector-curvature="0" />
       </clipPath>
       <clipPath
   id="id8">
        <path
   d="m 17071,6915 c 0,0 223,252 428,182 206,-70 368,-177 398,-263 16,-46 24,-398 27,-716 7,-637 101,-498 -481,-864 -186,-117 -375,-217 -468,-207 -215,22 -326,189 -326,255 0,66 5,751 5,751 0,0 -132,431 416,862 z"
   id="path5352"
   inkscape:connector-curvature="0" />
       </clipPath>
       <clipPath
   id="id9">
        <path
   d="m 16686,5216 c 87,61 533,343 666,431 153,101 288,143 295,259 11,176 0,833 0,833 0,0 23,426 -295,409 l -667,-1933 z"
   id="path5355"
   inkscape:connector-curvature="0" />
       </clipPath>
       <clipPath
   id="id10">
        <path
   d="m 16546,5982 c 42,4 108,15 208,36 254,54 368,372 431,571 63,199 -4,304 -86,376 -82,73 -499,-190 -567,-286 -33,-47 -100,-168 -140,-304 -59,-155 -147,-492 -129,-510 29,-28 87,-64 131,-64 35,0 64,44 140,178 l 13,1 z"
   id="path5358"
   inkscape:connector-curvature="0" />
       </clipPath>
       <clipPath
   id="id11">
        <path
   d="m 17405,5136 c 136,-238 173,-309 217,-309 44,0 102,37 130,65 19,19 -85,396 -145,534 -104,241 -339,-52 -203,-290 z"
   id="path5361"
   inkscape:connector-curvature="0" />
       </clipPath>
       <clipPath
   id="id12">
        <path
   d="m 17695,5361 c 66,-101 111,-124 149,-122 37,2 84,36 107,62 15,17 -41,202 -99,316 -100,199 -345,32 -157,-256 z"
   id="path5364"
   inkscape:connector-curvature="0" />
       </clipPath>
       <clipPath
   id="id13">
        <path
   d="m 18050,4819 c 22,15 48,419 -21,413 -105,-9 -106,4 -140,-38 -79,-97 36,-460 161,-375 z"
   id="path5367"
   inkscape:connector-curvature="0" />
       </clipPath>
       <clipPath
   id="id14">
        <path
   d="m 17827,4297 c 25,19 36,496 -45,486 -123,-16 -125,-1 -163,-52 -88,-118 65,-540 208,-434 z"
   id="path5370"
   inkscape:connector-curvature="0" />
       </clipPath>
       <clipPath
   id="id15">
        <path
   d="m 16714,4967 c -39,-271 -54,-350 -19,-377 35,-27 103,-34 143,-29 27,3 177,364 215,510 18,70 -66,114 -97,136 -83,57 -214,-43 -242,-239 z"
   id="path5373"
   inkscape:connector-curvature="0" />
       </clipPath>
       <clipPath
   id="id16">
        <path
   d="m 16531,4046 c 32,-1 334,369 263,411 -107,63 -99,76 -161,59 -142,-39 -281,-466 -103,-470 z"
   id="path5376"
   inkscape:connector-curvature="0" />
       </clipPath>
       <clipPath
   id="id17">
        <path
   d="m 17059,4891 c 91,-291 114,-377 158,-386 44,-9 107,20 140,46 22,17 -12,456 -46,621 -41,199 -211,211 -269,51 -26,-71 -12,-242 16,-332 z"
   id="path5379"
   inkscape:connector-curvature="0" />
       </clipPath>
       <clipPath
   id="id18">
        <path
   d="m 17347,3884 c 63,44 95,431 -6,519 -34,30 -109,62 -168,-14 -39,-50 -26,-158 -7,-262 28,-158 90,-308 181,-243 z"
   id="path5382"
   inkscape:connector-curvature="0" />
       </clipPath>
       <clipPath
   id="id19">
        <path
   d="m 16097,5316 c -23,21 15,498 95,479 121,-29 124,-14 157,-68 76,-126 -120,-530 -252,-410 z"
   id="path5385"
   inkscape:connector-curvature="0" />
       </clipPath>
       <clipPath
   id="id20">
        <path
   d="m 17501,7503 3,-197 -240,140 v 191 l 237,-133 z"
   id="path5388"
   inkscape:connector-curvature="0" />
       </clipPath>
       <clipPath
   id="id21">
        <path
   d="m 17415,7146 c 253,-37 233,-406 233,-406 0,0 11,-658 0,-833 -7,-117 -143,-158 -295,-259 -133,-88 -579,-370 -666,-431 -24,36 -36,69 -36,91 0,54 3,506 5,692 29,5 62,12 100,20 254,54 368,372 431,571 63,199 -4,304 -86,376 -3,2 -6,4 -9,6 8,8 21,22 39,38 49,45 132,110 225,139 22,1 42,0 61,-2 z"
   id="path5391"
   inkscape:connector-curvature="0" />
       </clipPath>
       <clipPath
   id="id22">
        <path
   d="m 17415,7146 c 253,-37 233,-406 233,-406 0,0 11,-658 0,-833 -7,-117 -143,-158 -295,-259 -133,-88 -579,-370 -666,-431 -24,36 -36,69 -36,91 0,54 3,506 5,692 29,5 62,12 100,20 254,54 368,372 431,571 63,199 -4,304 -86,376 -3,2 -6,4 -9,6 8,8 21,22 39,38 49,45 132,110 225,139 22,1 42,0 61,-2 z"
   id="path5394"
   inkscape:connector-curvature="0" />
       </clipPath>
      <clipPath
   id="id23">
       <path
   d="m 17023,7973 c 12,8 23,22 30,37 8,16 13,33 13,49 0,16 -5,27 -13,33 -8,5 -20,4 -32,-5 -13,-9 -24,-23 -31,-40 -8,-16 -12,-34 -11,-50 1,-15 6,-26 14,-30 8,-4 19,-3 31,5 z"
   id="path5397"
   inkscape:connector-curvature="0" />
      </clipPath>
      <clipPath
   id="id24">
       <path
   d="m 17427,8003 c -11,10 -20,24 -25,41 -6,16 -8,34 -7,50 2,16 8,26 17,30 9,4 20,2 31,-9 11,-10 20,-26 26,-43 6,-17 8,-35 5,-50 -3,-15 -9,-25 -18,-28 -9,-3 -19,0 -30,9 z"
   id="path5400"
   inkscape:connector-curvature="0" />
      </clipPath>
      <clipPath
   id="id25">
       <path
   d="m 17480,11619 c -11,10 -20,24 -25,41 -6,16 -8,34 -7,50 2,16 8,26 17,30 9,4 20,2 31,-9 11,-10 20,-26 26,-43 6,-17 8,-35 5,-50 -3,-15 -9,-25 -18,-28 -9,-3 -19,0 -30,9 z"
   id="path5403"
   inkscape:connector-curvature="0" />
      </clipPath>
      <clipPath
   id="id26">
       <path
   d="m 16427,9432 850,3172 z"
   id="path5406"
   inkscape:connector-curvature="0" />
      </clipPath>
      <clipPath
   id="id27">
       <path
   d="m 15518,9958 850,3172 z"
   id="path5409"
   inkscape:connector-curvature="0" />
      </clipPath>
      <clipPath
   id="id28">
       <path
   d="m 14638,9341 -850,3172 z"
   id="path5412"
   inkscape:connector-curvature="0" />
      </clipPath>
      <clipPath
   id="id29">
       <path
   d="m 15545,8830 -850,3172 z"
   id="path5415"
   inkscape:connector-curvature="0" />
      </clipPath>
      <clipPath
   id="id30">
       <path
   d="m 15518,9958 909,-525 z"
   id="path5418"
   inkscape:connector-curvature="0" />
      </clipPath>
      <clipPath
   id="id31">
       <path
   d="m 15725,10713 909,-525 z"
   id="path5421"
   inkscape:connector-curvature="0" />
      </clipPath>
      <clipPath
   id="id32">
       <path
   d="m 15936,11533 909,-525 z"
   id="path5424"
   inkscape:connector-curvature="0" />
      </clipPath>
      <clipPath
   id="id33">
       <path
   d="m 16147,12256 909,-525 z"
   id="path5427"
   inkscape:connector-curvature="0" />
      </clipPath>
      <clipPath
   id="id34">
       <path
   d="m 14398,10177 909,-525 z"
   id="path5430"
   inkscape:connector-curvature="0" />
      </clipPath>
      <clipPath
   id="id35">
       <path
   d="m 14217,10973 909,-525 z"
   id="path5433"
   inkscape:connector-curvature="0" />
      </clipPath>
      <clipPath
   id="id36">
       <path
   d="m 13996,11752 909,-525 z"
   id="path5436"
   inkscape:connector-curvature="0" />
      </clipPath>
      <clipPath
   id="id37">
       <path
   d="m 14638,9341 909,-525 880,616 -909,525 z"
   id="path5439"
   inkscape:connector-curvature="0" />
      </clipPath>
      <clipPath
   id="id38">
       <path
   d="m 21131,25251 v 4697 l -2432,-1703 v -467 l -327,-230 -4,956 187,131 v 616 c 86,139 212,282 395,401 562,364 2059,1446 2059,1446 0,0 222,173 360,103 126,-19 255,-94 359,-171 307,-227 218,-681 219,-1071 1,-1272 4,-4533 0,-5070 -5,-650 -468,-827 -468,-827 l -926,-650 c 0,0 -474,-360 -844,-594 -393,-249 -643,-292 -1099,-126 -13,5 -27,10 -40,15 -105,50 -183,180 -183,455 v 26 l 815,583 v 130 l 1927,1349 z m -1484,3928 c 71,50 135,132 182,225 47,94 76,199 76,294 0,97 -30,164 -79,195 -49,31 -118,24 -193,-29 -75,-53 -142,-140 -189,-239 -46,-97 -73,-205 -69,-299 4,-92 37,-155 86,-181 49,-26 115,-17 186,33 z"
   id="path5442"
   inkscape:connector-curvature="0" />
      </clipPath>
      <clipPath
   id="id39">
       <path
   d="m 18388,23163 -21,5533 c 0,0 21,593 582,957 562,364 2059,1446 2059,1446 0,0 468,364 468,-177 0,-541 -10,-5824 -10,-5824 0,0 94,-572 -447,-926 -541,-354 -1903,-1331 -1903,-1331 0,0 -728,-520 -728,322 z"
   id="path5445"
   inkscape:connector-curvature="0" />
      </clipPath>
        <clipPath
   id="id40">
         <path
   d="m 16500,28465 -459,-322 c 0,0 17,512 -203,921 -220,409 -310,1307 -278,1674 32,367 267,1354 267,1354 168,118 749,557 631,84 -74,-294 -89,-945 37,-1637 126,-693 105,-1228 7,-2074 z"
   id="path5448"
   inkscape:connector-curvature="0" />
        </clipPath>
        <clipPath
   id="id41">
         <path
   d="m 16632,28509 582,-336 c 0,0 -35,433 18,863 52,430 210,1081 210,1511 0,430 71,1553 -96,1650 -94,54 -248,143 -365,211 -243,140 -293,88 -401,-286 -250,-866 125,-1792 125,-2608 0,-388 -72,-1004 -72,-1004 z"
   id="path5451"
   inkscape:connector-curvature="0" />
        </clipPath>
        <clipPath
   id="id42">
         <path
   d="m 16061,28058 528,370 522,-301 -522,-373 -528,305 z"
   id="path5454"
   inkscape:connector-curvature="0" />
        </clipPath>
        <clipPath
   id="id43">
         <path
   d="m 16361,27826 255,-145 235,164 -253,146 -242,-170 6,4 z"
   id="path5457"
   inkscape:connector-curvature="0" />
        </clipPath>
        <clipPath
   id="id44">
         <path
   d="m 16361,28021 -3,-197 240,168 v 191 z"
   id="path5460"
   inkscape:connector-curvature="0" />
        </clipPath>
        <clipPath
   id="id45">
         <path
   d="m 16610,27473 v 0 c 83,0 151,68 151,151 v 96 c 0,83 -68,151 -151,151 v 0 c -83,0 -151,-68 -151,-151 v -96 c 0,-83 68,-151 151,-151 z"
   id="path5463"
   inkscape:connector-curvature="0" />
        </clipPath>
        <clipPath
   id="id46">
         <path
   d="m 16418,27461 c 0,0 223,252 428,182 206,-70 368,-177 398,-263 16,-46 24,-398 27,-716 7,-637 101,-498 -481,-864 -186,-117 -375,-217 -468,-207 -215,22 -326,189 -326,255 0,66 5,751 5,751 0,0 -132,431 416,862 z"
   id="path5466"
   inkscape:connector-curvature="0" />
        </clipPath>
        <clipPath
   id="id47">
         <path
   d="m 16033,25762 c 87,61 533,343 666,431 153,101 288,143 295,259 11,176 0,833 0,833 0,0 23,426 -295,409 l -667,-1933 z"
   id="path5469"
   inkscape:connector-curvature="0" />
        </clipPath>
        <clipPath
   id="id48">
         <path
   d="m 15893,26529 c 42,4 108,15 208,36 254,54 368,372 431,571 63,199 -4,304 -86,376 -82,73 -499,-190 -567,-286 -33,-47 -100,-168 -140,-304 -59,-155 -147,-492 -129,-510 29,-28 87,-64 131,-64 35,0 64,44 140,178 l 13,1 z"
   id="path5472"
   inkscape:connector-curvature="0" />
        </clipPath>
        <clipPath
   id="id49">
         <path
   d="m 16752,25682 c 136,-238 173,-309 217,-309 44,0 102,37 130,65 19,19 -85,396 -145,534 -104,241 -339,-52 -203,-290 z"
   id="path5475"
   inkscape:connector-curvature="0" />
        </clipPath>
        <clipPath
   id="id50">
         <path
   d="m 17042,25908 c 66,-101 111,-124 149,-122 37,2 84,36 107,62 15,17 -41,202 -99,316 -100,199 -345,32 -157,-256 z"
   id="path5478"
   inkscape:connector-curvature="0" />
        </clipPath>
        <clipPath
   id="id51">
         <path
   d="m 17397,25366 c 22,15 48,419 -21,413 -105,-9 -106,4 -140,-38 -79,-97 36,-460 161,-375 z"
   id="path5481"
   inkscape:connector-curvature="0" />
        </clipPath>
        <clipPath
   id="id52">
         <path
   d="m 17174,24843 c 25,19 36,496 -45,486 -123,-16 -125,-1 -163,-52 -88,-118 65,-540 208,-434 z"
   id="path5484"
   inkscape:connector-curvature="0" />
        </clipPath>
        <clipPath
   id="id53">
         <path
   d="m 16061,25513 c -39,-271 -54,-350 -19,-377 35,-27 103,-34 143,-29 27,3 177,364 215,510 18,70 -66,114 -97,136 -83,57 -214,-43 -242,-239 z"
   id="path5487"
   inkscape:connector-curvature="0" />
        </clipPath>
        <clipPath
   id="id54">
         <path
   d="m 15877,24592 c 32,-1 334,369 263,411 -107,63 -99,76 -161,59 -142,-39 -281,-466 -103,-470 z"
   id="path5490"
   inkscape:connector-curvature="0" />
        </clipPath>
        <clipPath
   id="id55">
         <path
   d="m 16406,25438 c 91,-291 114,-377 158,-386 44,-9 107,20 140,46 22,17 -12,456 -46,621 -41,199 -211,211 -269,51 -26,-71 -12,-242 16,-332 z"
   id="path5493"
   inkscape:connector-curvature="0" />
        </clipPath>
        <clipPath
   id="id56">
         <path
   d="m 16694,24430 c 63,44 95,431 -6,519 -34,30 -109,62 -168,-14 -39,-50 -26,-158 -7,-262 28,-158 90,-308 181,-243 z"
   id="path5496"
   inkscape:connector-curvature="0" />
        </clipPath>
        <clipPath
   id="id57">
         <path
   d="m 15443,25863 c -23,21 15,498 95,479 121,-29 124,-14 157,-68 76,-126 -120,-530 -252,-410 z"
   id="path5499"
   inkscape:connector-curvature="0" />
        </clipPath>
        <clipPath
   id="id58">
         <path
   d="m 16848,28049 3,-197 -240,140 v 191 l 237,-133 z"
   id="path5502"
   inkscape:connector-curvature="0" />
        </clipPath>
        <clipPath
   id="id59">
         <path
   d="m 16761,27693 c 253,-37 233,-406 233,-406 0,0 11,-658 0,-833 -7,-117 -143,-158 -295,-259 -133,-88 -579,-370 -666,-431 -24,36 -36,69 -36,91 0,54 3,506 5,692 29,5 62,12 100,20 254,54 368,372 431,571 63,199 -4,304 -86,376 -3,2 -6,4 -9,6 8,8 21,22 39,38 49,45 132,110 225,139 22,1 42,0 61,-2 z"
   id="path5505"
   inkscape:connector-curvature="0" />
        </clipPath>
        <clipPath
   id="id60">
         <path
   d="m 16761,27693 c 253,-37 233,-406 233,-406 0,0 11,-658 0,-833 -7,-117 -143,-158 -295,-259 -133,-88 -579,-370 -666,-431 -24,36 -36,69 -36,91 0,54 3,506 5,692 29,5 62,12 100,20 254,54 368,372 431,571 63,199 -4,304 -86,376 -3,2 -6,4 -9,6 8,8 21,22 39,38 49,45 132,110 225,139 22,1 42,0 61,-2 z"
   id="path5508"
   inkscape:connector-curvature="0" />
        </clipPath>
       <clipPath
   id="id61">
        <path
   d="m 16369,28520 c 12,8 23,22 30,37 8,16 13,33 13,49 0,16 -5,27 -13,33 -8,5 -20,4 -32,-5 -13,-9 -24,-23 -31,-40 -8,-16 -12,-34 -11,-50 1,-15 6,-26 14,-30 8,-4 19,-3 31,5 z"
   id="path5511"
   inkscape:connector-curvature="0" />
       </clipPath>
       <clipPath
   id="id62">
        <path
   d="m 16774,28550 c -11,10 -20,24 -25,41 -6,16 -8,34 -7,50 2,16 8,26 17,30 9,4 20,2 31,-9 11,-10 20,-26 26,-43 6,-17 8,-35 5,-50 -3,-15 -9,-25 -18,-28 -9,-3 -19,0 -30,9 z"
   id="path5514"
   inkscape:connector-curvature="0" />
       </clipPath>
       <clipPath
   id="id63">
        <path
   d="m 16827,32166 c -11,10 -20,24 -25,41 -6,16 -8,34 -7,50 2,16 8,26 17,30 9,4 20,2 31,-9 11,-10 20,-26 26,-43 6,-17 8,-35 5,-50 -3,-15 -9,-25 -18,-28 -9,-3 -19,0 -30,9 z"
   id="path5517"
   inkscape:connector-curvature="0" />
       </clipPath>
       <clipPath
   id="id64">
        <path
   d="m 15774,29979 850,3172 z"
   id="path5520"
   inkscape:connector-curvature="0" />
       </clipPath>
       <clipPath
   id="id65">
        <path
   d="m 14865,30504 850,3172 z"
   id="path5523"
   inkscape:connector-curvature="0" />
       </clipPath>
       <clipPath
   id="id66">
        <path
   d="m 13985,29888 -850,3172 z"
   id="path5526"
   inkscape:connector-curvature="0" />
       </clipPath>
       <clipPath
   id="id67">
        <path
   d="m 14892,29376 -850,3172 z"
   id="path5529"
   inkscape:connector-curvature="0" />
       </clipPath>
       <clipPath
   id="id68">
        <path
   d="m 14865,30504 909,-525 z"
   id="path5532"
   inkscape:connector-curvature="0" />
       </clipPath>
       <clipPath
   id="id69">
        <path
   d="m 15072,31259 909,-525 z"
   id="path5535"
   inkscape:connector-curvature="0" />
       </clipPath>
       <clipPath
   id="id70">
        <path
   d="m 15283,32079 909,-525 z"
   id="path5538"
   inkscape:connector-curvature="0" />
       </clipPath>
       <clipPath
   id="id71">
        <path
   d="m 15494,32803 909,-525 z"
   id="path5541"
   inkscape:connector-curvature="0" />
       </clipPath>
       <clipPath
   id="id72">
        <path
   d="m 13745,30724 909,-525 z"
   id="path5544"
   inkscape:connector-curvature="0" />
       </clipPath>
       <clipPath
   id="id73">
        <path
   d="m 13564,31520 909,-525 z"
   id="path5547"
   inkscape:connector-curvature="0" />
       </clipPath>
       <clipPath
   id="id74">
        <path
   d="m 13343,32299 909,-525 z"
   id="path5550"
   inkscape:connector-curvature="0" />
       </clipPath>
       <clipPath
   id="id75">
        <path
   d="m 13985,29888 909,-525 880,616 -909,525 z"
   id="path5553"
   inkscape:connector-curvature="0" />
       </clipPath>
 </defs>
 <g
   id="Camada_x0020_1"
   transform="translate(-11619.673,-28976.396)">
  <metadata
   id="CorelCorpID_0Corel-Layer" />
  <g
   id="_467352928">
   
   <g
   id="g6040">

    <!--Begin Blue Version-->
    <g
   id="g6038">
     
     
     
     
     
     
     
     
     
     
     
     
     
     
     
     
     
     
     
     
     
     
     
     
     
     
     
     
     
     
     
     
     
     
     
     
     
     
     
     
     
     
     
     
     
     
     
     
     
     
     
     
    <path
   class="fil6"
   d="m 11927.445,32867.311 627,439 c 201,141 308,357 297,602 -11,245 -136,451 -348,574 l -535,309 c -213,123 -338,329 -348,574 -11,245 96,461 297,602 l 1826.999,1279 c 227,159 509,172 749,33 l 1046,-604 c 240,-139 522,-127 749,33 l 1016,711 c 227,159 509,172 749,33 l 2053,-1185 248,174 c 227,159 509,172 749,33 l 4668.001,-2695 c 213,-123 338,-329 348,-574 11,-245 -96,-461 -297,-602 l -4995.001,-3498 c -227,-159 -509,-172 -749,-33 l -4474.999,2584 -349,-244 c -227,-159 -509,-172 -749,-33 z"
   id="path5563"
   inkscape:connector-curvature="0"
   style="clip-rule:evenodd;fill:#1adcff;fill-rule:evenodd;image-rendering:optimizeQuality;shape-rendering:geometricPrecision;text-rendering:geometricPrecision" /></g>
   </g>
  </g>
 </g>
</svg>